<svg id="Capa_1" enable-background="new 0 0 512 512" height="512" viewBox="0 0 512 512" width="512" xmlns="http://www.w3.org/2000/svg"><g><g><g><path d="m255.99 242.396c-7.021 0-13.876-1.522-20.5-4.397v57.833c6.624-2.875 13.478-4.398 20.5-4.398s13.876 1.523 20.5 4.399v-57.833c-6.624 2.874-13.478 4.396-20.5 4.396z" fill="#eab900"/><path d="m195.991 65.166-8.226 20.333 11.267 61.389 30.71 63.611 39.082 30.059h8.874c43.884-17.979 77.295-89.332 80.42-176.467l-1.377-3.467h-167.343z" fill="#ffd500"/><path d="m197.278 64.091 2.253-3.467h-43.416l-2.253 3.467c3.623 101.028 47.958 180.852 102.128 180.852 7.449 0 14.711-1.518 21.708-4.385-43.883-17.979-77.295-89.332-80.42-176.467z" fill="#fbc700"/><circle cx="255.99" cy="125.027" fill="#fff1af" r="26.249"/><path d="m277.365 292.76-4.469.239-19.155 10.25-26.25 31.25h-11l-9.5 9.5h106.833l10.392-6.057c-13.043-22.139-29.096-38.026-46.851-45.182z" fill="#7b6c79"/><path d="m277.365 292.76c-6.894-2.778-14.044-4.243-21.375-4.243-26.21 0-50.118 18.689-68.226 49.426l7.393 6.057h42.75l-7.393-6.057c13.044-22.14 29.097-38.027 46.851-45.183z" fill="#665e68"/><path d="m187.765 29.332v30.167l6.914 4.763h161.686c5.118 0 9.267-4.148 9.267-9.267v-22.466c0-5.118-4.149-9.268-9.267-9.268h-163.209z" fill="#ffe559"/><path d="m189.765 54.995v-22.466c0-5.118 4.149-9.268 9.267-9.268h-43.416c-5.118 0-9.267 4.149-9.267 9.268v22.466c0 5.118 4.149 9.267 9.267 9.267h43.416c-5.118 0-9.267-4.149-9.267-9.267z" fill="#ffd500"/><path d="m336.018 337.943h-122.971l-6.056 6.057v30.5l6.884 4.443h122.144c5.118 0 9.267-4.148 9.267-9.267v-22.466c-.001-5.118-4.15-9.267-9.268-9.267z" fill="#dbedff"/><path d="m209.445 369.676v-22.466c0-5.118 4.149-9.268 9.267-9.268h-42.75c-5.118 0-9.267 4.149-9.267 9.268v22.466c0 5.118 4.149 9.267 9.267 9.267h42.75c-5.118 0-9.267-4.149-9.267-9.267z" fill="#b5dcff"/><path d="m270.574 103.202h-9.25l-5.334 17.297 1.667 18.167 5 5.666 7.916 2.521c7.033-4.709 11.665-12.726 11.665-21.825s-4.631-17.117-11.664-21.826z" fill="#fff1af"/><path d="m258.908 125.027c0-9.1 4.632-17.116 11.665-21.825-4.171-2.793-9.187-4.424-14.583-4.424-14.497 0-26.249 11.752-26.249 26.249s11.752 26.249 26.249 26.249c5.397 0 10.412-1.631 14.583-4.424-7.033-4.708-11.665-12.725-11.665-21.825z" fill="#ffe559"/></g><g><path d="m105.452 415.154c-22.354 0-40.541 18.187-40.541 40.541s18.187 40.541 40.541 40.541 40.541-18.187 40.541-40.541-18.186-40.541-40.541-40.541zm0 66.082c-14.083 0-25.541-11.458-25.541-25.541s11.458-25.541 25.541-25.541 25.541 11.458 25.541 25.541-11.458 25.541-25.541 25.541z"/><path d="m54.669 476.94c-4.204 2.811-9.09 4.297-14.129 4.297-14.083 0-25.54-11.458-25.54-25.541s11.457-25.541 25.54-25.541c5.037 0 9.923 1.485 14.128 4.297 3.443 2.301 8.102 1.377 10.403-2.067s1.376-8.102-2.067-10.403c-6.682-4.466-14.449-6.826-22.464-6.826-22.353-.002-40.54 18.185-40.54 40.539s18.187 40.541 40.54 40.541c8.017 0 15.786-2.361 22.467-6.828 3.443-2.302 4.368-6.96 2.065-10.403-2.301-3.443-6.96-4.369-10.403-2.065z"/><path d="m335.017 439.175c0-13.245-10.775-24.021-24.02-24.021h-19.704c-4.143 0-7.5 3.357-7.5 7.5v66.082c0 4.143 3.357 7.5 7.5 7.5s7.5-3.357 7.5-7.5v-24.117l22.141 28.698c2.533 3.282 7.245 3.884 10.52 1.357 3.279-2.53 3.888-7.24 1.357-10.52l-16.613-21.533c10.751-2.383 18.819-11.987 18.819-23.446zm-24.02 9.02h-12.204v-18.041h12.204c4.974 0 9.02 4.047 9.02 9.021s-4.046 9.02-9.02 9.02z"/><path d="m379.589 419.996c-1.104-2.914-3.896-4.842-7.014-4.842s-5.909 1.928-7.014 4.842l-25.044 66.082c-1.468 3.874.482 8.203 4.355 9.672 3.887 1.469 8.207-.491 9.672-4.355l4.359-11.503h27.342l4.359 11.502c1.469 3.874 5.804 5.821 9.671 4.356 3.874-1.468 5.824-5.798 4.356-9.671zm-15 44.896 7.986-21.074 7.987 21.074z"/><path d="m202.955 415.154c-4.143 0-7.5 3.357-7.5 7.5v40.972l-29.57-45.085c-1.818-2.773-5.241-4.024-8.418-3.073-3.177.949-5.354 3.871-5.354 7.187v66.082c0 4.143 3.357 7.5 7.5 7.5s7.5-3.357 7.5-7.5v-40.972l29.57 45.085c1.815 2.768 5.234 4.024 8.418 3.073 3.177-.949 5.354-3.871 5.354-7.187v-66.082c0-4.142-3.357-7.5-7.5-7.5z"/><path d="m445.765 415.154h-41.825c-4.143 0-7.5 3.357-7.5 7.5s3.357 7.5 7.5 7.5h13.412v58.582c0 4.143 3.357 7.5 7.5 7.5s7.5-3.357 7.5-7.5v-58.582h13.412c4.143 0 7.5-3.357 7.5-7.5s-3.357-7.5-7.499-7.5z"/><path d="m265.406 453.528h-11.499c-4.143 0-7.5 3.357-7.5 7.5s3.357 7.5 7.5 7.5h3.999v1.401c0 6.234-5.072 11.307-11.307 11.307s-11.307-5.072-11.307-11.307v-28.469c0-6.234 5.072-11.307 11.307-11.307 5.097 0 9.586 3.43 10.915 8.34 1.081 3.998 5.204 6.356 9.199 5.279 3.998-1.082 6.362-5.201 5.279-9.199-3.096-11.435-13.538-19.42-25.394-19.42-14.506 0-26.307 11.801-26.307 26.307v28.469c0 14.506 11.801 26.307 26.307 26.307s26.307-11.801 26.307-26.307v-8.901c.001-4.142-3.356-7.5-7.499-7.5z"/><path d="m289.749 125.027c0-18.609-15.14-33.749-33.749-33.749s-33.749 15.14-33.749 33.749 15.14 33.749 33.749 33.749 33.749-15.139 33.749-33.749zm-52.498 0c0-10.338 8.411-18.749 18.749-18.749s18.749 8.411 18.749 18.749-8.411 18.749-18.749 18.749-18.749-8.411-18.749-18.749z"/><path d="m352.795 369.676v-22.466c0-9.246-7.521-16.768-16.767-16.768h-7.585c-12.825-20.584-28.029-35.179-44.443-42.944v-41.523c11.987-5.659 23.312-14.958 33.548-27.587 78.638-13.846 105.075-71.707 113.847-105.243 5.339-20.41-10.103-40.368-31.25-40.368h-34.923c.072-1.228.142-2.456.202-3.688 4.635-2.986 7.718-8.182 7.718-14.094v-22.466c0-9.246-7.521-16.768-16.768-16.768h-82.874c-4.143 0-7.5 3.357-7.5 7.5s3.357 7.5 7.5 7.5h82.874c.975 0 1.768.793 1.768 1.768v22.466c0 .991-.814 1.767-1.768 1.767h-200.749c-.956 0-1.767-.778-1.767-1.767v-22.466c0-.975.793-1.768 1.767-1.768h82.875c4.143 0 7.5-3.357 7.5-7.5s-3.357-7.5-7.5-7.5h-82.875c-9.245 0-16.767 7.521-16.767 16.768v22.466c0 5.912 3.083 11.107 7.718 14.094.06 1.231.13 2.46.202 3.688h-34.923c-21.163 0-36.585 19.974-31.25 40.367 8.771 33.536 35.209 91.397 113.847 105.244 10.236 12.629 21.561 21.928 33.548 27.587v41.523c-16.415 7.766-31.619 22.36-44.443 42.944h-7.585c-9.245 0-16.767 7.521-16.767 16.768v22.466c0 9.245 7.521 16.767 16.767 16.767h62.528c4.143 0 7.5-3.357 7.5-7.5s-3.357-7.5-7.5-7.5h-62.528c-.974 0-1.767-.793-1.767-1.767v-22.466c0-.975.793-1.768 1.767-1.768h160.057c.974 0 1.767.793 1.767 1.768v22.466c0 .974-.793 1.767-1.767 1.767h-62.529c-4.143 0-7.5 3.357-7.5 7.5s3.357 7.5 7.5 7.5h62.528c9.245 0 16.767-7.522 16.767-16.767zm11.246-281.9h36.104c11.323 0 19.588 10.677 16.738 21.572-8.823 33.737-31.104 75.26-86.709 90.83 19.679-32.97 30.056-74.182 33.867-112.402zm-268.924 21.573c-2.853-10.909 5.431-21.572 16.738-21.572h36.104c3.811 38.219 14.188 79.432 33.867 112.402-55.605-15.571-77.886-57.094-86.709-90.83zm101.193 85.777c-21.818-35.005-32.183-82.186-34.57-123.364h188.521c-8.014 138.192-92.618 221.497-153.951 123.364zm72.69 55.947v31.313c-8.754-1.855-17.563-1.79-26 0v-31.313c8.876 1.867 17.666 1.759 26 0zm-67.42 79.37c32.527-45.306 75.472-46.475 108.84 0z"/></g></g><path d="m491.289 448.289c-11.433-3.013-16.759-7.846-16.759-10.163 0-3.771 4.348-7.972 10.587-7.972 6.961 0 12.695 5.637 12.867 5.808 2.875 2.951 7.599 3.03 10.572.167 2.983-2.873 3.073-7.621.2-10.604-1.022-1.062-10.369-10.37-23.64-10.37-14.108 0-25.587 10.305-25.587 22.972 0 10.998 10.183 19.989 27.938 24.668 9.532 2.511 9.532 6.311 9.532 9.364 0 3.314-3.417 8.245-12.829 8.245-4.905 0-8.469-1.703-10.812-3.416-2.498-1.827-5.834-2.001-8.458-.36-4.468 2.793-4.737 9.207-.509 12.353 4.428 3.295 10.956 6.424 19.778 6.424 18.075 0 27.829-11.977 27.829-23.245.002-12.22-6.967-20.251-20.709-23.871z"/></g></svg>