<svg id="Capa_1" enable-background="new 0 0 512 512" height="512" viewBox="0 0 512 512" width="512" xmlns="http://www.w3.org/2000/svg"><g><g><g><g><g><g><g id="XMLID_5077_"><g id="XMLID_5078_"><g id="XMLID_5079_"><g id="XMLID_5080_"><g id="XMLID_5081_"><g id="XMLID_5082_"><g id="XMLID_5083_"><g id="XMLID_5084_"><g id="XMLID_5085_"><g id="XMLID_5086_"><g id="XMLID_5087_"><g id="XMLID_5088_"><g id="XMLID_5089_"><g id="XMLID_5120_"><g id="XMLID_5121_"><circle cx="256" cy="256" fill="#ef4d37" r="256"/></g></g></g></g></g></g></g></g></g></g></g></g></g></g></g></g></g></g></g><path d="m66.168 419.579 52.517 52.517c39.68 25.266 86.788 39.904 137.315 39.904 141.385 0 256-114.615 256-256 0-20.055-2.306-39.57-6.668-58.297l-107.371-107.372-12.143 22.183-47.948-47.948-195.882 36.926.091 81.336 102.173 102.173z" fill="#c62c18"/><g><g><path d="m235.93 208.566h40.139v86.4h-40.139z" fill="#ffba1f"/><path d="m256 208.566h20.07v86.4h-20.07z" fill="#ff9912"/><g><g><path d="m205.712 192.048h-35.996c-22.516 0-41.524-16.123-45.197-38.337l-10.48-63.38h81.034v30h-45.666l4.71 28.485c1.268 7.667 7.828 13.232 15.599 13.232h35.996z" fill="#ffba1f"/></g><g><path d="m342.284 192.048h-35.996v-30h35.996c7.771 0 14.331-5.564 15.599-13.232l4.71-28.485h-45.666v-30h81.034l-10.48 63.38c-3.673 22.214-22.681 38.337-45.197 38.337z" fill="#ff9912"/></g></g><path d="m256 225.557c-40.688 0-74.479-38.258-77.456-87.697l-4.414-73.294h81.87l55.285 64.543z" fill="#ffe029"/><g><path d="m256 225.557c40.688 0 74.479-38.258 77.456-87.697l4.414-73.294h-81.87z" fill="#ffba1f"/></g></g><path d="m66.168 284.253h379.663v135.326h-379.663z" fill="#52525b"/><path d="m256 284.253h189.832v135.326h-189.832z" fill="#2c2c33"/><g><path d="m337.493 327.749-8.552.016-18.405 48.316h10.77l3.781-9.927h16.138l3.748 9.927h10.753zm-8.577 28.34 4.28-11.22 4.231 11.22z" fill="#e0e0e0"/><g><g><path d="m193.234 376.083h-10.066v-48.261l9.494.004 17.491 27.837v-27.911h10.066v47.741h-9.493l-17.492-27.838z" fill="#fff"/></g></g><g><g><path d="m247.384 376.083c-13.325 0-24.165-10.84-24.165-24.165s10.841-24.166 24.165-24.166c4.842 0 9.516 1.428 13.515 4.13l4.17 2.818-5.635 8.34-4.171-2.817c-2.329-1.573-5.053-2.405-7.879-2.405-7.774 0-14.1 6.325-14.1 14.1 0 7.774 6.325 14.099 14.1 14.099 6.32 0 9.599-4.222 10.859-9.066h-10.823v-10.066h21.513v5.033c0 14.227-8.861 24.165-21.549 24.165z" fill="#fff"/></g></g><g><g><path d="m113.935 376.083c-13.325 0-24.165-10.84-24.165-24.165s10.841-24.166 24.165-24.166c4.842 0 9.515 1.428 13.514 4.13l4.17 2.818-5.635 8.34-4.17-2.817c-2.329-1.573-5.053-2.405-7.879-2.405-7.774 0-14.1 6.325-14.1 14.1 0 7.774 6.325 14.099 14.1 14.099 2.866 0 5.272-.849 7.153-2.524.367-.326.718-.689 1.043-1.077l3.233-3.857 7.714 6.466-3.233 3.857c-.639.762-1.333 1.478-2.064 2.129-3.725 3.317-8.514 5.072-13.846 5.072z" fill="#fff"/></g></g><g><g><path d="m398.938 376.081c-6.625 0-12.845-2.67-17.064-7.325l-3.379-3.729 7.458-6.76 3.38 3.729c2.28 2.516 5.871 4.018 9.605 4.018 3.567 0 6.075-2.108 6.439-4.145.488-2.733-3.594-4.465-4.858-4.931-5.942-2.191-11.219-4.54-11.44-4.639-.243-.108-.476-.235-.698-.38-4.117-2.684-6.239-7.391-5.536-12.285.748-5.208 4.552-9.45 9.929-11.07 10.581-3.186 19.287 3.991 19.653 4.299l3.853 3.239-6.477 7.705-3.829-3.219c-.212-.168-5.078-3.957-10.297-2.385-2.318.698-2.778 2.234-2.868 2.862-.063.438-.095 1.482.822 2.24 1.376.602 5.716 2.472 10.373 4.19 9.799 3.614 12.253 10.709 11.283 16.144-1.289 7.21-8.164 12.442-16.349 12.442z" fill="#e0e0e0"/></g></g><path d="m379.881 327.752h-31.197v10.066h10.523v38.265h10.066v-38.265h10.608z" fill="#e0e0e0"/><path d="m287.714 337.818c2.968 0 5.474 2.249 5.474 4.912s-2.507 4.912-5.474 4.912c-.838 0-2.067.004-3.382.009l-.919-1.044-.794.699c-.008-1.74-.015-3.497-.015-4.577 0-.982-.005-2.969-.01-4.912h5.12zm4.817 19.155c6.22-1.964 10.721-7.603 10.721-14.239 0-8.265-6.972-14.984-15.541-14.984h-15.213v48.332h10.066v-15.205l13.38 15.205h13.454z" fill="#e0e0e0"/><g><path d="m156.088 376.083c-13.325 0-24.165-10.84-24.165-24.165s10.841-24.166 24.165-24.166c13.325 0 24.165 10.841 24.165 24.166 0 13.324-10.841 24.165-24.165 24.165zm0-38.265c-7.774 0-14.1 6.325-14.1 14.1 0 7.774 6.325 14.099 14.1 14.099 7.774 0 14.099-6.325 14.099-14.099 0-7.775-6.325-14.1-14.099-14.1z" fill="#fff"/></g></g><g fill="#e0e0e0"><path d="m259.434 343.04 5.635-8.34-4.17-2.818c-1.542-1.042-3.185-1.894-4.899-2.548v11.387z"/><path d="m258.243 356.951c-.461 1.771-1.192 3.459-2.243 4.888v12.514c7.904-3.435 12.933-11.717 12.933-22.435v-5.033h-12.933v10.066z"/></g></g></g></g></svg>