<svg id="Capa_1" enable-background="new 0 0 511.995 511.995" height="512" viewBox="0 0 511.995 511.995" width="512" xmlns="http://www.w3.org/2000/svg"><g><path d="m250.343 47.596-11.314-11.314c-3.124-3.124-3.124-8.19 0-11.314l11.314-11.314c3.124-3.124 8.19-3.124 11.314 0l11.314 11.314c3.124 3.124 3.124 8.19 0 11.314l-11.314 11.314c-3.125 3.124-8.19 3.124-11.314 0z" fill="#ffaa5a"/><path d="m261.657 464.399 11.314 11.314c3.124 3.124 3.124 8.189 0 11.314l-11.314 11.314c-3.124 3.124-8.189 3.124-11.314 0l-11.314-11.314c-3.124-3.124-3.124-8.19 0-11.314l11.314-11.314c3.124-3.124 8.189-3.124 11.314 0z" fill="#ffaa5a"/><g fill="#ff646f"><path d="m431.242 292.318c4.422 0 8-3.578 8-8v-48.868h7.766c4.422 0 8-3.578 8-8s-3.578-8-8-8h-31.406c-4.422 0-8 3.578-8 8s3.578 8 8 8h7.641v48.867c-.001 4.422 3.577 8.001 7.999 8.001z"/><path d="m380.898 219.45c-.008 0-.016 0-.031 0-3.789.016-7.156 2.289-8.633 5.945l-21.359 56.07c-1.57 4.133.5 8.758 4.625 10.328.938.359 1.906.523 2.852.523 3.219 0 6.258-1.961 7.477-5.148l3.357-8.812h23.268l3.313 8.781c1.562 4.141 6.172 6.227 10.305 4.664 4.141-1.562 6.227-6.172 4.664-10.305l-21.244-56.296c-1.438-3.492-4.813-5.75-8.594-5.75zm-5.618 42.907 5.595-14.687 5.541 14.687z"/><path d="m156.812 219.911c-3.344 1.047-5.617 4.141-5.617 7.641v56.766c0 4.422 3.578 8 8 8s8-3.578 8-8v-31.102l23.789 34.445c2.312 3.359 6.172 4.797 9.883 3.633 3.75-1.172 6.18-4.656 6.18-8.969l-.531-54.953c-.039-4.391-3.617-7.922-8-7.922-.023 0-.055 0-.078 0-4.414.047-7.961 3.656-7.922 8.078l.305 31.742-25.039-36.266c-1.993-2.882-5.626-4.116-8.97-3.093z"/><path d="m251.781 235.45c4.094 0 8.047 1.203 11.422 3.484 3.672 2.461 8.633 1.5 11.109-2.156 2.469-3.664 1.508-8.641-2.156-11.109-6.031-4.07-13.078-6.219-20.375-6.219-20.094 0-36.437 16.344-36.437 36.43 0 20.094 16.344 36.437 36.437 36.437 19.164 0 32.547-14.984 32.547-36.437 0-4.422-3.578-8-8-8h-17.016c-4.422 0-8 3.578-8 8s3.578 8 8 8h7.977c-1.914 6.852-6.633 12.437-15.508 12.437-11.266 0-20.437-9.172-20.437-20.437s9.171-20.43 20.437-20.43z"/><path d="m57.375 284.63c1.109-.992 2.148-2.07 3.109-3.219 2.836-3.391 2.375-8.438-1.016-11.266-3.391-2.844-8.445-2.375-11.266 1.016-.461.555-.969 1.07-1.484 1.531-2.703 2.406-6.156 3.625-10.281 3.625-11.265.001-20.437-9.171-20.437-20.437s9.172-20.43 20.437-20.43c4.094 0 8.039 1.203 11.414 3.477 3.656 2.477 8.641 1.508 11.102-2.148 2.477-3.656 1.516-8.633-2.148-11.102-6.023-4.078-13.062-6.227-20.367-6.227-20.094 0-36.438 16.344-36.438 36.43 0 20.094 16.344 36.437 36.437 36.437 8.047.001 15.282-2.656 20.938-7.687z"/><path d="m494.593 248.825c-6.836-2.523-13.203-5.266-15.32-6.187-1.062-.914-1.078-2.125-.977-2.805.117-.836.734-2.883 3.891-3.836 7.57-2.258 14.609 3.289 14.828 3.461 3.391 2.797 8.391 2.344 11.227-1.016 2.844-3.383 2.406-8.43-.977-11.273-.555-.461-13.711-11.336-29.687-6.484-8.187 2.461-13.984 8.93-15.125 16.875-1.07 7.477 2.172 14.664 8.461 18.766.352.227.719.43 1.109.602.328.148 8.188 3.648 17.039 6.914 1.781.656 7.539 3.078 6.883 6.742-.422 2.383-3.516 5.734-9.055 5.734-5.406 0-10.602-2.172-13.891-5.805-2.969-3.273-8.031-3.516-11.305-.555-3.273 2.969-3.523 8.023-.555 11.305 6.367 7.023 15.75 11.055 25.75 11.055 12.414 0 22.852-7.961 24.805-18.922 1.477-8.281-2.234-19.086-17.101-24.571z"/><path d="m341.015 242.232c0-12.562-10.594-22.781-23.617-22.781h-15.117s-.001.003-.002.003c-.005 0-.009-.003-.014-.003-4.422 0-8 3.578-8 8v56.867c0 4.422 3.578 8 8 8s8-3.578 8-8v-13.73l16.742 19.02c1.586 1.797 3.789 2.711 6.008 2.711 1.883 0 3.766-.656 5.289-1.992 3.312-2.922 3.633-7.977.719-11.297l-13.613-15.465c9.072-3.183 15.605-11.502 15.605-21.333zm-23.617 6.773c-1.672 0-4.383.008-7.055.023-.016-2.586-.039-13.578-.039-13.578h7.094c4.133 0 7.617 3.102 7.617 6.781 0 3.673-3.484 6.774-7.617 6.774z"/><path d="m68.844 255.88c0 20.094 16.344 36.437 36.43 36.437 20.094 0 36.437-16.344 36.437-36.437 0-20.086-16.344-36.43-36.437-36.43-20.087 0-36.43 16.344-36.43 36.43zm56.867 0c0 11.266-9.172 20.437-20.437 20.437s-20.43-9.172-20.43-20.437c0-11.266 9.164-20.43 20.43-20.43s20.437 9.165 20.437 20.43z"/></g><path d="m40 199.997h432c4.422 0 8-3.578 8-8s-3.578-8-8-8h-177.683l56.495-91.805c2.312-3.766 1.141-8.695-2.617-11.008-3.789-2.32-8.703-1.141-11.008 2.617l-61.659 100.195h-11.528v-104c0-4.422-3.578-8-8-8s-8 3.578-8 8v104h-11.529l-61.659-100.194c-2.312-3.758-7.234-4.938-11.008-2.617-3.758 2.312-4.93 7.242-2.617 11.008l56.495 91.805h-177.682c-4.422 0-8 3.578-8 8s3.578 7.999 8 7.999z" fill="#ffaa5a"/><path d="m134.375 59.068 7.664 2.297-2.297 7.664c-1.266 4.234 1.133 8.695 5.367 9.961.766.227 1.539.336 2.297.336 3.445 0 6.625-2.234 7.664-5.703l2.297-7.664 7.664 2.297c.766.227 1.539.336 2.297.336 3.445 0 6.625-2.234 7.664-5.703 1.266-4.234-1.133-8.695-5.367-9.961l-7.664-2.297 2.297-7.664c1.266-4.234-1.133-8.695-5.367-9.961-4.258-1.266-8.695 1.133-9.961 5.367l-2.297 7.664-7.664-2.297c-4.25-1.258-8.695 1.133-9.961 5.367-1.266 4.234 1.132 8.695 5.367 9.961z" fill="#ff646f"/><path d="m83.805 117.576 80 49.234c1.312.805 2.758 1.188 4.188 1.188 2.688 0 5.312-1.352 6.82-3.805 2.312-3.766 1.141-8.695-2.617-11.008l-80-49.234c-3.789-2.32-8.703-1.148-11.008 2.617-2.313 3.765-1.141 8.695 2.617 11.008z" fill="#ffe077"/><path d="m64.078 103.997c4.422 0 8-3.578 8-8s-3.578-8-8-8h-.078c-4.422 0-7.961 3.578-7.961 8s3.617 8 8.039 8z" fill="#ffaa5a"/><path d="m208.57 90.966c1.25 3.133 4.258 5.031 7.43 5.031.992 0 2-.18 2.969-.57 4.102-1.641 6.102-6.297 4.461-10.398l-16-40c-1.641-4.117-6.336-6.094-10.398-4.461-4.102 1.641-6.102 6.297-4.461 10.398z" fill="#ffe077"/><path d="m110.906 93.654c1.562 1.562 3.609 2.344 5.656 2.344s4.094-.781 5.656-2.344c3.125-3.125 3.125-8.187 0-11.312l-24-24c-3.125-3.125-8.187-3.125-11.312 0s-3.125 8.187 0 11.312z" fill="#ffeaa5"/><path d="m64.414 149.466c-1.398 4.195.867 8.727 5.055 10.117l24 8c.844.281 1.695.414 2.531.414 3.352 0 6.469-2.117 7.586-5.469 1.398-4.195-.867-8.727-5.055-10.117l-24-8c-4.219-1.398-8.726.868-10.117 5.055z" fill="#ffeaa5"/><path d="m344.672 68.591c.758 0 1.531-.109 2.297-.336l7.664-2.297 2.297 7.664c1.039 3.469 4.219 5.703 7.664 5.703.758 0 1.531-.109 2.297-.336 4.234-1.266 6.633-5.727 5.367-9.961l-2.297-7.664 7.664-2.297c4.234-1.266 6.633-5.727 5.367-9.961s-5.727-6.625-9.961-5.367l-7.664 2.297-2.297-7.664c-1.273-4.234-5.711-6.633-9.961-5.367-4.234 1.266-6.633 5.727-5.367 9.961l2.297 7.664-7.664 2.297c-4.234 1.266-6.633 5.727-5.367 9.961 1.039 3.469 4.218 5.703 7.664 5.703z" fill="#ff646f"/><path d="m419.804 103.951-80 49.234c-3.758 2.312-4.93 7.242-2.617 11.008 1.508 2.453 4.133 3.805 6.82 3.805 1.43 0 2.875-.383 4.188-1.188l80-49.234c3.758-2.312 4.93-7.242 2.617-11.008-2.312-3.766-7.234-4.938-11.008-2.617z" fill="#ffe077"/><path d="m447.921 103.997h.079c4.422 0 7.961-3.578 7.961-8s-3.617-8-8.039-8-8 3.578-8 8 3.578 8 7.999 8z" fill="#ffaa5a"/><path d="m293.031 95.427c.969.391 1.977.57 2.969.57 3.172 0 6.18-1.898 7.43-5.031l16-40c1.641-4.102-.359-8.758-4.461-10.398-4.07-1.641-8.758.344-10.398 4.461l-16 40c-1.642 4.101.358 8.758 4.46 10.398z" fill="#ffe077"/><path d="m395.437 95.997c2.047 0 4.094-.781 5.656-2.344l24-24c3.125-3.125 3.125-8.187 0-11.312s-8.188-3.125-11.312 0l-24 24c-3.125 3.125-3.125 8.187 0 11.312 1.562 1.563 3.609 2.344 5.656 2.344z" fill="#ffeaa5"/><path d="m408.414 162.529c1.117 3.352 4.234 5.469 7.586 5.469.836 0 1.688-.133 2.531-.414l24-8c4.188-1.391 6.453-5.922 5.055-10.117-1.391-4.188-5.898-6.453-10.117-5.055l-24 8c-4.188 1.39-6.454 5.921-5.055 10.117z" fill="#ffeaa5"/><path d="m472 311.997h-432c-4.422 0-8 3.578-8 8s3.578 8 8 8h177.682l-56.495 91.805c-2.312 3.766-1.141 8.695 2.617 11.008 1.312.805 2.758 1.188 4.188 1.188 2.688 0 5.312-1.352 6.82-3.805l61.659-100.195h11.529v104c0 4.422 3.578 8 8 8s8-3.578 8-8v-104h11.529l61.659 100.195c1.508 2.453 4.133 3.805 6.82 3.805 1.43 0 2.875-.383 4.188-1.188 3.758-2.312 4.93-7.242 2.617-11.008l-56.495-91.805h177.682c4.422 0 8-3.578 8-8s-3.579-8-8-8z" fill="#ffaa5a"/><path d="m377.625 452.927-7.664-2.297 2.297-7.664c1.266-4.234-1.133-8.695-5.367-9.961-4.242-1.258-8.695 1.141-9.961 5.367l-2.297 7.664-7.664-2.297c-4.258-1.266-8.695 1.133-9.961 5.367s1.133 8.695 5.367 9.961l7.664 2.297-2.297 7.664c-1.266 4.234 1.133 8.695 5.367 9.961.766.227 1.539.336 2.297.336 3.445 0 6.625-2.234 7.664-5.703l2.297-7.664 7.664 2.297c.766.227 1.539.336 2.297.336 3.445 0 6.625-2.234 7.664-5.703 1.265-4.235-1.133-8.696-5.367-9.961z" fill="#ff646f"/><path d="m428.195 394.419-80-49.234c-3.789-2.328-8.703-1.141-11.008 2.617-2.312 3.766-1.141 8.695 2.617 11.008l80 49.234c1.312.805 2.758 1.188 4.188 1.188 2.688 0 5.312-1.352 6.82-3.805 2.313-3.766 1.141-8.695-2.617-11.008z" fill="#ffe077"/><path d="m447.921 407.997c-4.422 0-8 3.578-8 8s3.578 8 8 8h.079c4.422 0 7.961-3.578 7.961-8s-3.618-8-8.04-8z" fill="#ffaa5a"/><path d="m303.429 421.028c-1.641-4.109-6.336-6.102-10.398-4.461-4.102 1.641-6.102 6.297-4.461 10.398l16 40c1.25 3.133 4.258 5.031 7.43 5.031.992 0 2-.18 2.969-.57 4.102-1.641 6.102-6.297 4.461-10.398z" fill="#ffe077"/><path d="m401.093 418.341c-3.125-3.125-8.188-3.125-11.312 0s-3.125 8.187 0 11.312l24 24c1.562 1.562 3.609 2.344 5.656 2.344s4.094-.781 5.656-2.344c3.125-3.125 3.125-8.187 0-11.312z" fill="#ffeaa5"/><path d="m447.585 362.528c1.398-4.195-.867-8.727-5.055-10.117l-24-8c-4.219-1.414-8.727.867-10.117 5.055-1.398 4.195.867 8.727 5.055 10.117l24 8c.844.281 1.695.414 2.531.414 3.352 0 6.469-2.117 7.586-5.469z" fill="#ffeaa5"/><path d="m165.031 443.739-7.664 2.297-2.297-7.664c-1.266-4.227-5.727-6.625-9.961-5.367-4.234 1.266-6.633 5.727-5.367 9.961l2.297 7.664-7.664 2.297c-4.234 1.266-6.633 5.727-5.367 9.961 1.039 3.469 4.219 5.703 7.664 5.703.758 0 1.531-.109 2.297-.336l7.664-2.297 2.297 7.664c1.039 3.469 4.219 5.703 7.664 5.703.758 0 1.531-.109 2.297-.336 4.234-1.266 6.633-5.727 5.367-9.961l-2.297-7.664 7.664-2.297c4.234-1.266 6.633-5.727 5.367-9.961-1.273-4.234-5.711-6.632-9.961-5.367z" fill="#ff646f"/><path d="m92.195 408.044 80-49.234c3.758-2.312 4.93-7.242 2.617-11.008-2.312-3.758-7.234-4.945-11.008-2.617l-80 49.234c-3.758 2.312-4.93 7.242-2.617 11.008 1.508 2.453 4.133 3.805 6.82 3.805 1.43 0 2.876-.383 4.188-1.188z" fill="#ffe077"/><path d="m64.078 407.997h-.078c-4.422 0-7.961 3.578-7.961 8s3.617 8 8.039 8 8-3.578 8-8-3.578-8-8-8z" fill="#ffaa5a"/><path d="m218.969 416.567c-4.078-1.641-8.758.352-10.398 4.461l-16 40c-1.641 4.102.359 8.758 4.461 10.398.969.391 1.977.57 2.969.57 3.172 0 6.18-1.898 7.43-5.031l16-40c1.639-4.101-.361-8.757-4.462-10.398z" fill="#ffe077"/><path d="m110.906 418.341-24 24c-3.125 3.125-3.125 8.188 0 11.312 1.562 1.562 3.609 2.344 5.656 2.344s4.094-.781 5.656-2.344l24-24c3.125-3.125 3.125-8.187 0-11.312-3.124-3.125-8.187-3.125-11.312 0z" fill="#ffeaa5"/><path d="m103.586 349.466c-1.391-4.188-5.883-6.469-10.117-5.055l-24 8c-4.188 1.391-6.453 5.922-5.055 10.117 1.117 3.352 4.234 5.469 7.586 5.469.836 0 1.687-.133 2.531-.414l24-8c4.188-1.39 6.453-5.922 5.055-10.117z" fill="#ffeaa5"/><path d="m352 199.997h-192c-4.418 0-8-3.582-8-8 0-4.418 3.582-8 8-8h192c4.418 0 8 3.582 8 8 0 4.418-3.582 8-8 8z" fill="#ff646f"/><path d="m352 327.997h-192c-4.418 0-8-3.582-8-8 0-4.418 3.582-8 8-8h192c4.418 0 8 3.582 8 8 0 4.419-3.582 8-8 8z" fill="#ff646f"/></g></svg>