<svg id="Layer_1" enable-background="new 0 0 512 512" height="512" viewBox="0 0 512 512" width="512" xmlns="http://www.w3.org/2000/svg"><g><path d="m425.209 444.179 75.079-158.339c.473-6.219.714-12.502.714-18.842 0-135.311-109.691-245.002-245.002-245.002s-245.002 109.691-245.002 245.002c0 6.34.241 12.623.714 18.842l75.079 158.339c43.982 42.015 103.581 67.821 169.209 67.821s125.227-25.806 169.209-67.821z" fill="#2a428c"/><path d="m235.425 210.256c1.742-.563 3.564-.867 5.414-.867h30.335c1.826 0 3.637.28 5.363.824-4.237-5.153-6.783-11.749-6.783-18.941 0-5.207 1.355-10.088 3.699-14.349-4.24 4.875-10.484 7.962-17.453 7.962s-13.213-3.087-17.453-7.962c2.345 4.261 3.699 9.142 3.699 14.349-.001 7.213-2.562 13.825-6.821 18.984z" fill="#ff8f33"/><path d="m279.127 152.62c-6.605 4.311-14.102 6.57-21.652 6.834.871.719 1.766 1.413 2.71 2.051-1.139 2.543-3.178 8.437-.699 13.907 1.545 3.412 4.547 6.005 8.938 7.751 6.433-4.107 10.703-11.304 10.703-19.503z" fill="#ffc839"/><path d="m232.871 163.66c0 12.773 10.354 23.128 23.128 23.128 5.232 0 10.057-1.739 13.932-4.668-16.527-5.825-7.81-21.149-7.81-21.149-.828-.512-1.619-1.069-2.392-1.648-9.264.82-18.734-1.4-26.858-6.702z" fill="#ffb332"/><path d="m280.358 210.063c-2.74-1.729-5.944-2.578-9.184-2.578h-10.82c-2.634 2.401-8.03 8.211-8.002 15.542.022 5.598 3.191 10.785 9.419 15.419.298.222.584.46.87.7h40.773c-4.173-12.12-12.396-22.356-23.056-29.083z" fill="#ffdd40"/><path d="m208.587 239.146h56.246c-.695-.702-1.415-1.345-2.166-1.903-19.833-14.757 0-29.758 0-29.758h-21.828c-3.427 0-6.772 1.012-9.653 2.868-10.439 6.729-18.485 16.846-22.599 28.793z" fill="#ffc839"/><path d="m429.687 405.518 2.315-61.484 8.467-9.648c-18.412-15.111-8.986-32.463-2.79-40.512l-119.086 15.279c-22.515 2.889-45.18 4.198-67.832 3.957-2.98 5.746-5.259 14.585 2.493 22.337 1.865 1.865 3.587 3.497 5.253 5.075 8.809 8.346 13.66 12.942 13.66 27.479 0 16.689-17.64 37.949-18.919 39.468-.853.743-5.954 5.498-5.575 12.543.196 3.643 1.822 7.196 4.83 10.629 18.126-.118 36.257.667 54.324 2.371l118.383 11.168c.61-.583 1.203-1.183 1.807-1.771-15.918-17.753 2.67-36.891 2.67-36.891z" fill="#ff4155"/><path d="m435.462 294.157c-6.194 8.168-15.191 25.292 3.007 40.228l-8.467 9.648-2.315 61.484s-19.309 19.881-1.713 37.911c11.936-11.503 22.708-24.203 32.123-37.911l8.594-13.419c2.584-4.343 5.037-8.773 7.355-13.285l6.679-14.104c1.392-3.197 2.716-6.43 3.974-9.696l5.279-15.186c5.366-17.258 8.891-35.327 10.31-53.987z" fill="#ff7186"/><path d="m254.314 334.385c-7.438-7.438-4.844-15.963-1.901-21.262-19.711-.144-39.416-1.457-59.007-3.971l-181.694-23.312c1.698 22.323 6.402 43.804 13.684 64.055l8.639 20.918c2.985 6.371 6.234 12.592 9.737 18.649l12.231 19.058c9.114 12.855 19.423 24.803 30.787 35.659l118.385-11.168c16.416-1.549 32.884-2.339 49.354-2.384-11.951-12.4-.215-22.098-.215-22.098s19.353-22.529 19.353-40.529-7.536-21.798-19.353-33.615z" fill="#e80054"/><g><path d="m302.757 56.459c-2.029 0-4.06-.768-5.618-2.306-3.146-3.103-3.18-8.168-.076-11.312l10.441-10.584c8.749-8.867 20.362-13.878 32.701-14.112.052-.001.104-.001.154-.001 4.348 0 7.913 3.482 7.996 7.849.083 4.417-3.43 8.066-7.848 8.15-8.14.153-15.815 3.475-21.614 9.352l-10.441 10.583c-1.565 1.586-3.63 2.381-5.695 2.381z" fill="#ffb332"/></g><g><path d="m298.055 135.941c-3.061 0-5.981-1.766-7.31-4.74-1.802-4.035.009-8.766 4.043-10.566l59.236-26.446c7.183-3.207 12.862-8.946 15.994-16.162 1.76-4.053 6.471-5.91 10.524-4.153 4.053 1.76 5.912 6.472 4.153 10.524-4.729 10.894-13.306 19.56-24.148 24.4l-59.236 26.446c-1.059.473-2.167.697-3.256.697z" fill="#ffc839"/></g><g><path d="m212.898 135.474c-1.09 0-2.197-.224-3.257-.697l-58.191-25.979c-4.035-1.801-5.845-6.531-4.044-10.566 1.801-4.034 6.531-5.845 10.566-4.043l58.191 25.979c4.035 1.801 5.845 6.531 4.044 10.566-1.327 2.975-4.249 4.74-7.309 4.74z" fill="#ffb332"/></g><g><path d="m208.109 55.311c-2.066 0-4.13-.795-5.695-2.381l-9.311-9.437c-5.798-5.877-13.473-9.198-21.613-9.352-4.417-.084-7.931-3.733-7.847-8.15.083-4.418 3.731-7.925 8.15-7.848 12.339.234 23.953 5.245 32.7 14.112l9.311 9.436c3.103 3.146 3.069 8.211-.076 11.313-1.559 1.54-3.59 2.307-5.619 2.307z" fill="#ffb332"/></g><g><path d="m154.707 109.495c-1.09 0-2.198-.224-3.257-.697-22.584-10.083-33.538-35.321-25.479-58.704 6.622-19.211 24.595-31.957 44.905-31.957.306 0 .609.003.917.008 4.417.084 7.931 3.732 7.848 8.149s-3.697 7.917-8.149 7.849c-13.715-.257-25.939 8.246-30.393 21.165-5.338 15.486 1.917 32.202 16.875 38.881 4.034 1.801 5.845 6.532 4.043 10.566-1.329 2.974-4.25 4.74-7.31 4.74z" fill="#ffc839"/></g><g><path d="m337.987 214.447c-1.2 0-2.418-.271-3.564-.843-3.954-1.973-5.561-6.776-3.589-10.729l23.104-46.321c1.973-3.955 6.777-5.557 10.729-3.589 3.954 1.973 5.561 6.776 3.589 10.729l-23.104 46.321c-1.4 2.808-4.228 4.432-7.165 4.432z" fill="#88ce65"/></g><g><path d="m379.534 261.176c-3.784 0-7.147-2.695-7.858-6.55-.802-4.345 2.071-8.517 6.416-9.318l33.426-6.165c4.343-.804 8.517 2.071 9.318 6.416s-2.071 8.517-6.416 9.318l-33.426 6.165c-.49.091-.978.134-1.46.134z" fill="#ffdd40"/></g><g><path d="m364.958 232.44c-2.244 0-4.474-.938-6.056-2.769-2.89-3.342-2.522-8.395.82-11.283l71.378-61.701c3.342-2.893 8.395-2.522 11.283.82 2.89 3.342 2.522 8.395-.82 11.283l-71.378 61.701c-1.511 1.309-3.374 1.949-5.227 1.949z" fill="#49b1f7"/></g><g><path d="m174.011 214.447c-2.938 0-5.765-1.624-7.166-4.432l-23.104-46.321c-1.972-3.953-.365-8.757 3.588-10.729 3.953-1.969 8.758-.365 10.73 3.589l23.104 46.321c1.972 3.953.365 8.757-3.588 10.729-1.146.572-2.364.843-3.564.843z" fill="#88ce65"/></g><g><path d="m132.464 261.176c-.482 0-.97-.043-1.46-.134l-33.426-6.165c-4.345-.802-7.218-4.974-6.416-9.318s4.977-7.221 9.318-6.416l33.426 6.165c4.345.802 7.218 4.974 6.416 9.318-.711 3.854-4.074 6.55-7.858 6.55z" fill="#ffdd40"/></g><g><path d="m147.041 232.44c-1.854 0-3.716-.641-5.228-1.948l-71.379-61.701c-3.343-2.889-3.71-7.94-.821-11.283 2.889-3.342 7.941-3.711 11.284-.82l71.379 61.701c3.343 2.889 3.71 7.94.821 11.283-1.582 1.83-3.813 2.768-6.056 2.768z" fill="#49b1f7"/></g><g><g><path d="m394.435 408.532c-3.142 0-6.101-1.919-7.276-5.033l-15.781-41.815-15.934 41.838c-1.529 4.013-6.021 6.024-10.036 4.5-4.014-1.529-6.028-6.022-4.5-10.036l22.001-57.766c.023-.06.047-.119.071-.178 1.405-3.434 4.71-5.654 8.421-5.656h.005c3.708 0 7.014 2.216 8.421 5.647.028.068.056.138.082.208l21.801 57.768c1.517 4.018-.512 8.505-4.53 10.021-.904.34-1.833.502-2.745.502z" fill="#deeeff"/></g><g><path d="m387.683 394.143h-32.647c-4.295 0-7.777-3.482-7.777-7.777s3.482-7.777 7.777-7.777h32.647c4.295 0 7.777 3.482 7.777 7.777s-3.482 7.777-7.777 7.777z" fill="#deeeff"/></g></g><g><g><path d="m164.784 408.53c-4.295 0-7.777-3.482-7.777-7.777v-58.482c0-3.403 2.213-6.412 5.462-7.425 3.249-1.014 6.78.205 8.714 3.006l26.665 38.613-.331-34.229c-.042-4.295 3.406-7.81 7.701-7.852 4.313-.009 7.81 3.406 7.851 7.702l.548 56.616c0 4.225-2.369 7.648-6.036 8.793-3.597 1.123-7.386-.268-9.653-3.544l-25.368-36.734v33.535c0 4.296-3.481 7.778-7.776 7.778z" fill="#deeeff"/></g></g><g><g><path d="m254.314 408.53c-20.442 0-37.072-16.63-37.072-37.072s16.631-37.073 37.072-37.073c7.428 0 14.597 2.191 20.733 6.336 3.559 2.404 4.495 7.239 2.09 10.798-2.406 3.559-7.24 4.493-10.798 2.09-3.554-2.401-7.712-3.67-12.025-3.67-11.865 0-21.519 9.654-21.519 21.519s9.653 21.518 21.519 21.518c9.596 0 14.596-6.389 16.535-13.741h-8.773c-4.295 0-7.777-3.482-7.777-7.777s3.482-7.777 7.777-7.777h17.527c4.295 0 7.777 3.482 7.777 7.777.001 21.828-13.596 37.072-33.066 37.072z" fill="#deeeff"/></g></g><g fill="#deeeff"><path d="m78.975 386.524c-3.291-2.76-8.197-2.329-10.956.962-.497.592-1.032 1.145-1.591 1.643-2.867 2.553-6.536 3.848-10.906 3.848-4.335 0-8.368-1.3-11.75-3.515 3.788 6.551 7.872 12.908 12.231 19.058 7.989-.104 15.162-2.782 20.768-7.775 1.12-.996 2.184-2.094 3.165-3.264 2.76-3.291 2.33-8.196-.961-10.957z"/><path d="m67.548 353.609c3.559 2.404 8.393 1.468 10.797-2.092 2.404-3.559 1.468-8.393-2.091-10.797-6.136-4.145-13.305-6.336-20.733-6.336-12.402 0-23.393 6.129-30.127 15.509 2.565 7.133 5.45 14.112 8.64 20.921.345-11.566 9.838-20.876 21.486-20.876 4.315 0 8.474 1.27 12.028 3.671z"/></g><g fill="#deeeff"><path d="m463.264 335.636c-8.259 2.489-14.104 9.006-15.252 17.009-1.079 7.52 2.181 14.753 8.508 18.878.344.223.704.42 1.078.587.326.146 7.795 3.468 16.446 6.705 2.373-4.618 4.598-9.323 6.68-14.105-.075-.028-.146-.059-.221-.086-7.119-2.626-13.753-5.484-15.87-6.411-1.368-1.137-1.321-2.701-1.226-3.357.136-.948.832-3.269 4.342-4.326 8.003-2.411 15.473 3.458 15.706 3.646.393.325.81.604 1.242.839 1.92-4.985 3.682-10.049 5.279-15.186-5.063-3.1-15.158-7.675-26.712-4.193z"/><path d="m458.069 386.846c-2.883-3.181-7.8-3.425-10.984-.54-3.182 2.884-3.424 7.801-.54 10.984 3.199 3.529 7.149 6.312 11.552 8.228 3.004-4.374 5.874-8.848 8.595-13.421-3.378-.998-6.407-2.807-8.623-5.251z"/></g><g><g><path d="m438.469 349.939h-32.357c-4.295 0-7.777-3.482-7.777-7.777s3.482-7.777 7.777-7.777h32.357c4.295 0 7.777 3.482 7.777 7.777s-3.482 7.777-7.777 7.777z" fill="#deeeff"/></g><g><path d="m422.225 408.53c-4.295 0-7.777-3.482-7.777-7.777v-56.72c0-4.295 3.482-7.777 7.777-7.777s7.777 3.482 7.777 7.777v56.72c0 4.295-3.482 7.777-7.777 7.777z" fill="#deeeff"/></g></g><g><g><path d="m329.606 408.53c-2.157 0-4.303-.892-5.84-2.639l-24.613-27.964c-2.838-3.224-2.525-8.138.7-10.975 3.223-2.837 8.138-2.524 10.975.7l24.613 27.964c2.838 3.224 2.525 8.138-.7 10.975-1.477 1.3-3.31 1.939-5.135 1.939z" fill="#deeeff"/></g><g><path d="m297.926 408.53c-4.295 0-7.777-3.482-7.777-7.777v-58.591c0-4.295 3.482-7.777 7.777-7.777s7.777 3.482 7.777 7.777v58.591c-.001 4.295-3.483 7.777-7.777 7.777z" fill="#deeeff"/></g><g><path d="m298.052 380.46c-4.273 0-7.749-3.45-7.776-7.728 0 0-.069-11.09-.069-15.343 0-3.475-.039-15.201-.039-15.201-.007-2.067.81-4.052 2.269-5.516s3.441-2.287 5.508-2.287h15.57c13.159 0 23.866 10.319 23.866 23.004s-10.706 23.004-23.866 23.004c-4.309 0-15.411.067-15.414.067-.017 0-.033 0-.049 0zm7.693-30.521c.008 2.952.015 5.959.015 7.45 0 1.749.011 4.662.026 7.476 2.894-.014 5.911-.026 7.728-.026 4.505 0 8.312-3.412 8.312-7.45s-3.807-7.45-8.312-7.45z" fill="#deeeff"/></g></g><g><path d="m117.174 408.53c-20.442 0-37.072-16.63-37.072-37.072s16.631-37.073 37.072-37.073 37.072 16.631 37.072 37.073-16.63 37.072-37.072 37.072zm0-58.591c-11.866 0-21.519 9.654-21.519 21.519s9.653 21.518 21.519 21.518 21.519-9.653 21.519-21.518-9.653-21.519-21.519-21.519z" fill="#deeeff"/></g><path d="m272.407 47.833c-19.799 0-35.907 16.108-35.907 35.908l.002 25.843c.091 1.544 2.437 37.138 23.297 51.641 6.915-.623 13.713-2.933 19.743-6.967 17.261-11.551 37.695-30.496 37.695-55.456 0-20.278 0-37.937 0-50.969z" fill="#ffdd40"/><path d="m194.76 24.271v74.531c0 24.961 20.435 43.905 37.696 55.456 8.911 5.962 19.497 8.199 29.665 6.713-21.879-13.53-24.121-51.476-24.121-51.476v-25.754c0-19.003 15.405-34.408 34.407-34.408h44.83c0-15.631 0-25.062 0-25.062h-61.239z" fill="#ffc839"/><path d="m305.879 237.243h-47.679c-5.255 1.911-9.014 6.935-9.014 12.849 0 5.915 3.76 10.938 9.014 12.85h47.678c7.096 0 12.849-5.753 12.849-12.85.001-7.096-5.752-12.849-12.848-12.849z" fill="#fff6d2"/><path d="m317.238 0h-71.142c-5.009 2.113-8.525 7.07-8.525 12.849s3.517 10.736 8.526 12.849h71.141c7.096 0 12.849-5.752 12.849-12.849s-5.753-12.849-12.849-12.849z" fill="#fff6d2"/><path d="m250.021 250.092c0-7.096 5.752-12.849 12.849-12.849h-56.75c-7.096 0-12.849 5.753-12.849 12.849 0 7.097 5.752 12.85 12.849 12.85h56.75c-7.097-.001-12.849-5.754-12.849-12.85z" fill="#ffea89"/><path d="m238.662 12.849c0-7.097 5.752-12.849 12.848-12.849h-56.75c-7.096 0-12.849 5.752-12.849 12.849s5.752 12.849 12.849 12.849h56.75c-7.096-.001-12.848-5.753-12.848-12.849z" fill="#ffea89"/><g><path d="m377.354 89.214c-1.063 0-2.144-.213-3.181-.663-4.054-1.76-5.913-6.471-4.154-10.523 3.132-7.215 3.444-15.283.881-22.721-4.453-12.918-16.646-21.419-30.393-21.164-4.392.083-8.065-3.431-8.149-7.849-.083-4.417 3.431-8.065 7.849-8.149.305-.005.611-.008.916-.008 20.312 0 38.282 12.745 44.904 31.956 3.87 11.229 3.397 23.411-1.33 34.304-1.309 3.015-4.254 4.817-7.343 4.817z" fill="#ffdd40"/></g><path d="m356.913 490.299c-25.453-21.342-61.253-34.628-100.913-34.628s-75.46 13.286-100.913 34.628c30.775 13.93 64.934 21.701 100.913 21.701s70.138-7.771 100.913-21.701z" fill="#3c58a0"/></g></svg>