<svg id="Capa_1" enable-background="new 0 0 512 512" height="512" viewBox="0 0 512 512" width="512" xmlns="http://www.w3.org/2000/svg"><g><circle cx="256" cy="257.77" fill="#8379c1" r="245"/><g><path d="m432.9 305.56c4.106-15.237 6.31-31.255 6.31-47.79 0-101.184-82.026-183.21-183.21-183.21s-183.21 82.025-183.21 183.21c0 16.535 2.203 32.553 6.31 47.79z" fill="#6e61b6"/></g><g><g><g fill="#fac600"><path d="m191.564 123.584c-27.474-6.28-48.041-30.901-48.041-60.25v-15.774h35.916v-16h-11.439c-2.206 0-4-1.794-4-4h-24.645c-8.73 0-15.832 7.103-15.832 15.832v19.942c0 45.114 36.703 81.817 81.818 81.817h.28c-5.486-6.632-10.199-13.866-14.057-21.567z"/><path d="m372.645 27.56h-24.645c0 2.206-1.794 4-4 4h-11.438v16h35.916v15.774c0 29.35-20.567 53.97-48.041 60.25-3.858 7.701-8.571 14.935-14.057 21.567h.28c45.115 0 81.818-36.703 81.818-81.817v-19.942c-.001-8.73-7.103-15.832-15.833-15.832z"/></g><path d="m271.164 204.56v-30.935c-3.183 1.663-6.453 3.205-9.828 4.585-1.702.696-3.497 1.05-5.336 1.05s-3.634-.354-5.336-1.05c-3.375-1.38-6.645-2.922-9.828-4.585v30.935z" fill="#fac600"/><path d="m178.439 31.56v40.608c0 48.347 29.703 89.733 71.847 106.969 3.662 1.498 7.767 1.498 11.429 0 42.144-17.236 71.847-58.622 71.847-106.969v-40.608z" fill="#fee45a"/><path d="m200.658 72.167v-40.607h-22.219v40.608c0 48.347 29.703 89.733 71.847 106.969 3.662 1.498 7.767 1.498 11.429 0 1.828-.748 3.63-1.545 5.409-2.384-39.264-18.457-66.466-58.327-66.466-104.586z" fill="#fedf30"/></g><path d="m344 32.56h-176c-2.761 0-5-2.239-5-5v-13.329c0-2.761 2.239-5 5-5h176c2.761 0 5 2.239 5 5v13.329c0 2.761-2.239 5-5 5z" fill="#fedf30"/><path d="m203 27.56v-13.33c0-2.761 2.239-5 5-5h-40c-2.761 0-5 2.239-5 5v13.33c0 2.761 2.239 5 5 5h40c-2.761 0-5-2.239-5-5z" fill="#fed402"/></g><path d="m311 278.56v-65c0-5.523-4.477-10-10-10h-90c-5.523 0-10 4.477-10 10v65z" fill="#fedf30"/><path d="m233 278.56v-65c0-5.523 4.477-10 10-10h-32c-5.523 0-10 4.477-10 10v65z" fill="#fed402"/><path d="m330 305.56v-18c0-5.523-4.477-10-10-10h-128c-5.523 0-10 4.477-10 10v18z" fill="#fed402"/><path d="m222 305.56v-18c0-5.523 4.477-10 10-10h-40c-5.523 0-10 4.477-10 10v18z" fill="#fac600"/><path d="m487 430.553h-462c-13.807 0-25-11.193-25-25v-75.993c0-13.807 11.193-25 25-25h462c13.807 0 25 11.193 25 25v75.994c0 13.806-11.193 24.999-25 24.999z" fill="#fe5694"/><path d="m56 405.553v-75.993c0-13.807 11.193-25 25-25h-56c-13.807 0-25 11.193-25 25v75.994c0 13.807 11.193 25 25 25h56c-13.807-.001-25-11.194-25-25.001z" fill="#fd3581"/><g fill="#fff"><path d="m56.177 340.911h18.288c3.59 0 6.5-2.91 6.5-6.5s-2.91-6.5-6.5-6.5h-18.288c-14.709 0-26.677 11.967-26.677 26.677v25.938c0 14.71 11.967 26.677 26.677 26.677h18.288c3.59 0 6.5-2.91 6.5-6.5s-2.91-6.5-6.5-6.5h-18.288c-7.542 0-13.677-6.136-13.677-13.677v-25.938c0-7.541 6.135-13.677 13.677-13.677z"/><path d="m191.747 327.911c-3.59 0-6.5 2.91-6.5 6.5v42.138l-26.342-45.399c-1.476-2.543-4.474-3.778-7.311-3.015-2.838.764-4.811 3.337-4.811 6.276v66.291c0 3.59 2.91 6.5 6.5 6.5s6.5-2.91 6.5-6.5v-42.137l26.342 45.398c1.206 2.079 3.387 3.239 5.628 3.239 1.107 0 2.229-.283 3.256-.879 2.076-1.205 3.23-3.383 3.233-5.622h.005v-66.291c0-3.589-2.911-6.499-6.5-6.499z"/><path d="m349.434 327.911h-5.77c-12.598 0-22.848 10.249-22.848 22.847v49.944c0 3.59 2.91 6.5 6.5 6.5s6.5-2.91 6.5-6.5v-15.881h25.465v15.881c0 3.59 2.91 6.5 6.5 6.5s6.5-2.91 6.5-6.5v-49.944c.001-12.598-10.249-22.847-22.847-22.847zm9.848 43.91h-25.465v-21.063c0-5.43 4.417-9.847 9.848-9.847h5.77c5.43 0 9.848 4.417 9.848 9.847v21.063z"/><path d="m116.707 327.911h-5.667c-12.626 0-22.898 10.271-22.898 22.897v33.495c0 12.626 10.272 22.898 22.898 22.898h5.667c12.626 0 22.898-10.272 22.898-22.898v-33.495c0-12.625-10.272-22.897-22.898-22.897zm9.898 56.393c0 5.458-4.44 9.898-9.898 9.898h-5.667c-5.458 0-9.898-4.44-9.898-9.898v-33.495c0-5.457 4.44-9.897 9.898-9.897h5.667c5.458 0 9.898 4.44 9.898 9.897z"/><path d="m223.759 340.911h25.685c3.59 0 6.5-2.91 6.5-6.5s-2.91-6.5-6.5-6.5h-25.685c-10.631 0-19.28 8.648-19.28 19.279v40.731c0 10.631 8.649 19.28 19.28 19.28h12.905c10.631 0 19.28-8.649 19.28-19.28v-22.915c0-3.59-2.91-6.5-6.5-6.5h-16.318c-3.59 0-6.5 2.91-6.5 6.5s2.91 6.5 6.5 6.5h9.818v16.415c0 3.463-2.817 6.28-6.28 6.28h-12.905c-3.463 0-6.28-2.817-6.28-6.28v-40.731c0-3.462 2.817-6.279 6.28-6.279z"/><path d="m297.996 327.911h-28.376c-3.59 0-6.5 2.91-6.5 6.5v66.291c0 3.59 2.91 6.5 6.5 6.5s6.5-2.91 6.5-6.5v-26.646h7.219l19.269 30.146c1.241 1.94 3.339 3 5.483 3 1.198 0 2.41-.331 3.494-1.024 3.025-1.933 3.91-5.952 1.977-8.978l-14.817-23.183c8.799-.395 15.84-7.656 15.84-16.551v-12.969c-.001-9.144-7.442-16.586-16.589-16.586zm3.588 29.557c0 1.979-1.61 3.589-3.588 3.589h-21.876v-20.146h21.876c1.979 0 3.588 1.609 3.588 3.588z"/><path d="m463.762 361.057h-13.988c-3.164 0-5.738-2.574-5.738-5.738v-8.669c0-3.164 2.574-5.738 5.738-5.738h24.271c3.59 0 6.5-2.91 6.5-6.5s-2.91-6.5-6.5-6.5h-24.271c-10.333 0-18.738 8.406-18.738 18.738v8.669c0 10.332 8.406 18.738 18.738 18.738h13.988c3.164 0 5.738 2.574 5.738 5.738v8.669c0 3.164-2.574 5.738-5.738 5.738h-24.27c-3.59 0-6.5 2.91-6.5 6.5s2.91 6.5 6.5 6.5h24.27c10.333 0 18.738-8.406 18.738-18.738v-8.669c0-10.332-8.406-18.738-18.738-18.738z"/><path d="m421.211 327.911h-40.353c-3.59 0-6.5 2.91-6.5 6.5s2.91 6.5 6.5 6.5h13.677v59.791c0 3.59 2.91 6.5 6.5 6.5s6.5-2.91 6.5-6.5v-59.791h13.676c3.59 0 6.5-2.91 6.5-6.5s-2.91-6.5-6.5-6.5z"/></g><g><path d="m412.534 118.138 12.488 25.303c.729 1.476 2.137 2.5 3.766 2.736l27.924 4.058c4.103.596 5.741 5.638 2.772 8.532l-20.206 19.696c-1.179 1.149-1.717 2.805-1.439 4.427l4.77 27.811c.701 4.086-3.588 7.202-7.258 5.273l-24.976-13.131c-1.457-.766-3.198-.766-4.655 0l-24.976 13.131c-3.67 1.929-7.958-1.187-7.258-5.273l4.77-27.811c.278-1.623-.26-3.278-1.439-4.427l-20.206-19.696c-2.969-2.894-1.331-7.936 2.772-8.532l27.924-4.058c1.629-.237 3.038-1.26 3.766-2.736l12.488-25.303c1.837-3.718 7.138-3.718 8.973 0z" fill="#05e39c"/><g><path d="m401.429 201.194 4.77-27.811c.278-1.623-.259-3.278-1.439-4.427l-20.206-19.696c-.745-.726-1.199-1.587-1.397-2.479l-23.772 3.454c-4.103.596-5.741 5.638-2.772 8.532l20.206 19.696c1.179 1.149 1.717 2.805 1.438 4.428l-4.77 27.811c-.701 4.086 3.588 7.202 7.258 5.273l21.395-11.248c-.634-.984-.939-2.205-.711-3.533z" fill="#0ed290"/></g></g><g><path d="m142.835 198.471 9.061 18.359c.529 1.071 1.551 1.814 2.733 1.985l20.26 2.944c2.977.433 4.165 4.091 2.011 6.19l-14.661 14.291c-.855.834-1.246 2.035-1.044 3.212l3.461 20.179c.508 2.965-2.603 5.226-5.266 3.826l-18.121-9.527c-1.057-.556-2.32-.556-3.378 0l-18.121 9.527c-2.663 1.4-5.774-.861-5.266-3.826l3.461-20.179c.202-1.177-.188-2.379-1.044-3.212l-14.661-14.291c-2.154-2.1-.965-5.758 2.011-6.19l20.26-2.944c1.182-.172 2.204-.914 2.733-1.985l9.061-18.359c1.332-2.698 5.179-2.698 6.51 0z" fill="#fea613"/><g><path d="m134.778 258.733 3.461-20.179c.202-1.177-.188-2.378-1.044-3.212l-14.661-14.291c-.54-.527-.87-1.151-1.014-1.799l-17.248 2.506c-2.977.433-4.165 4.091-2.011 6.19l14.661 14.29c.855.834 1.246 2.035 1.044 3.213l-3.461 20.178c-.508 2.965 2.603 5.226 5.266 3.826l15.523-8.161c-.46-.712-.682-1.598-.516-2.561z" fill="#fe9901"/></g></g><g><path d="m75.942 48.366 9.033 18.303c.527 1.068 1.546 1.808 2.724 1.979l20.199 2.935c2.968.431 4.153 4.078 2.005 6.171l-14.615 14.248c-.853.831-1.242 2.029-1.041 3.203l3.45 20.117c.507 2.956-2.595 5.21-5.25 3.814l-18.066-9.498c-1.054-.554-2.313-.554-3.367 0l-18.066 9.498c-2.654 1.395-5.757-.858-5.25-3.814l3.45-20.117c.201-1.174-.188-2.371-1.041-3.203l-14.615-14.247c-2.147-2.093-.962-5.74 2.005-6.171l20.199-2.935c1.178-.171 2.197-.911 2.724-1.979l9.033-18.303c1.327-2.69 5.162-2.69 6.489-.001z" fill="#fe5694"/><g><path d="m67.91 108.445 3.45-20.117c.201-1.174-.188-2.371-1.041-3.202l-14.616-14.248c-.539-.525-.867-1.148-1.011-1.793l-17.195 2.499c-2.968.431-4.153 4.078-2.005 6.171l14.616 14.247c.853.831 1.242 2.029 1.04 3.203l-3.45 20.117c-.507 2.956 2.596 5.21 5.25 3.814l15.476-8.136c-.459-.711-.679-1.595-.514-2.555z" fill="#fd3581"/></g></g><circle cx="256" cy="91.06" fill="#fed402" r="37.5"/><path d="m243 91.06c0-16.419 10.557-30.364 25.25-35.442-3.84-1.327-7.959-2.058-12.25-2.058-20.711 0-37.5 16.789-37.5 37.5s16.789 37.5 37.5 37.5c4.291 0 8.41-.73 12.25-2.058-14.693-5.078-25.25-19.023-25.25-35.442z" fill="#fac600"/><path d="m285.5 259.56h-59c-2.761 0-5-2.239-5-5v-27c0-2.761 2.239-5 5-5h59c2.761 0 5 2.239 5 5v27c0 2.761-2.239 5-5 5z" fill="#fff"/><path d="m246 254.56v-27c0-2.761 2.239-5 5-5h-24.5c-2.761 0-5 2.239-5 5v27c0 2.761 2.239 5 5 5h24.5c-2.761 0-5-2.239-5-5z" fill="#eaf6ff"/><g><path d="m97.014 176.524c-11.146 4.055-15.994 8.903-20.049 20.049-.963 2.648-4.685 2.648-5.649 0-4.055-11.146-8.903-15.994-20.049-20.049-2.648-.963-2.648-4.685 0-5.649 11.146-4.055 15.994-8.903 20.049-20.049.963-2.648 4.685-2.648 5.649 0 4.055 11.146 8.903 15.994 20.049 20.049 2.648.964 2.648 4.686 0 5.649z" fill="#fff"/><g><path d="m80.035 188.293c-4.055-11.146-8.903-15.994-20.049-20.049-.496-.18-.899-.458-1.209-.795-2.144 1.26-4.61 2.372-7.51 3.427-2.648.963-2.648 4.685 0 5.648 11.146 4.055 15.994 8.903 20.049 20.049.964 2.648 4.685 2.648 5.649 0 1.063-2.921 2.184-5.401 3.455-7.556-.152-.216-.286-.453-.385-.724z" fill="#eaf6ff"/></g></g><g><path d="m452.014 81.244c-11.146 4.055-15.994 8.903-20.049 20.049-.964 2.648-4.685 2.648-5.649 0-4.055-11.146-8.903-15.994-20.049-20.049-2.648-.963-2.648-4.685 0-5.649 11.146-4.055 15.994-8.903 20.049-20.049.963-2.648 4.685-2.648 5.649 0 4.055 11.146 8.903 15.994 20.049 20.049 2.648.964 2.648 4.685 0 5.649z" fill="#fee45a"/><g><path d="m435.035 93.013c-4.055-11.146-8.903-15.994-20.049-20.049-.496-.18-.899-.458-1.209-.795-2.144 1.26-4.61 2.372-7.51 3.427-2.648.963-2.648 4.685 0 5.648 11.146 4.055 15.994 8.903 20.049 20.049.964 2.648 4.685 2.648 5.649 0 1.063-2.921 2.184-5.401 3.455-7.556-.152-.216-.286-.453-.385-.724z" fill="#fed402"/></g></g><g><path d="m403.733 264.244c-11.146 4.055-15.994 8.903-20.049 20.049-.963 2.648-4.685 2.648-5.649 0-4.055-11.146-8.903-15.994-20.049-20.049-2.648-.964-2.648-4.685 0-5.649 11.146-4.055 15.994-8.903 20.049-20.049.964-2.648 4.685-2.648 5.649 0 4.055 11.146 8.903 15.994 20.049 20.049 2.649.964 2.649 4.685 0 5.649z" fill="#fff"/><g><path d="m386.755 276.013c-4.055-11.146-8.903-15.994-20.049-20.049-.496-.18-.899-.458-1.209-.795-2.144 1.26-4.61 2.372-7.51 3.427-2.648.963-2.648 4.685 0 5.648 11.146 4.055 15.994 8.903 20.049 20.049.964 2.648 4.685 2.648 5.649 0 1.063-2.921 2.184-5.401 3.455-7.556-.152-.216-.286-.453-.385-.724z" fill="#eaf6ff"/></g></g></g></svg>