<svg id="Capa_1" enable-background="new 0 0 512 512" height="512" viewBox="0 0 512 512" width="512" xmlns="http://www.w3.org/2000/svg"><g><path d="m227.708 204.26h56.589v51.867h-56.589z" fill="#ffcc36"/><path d="m159.939 256.127h192.127v97.842h-192.127z" fill="#83a8bf"/><path d="m282.214 203.125c-17.019 5.643-35.405 5.643-52.424 0-42.157-13.977-70.615-53.394-70.615-97.807v-95.318h193.655v95.318c0 44.413-28.458 83.83-70.616 97.807z" fill="#ffcc36"/><path d="m261.522 59.778 9.853 19.964 22.032 3.201c5.049.734 7.065 6.938 3.411 10.499l-15.942 15.54 3.764 21.943c.862 5.028-4.415 8.863-8.931 6.489l-19.706-10.36-19.706 10.36c-4.516 2.374-9.794-1.46-8.931-6.489l3.763-21.943-15.942-15.54c-3.653-3.561-1.637-9.766 3.411-10.499l22.032-3.201 9.853-19.964c2.258-4.574 8.781-4.574 11.039 0z" fill="#ffe69b"/><g><path d="m32.229 431.93c5.379 0 10.201 3.596 11.727 8.743 1.568 5.296 7.134 8.316 12.428 6.748 5.296-1.568 8.317-7.133 6.748-12.428-4.022-13.58-16.729-23.063-30.902-23.063-17.77 0-32.227 14.457-32.227 32.228v35.546c0 17.77 14.457 32.227 32.227 32.227 14.139 0 26.839-9.455 30.883-22.992 1.58-5.292-1.428-10.863-6.72-12.444-5.294-1.583-10.863 1.427-12.444 6.72-1.533 5.133-6.352 8.717-11.719 8.717-6.742 0-12.227-5.484-12.227-12.227v-35.546c0-6.744 5.484-12.229 12.226-12.229z"/><path d="m193.195 411.883c-5.522 0-10 4.478-10 10v43.732l-27.709-48.541c-2.249-3.938-6.864-5.872-11.249-4.708-4.384 1.163-7.436 5.131-7.436 9.666v79.945c0 5.522 4.478 10 10 10s10-4.478 10-10v-42.256l25.999 45.546c2.591 4.526 7.521 6.723 12.266 5.459 4.938-1.313 8.129-5.807 8.129-11.448v-77.396c0-5.522-4.478-9.999-10-9.999z"/><path d="m386.482 420.129c-.024-.079-.05-.159-.075-.237-1.588-4.764-5.946-7.962-10.847-7.962-.002 0-.005 0-.008 0-4.903.004-9.262 3.209-10.844 7.978-.021.066-.043.133-.063.2l-24.347 78.873c-1.63 5.277 1.328 10.875 6.605 12.504.982.304 1.976.448 2.952.448 4.271 0 8.227-2.759 9.552-7.054l1.888-6.116h28.324l1.863 6.092c1.616 5.282 7.206 8.253 12.487 6.638s8.253-7.206 6.638-12.487zm-19.012 58.634 8.053-26.087 7.979 26.087z"/><path d="m337.748 442.721c0-16.979-14.341-30.791-31.968-30.791h-18.259c-.004 0-.009 0-.013 0s-.009 0-.013 0c-5.522 0-10 4.478-10 10v80c0 5.522 4.478 10 10 10s10-4.478 10-10v-19.237l22.746 25.844c1.977 2.246 4.736 3.394 7.511 3.394 2.347 0 4.703-.821 6.603-2.493 4.146-3.649 4.549-9.968.9-14.113l-20.332-23.101c13.185-3.799 22.825-15.585 22.825-29.503zm-31.968 10.792c-2.169 0-5.2.013-8.167.028-.021-4.027-.05-17.388-.062-21.611h8.229c6.487 0 11.968 4.941 11.968 10.791s-5.481 10.792-11.968 10.792z"/><path d="m99.172 411.93c-17.645 0-32 14.355-32 32v36c0 17.645 14.355 32 32 32s32-14.355 32-32v-36c0-17.645-14.355-32-32-32zm12 68c0 6.617-5.383 12-12 12s-12-5.383-12-12v-36c0-6.617 5.383-12 12-12s12 5.383 12 12z"/><path d="m240.933 431.93c5.379 0 10.201 3.596 11.727 8.743 1.568 5.296 7.133 8.316 12.428 6.748 5.296-1.568 8.317-7.133 6.748-12.428-4.022-13.58-16.73-23.063-30.902-23.063-17.77 0-32.227 14.457-32.227 32.228v35.546c0 17.77 14.457 32.227 32.227 32.227 14.139 0 26.838-9.455 30.882-22.992.277-.929.418-1.893.418-2.862v-19.547c0-5.522-4.478-10-10-10h-9.257c-5.522 0-10 4.478-10 10 0 5.272 4.081 9.593 9.257 9.973v7.884c-1.871 4.497-6.353 7.543-11.3 7.543-6.742 0-12.227-5.484-12.227-12.227v-35.546c0-6.742 5.484-12.227 12.226-12.227z"/><path d="m450.098 421.86c0-5.522-4.478-10-10-10h-33.402c-5.522 0-10 4.478-10 10s4.478 10 10 10h6.634v70.14c0 5.522 4.478 10 10 10s10-4.478 10-10v-70.14h6.769c5.522 0 9.999-4.477 9.999-10z"/><path d="m489.386 453.24c-9.206-3.58-17.786-7.478-20.532-8.744-2.133-1.855-1.919-4.631-1.793-5.483.209-1.405 1.191-4.833 5.794-6.296 10.184-3.231 19.756 4.711 20.06 4.967 4.134 3.614 10.417 3.22 14.064-.896 3.663-4.133 3.283-10.453-.851-14.116-.729-.646-18.108-15.757-39.328-9.015-10.483 3.33-17.964 11.921-19.522 22.421-1.486 10.019 2.631 19.708 10.746 25.287.447.307.918.577 1.408.808.44.207 10.912 5.122 22.704 9.709 3.317 1.29 10.908 4.962 9.743 11.171-.807 4.304-5.535 8.878-12.706 8.878-6.055 0-11.868-2.102-16.371-5.917-4.212-3.57-10.523-3.05-14.094 1.164-3.57 4.213-3.05 10.523 1.164 14.094 8.11 6.874 18.517 10.659 29.301 10.659 16.014 0 29.625-10.594 32.363-25.189 2.104-11.214-2.61-25.901-22.15-33.502z"/><path d="m152.722 133.432c8.609 33.659 32.383 61.86 64.986 75.793v36.901h-57.77c-5.522 0-10 4.478-10 10v87.842h-21.818c-5.522 0-10 4.478-10 10s4.478 10 10 10h82.882c5.522 0 10-4.478 10-10s-4.478-10-10-10h-41.063v-77.842h172.127v77.842h-41.063c-5.522 0-10 4.478-10 10s4.478 10 10 10h82.882c5.522 0 10-4.478 10-10s-4.478-10-10-10h-21.818v-87.842c0-5.522-4.478-10-10-10h-57.769v-36.902c32.603-13.933 56.376-42.134 64.985-75.793 37.287-3.279 66.634-34.662 66.634-72.786v-30.952c0-5.522-4.478-10-10-10h-53.087v-9.693c0-5.522-4.478-10-10-10h-193.655c-5.522 0-10 4.478-10 10v9.693h-53.087c-5.522 0-10 4.478-10 10v30.953c0 38.125 29.348 69.507 66.634 72.786zm84.987 112.695v-30.599c6.023 1.194 12.158 1.796 18.294 1.796s12.271-.602 18.295-1.796v30.599zm168.208-206.434v20.953c0 25.854-18.579 47.451-43.087 52.143v-7.472-65.624zm-236.742-19.693h173.655v85.317c0 40.181-25.624 75.672-63.762 88.315-14.875 4.932-31.256 4.932-46.131 0-38.138-12.644-63.762-48.135-63.762-88.315zm-63.087 19.693h43.087v65.624 7.472c-24.508-4.691-43.087-26.288-43.087-52.143z"/><path d="m220.384 112.475-2.875 16.762c-1.047 6.105 1.416 12.16 6.428 15.801 5.011 3.642 11.53 4.111 17.013 1.229l15.053-7.914 15.053 7.914c2.385 1.254 4.966 1.873 7.533 1.873 3.336 0 6.649-1.046 9.481-3.104 5.012-3.642 7.474-9.696 6.426-15.8l-2.875-16.762 12.179-11.871c4.436-4.324 6.002-10.67 4.087-16.561-1.914-5.892-6.912-10.104-13.042-10.995l-16.828-2.444-7.526-15.251c-2.741-5.555-8.293-9.006-14.487-9.006s-11.746 3.451-14.487 9.006l-7.526 15.251-16.828 2.444c-6.13.891-11.128 5.104-13.042 10.995-1.915 5.891-.349 12.236 4.088 16.562zm21.683-22.835c3.258-.474 6.073-2.52 7.53-5.471l6.405-12.979 6.405 12.979c1.457 2.951 4.272 4.997 7.53 5.471l14.322 2.081-10.364 10.102c-2.356 2.298-3.432 5.607-2.876 8.852l2.446 14.265-12.811-6.735c-1.456-.766-3.055-1.148-4.653-1.148-1.599 0-3.197.383-4.653 1.148l-12.811 6.735 2.447-14.265c.556-3.244-.52-6.554-2.877-8.852l-10.364-10.102z"/><circle cx="256.003" cy="353.969" r="10"/></g></g></svg>