<svg id="Capa_1" enable-background="new 0 0 512.005 512.005" height="512" viewBox="0 0 512.005 512.005" width="512" xmlns="http://www.w3.org/2000/svg"><g><path d="m451.002 39.057c-8.284 0-15 6.716-15 15l-30 62.005h30c16.569 0 30-13.432 30-30v-32.005c0-8.284-6.715-15-15-15z" fill="#fac75a"/><path d="m436.002 86.063v-32.006h-360c0-8.284-6.716-15-15-15s-15 6.716-15 15v32.005c0 16.568 13.431 30 30 30h135l19.393 19.393c6.791 6.791 16.002 10.607 25.607 10.607s18.815-3.815 25.607-10.607l19.393-19.393h105c16.569.001 30-13.431 30-29.999z" fill="#fce06f"/><path d="m406.002 9.057-60 38.503 60 38.503h30v-77.006z" fill="#608ebf"/><path d="m346.002 9.057-60 38.503 60 38.503h60v-77.006z" fill="#60b5d6"/><path d="m316.002 9.057-60 38.503 60 38.503h30v-77.006z" fill="#fbf0a8"/><path d="m166.002 9.057-60 38.503 60 38.503h150v-77.006z" fill="#fffbdb"/><path d="m136.002 9.057-45 38.503 45 38.503h30v-77.006z" fill="#608ebf"/><path d="m76.002 9.057h60v77.005h-60z" fill="#60b5d6"/><path d="m474.502 175.901-60 60 60 60h30v-120z" fill="#f593ad"/><path d="m7.503 175.901v120h406.999l60-59.844v-60.156z" fill="#faaac0"/><path d="m444.442 206.047h-30l30.07 75.01c16.306-.006 30-15.001 30-44.796 0-16.57-13.5-30.254-30.07-30.214z" fill="#f25e91"/><path d="m444.512 236.261c-.04-16.57-13.5-30.253-30.07-30.213h-346.879c-16.57-.04-30.06 13.643-30.06 30.213 0 29.802 13.43 44.797 30 44.797h377c.009-.007-.39-28.589.009-44.797z" fill="#f57d9f"/><path d="m256.002 146.057v360c99.411 0 180-80.589 180-180s-80.588-180-180-180z" fill="#fac75a"/><path d="m406.002 326.057c0-99.411-67.157-180-150-180-99.411 0-180 80.589-180 180s80.589 180 180 180c82.843 0 150-80.588 150-180z" fill="#fce06f"/><circle cx="256.002" cy="326.057" fill="#fbf0a8" r="120"/><circle cx="256.002" cy="326.057" fill="#fffbdb" r="90"/><path d="m444.502 266.057-30 30v90h30c16.57 0 30-13.43 30-30v-119.31c-.4 16.21-13.689 29.31-30 29.31z" fill="#f57d9f"/><path d="m444.502 266.057v90c0 16.57-13.43 30-30 30h-347c-16.57 0-30-13.43-30-30v-120c0 16.57 13.43 30 30 30z" fill="#f593ad"/><path d="m504.502 166.843h-147.125c-21.263-13.673-45.31-23.094-70.804-27.318.112-.11.229-.213.34-.323l17.196-17.197h131.894c20.678 0 37.5-16.822 37.5-37.5v-32.005c0-12.407-10.094-22.5-22.5-22.5-2.629 0-5.153.458-7.5 1.29v-23.79c0-4.142-3.357-7.5-7.5-7.5h-360c-4.142 0-7.5 3.358-7.5 7.5v23.79c-2.347-.833-4.871-1.29-7.5-1.29-12.407 0-22.5 10.093-22.5 22.5v32.005c0 20.678 16.822 37.5 37.5 37.5h131.894l17.196 17.197c.111.111.227.214.339.323-25.498 4.223-49.55 13.645-70.816 27.318h-147.114c-4.142 0-7.5 3.358-7.5 7.5v120c0 4.142 3.358 7.5 7.5 7.5h22.5v52.657c0 20.678 16.822 37.5 37.5 37.5h13.527c27.777 71.998 97.416 120.005 174.973 120.005 77.559 0 147.199-48.008 174.973-120.005h13.527c20.678 0 37.5-16.822 37.5-37.5v-52.657h22.5c4.143 0 7.5-3.358 7.5-7.5v-120c0-4.142-3.357-7.5-7.5-7.5zm-76-89.838h-75v-62.005h75zm-255-62.005h165v62.005h-165zm62.197 113.595-19.394-19.394c-1.406-1.407-3.314-2.197-5.303-2.197h-135c-12.407 0-22.5-10.093-22.5-22.5v-32.004c0-4.135 3.364-7.5 7.5-7.5s7.5 3.365 7.5 7.5v32.005c0 4.142 3.358 7.5 7.5 7.5h60c4.142 0 7.5-3.358 7.5-7.5s-3.358-7.5-7.5-7.5h-52.5v-62.005h75v69.505c0 4.142 3.358 7.5 7.5 7.5h270c4.143 0 7.5-3.358 7.5-7.5v-32.005c0-4.135 3.364-7.5 7.5-7.5s7.5 3.365 7.5 7.5v32.005c0 12.407-10.094 22.5-22.5 22.5h-135c-1.989 0-3.896.79-5.304 2.197l-19.394 19.394c-5.423 5.423-12.633 8.41-20.303 8.41s-14.879-2.988-20.302-8.411zm179.08 128.405h-50.597c-23.216-37.119-64.266-60-108.179-60-43.914 0-84.963 22.881-108.179 60h-50.612c26.886-63.223 89.395-104.995 158.791-104.995 69.385 0 131.888 41.772 158.776 104.995zm52.24-22.5c-.016 0-.016.649-.016.649-.388 12.114-10.328 21.851-22.5 21.851h-13.545c-6.302-16.332-14.757-31.429-24.971-45.011h38.535c12.381 0 22.47 10.058 22.5 22.427-.001.028-.003.056-.003.084zm-140.678 22.5c-18.347-19.104-43.786-30-70.338-30-26.553 0-51.991 10.896-70.338 30h-19.643c21.102-28.038 54.476-45 89.981-45s68.879 16.962 89.981 45zm-22.938 0h-94.802c13.773-9.664 30.314-15 47.401-15 17.086 0 33.627 5.336 47.401 15zm-235.901-45.011h38.501c-10.214 13.582-18.668 28.679-24.97 45.011h-13.531c-12.407 0-22.5-10.093-22.5-22.481.031-12.435 10.111-22.53 22.5-22.53zm-52.5 74.854v-105h119.39c-5.558 4.73-10.849 9.784-15.837 15.146h-51.071c-20.624 0-37.431 16.801-37.481 37.511v52.343zm241 210.162c-69.398 0-131.91-41.777-158.795-105.005h50.616c23.216 37.119 64.265 60 108.178 60s84.963-22.881 108.179-60h50.616c-26.881 63.228-89.393 105.005-158.794 105.005zm-70.337-105.005c18.347 19.104 43.785 30 70.338 30s51.991-10.896 70.338-30h19.642c-21.102 28.038-54.477 45-89.98 45-35.504 0-68.878-16.962-89.98-45zm22.937 0h94.801c-13.774 9.664-30.314 15-47.4 15-17.087 0-33.628-5.336-47.401-15zm235.9-15h-377c-12.407 0-22.5-10.093-22.5-22.5v-90.02c6.272 4.719 14.064 7.52 22.5 7.52h377c8.435 0 16.227-2.804 22.5-7.53v90.03c0 12.407-10.093 22.5-22.5 22.5zm52.5-90.157h-15v-51.712c.005-.245.019-.488.019-.734-.051-20.646-16.864-37.408-37.481-37.408h-51.105c-4.987-5.362-10.278-10.417-15.836-15.146h119.404v105z"/><path d="m116.048 323.292 24.492-22.513c3.049-2.803 3.249-7.547.446-10.597-2.802-3.049-7.546-3.249-10.597-.446l-19.7 18.108v-13.344c0-4.142-3.358-7.5-7.5-7.5s-7.5 3.358-7.5 7.5v60c0 4.142 3.358 7.5 7.5 7.5s7.5-3.358 7.5-7.5v-15.536l21.698 20.933c1.456 1.404 3.332 2.103 5.207 2.103 1.965 0 3.927-.767 5.398-2.292 2.876-2.981 2.791-7.729-.19-10.605z"/><path d="m249.233 287.887h-16.491c-1.992 0-3.901.792-5.308 2.202s-2.196 3.321-2.192 5.313v57.265c0 .498.051.984.144 1.455.124 1.812.893 3.526 2.191 4.813 1.405 1.395 3.305 2.177 5.284 2.177.527-.002 12.287-.047 16.986-.129 17.614-.308 30.399-15.652 30.399-36.483.001-21.899-12.462-36.613-31.013-36.613zm.352 58.098c-2.129.037-5.853.067-9.25.088-.022-6.869-.05-16.69-.05-21.638 0-4.139-.017-14.399-.029-21.548h8.977c15.241 0 16.013 18.004 16.013 21.613.001 10.558-4.842 21.296-15.661 21.485z"/><path d="m403.917 317.936c-7.37-2.718-14.231-5.679-16.337-6.601-1.634-1.313-1.578-3.142-1.469-3.904.151-1.059.921-3.647 4.772-4.808 8.464-2.552 16.313 3.659 16.513 3.819 3.17 2.627 7.873 2.209 10.527-.948 2.665-3.171 2.256-7.902-.915-10.567-.566-.476-14.06-11.604-30.451-6.666-8.283 2.495-14.144 9.024-15.295 17.039-1.079 7.52 2.181 14.753 8.508 18.878.331.216.679.405 1.04.566.347.155 8.609 3.833 17.915 7.265 2.631.97 8.663 3.708 7.867 8.169-.6 3.353-4.684 6.822-10.481 6.822-5.964 0-11.702-2.404-15.352-6.431-2.782-3.07-7.526-3.301-10.594-.521-3.069 2.782-3.303 7.524-.521 10.594 6.446 7.112 16.34 11.357 26.467 11.357 12.645 0 23.263-8.068 25.247-19.186 1.495-8.364-2.303-19.293-17.441-24.877z"/><path d="m203.53 287c-4.142 0-7.5 3.358-7.5 7.5v41.243c0 2.875-.816 6.584-7.181 9.79-1.959.987-4.087 1.467-6.502 1.467-2.674-.004-4.974-.652-7.057-1.983-4.938-3.156-5.951-5.972-5.951-9.23v-41.287c0-4.142-3.358-7.5-7.5-7.5s-7.5 3.358-7.5 7.5v41.287c0 9.054 4.332 16.412 12.875 21.871 4.499 2.874 9.574 4.335 15.087 4.343 4.792 0 9.251-1.033 13.295-3.07 12.756-6.424 15.434-16.155 15.434-23.187v-41.244c0-4.142-3.358-7.5-7.5-7.5z"/><path d="m325.621 287c-20.678 0-37.5 16.822-37.5 37.5s16.822 37.5 37.5 37.5 37.5-16.822 37.5-37.5-16.823-37.5-37.5-37.5zm0 60c-12.406 0-22.5-10.093-22.5-22.5s10.094-22.5 22.5-22.5 22.5 10.093 22.5 22.5-10.094 22.5-22.5 22.5z"/></g></svg>