<?xml version="1.0" encoding="UTF-8" standalone="yes"?>
<!-- Created with sK1/UniConvertor (http://sk1project.org/) -->
<svg xmlns="http://www.w3.org/2000/svg" xmlns:xlink="http://www.w3.org/1999/xlink"
  width="599pt" height="775pt" viewBox="0 0 599 775"
  fill-rule="evenodd">
<g>
<g>
<path style="stroke:none; fill:#000000" d="M 370.5 22C 369.6 23 368.2 23.6 367.5 23.4C 365.8 22.7 363 25.7 363 28.3C 363 29.5001 362.3 31.4 361.5 32.4C 360.7 33.5 360 35.7 360 37.2C 360 38.8 359.4 40.2 358.8 40.4C 348.8 43.3 340.2 49.3 337 55.7C 336.2 57.2 334.4 60.3 333 62.5C 325.6 73.9 324.9 82.6 329.3 103.2C 331.1 111.2 330.3 116.2 326.6 119.8C 324.3 122.1 323.9 122.2 320.9 121C 317.9 119.7 317.6 119.8 315.4 122.4C 312.7 125.4 312.1 132.9 314.1 137.4C 316 141.6 322.8 145.4 328.3 145.4C 331.6 145.4 333 145.8 333 146.7C 333 150.9 340.4 156 346.5 156C 350.2 156 354 158.1 354.6 160.6C 354.9 161.8 354.3 164.8 353.2 167.3C 351.5 171.2 350.7 171.9 347.9 172.2C 340.5 172.9 338.6 183.1 345.8 183.8C 348.6 184.1 349.1 183.7 350.6 180.3C 351.5 178.2 352.6 175.8 353.1 175C 356.9 168.4 358 165.5 358 162C 358 156.3 355.1 153.7 347.3 152.1C 337.4 150.2 333.9 146.1 337.5 140.7C 338.3 139.4 340.8 134 343 128.5C 349.6 112.2 353.9 108.3 364.2 109.3C 372 110 374.4 111.8 377.8 119.3C 381.2 126.7 388.4 134.5 392.8 135.5C 394.6 135.8 396.2 137 396.5 138C 396.8 139.1 398.5 141.1 400.1 142.5C 406.4 147.7 414.3 144.8 424.5 133.7C 434 123.3 437.7 121.9 443.2 126.5C 446.4 129.2 449 129.5 449.8 127.2C 450 126.4 449.1 126 447.2 126C 445.1 126 444 125.3 443.2 123.6C 442.1 121.2 442.2 121.2 446.1 121.4C 448.7 121.6 449.9 121.3 449.7 120.6C 449.5 120 446.3 119.4 442.1 119.3C 432.8 118.9 428.8 120.9 421.9 129.3C 415.8 136.6 414 138 409.3 139.1C 405.6 139.9 401 138.8 401 137C 401 136.5 402.5 135.4 404.4 134.6C 410 132.3 417 125.1 420.1 118.5C 424.5 109.4 423.7 104.3 417.3 101.3C 412.4 98.8999 409.7 93.3999 407 79.9999C 404.6 68.2999 401.4 60.4 396.8 54.7C 394 51.2 393.9 50.6 395.1 48.4C 396.1 46.4999 396.1 45.2 395.3 42.9C 394.6 41.2 394.6 39.8 395.1 39.4C 396.6 38.4999 396.1 36.1 394.1 34.1C 393 33 392 31.4 391.8 30.4C 391.6 29.4 390.5 28.1 389.4 27.4999C 388.2 26.9 386.2 25.0999 384.8 23.4999C 382.6 20.9999 382 20.7 380.6 21.9C 379.5 22.8 378.6 22.9 377.8 22.3C 375.2 20.3 372.1 20.2 370.5 22zM 377.9 24.7C 378.8 26.4 378.9 26.4 380.7 24.7C 383 22.7 385 24.1 385 27.6C 385 29.5001 385.5 29.8 387.8 29.7C 390.2 29.5 390.5 29.8 390.2 32.2C 390 34.4 390.3 35 392 35C 394.3 35 394.8 37.8 392.8 39.8C 391.9 40.7 391.9 41.3 392.8 42.2C 394.3 43.7 394.4 47.6 393 48.5C 392.4 48.8 390.6 48.1 388.9 46.9C 383.1 42.8 374.9 40 368.3 40C 362 40 362 40 362 37.1C 362 35.5 362.6 34 363.2 33.8C 363.9 33.5 364.5 31.9 364.6 30.1C 364.8 26.4 366.3 25 369 25.7C 370 25.9999 371 25.4999 371.3 24.6C 372.1 22.5 376.7 22.6 377.9 24.7zM 364.3 51.4C 373.8 54.8 380.4 62.5 386 76.6C 390.9 88.9 393.6 93.5001 398.6 97.9C 403.7 102.4 409.6 104.5 414.5 103.6C 418.3 102.9 421.3 105.5 421.3 109.5C 421.3 117.3 410.1 130.6 401.6 133C 394.6 134.9 391 133.7 385.3 127.7C 380.2 122.3 379.4 120.5 374.1 102.5C 370.3 89.3 359.3 75.9001 351.2 74.5001C 346.2 73.7001 342.3 74.5001 339 77.0001C 335.5 79.7001 337.1 80.5001 341.1 78.1C 346.8 74.6 353.9 75.7 359.4 80.8C 364.5 85.6 370.3 95.2001 372.6 102.7C 373.8 106.7 374.8 110 374.7 110C 374.6 110 372.7 109.3 370.5 108.5C 364.7 106.4 357.4 106.6 353.6 108.9C 349 111.8 346.1 116.2 341 128.5C 337.3 137.3 335.8 139.9 333.1 141.7C 328.7 144.6 325.7 144.6 320.4 141.5C 315.6 138.7 313.4 134 314.4 128.5C 315.3 124.1 317.4 122.5 322.8 122.5C 326.5 122.5 327.6 122 329.3 119.8C 332 116.1 332.5 108.8 330.5 101.1C 323.9 75.5001 332.7 56.1 353.5 51.0001C 357.9 49.8 360.1 49.9 364.3 51.4zM 433.4 122.9C 431.8 123.9 427.5 127.9 424.1 131.8C 414.5 142.6 406.2 145.7 400.6 140.5C 399.2 139.2 398 137.5 398 136.8C 398 136.1 399.1 136.8 400.4 138.5C 402.4 141 403.4 141.4 406.8 141.3C 412.6 141 415.7 139.1 422.4 131.5C 428 125.2 433.2 121 435.5 121C 436.1 121 435.1 121.8 433.4 122.9zM 344 153.4C 344.8 153.7 344.2 153.8 342.5 153.4C 340.9 153.1 338.8 152.2 338 151.3C 336.6 149.9 336.8 149.9 339.5 151.3C 341.2 152.1 343.2 153 344 153.4zM 350.2 177C 349.6 182.6 343 185 343 179.6C 343 176.5 345.6 173.8 348.4 174.2C 350 174.4 350.4 175.1 350.2 177z"/>
<path style="stroke:none; fill:#000000" d="M 84 23.4C 83.4 24.2 82.3 24.7 81.6 24.4C 79.8 23.7 77 26.7 77 29.3C 77 30.5 76.3 32.4 75.5 33.4C 74.7 34.4999 74 36.6 74 38.2C 74 40.2 73.5 40.9999 72.3 40.9999C 68.9 40.9999 60.5 45.7999 56.9 49.5999C 53.2 53.5999 45.9 65.3999 44.1 70.2999C 41.8 76.3999 41.7 86.0999 43.9 95.9999C 46.5 107.7 46.5 110.6 44 114.8C 41.6 118.7 39.4 119.7 36.9 118.2C 34.1 116.4 33.1 116.7 31 120.2C 28.8 123.8 28.4 129.3 30 133.4C 31.5 137.4 39.7 142.2 44 141.7C 47.1 141.3 47.7 141.6 49 144.3C 51.1 148.6 54.7 150.9 60.5 151.6C 63.3 152 66.3 153 67.3 153.8C 69.4 155.6 69.5 159.5 67.5 163.4C 66.7 164.9 66.2 166.5 66.5 166.9C 66.7 167.3 65.3 167.6 63.3 167.6C 56.5 167.4 53.2 177 59.6 178.6C 62.7 179.4 65.6 177 66.6 172.6C 67 170.9 68.1 168.5 69.1 167.2C 74.2 160.6 73.5 151.9 67.6 149.5C 65.9 148.8 62.6 147.9 60.3 147.5C 52.7 146.3 48.4 140.4 52.5 137C 53.3 136.4 55.3 132.1 57 127.7C 64.1 109.3 69.6 104.5 80.7 107C 86.7 108.4 88.6 110.1 91.7 117C 94.5 123.5 101.1 130.5 105.6 132C 107.4 132.6 109.2 134 109.5 135C 110.4 137.9 115.4 141 118.9 141C 125.2 141 128.7 138.5 140.1 125.9C 144.8 120.7 150.3 119.5 153.5 123C 154.5 124.1 156.6 125 158.1 125C 160.3 125 161.1 124.4 161.6 122.5C 162.7 118.2 159.9 116.2 152.7 116.2C 149.4 116.2 145.5 116.6 144.1 117.1C 142.6 117.6 137.9 121.8 133.5 126.4C 124.9 135.4 120.6 137.5 115.4 135.1C 112 133.6 112.4 132.8 117.4 130.7C 125.8 127.2 133.9 115.8 134 107.5C 134 102.6 133.1 101.1 128.9 99.0999C 124.2 96.8998 122.4 92.9999 119.4 79.4999C 116.4 65.7999 114.6 61.1999 109.8 54.9999C 106.6 50.6999 106.4 50.1999 107.8 48.1999C 109 46.3999 109.1 45.3999 108.1 43.3999C 107.4 41.6999 107.3 40.2999 108 38.9999C 108.7 37.6999 108.5 36.5999 107.1 34.8999C 106.2 33.5999 105 31.6999 104.7 30.6999C 104.3 29.7999 103.2 28.6999 102.3 28.2999C 101.3 27.9999 99.3 26.2999 97.9 24.5999C 95.8 22.1998 95 21.7999 93.8 22.6998C 92.9 23.4998 91.9 23.5999 91 22.9998C 88.8 21.5998 85.4 21.7999 84 23.4zM 90.9 25.7C 91.7 27.1 92.1 27.2 93.4 26.1C 95.4 24.4 98 25.4 98 27.9C 98 29.3 98.8 29.9999 100.8 30.2C 103.1 30.4999 103.5 30.9 103.2 33.4C 103 35.6 103.2 36.1 104.4 35.7C 106.7 34.7999 107.4 36.7999 105.9 39.7999C 104.8 41.7999 104.8 42.3999 105.8 42.7C 107.2 43.2 107.4 45.9 106.1 47.9C 105.3 49.1 104.5 48.9 101.3 46.7C 95.5 42.7 90.4 40.9 82.9 40.2999C 76.5 39.7999 76 39.4999 76 37.3999C 76 36.0999 76.6 34.6999 77.4 34.2999C 78.2 33.8999 79 31.8999 79.2 29.9999C 79.5 26.9 79.8 26.4999 82.1 26.7999C 83.8 26.8999 85 26.4999 85.4 25.4999C 86.1 23.4999 89.7 23.5999 90.9 25.7zM 95 45.2C 101.7 48.2 108.6 54.7999 112.2 61.4999C 113.6 64.2999 116.2 72.4999 117.9 79.9C 119.6 87.3 121.7 94.4 122.6 95.8C 123.4 97.1 123.9 98.4 123.6 98.7C 122.2 100.2 115.4 97.5 111.6 94C 107.6 90.3 106.5 88.3 98.5 70.6C 94.1 60.7 89.6 55.2 83.4 51.8C 74.9 47.3 69.5 47.3 59.8 52C 52.1 55.7 58 49.5 66 45.5C 71.8 42.5 74.2 42 82 42.3C 87.5 42.6 91.1 43.2999 95 45.2zM 78.6 51.4999C 87.6 54.2 93.3 61.2999 100.6 78.7999C 107 94.3999 114.5 101.4 124.5 101.2C 133.2 101 135.1 105.1 130.4 114.4C 124.5 126.2 113 133.1 104.9 129.7C 97.6 126.7 92.4 118.3 88.5 102.9C 85 89.4999 75.4 76.3 67.3 73.9999C 62.5 72.4999 57.5 73.2999 54 75.9999C 50.5 78.7 52.1 79.4999 56.1 77.0999C 60.3 74.4999 65.5 74.3999 70 76.7999C 76.7 80.2999 85.1 93.8999 87.5 104.8L 88.2 108.2L 85.3 106.7C 80 104 74.2 103.7 69.5 106C 64.2 108.6 61 113.1 56.5 124.4C 52.1 135.1 51.4 136.3 47.9 138.4C 43.9 140.8 39.8 140.4 35.3 137.1C 30.4 133.6 29.2 128.6 31.9 123C 33.4 119.6 33.7 119.5 38.2 119.8C 42.2 120.1 43.1 119.8 44.5 117.7C 47.9 112.5 48.2 109.1 45.9 98.6C 42 80.7 44.3 68.4 53 59.2C 57.5 54.6 65.9 50.5 72.1 50.1C 72.9 50.0001 75.9 50.6999 78.6 51.4999zM 160 119.5C 160.6 120.3 160.9 121.4 160.5 122C 159.4 123.8 155.3 123.1 153.8 120.7C 152.3 118.6 152.4 118.5 155.5 118.3C 157.4 118.1 159.3 118.6 160 119.5zM 136.5 127.4C 132.1 132 127.1 136.5 125.3 137.4C 120.4 139.8 115.7 139.5 112.6 136.3C 111.2 134.9 110.2 133.5 110.4 133.3C 110.6 133.1 111.9 134 113.3 135.4C 114.8 136.8 116.7 138 117.7 138C 123.1 138 126.8 135.7 134.5 127.5C 138.9 122.8 143 119 143.5 119C 144.1 119 140.9 122.8 136.5 127.4zM 58.9 149.8C 58 150.2 52.3 147.4 51.6 146.2C 51.3 145.7 53 146.3 55.4 147.4C 57.7 148.6 59.3 149.6 58.9 149.8zM 64.7 170.6C 65.6 173.1 63 177 60.3 177C 58.5 177 58 176.4 58 174.6C 58 170.2 63.3 167 64.7 170.6z"/>
<path style="stroke:none; fill:#000000" d="M 509 23.4C 508.4 24.2 507.3 24.7 506.6 24.4C 504.8 23.7 502 26.7 502 29.3C 502 30.5 501.3 32.4 500.5 33.4C 499.7 34.4999 499 36.6 499 38.2C 499 40.2 498.5 40.9999 497.3 40.9999C 493.9 40.9999 485.5 45.7999 481.9 49.5999C 478.2 53.5999 470.9 65.3999 469.1 70.2999C 466.8 76.3999 466.7 86.0999 468.9 95.9999C 471.5 107.7 471.5 110.6 469 114.8C 466.6 118.7 464.4 119.7 461.9 118.2C 459.1 116.4 458.1 116.7 456 120.2C 453.8 123.8 453.4 129.3 455 133.4C 456.5 137.4 464.7 142.2 469 141.7C 472.1 141.3 472.7 141.6 474 144.3C 476.1 148.6 479.7 150.9 485.5 151.6C 488.3 152 491.3 153 492.3 153.8C 494.4 155.6 494.5 159.5 492.5 163.4C 491.7 164.9 491.2 166.5 491.5 166.9C 491.7 167.3 490.3 167.6 488.3 167.6C 481.5 167.4 478.2 177 484.6 178.6C 487.7 179.4 490.6 177 491.6 172.6C 492 170.9 493.1 168.5 494.1 167.2C 499.2 160.6 498.5 151.9 492.6 149.5C 490.9 148.8 487.6 147.9 485.3 147.5C 477.7 146.3 473.4 140.4 477.5 137C 478.3 136.4 480.3 132.1 482 127.7C 489.1 109.3 494.6 104.5 505.7 107C 511.7 108.4 513.6 110.1 516.7 117C 519.5 123.5 526.1 130.5 530.6 132C 532.4 132.6 534.2 134 534.5 135C 535.4 137.9 540.4 141 543.9 141C 550.2 141 553.7 138.5 565.1 125.9C 569.8 120.7 575.3 119.5 578.5 123C 579.5 124.1 581.6 125 583.1 125C 585.3 125 586.1 124.4 586.6 122.5C 587.7 118.2 584.9 116.2 577.7 116.2C 574.4 116.2 570.5 116.6 569.1 117.1C 567.6 117.6 562.9 121.8 558.5 126.4C 549.9 135.4 545.6 137.5 540.4 135.1C 537 133.6 537.4 132.8 542.4 130.7C 550.8 127.2 558.9 115.8 559 107.5C 559 102.6 558.1 101.1 553.9 99.0999C 549.2 96.8998 547.4 92.9999 544.4 79.4999C 541.4 65.7999 539.6 61.1999 534.8 54.9999C 531.6 50.6999 531.4 50.1999 532.8 48.1999C 534 46.3999 534.1 45.3999 533.1 43.3999C 532.4 41.6999 532.3 40.2999 533 38.9999C 533.7 37.6999 533.5 36.5999 532.1 34.8999C 531.2 33.5999 530 31.6999 529.7 30.6999C 529.3 29.7999 528.2 28.6999 527.3 28.2999C 526.3 27.9999 524.3 26.2999 522.9 24.5999C 520.8 22.1998 520 21.7999 518.8 22.6998C 517.9 23.4998 516.9 23.5999 516 22.9998C 513.8 21.5998 510.4 21.7999 509 23.4zM 515.9 25.7C 516.7 27.1 517.1 27.2 518.4 26.1C 520.4 24.4 523 25.4 523 27.9C 523 29.3 523.8 29.9999 525.8 30.2C 528.1 30.4999 528.5 30.9 528.2 33.4C 528 35.6 528.2 36.1 529.4 35.7C 531.7 34.7999 532.4 36.7999 530.9 39.7999C 529.8 41.7999 529.8 42.3999 530.8 42.7C 532.2 43.2 532.4 45.9 531.1 47.9C 530.3 49.1 529.5 48.9 526.3 46.7C 520.5 42.7 515.4 40.9 507.9 40.2999C 501.5 39.7999 501 39.4999 501 37.3999C 501 36.0999 501.6 34.6999 502.4 34.2999C 503.2 33.8999 504 31.8999 504.2 29.9999C 504.5 26.9 504.8 26.4999 507.1 26.7999C 508.8 26.8999 510 26.4999 510.4 25.4999C 511.1 23.4999 514.7 23.5999 515.9 25.7zM 520 45.2C 526.7 48.2 533.6 54.7999 537.2 61.4999C 538.6 64.2999 541.2 72.4999 542.9 79.9C 544.6 87.3 546.7 94.4 547.6 95.8C 548.4 97.1 548.9 98.4 548.6 98.7C 547.2 100.2 540.4 97.5 536.6 94C 532.6 90.3 531.5 88.3 523.5 70.6C 519.1 60.7 514.6 55.2 508.4 51.8C 499.9 47.3 494.5 47.3 484.8 52C 477.1 55.7 483 49.5 491 45.5C 496.8 42.5 499.2 42 507 42.3C 512.5 42.6 516.1 43.2999 520 45.2zM 503.6 51.4999C 512.6 54.2 518.3 61.2999 525.6 78.7999C 532 94.3999 539.5 101.4 549.5 101.2C 558.2 101 560.1 105.1 555.4 114.4C 549.5 126.2 538 133.1 529.9 129.7C 522.6 126.7 517.4 118.3 513.5 102.9C 510 89.4999 500.4 76.3 492.3 73.9999C 487.5 72.4999 482.5 73.2999 479 75.9999C 475.5 78.7 477.1 79.4999 481.1 77.0999C 485.3 74.4999 490.5 74.3999 495 76.7999C 501.7 80.2999 510.1 93.8999 512.5 104.8L 513.2 108.2L 510.3 106.7C 505 104 499.2 103.7 494.5 106C 489.2 108.6 486 113.1 481.5 124.4C 477.1 135.1 476.4 136.3 472.9 138.4C 468.9 140.8 464.8 140.4 460.3 137.1C 455.4 133.6 454.2 128.6 456.9 123C 458.4 119.6 458.7 119.5 463.2 119.8C 467.2 120.1 468.1 119.8 469.5 117.7C 472.9 112.5 473.2 109.1 470.9 98.6C 467 80.7 469.3 68.4 478 59.2C 482.5 54.6 490.9 50.5 497.1 50.1C 497.9 50.0001 500.9 50.6999 503.6 51.4999zM 585 119.5C 585.6 120.3 585.9 121.4 585.5 122C 584.4 123.8 580.3 123.1 578.8 120.7C 577.3 118.6 577.4 118.5 580.5 118.3C 582.4 118.1 584.3 118.6 585 119.5zM 561.5 127.4C 557.1 132 552.1 136.5 550.3 137.4C 545.4 139.8 540.7 139.5 537.6 136.3C 536.2 134.9 535.2 133.5 535.4 133.3C 535.6 133.1 536.9 134 538.3 135.4C 539.8 136.8 541.7 138 542.7 138C 548.1 138 551.8 135.7 559.5 127.5C 563.9 122.8 568 119 568.5 119C 569.1 119 565.9 122.8 561.5 127.4zM 483.9 149.8C 483 150.2 477.3 147.4 476.6 146.2C 476.3 145.7 478 146.3 480.4 147.4C 482.7 148.6 484.3 149.6 483.9 149.8zM 489.7 170.6C 490.6 173.1 488 177 485.3 177C 483.5 177 483 176.4 483 174.6C 483 170.2 488.3 167 489.7 170.6z"/>
<path style="stroke:none; fill:#000000" d="M 226.1 24.4C 225.4 25.2 223.9 25.9999 222.7 26.2C 221.3 26.4 220.2 27.6 219.6 29.4999C 219.1 31.0999 218.1 33.9999 217.3 35.7C 216.5 37.4999 216 39.7 216.2 40.6C 216.4 41.8 215.3 42.6 212.3 43.5C 203.9 46 199.5 49.8 193.6 60C 184.8 74.9 183.6 81.9 187 98.9C 189.4 111 189.2 115.2 185.9 119.4C 183.7 122.2 181.1 122.7 179.2 120.8C 178.2 119.8 177.4 120.2 175.2 122.3C 172.9 124.7 172.5 125.8 172.5 131C 172.6 135.9 173 137.4 175 139.6C 178.5 143.3 182.7 145.2 187.2 145.2C 189.8 145.1 191 145.6 191 146.5C 191 149.5 196.4 153.9 201.5 155.1C 210.4 157.1 211 157.5 211 161.7C 211 166.5 207.7 172.2 205.5 171.4C 201.5 169.8 197.1 178.7 200.2 181.8C 202.7 184.3 206 183.2 207.6 179.2C 208.5 177.2 209.7 174.6 210.3 173.5C 214.2 166.4 215 164.2 215 161.4C 215 156.5 211.8 153.3 205.5 151.9C 195 149.6 191.7 145.7 195.6 140.2C 196.5 138.9 198.5 134.3 200.1 129.9C 204.1 119 205.3 116.8 209.4 113.2C 213.6 109.5 217.6 108.5 222.9 110C 228.2 111.4 231.3 114.4 233.4 120.2C 235.6 126.1 242.1 133.5 246.5 135.1C 248.4 135.8 250.2 137.2 250.5 138.2C 251.4 140.8 256.8 145 259.3 145C 263.1 144.9 269.4 141.4 273 137.4C 283.1 126.2 285.7 124 288.8 124C 290.9 124 292.3 124.7 293 125.9C 293.5 127 294.8 128.1 295.9 128.5C 300.4 129.9 303.3 125.6 300.6 121.5C 299.2 119.3 298.4 119.2 292.2 119.4C 283.8 119.7 279.9 121.8 273.9 129.6C 271.6 132.6 268.6 136 267.2 137.1C 264.2 139.4 256.8 139.7 255 137.5C 254 136.3 254.5 135.8 257.7 134.5C 263.2 132.2 268.8 126.4 272.1 119.5C 276.5 110.3 275.6 105 269.1 101.7C 265.2 99.8 263.1 95.1001 260.4 82.3C 257.5 68.2001 256 64.1 251.3 57.6C 248.5 53.7 248 52.3 248.8 51.0001C 250.4 48.4001 249.6 36.9001 247.8 35.6C 246.9 35.0001 246.1 33.6 245.9 32.6C 245.7 31.6 244.6 30.2 243.5 29.6C 242.5 29.0001 240.8 27.5001 239.8 26.3C 238.6 24.9 236.9 24.1 235.2 24.2001C 233.7 24.3 231.3 24.0001 229.9 23.6001C 228.1 23.1001 227 23.3 226.1 24.4zM 237.8 47.4999C 249.1 53.5999 254.8 62.7999 258.6 81.2999C 260.8 91.5999 262.3 96.3999 264.8 101.2C 265.5 102.7 260.8 102 256.9 99.9999C 252.1 97.4999 248.3 92.4 244.6 83.4C 236.2 62.9 231.2 56.1 221.8 51.9999C 215.7 49.4 210.2 49.9 202.5 53.7L 197.5 56.2L 200.5 52.9999C 206.7 46.4 213.3 43.9999 224 44.2999C 231.2 44.5999 233.3 45.0999 237.8 47.4999zM 221.1 53.4999C 229.7 56.5999 235.2 63.9 242.1 81.5999C 248.3 97.3999 255.1 104 265.7 104.3C 270.7 104.5 271.6 104.8 272.9 107.1C 274.2 109.5 274.1 110.2 272 115.6C 269.1 122.6 263 129.6 257.5 132.1C 245 137.8 236.1 129.4 230.5 106.5C 227.6 94.7999 219.6 81.4999 213.2 77.7C 207.5 74.4 195 76.6 195 80.9C 195 82.1 195.3 81.9999 196.8 80.7C 199.6 78.2 204.2 76.7999 207.8 77.4999C 214.5 78.7999 224.6 91.2 227.6 102C 228.5 105 229.4 108.3 229.7 109.3C 230.1 111 230 111 227.3 109.7C 215 103.5 206.4 108.8 199.4 126.9C 195 138.3 193.1 141.3 189.1 143C 185.1 144.6 179.9 142.9 176.5 138.9C 171.3 132.7 174.5 120.7 180.7 123.1C 185 124.7 188.4 121.5 190.1 114.2C 190.6 112.1 190.1 107.7 188.8 101.7C 187.5 95.2 187 89.7999 187.2 83.4999C 187.5 75.4 187.9 73.7999 191.1 67.9999C 195.2 60.4999 199.9 56.4 207.2 53.9C 213.7 51.6 215.6 51.6 221.1 53.4999zM 298.8 121.8C 300.7 122.1 299.9 126.4 297.9 126.8C 296.9 127 295.3 125.8 294.2 124.3L 292.2 121.4L 294.8 121.6C 296.3 121.6 298.1 121.8 298.8 121.8zM 277.3 130.6C 269.4 139.2 264.1 143 259.7 143C 256.8 143 252 139.5 252 137.3C 252 136.2 252.7 136.6 254.2 138.5C 256.1 141 256.8 141.2 261.3 140.7C 266.1 140.3 266.6 139.9 274.9 131.1C 279.6 126.1 283.9 122 284.3 122C 284.8 122 281.6 125.9 277.3 130.6zM 202.5 153.8C 202 154.3 195.3 151.3 194.7 150.3C 194.4 149.8 196.1 150.3 198.5 151.4C 200.9 152.5 202.7 153.6 202.5 153.8zM 207.2 176C 207.1 177.4 206.1 179.4 205 180.4C 203.4 182 202.8 182.1 201.6 181C 199.6 179.4 199.6 178 201.6 175.2C 203.8 172 207.6 172.6 207.2 176z"/>
<path style="stroke:none; fill:#000000" d="M 226 209.8C 222.3 213.5 221 218.6 221 229.2L 221 237.8L 216.2 241.3L 211.3 244.7L 211.3 235.5C 211.2 229 210.7 225.3 209.5 223.1C 206 216.1 202 218.7 199.7 229.5C 198.9 233.3 196.3 244 193.9 253.2C 190.3 267 189.1 270 187.5 270.5C 185.3 271.1 179.4 278.4 176.5 284C 175.5 286 174.5 290.5 174.2 294.5C 173.8 302 176 317.8 178.5 323.6C 179.7 326.6 179.7 327.4 178.3 330.7C 177.5 332.8 176.6 338.7 176.3 344C 175.8 352.4 176 354.1 178 358.7C 179.2 361.6 182 365.6 184.1 367.5C 187.3 370.4 188.8 371 192.3 371C 199 370.9 204.3 367.8 213.5 358.5C 219.2 352.7 223.7 349.1 227.3 347.5C 232.5 345.1 232.8 345.1 238.4 346.5C 241.6 347.3 249 350.5 254.8 353.5C 264.4 358.4 266.3 359 273.5 359.6C 280.6 360.1 282 359.9 285.9 357.8C 289.5 356 291.1 354.1 293.9 349C 297.4 342.7 297.5 342.2 297.5 331.5C 297.5 321.2 297.3 320.2 294.5 315.1C 292.5 311.5 289.2 307.9 284.8 304.3C 279.2 299.9 278 298.4 277.5 295.2C 276.6 289.4 271.8 271.8 270.3 268.7C 269.6 267.2 268.6 266 268.1 266C 267.6 266 267 261.4 266.7 255.7C 266.2 245.5 260.9 219.8 258.8 217.2C 256.1 214 252.8 217.2 252 223.8L 251.5 228.4L 247.5 221.6C 239.2 207.3 232.3 203.5 226 209.8zM 249 229C 249.8 230.6 249.5 232.1 247.5 236.5C 246 239.5 244.5 242 244.2 242C 243.8 242 242.7 241.3 241.7 240.6C 240 239.3 240.1 238.9 243.7 233.1C 245.8 229.7 247.6 227 247.7 227C 247.8 227 248.4 227.9 249 229zM 220.4 253.2C 221.2 266.8 223 276 227.6 289.3L 231 299.4L 228.5 301.9C 225.4 305.1 224.3 304.2 220.8 295C 216.1 283 213.7 270.5 213.6 257.7C 213.5 246.4 213.6 245.8 215.9 243.9C 217.2 242.9 218.6 242 219 242C 219.4 242 220 247 220.4 253.2zM 272.5 281.3C 275.1 291 275.1 291.3 273.6 298.3C 271.7 306.8 267.6 314.4 262.6 318.8C 257.6 323.2 254.2 323.9 251.9 321.1C 249.5 318.1 246.2 309.1 245.8 304.5C 245.5 301 245.7 300.6 248.7 299.8C 250.4 299.4 253 297.6 254.5 295.8C 258.1 291.6 262.7 282.3 264.1 276.4C 266.6 265.9 268.7 267.1 272.5 281.3zM 187.6 282.8C 187.8 299.4 193 311.5 201.1 313.9C 204.8 315 205.1 315.4 204.5 317.8C 203.1 324 194.4 333 189.9 333C 187.1 333 182.4 328.4 180.6 323.9C 176.3 313.2 174.7 293.1 177.5 286.4C 178.9 282.9 184.4 275.3 186.5 273.8C 187 273.4 187.5 273 187.5 273C 187.5 273 187.6 277.4 187.6 282.8zM 244 303.3C 244 305.4 245.2 310.7 246.7 315.1C 249.6 324.1 252 326.5 256.6 325.4C 260.5 324.4 268.3 316.1 271.5 309.5L 274.2 304L 276.5 306.4C 277.7 307.7 280.1 309.5 281.7 310.3C 298.3 318.9 297.1 346.3 279.8 351.5C 276.3 352.5 273.5 352.7 269.5 352C 264.3 351.1 262.1 350.2 247.8 342.7C 243.7 340.6 238.8 338.9 235.5 338.5C 226.9 337.4 222.5 339.6 211 350.5C 200.6 360.5 196.8 363 191.9 363C 182.8 363 177.3 346.9 182.2 334.1C 183 331.9 183.2 331.8 184.9 333.4C 189 337.1 196.5 334.1 202.5 326.3C 204.4 323.8 206.2 320.3 206.6 318.4C 207 316 207.8 315 209.1 315C 215.2 315 226.2 308.1 232.1 300.6L 236.2 295.3L 240.1 297.4C 243.6 299.3 244 299.9 244 303.3zM 277.5 300.7C 277.8 301.7 280.7 304.5 284 306.8C 292.5 313 295.3 318.1 295.8 328.5C 296.4 339.1 294.4 346.2 289.3 351.9C 282.1 359.8 270.8 359.1 252 349.7C 232.6 339.9 227.9 340.7 213 355.9C 204.3 364.8 199.5 367.9 193 368.7C 189.9 369.1 188.7 368.7 185.6 366C 179.8 360.9 178 356.4 178 347.1C 178 338.5 179.7 328.7 181 329.5C 181.4 329.8 181.1 332.1 180.3 334.7C 176.8 346.2 180.7 360.8 188.5 364.4C 194.4 367.3 198.7 365.3 209.4 355.1C 222.1 342.8 225 341 231.9 341C 239.4 341 243.2 342.2 251.5 347.1C 255.4 349.4 260.9 352.1 263.9 353.1C 277.9 358 289.6 352.7 293.5 339.8C 296.7 329 294.6 319.9 287.3 312.9C 284.7 310.4 281.3 307.6 279.9 306.7C 277.3 305.2 274.2 299 276 299C 276.5 299 277.1 299.8 277.5 300.7z"/>
<path style="stroke:none; fill:#000000" d="M 513.1 209.8C 507.5 212.6 505.5 217.7 505.3 229.9L 505.2 240.3L 500.1 244.1L 495 248L 495 238.4C 495 225.3 492.1 219.3 487 222C 485.8 222.6 484.7 225 484 228.7C 483.3 231.9 481.1 240.8 479 248.5C 476.9 256.2 474.7 265.1 474 268.2C 473 272.5 472.2 274 471 274C 468.9 274 460.1 285 458.4 289.9C 455.8 297 456.9 314.3 460.7 326.6C 462.1 331.2 462.1 332.2 460.6 338.1C 459.7 341.7 459 348.4 459 353.1C 459 360.3 459.4 362.4 461.6 366.9C 464.8 373.3 470.8 378 475.7 378C 481.5 378 488.1 374 497.3 364.9C 502.7 359.4 508.1 355.1 511.4 353.5C 516.8 350.8 516.8 350.8 523.2 352.5C 526.6 353.4 533.8 356.4 539 359.2C 555.1 367.8 568.6 368.6 576.1 361.4C 577.7 359.8 580.3 356.1 581.8 353C 584.2 348.1 584.5 346.4 584.5 337C 584.5 322.1 582.3 317.9 568.7 306.7C 565.1 303.8 563.9 302.1 563.5 299.2C 562.9 295.2 560.8 286.7 558.3 278.1C 557.5 275.2 555.9 271.9 554.8 270.8C 553.2 269.2 552.8 267.2 552.6 259.7C 552.4 253.9 551.1 245.3 549.1 236.5C 545.2 219.2 544.6 217.8 541.8 218.2C 539 218.6 537 222.3 537 227.5L 537 231.5L 534 226.2C 529.5 218 524 211.2 520.4 209.5C 516.5 207.7 517.2 207.6 513.1 209.8zM 523.8 215.7C 526.4 218.4 529.2 221.8 530 223.4C 531.4 226.1 531.3 226.6 527.9 232.9L 524.4 239.5L 515.9 239.4L 507.5 239.2L 506.8 235.4C 505.9 230.1 507.5 218.5 509.5 215.4C 511.2 212.8 514.1 211.2 517.3 211.1C 518.3 211 521.2 213.1 523.8 215.7zM 543.9 223.2C 546.5 231.3 550.2 250.2 550.7 257.8C 551.8 274.2 544.7 295.3 536.7 299.3C 532.7 301.4 527.9 301.1 524.5 298.6C 522.6 297.3 522.6 297.1 525.2 292.3C 531.9 280.1 534.9 260.6 531.5 251.1C 530.1 247 530.1 246.8 533.2 241.9L 536.3 236.8L 539.3 243.9C 540.9 247.8 542.7 251 543.1 251C 544.5 251 544.2 249.7 541.4 243.4C 537.4 234.4 537.8 220 542 220C 542.5 220 543.3 221.5 543.9 223.2zM 492.6 227.2C 493 228.5 493.3 233.8 493.3 239L 493.3 248.5L 487.6 256.4C 484.5 260.7 482 265.2 482 266.3C 482 267.8 482.9 267 485.1 263.4C 489.2 257.1 494 251 495 251C 495.4 251 496 257 496.3 264.2C 496.8 278.9 499.5 291.3 504.8 303.9L 507.8 311L 505.2 312.9C 500.4 316.3 492.8 318.4 488.5 317.6C 482.6 316.5 477 310.2 474.5 302C 471.3 291.4 471.8 282.3 476.8 263.5C 479.1 254.7 482.3 242.5 483.9 236.4C 485.5 230.2 487.1 224.7 487.4 224.1C 488.4 222.5 491.7 224.5 492.6 227.2zM 523.4 243.8C 527.7 246.3 529.9 249.8 531 256C 532.9 266.2 528.7 282.7 520.9 295.5L 517.6 301L 515.3 296.6C 509.8 285.8 505.6 264.1 506.2 250L 506.5 242.5L 510.5 241.9C 515.5 241.1 519.7 241.7 523.4 243.8zM 557.4 282.1C 560.8 292.2 561 300 558.1 308.2C 554.5 318.6 548 326.2 541.8 327.6C 537.9 328.4 536.1 326.5 533.2 318.7C 530.4 311.1 529.5 305.1 531.2 304.6C 537.4 302.9 538.6 302.1 542 297.1C 545.1 292.6 548.4 284.8 551.6 274.2C 552.5 271.2 554.7 274.1 557.4 282.1zM 470.6 286.8C 470.8 302.9 476.3 316 484 318.5C 488.5 320 488.9 322.7 485.5 328.5C 480.9 336.4 473.2 340 468.3 336.5C 461.1 331.5 455.7 299.3 460.5 289.9C 462.7 285.7 468.9 277 469.8 277C 470.2 277 470.5 281.4 470.6 286.8zM 528.9 307.9C 528.8 312.3 532.2 323.3 535 327.7C 537.4 331.7 539.8 331.9 545.5 328.6C 549.7 326.1 556.5 317.3 558.9 311.3L 560.2 308L 562.2 310.5C 563.3 311.9 565.4 313.7 566.9 314.5C 570.8 316.5 577 322.9 578.6 326.7C 580.3 330.5 580.4 339 578.9 344.3C 576.2 354 565.8 360 555 358C 549.8 357 546.9 355.8 532.1 348.1C 524.8 344.3 515.6 343 509.7 344.9C 507.4 345.7 501.9 350 495.5 356.1C 481.3 369.4 477 371.5 471.2 368C 464.5 363.9 461.6 353.9 464 343.3C 465 338.8 465.5 338 466.8 338.5C 473.7 341.4 473.6 341.4 478.4 338.6C 483.7 335.5 489.6 328 490.5 323.3C 490.9 320.9 491.6 320 493 320C 499.3 320 510.2 313.1 516.7 305.1L 521.3 299.3L 525.1 301.8C 528.3 303.9 528.9 304.8 528.9 307.9zM 567.6 309.5C 578.9 317.8 582 322.8 582.7 334C 583.3 342.6 581.6 349.6 577.4 356.2C 571 366.2 557.9 366.1 538 355.8C 518.1 345.5 512.2 346.4 497 361.9C 484.6 374.6 476 378 469 373C 464.7 369.9 461.2 363.3 460.4 356.8C 459.7 351.1 461.4 338.9 463.2 336C 463.8 335 463.8 336 463.3 338.5C 462.9 340.7 462.5 346.3 462.5 351C 462.5 360.9 464.6 366.1 470 369.7C 476.9 374.4 481.4 372.6 495.1 359.4C 506.7 348.4 509.7 346.6 517 346.6C 523.3 346.5 529.5 348.7 539 354.1C 547.8 359.2 553.2 361 559.6 361C 573.1 361 581.2 351.8 581.2 336.4C 581.2 325.2 576.9 318 566.4 311.8C 564.6 310.7 562.7 308.6 562.2 307C 561.1 303.9 562 301.7 563.1 304.8C 563.5 305.8 565.5 307.9 567.6 309.5z"/>
<path style="stroke:none; fill:#000000" d="M 89.7 212.1C 82.8 214 79.8 220.4 79.8 233.4L 79.8 242.5L 74.9 245.8C 72.2 247.5 69.9 249 69.8 249C 69.6 249 69.5 245.1 69.5 240.2C 69.4 231.2 68.1 226.6 64.8 224.6C 63.5 223.8 62.5 223.8 61.3 224.6C 59.3 225.9 59.6 224.9 53.5 247.5C 50.9 256.8 48.2 266.9 47.4 269.7C 46.4 273.5 45.4 275 44.2 275C 42 275 32.1 287.1 30.9 291.3C 28.8 298.8 30.1 315.6 33.7 326.1C 35.2 330.4 35.2 331.3 33.7 336.7C 31.5 344.3 31.5 357.8 33.5 362.8C 35.7 367.9 41.7 373.9 46 375C 49.8 376 55.1 375 60.4 372.3C 62 371.5 67.2 367.1 72 362.6C 88 347.4 94.3 346.7 115.4 357.5C 124.5 362.1 132.2 364.2 140.1 364.2C 153.8 364 162.3 353.3 162.4 336C 162.5 325.1 159.6 318.3 152.5 312.4C 142.8 304.4 140 301.3 140 298.5C 140 292.4 132.6 271 130.4 271C 129.3 271 129 269.3 129 262.9C 129 252.8 122.8 224.6 119.9 221.5C 118 219.6 118 219.6 115.8 221.8C 114.4 223.2 113.4 225.7 113 228.7L 112.5 233.5L 108.3 226.5C 103.9 219 97.8 212.6 94.5 211.8C 93.4 211.5 91.2 211.7 89.7 212.1zM 99.4 219C 107.4 226.5 107.8 227.9 104.5 233.7C 99.8 241.9 99.8 241.9 90.7 241.5C 81.5 241.1 81.2 240.9 81.1 232.7C 81 225.3 82.8 219.3 86.2 216.5C 90.6 212.8 93.4 213.3 99.4 219zM 119.5 223.9C 119.8 224.5 121.6 231.7 123.6 240C 128.9 262.9 128.2 275.2 120.6 290.2C 118 295.3 116.5 297 112.9 298.9C 108.1 301.5 103.3 301.4 99.5 298.7C 97.8 297.4 97.9 297.1 100.4 292.8C 107.4 280.8 110.5 264.6 107.6 254.6L 105.9 248.9L 108.9 243.7L 111.9 238.5L 114.9 245.3C 116.6 249 118.4 252 119 252C 120.3 252 120.4 252.1 117.5 245.5C 114.3 238.3 113.5 232.6 114.9 227.2C 116 223.3 118.1 221.7 119.5 223.9zM 65.7 228.7C 67.1 230.8 67.5 233.5 67.5 241C 67.4 250.5 67.4 250.7 63.8 255.1C 58.6 261.6 54.6 267.9 55.4 268.7C 55.7 269 56.1 269.1 56.3 268.9C 60.9 261.7 64.6 256.8 67 254.5L 70 251.6L 70 260.2C 70 274.9 74.4 293.8 80.7 306.3L 83.1 311.1L 76.8 314C 60.2 321.9 48.9 314.1 46 292.6C 44.9 285 44.7 285.8 57.9 238C 61.5 224.8 62.5 223.7 65.7 228.7zM 109.8 237.9C 109.3 239.3 108 241.9 106.9 243.7C 104.9 246.8 104.8 246.9 102.5 245.4L 100.1 243.8L 104.3 237.5C 108.2 231.5 108.6 231.3 109.6 233.3C 110.4 234.7 110.5 236.2 109.8 237.9zM 99.7 246.1C 106.5 250.3 108.8 261.6 105.5 274.5C 103.9 280.7 97.4 294.8 94.2 298.8L 92.4 301.2L 89.2 294.3C 87.5 290.6 85.2 283.9 84 279.5C 81.9 271.1 79.2 246.5 80.3 245.3C 81.5 244.1 88.5 243.2 92.5 243.7C 94.7 244 97.9 245.1 99.7 246.1zM 80.1 267C 80.8 273.3 82.7 281.1 85.7 290.3L 90.3 304L 88 306.5C 85.8 308.8 85.5 308.9 83.8 307.4C 81.8 305.5 76.9 293.5 74.6 284.5C 72.4 275.9 70.9 261.4 71.7 255.2C 72.2 250.5 72.7 249.5 75.4 247.9L 78.5 246L 78.7 251.8C 78.9 254.9 79.5 261.8 80.1 267zM 134.6 284.9C 137.3 293.8 137.6 295.9 136.8 300.3C 134.6 312.6 125.7 325.2 118.2 326.6C 115.2 327.2 114.3 326.9 112.4 324.7C 109.8 321.6 105.7 310 106.2 306.8C 106.4 305.2 107.4 304.4 110 303.9C 115.4 302.8 122.8 292.2 126.1 281C 128.9 271 130.6 271.8 134.6 284.9zM 43.9 286.7C 43.9 302.5 49.9 315.7 58.2 318.2C 62 319.3 62.2 319.5 61.7 322.7C 61 326.7 58.2 330.5 53.3 334.2C 42.9 342.1 35.2 333.1 32 309.5C 31 301.9 31.7 293.1 33.6 289.7C 35.3 286.7 42.3 278 43.1 278C 43.5 278 43.9 281.9 43.9 286.7zM 102.6 303C 103.5 303 104 304.2 104 306.2C 104 310 105.9 316.5 109 323.9C 111.4 329.4 113.8 330.8 118.6 329.6C 122.6 328.6 130.4 320.6 134 313.9C 137 308.2 137.3 308 138.6 309.8C 139.4 310.9 141.7 312.8 143.7 314.1C 153.7 320 157.4 325.7 157.4 335C 157.4 345.8 151.8 353.3 141.6 356.1C 135.1 357.9 126.5 356 115.2 350.2C 103 344 99.6 342.9 92.3 342.8C 84.2 342.7 80.8 344.5 69.6 354.4C 57.3 365.3 54.6 367 49.2 367C 45.6 367 44.2 366.4 41.5 363.7C 37.1 359.3 35.2 351.4 36.9 343.4C 38.2 336.6 38.5 336.2 41 337.8C 47.9 342.1 62 333.1 64.5 322.8C 65 320.8 66 319.9 68.3 319.4C 73.1 318.4 81.5 314.5 85.4 311.5C 87.4 310 90.6 306.6 92.6 304L 96.3 299.1L 98.8 301.1C 100.2 302.1 101.9 303 102.6 303zM 145.9 310.2C 148.4 311.9 152 314.7 153.7 316.3C 160 322.2 162.2 336 158.6 346.9C 152.9 363.7 138.4 366.2 114.6 354.4C 107.4 350.8 101.2 348.5 96.9 347.8C 90.8 346.7 90.1 346.8 85.5 349.1C 82.8 350.4 76.7 355.2 71.9 359.7C 62.2 368.8 57.1 371.8 49.9 372.7C 45.1 373.3 44.9 373.2 40.1 368.4C 34.9 363.2 33 358.6 33 351.5C 33 348 33.5 345.1 35.5 336.2C 35.8 335 36.4 334 36.9 334C 37.4 334 37.1 336.1 36.3 338.7C 34.5 344.7 35 356.2 37.3 360.7C 39.7 365.3 43.9 368.9 47.7 369.6C 52.6 370.5 59.9 366.4 70.8 356.6C 81.9 346.5 86.3 344.5 95.3 345.3C 100.1 345.7 103.8 347 111.5 350.9C 124.5 357.5 129.2 359 136 359.1C 145.4 359.3 152.1 355.4 156.3 347.5C 159.2 342.1 159.4 329.2 156.6 324.1C 154.4 320.1 148.9 314.7 143.9 311.8C 140.4 309.9 137.9 306.4 138.1 303.7C 138.1 303 138.8 303.5 139.7 304.8C 140.6 306.1 143.4 308.5 145.9 310.2z"/>
<path style="stroke:none; fill:#000000" d="M 373.7 212.1C 366.8 214 363.8 220.4 363.8 233.4L 363.8 242.5L 358.9 245.8C 356.2 247.5 353.9 249 353.8 249C 353.6 249 353.5 245.1 353.5 240.2C 353.4 231.2 352.1 226.6 348.8 224.6C 347.5 223.8 346.5 223.8 345.3 224.6C 343.3 225.9 343.6 224.9 337.5 247.5C 334.9 256.8 332.2 266.9 331.4 269.7C 330.4 273.5 329.4 275 328.2 275C 326 275 316.1 287.1 314.9 291.3C 312.8 298.8 314.1 315.6 317.7 326.1C 319.2 330.4 319.2 331.3 317.7 336.7C 315.5 344.3 315.5 357.8 317.5 362.8C 319.7 367.9 325.7 373.9 330 375C 333.8 376 339.1 375 344.4 372.3C 346 371.5 351.2 367.1 356 362.6C 372 347.4 378.3 346.7 399.4 357.5C 408.5 362.1 416.2 364.2 424.1 364.2C 437.8 364 446.3 353.3 446.4 336C 446.5 325.1 443.6 318.3 436.5 312.4C 426.8 304.4 424 301.3 424 298.5C 424 292.4 416.6 271 414.4 271C 413.3 271 413 269.3 413 262.9C 413 252.8 406.8 224.6 403.9 221.5C 402 219.6 402 219.6 399.8 221.8C 398.4 223.2 397.4 225.7 397 228.7L 396.5 233.5L 392.3 226.5C 387.9 219 381.8 212.6 378.5 211.8C 377.4 211.5 375.2 211.7 373.7 212.1zM 383.4 219C 391.4 226.5 391.8 227.9 388.5 233.7C 383.8 241.9 383.8 241.9 374.7 241.5C 365.5 241.1 365.2 240.9 365.1 232.7C 365 225.3 366.8 219.3 370.2 216.5C 374.6 212.8 377.4 213.3 383.4 219zM 403.5 223.9C 403.8 224.5 405.6 231.7 407.6 240C 412.9 262.9 412.2 275.2 404.6 290.2C 402 295.3 400.5 297 396.9 298.9C 392.1 301.5 387.3 301.4 383.5 298.7C 381.8 297.4 381.9 297.1 384.4 292.8C 391.4 280.8 394.5 264.6 391.6 254.6L 389.9 248.9L 392.9 243.7L 395.9 238.5L 398.9 245.3C 400.6 249 402.4 252 403 252C 404.3 252 404.4 252.1 401.5 245.5C 398.3 238.3 397.5 232.6 398.9 227.2C 400 223.3 402.1 221.7 403.5 223.9zM 349.7 228.7C 351.1 230.8 351.5 233.5 351.5 241C 351.4 250.5 351.4 250.7 347.8 255.1C 342.6 261.6 338.6 267.9 339.4 268.7C 339.7 269 340.1 269.1 340.3 268.9C 344.9 261.7 348.6 256.8 351 254.5L 354 251.6L 354 260.2C 354 274.9 358.4 293.8 364.7 306.3L 367.1 311.1L 360.8 314C 344.2 321.9 332.9 314.1 330 292.6C 328.9 285 328.7 285.8 341.9 238C 345.5 224.8 346.5 223.7 349.7 228.7zM 393.8 237.9C 393.3 239.3 392 241.9 390.9 243.7C 388.9 246.8 388.8 246.9 386.5 245.4L 384.1 243.8L 388.3 237.5C 392.2 231.5 392.6 231.3 393.6 233.3C 394.4 234.7 394.5 236.2 393.8 237.9zM 383.7 246.1C 390.5 250.3 392.8 261.6 389.5 274.5C 387.9 280.7 381.4 294.8 378.2 298.8L 376.4 301.2L 373.2 294.3C 371.5 290.6 369.2 283.9 368 279.5C 365.9 271.1 363.2 246.5 364.3 245.3C 365.5 244.1 372.5 243.2 376.5 243.7C 378.7 244 381.9 245.1 383.7 246.1zM 364.1 267C 364.8 273.3 366.7 281.1 369.7 290.3L 374.3 304L 372 306.5C 369.8 308.8 369.5 308.9 367.8 307.4C 365.8 305.5 360.9 293.5 358.6 284.5C 356.4 275.9 354.9 261.4 355.7 255.2C 356.2 250.5 356.7 249.5 359.4 247.9L 362.5 246L 362.7 251.8C 362.9 254.9 363.5 261.8 364.1 267zM 418.6 284.9C 421.3 293.8 421.6 295.9 420.8 300.3C 418.6 312.6 409.7 325.2 402.2 326.6C 399.2 327.2 398.3 326.9 396.4 324.7C 393.8 321.6 389.7 310 390.2 306.8C 390.4 305.2 391.4 304.4 394 303.9C 399.4 302.8 406.8 292.2 410.1 281C 412.9 271 414.6 271.8 418.6 284.9zM 327.9 286.7C 327.9 302.5 333.9 315.7 342.2 318.2C 346 319.3 346.2 319.5 345.7 322.7C 345 326.7 342.2 330.5 337.3 334.2C 326.9 342.1 319.2 333.1 316 309.5C 315 301.9 315.7 293.1 317.6 289.7C 319.3 286.7 326.3 278 327.1 278C 327.5 278 327.9 281.9 327.9 286.7zM 386.6 303C 387.5 303 388 304.2 388 306.2C 388 310 389.9 316.5 393 323.9C 395.4 329.4 397.8 330.8 402.6 329.6C 406.6 328.6 414.4 320.6 418 313.9C 421 308.2 421.3 308 422.6 309.8C 423.4 310.9 425.7 312.8 427.7 314.1C 437.7 320 441.4 325.7 441.4 335C 441.4 345.8 435.8 353.3 425.6 356.1C 419.1 357.9 410.5 356 399.2 350.2C 387 344 383.6 342.9 376.3 342.8C 368.2 342.7 364.8 344.5 353.6 354.4C 341.3 365.3 338.6 367 333.2 367C 329.6 367 328.2 366.4 325.5 363.7C 321.1 359.3 319.2 351.4 320.9 343.4C 322.2 336.6 322.5 336.2 325 337.8C 331.9 342.1 346 333.1 348.5 322.8C 349 320.8 350 319.9 352.3 319.4C 357.1 318.4 365.5 314.5 369.4 311.5C 371.4 310 374.6 306.6 376.6 304L 380.3 299.1L 382.8 301.1C 384.2 302.1 385.9 303 386.6 303zM 429.9 310.2C 432.4 311.9 436 314.7 437.7 316.3C 444 322.2 446.2 336 442.6 346.9C 436.9 363.7 422.4 366.2 398.6 354.4C 391.4 350.8 385.2 348.5 380.9 347.8C 374.8 346.7 374.1 346.8 369.5 349.1C 366.8 350.4 360.7 355.2 355.9 359.7C 346.2 368.8 341.1 371.8 333.9 372.7C 329.1 373.3 328.9 373.2 324.1 368.4C 318.9 363.2 317 358.6 317 351.5C 317 348 317.5 345.1 319.5 336.2C 319.8 335 320.4 334 320.9 334C 321.4 334 321.1 336.1 320.3 338.7C 318.5 344.7 319 356.2 321.3 360.7C 323.7 365.3 327.9 368.9 331.7 369.6C 336.6 370.5 343.9 366.4 354.8 356.6C 365.9 346.5 370.3 344.5 379.3 345.3C 384.1 345.7 387.8 347 395.5 350.9C 408.5 357.5 413.2 359 420 359.1C 429.4 359.3 436.1 355.4 440.3 347.5C 443.2 342.1 443.4 329.2 440.6 324.1C 438.4 320.1 432.9 314.7 427.9 311.8C 424.4 309.9 421.9 306.4 422.1 303.7C 422.1 303 422.8 303.5 423.7 304.8C 424.6 306.1 427.4 308.5 429.9 310.2z"/>
<path style="stroke:none; fill:#000000" d="M 108.7 406.2C 107.4 408 103.7 414.1 100.5 419.8C 97.4 425.4 94.6 429.9 94.4 429.7C 94.1 429.5 94.6 428 95.5 426.4C 97.5 422.6 97.5 414.6 95.5 412.6C 94.1 411.2 93.4 411.2 88.8 413C 83.4 415 82 416.3 82 419.3C 82 421.9 75.4 432.6 71.1 437.3C 68.4 440.1 65.9 441.6 60.6 443.1C 56.9 444.2 52.7 446.2 51.5 447.5C 50.2 448.7 47.9 450.1 46.4 450.4C 42.3 451.5 36.8 457.8 34.6 463.8C 31 473.9 34 495.9 41 511.1C 42 513.2 41.9 514.3 40.6 516.8C 38.7 520.5 38.6 528.1 40.4 533.2C 41.6 536.6 41.6 537.1 39.9 538.6C 37.5 540.7 35.7 547.1 36.6 550.4C 37.6 554.5 39.3 555.3 43.5 553.5C 45.6 552.7 47.4 552 47.6 552C 47.8 552 48 553.5 48 555.4C 48 560.3 49.6 564 51.8 564C 54.1 564 58.2 559.7 61 554.2C 62.2 551.9 63.5 550 63.9 550C 64.3 550 65.1 551.3 65.7 552.9C 66.3 554.5 67.9 556.6 69.4 557.5C 71.8 559.1 72.2 559.1 74.5 557.6C 77.9 555.4 81 550.2 81 546.8C 81 545.3 81.9 542.6 83 540.8C 84.1 539 85 536.7 85 535.6C 85 534.4 85.5 534 86.6 534.4C 89 535.3 94.2 532.6 98.6 527.9C 102.9 523.4 115.5 506.7 120.3 499.2C 121.8 496.9 123.6 495 124.3 495C 124.9 495 126.7 493 128.1 490.7C 130 487.5 132.1 485.7 136.2 483.8C 142.2 481 144 478 144 471.5C 144 469.1 144.5 468.1 146 467.7C 148.7 467 151.1 460.9 150.9 455.6C 150.7 452.5 151.3 450.6 153 448.3C 154.9 445.7 155.2 444.3 154.7 440.4C 154.4 437.7 153.5 435.1 152.6 434.5C 151.6 433.7 151 431.8 151 429.2C 151 421 149.1 419.3 133.9 414C 130.4 412.8 124.5 409.8 120.9 407.4C 117.2 405 113.5 403 112.7 403C 111.8 403 110 404.5 108.7 406.2zM 122.2 412.5C 126.2 415 131.7 417.7 134.5 418.6C 141.7 421 147 423.8 147 425.3C 147 426 145.3 429.5 143.2 433.1C 141.1 436.6 138.1 441.6 136.7 444.2C 135.2 446.8 133.4 449.3 132.6 449.7C 131.1 450.6 128.4 455.5 126.4 461.2C 123.4 469.7 105.9 493 99.6 496.9C 96.2 499 92.6 499.5 89.5 498.4C 88.1 497.8 88.1 497.6 89.8 496.4C 90.9 495.7 93.8 492 96.2 488.3C 98.7 484.6 104.8 475.3 109.9 467.8C 114.9 460.2 119 453.6 119 453.2C 119 452.7 120.4 450.4 122 448.2C 124.8 444.2 125.9 441 124.3 441C 123.8 441.1 120.6 445.9 117.1 451.8C 106.5 469.4 92.1 490.8 89.3 493C 86 495.6 85.4 495.3 82.8 490.8L 80.7 487.1L 83.5 480.8C 85 477.3 88.8 471.1 91.8 467C 100 455.9 110 440.3 110 438.5C 110 435.8 108.5 436.9 106 441.7C 103.2 447 93.2 462.2 89.9 466C 88.2 468.1 87.9 468.1 88.5 466.5C 88.9 465.4 89.6 461.6 90.2 458C 91.3 450.7 92.1 448.9 100.6 435.3C 110.2 419.8 113.6 413.2 112.4 412C 111.7 411.3 110.5 412.7 108.5 416.7C 105.1 423.4 95.3 439.8 93.3 442C 90 445.6 92.4 439.8 99.2 428C 109.2 410.5 111 408 113.1 408C 114.1 408 118.2 410 122.2 412.5zM 95 418.1C 95 421.5 93 424.1 89.3 425.7C 85.1 427.4 83.8 426.4 84.2 421.5C 84.5 418.2 87.7 416 92.3 416C 94.4 416 95 416.5 95 418.1zM 87.6 429.5C 91.8 428.9 92 429 92 431.3C 92 432.6 90.4 435.9 88.5 438.6C 83.8 445.2 69.1 460 67.2 460C 66.4 460 64 458.4 61.8 456.5C 59.7 454.5 56.8 452.4 55.4 451.8C 51.2 449.9 52.1 449.2 63.6 445.6C 69.3 443.8 74.1 439.2 78.5 431.6C 80.9 427.4 81.4 427 82.2 428.5C 83 429.9 84 430.1 87.6 429.5zM 149.5 435.8C 148.9 438.1 148.8 438.2 147 436.5C 145.1 434.8 145.1 434.7 147.3 430.6L 149.5 426.5L 149.8 429.9C 150 431.8 149.9 434.4 149.5 435.8zM 153.4 439.5C 154.2 441.6 152.4 445.7 150.1 447.2C 148.3 448.3 148.2 449.2 148.7 454C 149 457.5 148.8 460.5 148.1 461.8C 146.7 464.4 143.2 464.7 142.3 462.4C 141.9 461.2 141.5 461.1 140.9 462.1C 140.5 462.8 140.6 464.2 141.1 465.1C 142.5 467.8 142.2 474.3 140.5 476.7C 139.7 477.9 137.4 479.4 135.6 480C 133.7 480.6 130.5 482.9 128.6 485.1L 125 489L 125 483.6C 125 476.4 127.3 464.7 129.9 458.7C 132.5 452.6 134.6 452.9 134.2 459.2C 133.6 467.2 135.6 465.3 137.4 456.2C 139.2 446.9 142.6 439.5 145 439.5C 145.8 439.5 146.6 440.5 146.8 441.7C 147.3 444.9 148.6 444.6 149.9 441C 151 437.7 152.4 437.1 153.4 439.5zM 90 446.1C 88.9 450.1 77.3 463.3 72.9 465.6C 70.3 466.9 69.9 466.9 69.4 465.5C 69 464.6 69.7 463.2 71.3 462C 74.1 459.7 83.4 450.2 87.5 445.2C 89 443.4 90.4 442.1 90.6 442.3C 90.8 442.5 90.5 444.2 90 446.1zM 55.9 456C 62 459.1 68.2 466.9 73.9 478.7C 84.6 500.7 88.3 504.8 95.8 503.4C 100.4 502.5 108.7 494.3 117.4 481.7C 120.7 476.9 123.6 473.4 123.8 474C 124 474.6 121.8 478.6 118.9 482.8C 103.8 504.7 100.2 508 91.7 508C 87.5 508 86.6 507.6 83.2 504.1C 81.1 502 76.6 494.6 73.1 487.7C 61.6 465.1 52.4 458.2 42.2 464.7C 38 467.3 34.1 476 37 476C 37.6 476 38 475.4 38 474.6C 38 472.4 44.6 467.2 48.4 466.5C 55.7 465.1 63.2 472.6 72 490C 81.7 509.1 86.3 513.9 94.1 512.6C 100.5 511.6 103.9 508.8 111.3 498.5C 115.2 493 119.4 487.2 120.7 485.7L 123 482.8L 123 485.5C 123 490.4 114 504.7 101.6 519.5C 95 527.4 91.7 530 87.9 530C 85.8 530 85.1 529.3 84.4 526.9C 83 522.1 80.6 521.1 77.5 524L 75 526.3L 75 521.9C 75 517.3 72.9 513 70.6 513C 68.6 513 66.1 516.3 64.1 521.6C 62.3 526.3 62.2 526.3 61 523.9C 56.6 515.6 49.8 510.4 45.4 512.1C 43.3 512.8 42.9 512.3 40 504.2C 33.3 485.9 32.6 473.4 37.6 463.3C 41.9 454.5 48.1 452 55.9 456zM 86.9 465C 85.3 470.9 83.9 474.1 81.5 476.6C 79.7 478.5 77.8 480 77.3 480C 76.7 480 75.4 477.9 74.4 475.4L 72.5 470.8L 80.5 462.7C 84.9 458.2 88.6 455 88.8 455.7C 89 456.4 88.1 460.5 86.9 465zM 80.5 482.9C 80.2 483.5 79.4 484 78.8 484C 78.2 484 78.2 483.4 79 482.5C 80.4 480.8 81.6 481.2 80.5 482.9zM 53.9 518.5C 57.3 521.4 60.8 526.7 62 530.8C 62.8 533.7 63 533.5 64.9 526.3C 65.6 523.9 67.1 520.8 68.4 519.3C 70.4 516.9 71 516.8 72.4 517.9C 74.5 519.6 74.4 522.5 72.1 529.1C 71.1 532.2 70.6 535.3 71 536.5C 71.7 538.4 71.7 538.4 72.4 536.2C 73.5 532.7 78.9 527 81.1 527C 82.5 527 83 527.8 83.1 529.7C 83.4 536.2 81.9 539.6 79.2 538.5C 78 538.1 77.9 538.8 78.4 542.4C 78.8 545 78.7 547.8 78.1 548.9C 73.9 556.6 66.7 555.3 65.3 546.6C 65 544.6 64.5 543 64.1 543C 63.8 543 62.4 545.6 61.1 548.7C 59.7 551.8 57.5 555.6 56.2 557.1C 51.7 562.6 47.7 559.5 50 552.4C 51.9 546.7 50.9 545.8 45.5 548.5C 40.6 551 38 550.9 38 548.1C 38 545 41 542 44.1 542C 47.9 542 48 539.6 44.3 535.8C 40.5 531.8 39.8 522.8 43 518.7C 45.8 515.2 49.8 515.1 53.9 518.5z"/>
<path style="stroke:none; fill:#000000" d="M 46.7 481.7C 45.4 483 46 491.7 47.4 492.9C 49.5 494.6 51.4 490.8 50.6 486.5C 49.9 483.1 47.8 480.5 46.7 481.7zM 49 487.5C 49 488.3 48.6 489 48 489C 47.5 489 47 488.3 47 487.5C 47 486.7 47.5 486 48 486C 48.6 486 49 486.7 49 487.5z"/>
<path style="stroke:none; fill:#000000" d="M 55 496.1C 53.1 499.6 54.2 509.7 56.8 512.3C 58.8 514.3 59.1 514.3 60.6 512.8C 61.5 511.9 62.5 509 62.7 506.3C 63.1 502.4 62.7 500.8 60.8 498.1C 57.9 493.8 56.5 493.3 55 496.1zM 61 505C 61 508.2 58.5 510.9 56.9 509.3C 55.2 507.6 54.6 501.2 56.1 499.4C 57.3 497.9 57.6 498 59.2 500C 60.2 501.2 61 503.5 61 505z"/>
<path style="stroke:none; fill:#000000" d="M 397.4 404.8C 396.4 405.8 392.4 411.7 388.5 417.9C 384.7 424 381.3 428.5 381.1 427.9C 380.9 427.3 381.2 426.5 381.7 426.1C 384.5 424.4 385 414.2 382.5 412.4C 381.3 411.5 379.8 411.6 376.3 412.6C 370.9 414.2 369 415.6 369 417.9C 369 419.8 362.2 431.1 358.9 434.7C 355.8 437.9 352.8 439.4 346.2 441C 343.3 441.7 339.7 443.2 338.2 444.5C 336.7 445.7 333.9 447.2 331.9 447.9C 323.9 450.5 318.8 459.9 318.9 471.9C 318.9 480.3 320.5 487.3 324.9 498.6C 327.6 505.6 327.7 506.4 326.4 509.5C 324.6 513.9 324.6 520.1 326.4 524.4C 327.7 527.6 327.7 528 325.5 530C 322.7 532.6 321.6 537.8 323 541.5C 323.9 543.9 324.4 544.2 327.3 543.7C 329 543.4 331.3 542.9 332.3 542.5C 333.7 541.9 334 542.3 334 544.8C 334 549 336 553 338 553C 340.7 553 344.4 549.5 347.1 544.6C 348.4 542.1 349.7 540 350 540C 350.3 540.1 351.4 541.5 352.5 543.3C 353.6 545 355.8 546.9 357.3 547.4C 359.7 548.3 360.5 548 363.6 544.9C 365.9 542.5 367.3 540.1 367.7 537.5C 368 535.3 368.8 532.8 369.6 532C 370.3 531.2 371.2 529.2 371.5 527.7C 372 525.8 372.7 525.1 373.7 525.4C 374.4 525.7 376.9 525.2 379.1 524.3C 383.5 522.6 394.5 510.8 404.2 497.4C 407.1 493.4 410.3 489.8 411.3 489.5C 412.3 489.1 414.1 487.1 415.5 485.1C 417.5 481.8 423 478 425.7 478C 428 478 431.3 472.9 431.7 468.6C 432.1 465.2 432.8 463.9 434.2 463.4C 436.8 462.6 439.1 456.9 438.8 452C 438.7 449.1 439.2 447.4 440.8 445.7C 443.6 442.8 443.7 437.2 441.1 433.9C 440 432.4 439.2 429.9 439.2 427.6C 439.2 421.2 436.6 419 424.8 414.9C 419 412.9 411.1 409.4 407.3 407.1C 403.5 404.9 400.2 403 399.9 403C 399.6 403 398.5 403.8 397.4 404.8zM 409 412.1C 412.8 414.4 419.4 417.3 423.6 418.6C 432.5 421.5 435 422.7 435 424.2C 435 426.1 424.7 442.1 420.9 446.1C 418.9 448.1 416.4 452 415.4 454.7C 413.4 460 412 462.2 403.8 473C 393.1 487.3 383.8 494.2 377.4 492.6L 374.9 491.9L 378.3 488.7C 380.1 486.9 383.6 482.6 386 479C 388.4 475.4 394.1 467.4 398.7 461.3C 403.3 455.1 407 449.7 407 449.2C 407 448.8 408.4 446.7 410.1 444.7C 412.1 442.2 412.9 440.5 412.3 439.9C 411.7 439.3 408.2 443.6 402.6 451.7C 376.5 489.9 374.4 491.9 369.7 485.3L 367.2 481.7L 370.1 476C 371.7 472.8 376.2 466.3 380 461.5C 389.7 449.6 397.2 438.2 396.8 436.2C 396.6 435.1 395.3 436.4 393 440C 388.8 446.7 378.8 460.1 376.8 461.8C 375.5 462.9 375.5 462.4 376.6 457.8C 377.4 454.9 378 451.4 378 450C 378 448.5 381 443.3 385.4 436.9C 389.5 431 393.7 424.7 394.7 422.9C 395.7 421 397.4 418.3 398.4 416.8C 399.4 415.3 400 413.3 399.8 412.3C 399.5 411 398.6 411.7 396.4 415.3C 391.5 423.5 379.9 441 379.4 441C 377.9 441 379.9 436.9 387.1 425.5C 395.9 411.4 398.6 408 400.7 408C 401.5 408 405.3 409.8 409 412.1zM 374.9 428.3C 378.8 427.3 379 427.3 379 429.5C 379 432.6 374.6 438.2 364.7 447.7C 355.8 456.3 352.6 457.7 349.9 454.4C 349.2 453.5 346.4 451.5 343.7 450C 339 447.3 338.9 447.1 341 446C 342.2 445.4 345.6 444.2 348.6 443.4C 355.7 441.6 359.3 438.8 364.2 431.7C 367.8 426.5 368.3 426 369.4 427.6C 370.5 429.1 371.3 429.2 374.9 428.3zM 437.3 434.4C 436.6 435.6 436.2 435.6 434.7 434.6C 433.2 433.5 433.2 432.9 434.2 430.9C 437.1 425.5 437.5 425.3 437.8 429.2C 438 431.3 437.8 433.6 437.3 434.4zM 441.4 437.5C 442.3 439.8 440.2 444.1 438 444.7C 436.1 445.2 436 445.8 436.6 451C 437.2 456.1 437 457 435 459C 432.9 461.1 432.7 461.1 430.9 459.4C 428.4 457.2 427.4 458.3 428.8 461.5C 431.7 467.9 429.8 472.2 422.7 475.4C 419.8 476.7 416.2 479.2 414.6 481L 411.8 484.4L 412.5 477.4C 413.9 463.3 417.9 451 421 451C 421.5 451 422 453.2 422 456C 422 462.1 423.5 462.6 424.4 456.7C 425.6 449.2 428.1 442 430.4 439.3C 432.8 436.5 435 436.8 435 440.1C 435 443 436.4 442.4 437.7 439C 438.9 435.7 440.4 435.1 441.4 437.5zM 377 443.6C 374.5 450 358.9 464 356.4 461.9C 355.4 461.1 356.3 459.8 360.8 456C 363.9 453.4 368.9 448.7 371.9 445.6C 374.9 442.6 377.5 440.2 377.7 440.4C 377.9 440.6 377.6 442 377 443.6zM 373.6 461.5C 371.6 467.7 370.2 470.5 367.9 472.4C 366.2 473.8 364.4 475 363.9 475C 363.4 475 362 472.9 360.8 470.4C 358.5 465.9 358.5 465.8 360.5 464.8C 361.6 464.2 365.4 460.8 369 457.4C 372.6 453.9 375.7 451.5 375.9 452.1C 376 452.7 375 456.9 373.6 461.5zM 367.4 477.5C 366.7 479.1 365 479.6 365 478.1C 365 477.3 365.7 476.8 367.7 476.1C 367.8 476 367.7 476.7 367.4 477.5zM 335 482.5C 335 483.3 334.6 484 334 484C 333.5 484 333 483.3 333 482.5C 333 481.7 333.5 481 334 481C 334.6 481 335 481.7 335 482.5zM 346.4 494.5C 348.2 497.2 347.7 501.5 345.5 502.4C 342.8 503.4 340.2 497.3 342 494C 343.4 491.4 344.4 491.5 346.4 494.5zM 342.7 513.5C 345.6 516.5 348 519.8 348 520.9C 348 524.8 349.8 523.9 350.9 519.5C 352.2 514.5 357 508.3 358.8 509.4C 360.5 510.4 360.3 518 358.5 521.4C 356.9 524.4 356.5 528 357.8 528C 358.2 528 359.5 526.4 360.7 524.5C 363.3 520.6 367.4 517.5 369 518.5C 370.6 519.5 370.2 526.1 368.4 528.1C 367.5 529.1 366.2 529.6 365.4 529.3C 363.6 528.6 363.5 531.3 365.2 534C 366.8 536.5 364.6 540.7 360.6 543C 356.7 545.3 354.3 543.3 351.3 535C 350.4 532.7 350.2 532.9 347.7 538.3C 344.7 544.9 341 549 337.9 549C 335.8 549 335.8 548.7 336.4 542.5C 336.8 538.9 336.9 536 336.8 536C 336.6 536 334.3 537.1 331.7 538.4C 326.8 540.9 324 540.9 324 538.3C 324 536.1 328.9 531.7 330.6 532.4C 333.5 533.5 333.2 530 330.1 526.5C 324.1 519.6 327 508 334.6 508C 336.7 508 338.8 509.5 342.7 513.5z"/>
<path style="stroke:none; fill:#000000" d="M 534.7 406.2C 533.4 408 529.7 414.1 526.5 419.8C 523.4 425.4 520.6 429.9 520.4 429.7C 520.1 429.5 520.6 428 521.5 426.4C 523.5 422.6 523.5 414.6 521.5 412.6C 520.1 411.2 519.4 411.2 514.8 413C 509.4 415 508 416.3 508 419.3C 508 421.9 501.4 432.6 497.1 437.3C 494.4 440.1 491.9 441.6 486.6 443.1C 482.9 444.2 478.7 446.2 477.5 447.5C 476.2 448.7 473.9 450.1 472.4 450.4C 468.3 451.5 462.8 457.8 460.6 463.8C 457 473.9 460 495.9 467 511.1C 468 513.2 467.9 514.3 466.6 516.8C 464.7 520.5 464.6 528.1 466.4 533.2C 467.6 536.6 467.6 537.1 465.9 538.6C 463.5 540.7 461.7 547.1 462.6 550.4C 463.6 554.5 465.3 555.3 469.5 553.5C 471.6 552.7 473.4 552 473.6 552C 473.8 552 474 553.5 474 555.4C 474 560.3 475.6 564 477.8 564C 480.1 564 484.2 559.7 487 554.2C 488.2 551.9 489.5 550 489.9 550C 490.3 550 491.1 551.3 491.7 552.9C 492.3 554.5 493.9 556.6 495.4 557.5C 497.8 559.1 498.2 559.1 500.5 557.6C 503.9 555.4 507 550.2 507 546.8C 507 545.3 507.9 542.6 509 540.8C 510.1 539 511 536.7 511 535.6C 511 534.4 511.5 534 512.6 534.4C 515 535.3 520.2 532.6 524.6 527.9C 528.9 523.4 541.5 506.7 546.3 499.2C 547.8 496.9 549.6 495 550.3 495C 550.9 495 552.7 493 554.1 490.7C 556 487.5 558.1 485.7 562.2 483.8C 568.2 481 570 478 570 471.5C 570 469.1 570.5 468.1 572 467.7C 574.7 467 577.1 460.9 576.9 455.6C 576.7 452.5 577.3 450.6 579 448.3C 580.9 445.7 581.2 444.3 580.7 440.4C 580.4 437.7 579.5 435.1 578.6 434.5C 577.6 433.7 577 431.8 577 429.2C 577 421 575.1 419.3 559.9 414C 556.4 412.8 550.5 409.8 546.9 407.4C 543.2 405 539.5 403 538.7 403C 537.8 403 536 404.5 534.7 406.2zM 548.2 412.5C 552.2 415 557.7 417.7 560.5 418.6C 567.7 421 573 423.8 573 425.3C 573 426 571.3 429.5 569.2 433.1C 567.1 436.6 564.1 441.6 562.7 444.2C 561.2 446.8 559.4 449.3 558.6 449.7C 557.1 450.6 554.4 455.5 552.4 461.2C 549.4 469.7 531.9 493 525.6 496.9C 522.2 499 518.6 499.5 515.5 498.4C 514.1 497.8 514.1 497.6 515.8 496.4C 516.9 495.7 519.8 492 522.2 488.3C 524.7 484.6 530.8 475.3 535.9 467.8C 540.9 460.2 545 453.6 545 453.2C 545 452.7 546.4 450.4 548 448.2C 550.8 444.2 551.9 441 550.3 441C 549.8 441.1 546.6 445.9 543.1 451.8C 532.5 469.4 518.1 490.8 515.3 493C 512 495.6 511.4 495.3 508.8 490.8L 506.7 487.1L 509.5 480.8C 511 477.3 514.8 471.1 517.8 467C 526 455.9 536 440.3 536 438.5C 536 435.8 534.5 436.9 532 441.7C 529.2 447 519.2 462.2 515.9 466C 514.2 468.1 513.9 468.1 514.5 466.5C 514.9 465.4 515.6 461.6 516.2 458C 517.3 450.7 518.1 448.9 526.6 435.3C 536.2 419.8 539.6 413.2 538.4 412C 537.7 411.3 536.5 412.7 534.5 416.7C 531.1 423.4 521.3 439.8 519.3 442C 516 445.6 518.4 439.8 525.2 428C 535.2 410.5 537 408 539.1 408C 540.1 408 544.2 410 548.2 412.5zM 521 418.1C 521 421.5 519 424.1 515.3 425.7C 511.1 427.4 509.8 426.4 510.2 421.5C 510.5 418.2 513.7 416 518.3 416C 520.4 416 521 416.5 521 418.1zM 513.6 429.5C 517.8 428.9 518 429 518 431.3C 518 432.6 516.4 435.9 514.5 438.6C 509.8 445.2 495.1 460 493.2 460C 492.4 460 490 458.4 487.8 456.5C 485.7 454.5 482.8 452.4 481.4 451.8C 477.2 449.9 478.1 449.2 489.6 445.6C 495.3 443.8 500.1 439.2 504.5 431.6C 506.9 427.4 507.4 427 508.2 428.5C 509 429.9 510 430.1 513.6 429.5zM 575.5 435.8C 574.9 438.1 574.8 438.2 573 436.5C 571.1 434.8 571.1 434.7 573.3 430.6L 575.5 426.5L 575.8 429.9C 576 431.8 575.9 434.4 575.5 435.8zM 579.4 439.5C 580.2 441.6 578.4 445.7 576.1 447.2C 574.3 448.3 574.2 449.2 574.7 454C 575 457.5 574.8 460.5 574.1 461.8C 572.7 464.4 569.2 464.7 568.3 462.4C 567.9 461.2 567.5 461.1 566.9 462.1C 566.5 462.8 566.6 464.2 567.1 465.1C 568.5 467.8 568.2 474.3 566.5 476.7C 565.7 477.9 563.4 479.4 561.6 480C 559.7 480.6 556.5 482.9 554.6 485.1L 551 489L 551 483.6C 551 476.4 553.3 464.7 555.9 458.7C 558.5 452.6 560.6 452.9 560.2 459.2C 559.6 467.2 561.6 465.3 563.4 456.2C 565.2 446.9 568.6 439.5 571 439.5C 571.8 439.5 572.6 440.5 572.8 441.7C 573.3 444.9 574.6 444.6 575.9 441C 577 437.7 578.4 437.1 579.4 439.5zM 516 446.1C 514.9 450.1 503.3 463.3 498.9 465.6C 496.3 466.9 495.9 466.9 495.4 465.5C 495 464.6 495.7 463.2 497.3 462C 500.1 459.7 509.4 450.2 513.5 445.2C 515 443.4 516.4 442.1 516.6 442.3C 516.8 442.5 516.5 444.2 516 446.1zM 481.9 456C 488 459.1 494.2 466.9 499.9 478.7C 510.6 500.7 514.3 504.8 521.8 503.4C 526.4 502.5 534.7 494.3 543.4 481.7C 546.7 476.9 549.6 473.4 549.8 474C 550 474.6 547.8 478.6 544.9 482.8C 529.8 504.7 526.2 508 517.7 508C 513.5 508 512.6 507.6 509.2 504.1C 507.1 502 502.6 494.6 499.1 487.7C 487.6 465.1 478.4 458.2 468.2 464.7C 464 467.3 460.1 476 463 476C 463.6 476 464 475.4 464 474.6C 464 472.4 470.6 467.2 474.4 466.5C 481.7 465.1 489.2 472.6 498 490C 507.7 509.1 512.3 513.9 520.1 512.6C 526.5 511.6 529.9 508.8 537.3 498.5C 541.2 493 545.4 487.2 546.7 485.7L 549 482.8L 549 485.5C 549 490.4 540 504.7 527.6 519.5C 521 527.4 517.7 530 513.9 530C 511.8 530 511.1 529.3 510.4 526.9C 509 522.1 506.6 521.1 503.5 524L 501 526.3L 501 521.9C 501 517.3 498.9 513 496.6 513C 494.6 513 492.1 516.3 490.1 521.6C 488.3 526.3 488.2 526.3 487 523.9C 482.6 515.6 475.8 510.4 471.4 512.1C 469.3 512.8 468.9 512.3 466 504.2C 459.3 485.9 458.6 473.4 463.6 463.3C 467.9 454.5 474.1 452 481.9 456zM 512.9 465C 511.3 470.9 509.9 474.1 507.5 476.6C 505.7 478.5 503.8 480 503.3 480C 502.7 480 501.4 477.9 500.4 475.4L 498.5 470.8L 506.5 462.7C 510.9 458.2 514.6 455 514.8 455.7C 515 456.4 514.1 460.5 512.9 465zM 506.5 482.9C 506.2 483.5 505.4 484 504.8 484C 504.2 484 504.2 483.4 505 482.5C 506.4 480.8 507.6 481.2 506.5 482.9zM 479.9 518.5C 483.3 521.4 486.8 526.7 488 530.8C 488.8 533.7 489 533.5 490.9 526.3C 491.6 523.9 493.1 520.8 494.4 519.3C 496.4 516.9 497 516.8 498.4 517.9C 500.5 519.6 500.4 522.5 498.1 529.1C 497.1 532.2 496.6 535.3 497 536.5C 497.7 538.4 497.7 538.4 498.4 536.2C 499.5 532.7 504.9 527 507.1 527C 508.5 527 509 527.8 509.1 529.7C 509.4 536.2 507.9 539.6 505.2 538.5C 504 538.1 503.9 538.8 504.4 542.4C 504.8 545 504.7 547.8 504.1 548.9C 499.9 556.6 492.7 555.3 491.3 546.6C 491 544.6 490.5 543 490.1 543C 489.8 543 488.4 545.6 487.1 548.7C 485.7 551.8 483.5 555.6 482.2 557.1C 477.7 562.6 473.7 559.5 476 552.4C 477.9 546.7 476.9 545.8 471.5 548.5C 466.6 551 464 550.9 464 548.1C 464 545 467 542 470.1 542C 473.9 542 474 539.6 470.3 535.8C 466.5 531.8 465.8 522.8 469 518.7C 471.8 515.2 475.8 515.1 479.9 518.5z"/>
<path style="stroke:none; fill:#000000" d="M 472.7 481.7C 471.4 483 472 491.7 473.4 492.9C 475.5 494.6 477.4 490.8 476.6 486.5C 475.9 483.1 473.8 480.5 472.7 481.7zM 475 487.5C 475 488.3 474.6 489 474 489C 473.5 489 473 488.3 473 487.5C 473 486.7 473.5 486 474 486C 474.6 486 475 486.7 475 487.5z"/>
<path style="stroke:none; fill:#000000" d="M 481 496.1C 479.1 499.6 480.2 509.7 482.8 512.3C 484.8 514.3 485.1 514.3 486.6 512.8C 487.5 511.9 488.5 509 488.7 506.3C 489.1 502.4 488.7 500.8 486.8 498.1C 483.9 493.8 482.5 493.3 481 496.1zM 487 505C 487 508.2 484.5 510.9 482.9 509.3C 481.2 507.6 480.6 501.2 482.1 499.4C 483.3 497.9 483.6 498 485.2 500C 486.2 501.2 487 503.5 487 505z"/>
<path style="stroke:none; fill:#000000" d="M 254.7 408.4C 253.5 409.7 250 414.8 247 419.7C 240.1 431 238 433.7 238 431.8C 238 430.9 238.6 429.7 239.4 429.1C 241.4 427.4 242.2 421.8 240.9 418.1C 239.8 415 239.5 414.9 236.1 415.5C 229.1 416.8 226.2 418.6 225.2 422.3C 224 426.7 217.1 436.9 213 440.3C 211.3 441.8 208 443.5 205.7 444.1C 197.4 446.3 192.9 448.2 191.7 450.1C 191.1 451.1 189.7 452 188.7 452C 183.5 452 177.6 457.8 174.5 466.3C 171.1 475.5 174 494.1 181.2 508.3C 182.9 511.7 182.9 512.3 181.5 515C 179.8 518.3 179.5 527.6 181 531.6C 181.9 533.8 181.7 534.7 180 536.5C 177.6 539 176.4 544.6 177.4 548.5C 178 550.9 178.5 551.2 181.8 550.8C 183.8 550.5 186.3 550 187.3 549.6C 188.7 548.9 189 549.3 189 551.8C 189 553.5 189.4 556 190 557.4C 192 562.7 198.8 559.3 203 551C 205 547 207 545.7 207 548.4C 207 550.8 212.1 555 215.1 555C 219 555 224 548.8 224 543.9C 224 541.6 224.7 539.7 225.9 538.6C 227 537.6 228 535.8 228.2 534.7C 228.4 533.4 229.3 532.4 230.5 532.2C 236.1 531.4 237.8 530.4 243.7 524.8C 249.8 518.9 262.8 503.5 266.5 497.7C 267.4 496.2 268.8 495 269.6 495C 270.4 495 272.1 493.2 273.4 491.1C 275.3 488.2 277.6 486.4 282.3 484.2C 289.1 480.9 291 478.3 291 471.9C 291 470 291.5 469 292.4 469C 295.5 469 298 464 298 457.8C 298 453.7 298.4 451.8 299.4 451.4C 303.1 450 303.8 440.8 300.6 437.1C 299.9 436.2 299 433.3 298.7 430.6C 298.4 427.8 297.5 425 296.4 424C 295.3 423 289.8 420.5 284 418.5C 278.2 416.5 270.6 413.2 267 411.2C 257.4 405.7 257.2 405.7 254.7 408.4zM 266 414.8C 269.6 416.9 275.4 419.6 279 420.9C 282.6 422.2 287.4 423.9 289.8 424.8C 292.4 425.7 294 426.9 294 427.9C 294 428.8 291.9 432.7 289.4 436.5C 286.9 440.4 283.9 445.2 282.8 447.2C 281.6 449.3 279.9 451.2 278.9 451.5C 278 451.8 276.4 453.7 275.5 455.8C 274.6 457.8 272.9 461.4 271.8 463.7C 269.3 469.1 255.9 486.1 249.3 492.2C 244.1 497 238.3 499.4 234.3 498.4C 233 498 232 497.6 232 497.4C 232 497.1 233.5 495.6 235.4 494C 237.2 492.4 241.1 487.5 244.1 483.3C 247 479 253 470.9 257.2 465.2C 261.5 459.5 265 454.5 265 454C 265 453.5 266.4 451.5 268 449.7C 270.8 446.5 272 443 270.3 443C 269.8 443 266.6 447.4 263 452.7C 259.4 458.1 254.4 465.3 251.8 468.8C 249.2 472.2 245.3 477.7 243.1 480.8C 238.8 487.2 231.8 494 229.6 494C 228.8 494 227.2 492.4 226 490.4L 223.7 486.9L 226.5 481.4C 228.1 478.3 232.4 472 236.3 467.2C 246.1 454.9 255 442.2 255 440.5C 255 437.8 253.5 439 250.2 444.4C 246.7 450.4 233 468.3 232.5 467.8C 232.3 467.6 232.8 465 233.6 462C 234.4 459 235 455.3 235 453.9C 235 452.4 236 449.9 237.3 448.3C 239.3 445.9 244.3 438.6 255.2 422.2C 256.7 419.9 258 417.2 258 416.4C 258 413.5 255.7 415.6 252.6 421.1C 250.9 424.2 246.6 430.9 243 436.1C 233.1 450.5 234.4 444.5 244.6 428.9C 253.8 414.7 256.7 411 258.4 411C 259 411 262.4 412.7 266 414.8zM 226.4 431.6C 227.3 432.8 228.3 432.9 231.8 432.2C 235.8 431.3 236 431.3 236 433.5C 236 434.8 234.3 438 232.2 440.7C 226.7 447.6 212 461 209.8 461C 208.8 461 206 459.5 203.5 457.6C 201.1 455.7 198.1 453.9 197 453.5C 192.6 452.1 195.6 449.7 203.9 447.9C 210.5 446.5 216.3 442.2 220.6 435.5C 222.5 432.5 224.3 430 224.7 430C 225 430 225.8 430.7 226.4 431.6zM 296.3 439.1C 295.9 439.5 294.7 439.3 293.7 438.5C 292 437.3 292 437 294.2 433.4L 296.5 429.5L 296.8 433.9C 297 436.3 296.8 438.6 296.3 439.1zM 301 443C 301 446.2 299.8 448.1 297.3 449.1C 295.2 449.9 294.9 450.5 295.5 452.3C 296.8 455.8 296.5 461.7 295.1 463.4C 293.4 465.5 290.4 465.5 289.2 463.4C 287.9 461 286.7 463.5 288 465.9C 289.6 469 289.2 475.5 287.3 477.3C 286.3 478.1 283.6 479.6 281.3 480.5C 278.9 481.4 275.7 483.8 274 485.6L 271 489.1L 271 484C 271 473 276 456.4 279.8 455.2C 280.6 454.9 281 456.4 281 460.4C 281 467.4 282.5 467.7 283.4 460.9C 284.7 451.1 290.3 439.8 293 441.5C 293.6 441.9 294 443 294 444.1C 294 446.9 295.3 446.4 297.4 443C 299.2 439.8 301 439.8 301 443zM 234 446.9C 234 451.2 217.1 467.6 213.4 466.8C 211.2 466.4 210.3 464 212.3 464C 213.1 464 218.2 459.7 223.7 454.5C 229.1 449.3 233.6 445.1 233.8 445C 233.9 445 234 445.9 234 446.9zM 197.8 457.6C 203.9 460.6 210.1 467.3 215 475.9C 230.4 503.1 232.1 504.8 241.3 502C 246.1 500.6 258.1 489 265.1 478.9C 269.6 472.6 270 472.2 270 474.4C 270 475.8 267.2 479.6 254.3 495.6C 243.4 509.1 232.5 510.8 223.8 500.5C 222.9 499.4 219.3 493.5 215.9 487.5C 205.3 468.9 196.3 461.5 187.4 463.9C 185.3 464.5 182.8 465.6 182 466.3C 179.5 468.2 177 472.3 177 474.3C 177 475.6 177.9 475.1 180.8 472.1C 184.8 467.9 189.8 466.2 194.6 467.4C 199 468.5 208.2 478.3 212.9 486.7C 221.7 502.5 225.6 507.6 230.2 509.8C 233.5 511.4 235.4 511.7 238.5 511.1C 246.6 509.5 248.6 507.8 264 488.6C 267.5 484.2 268.6 483.4 268.8 484.9C 269.4 488.8 262.7 499 249.6 514.3C 237.7 528.1 230.5 531.5 227.6 524.5C 225.9 520.6 222.9 519.8 219.8 522.7C 218.1 524.2 218 524.1 218 520.7C 218 515.6 216.1 512 213.5 512C 210.8 512 208.7 514.3 206.2 519.7L 204.4 523.9L 200.9 519.3C 196.1 512.8 192.8 510.6 187.8 510.6L 183.5 510.5L 180.1 502C 175.6 490.5 173.6 479.1 175 472.5C 176.6 464.9 180.5 459.1 185.3 456.9C 190.8 454.5 191.6 454.5 197.8 457.6zM 231 464.3C 228.3 473.1 225.9 477.3 222.5 478.8C 218.9 480.4 219.1 480.6 216.8 475.3C 215.1 471.5 215 470.5 216.1 470.1C 216.9 469.9 220.9 466.4 225 462.4C 229.1 458.4 232.7 455.5 232.8 456.1C 233 456.6 232.2 460.3 231 464.3zM 223.5 482.9C 223.2 483.5 222.4 484 221.8 484C 221.2 484 221.2 483.4 222 482.5C 223.4 480.8 224.6 481.2 223.5 482.9zM 192.8 515.4C 197 517.6 202 523.3 203.5 527.6C 204.3 530 205 530.9 205.3 530C 205.6 529.2 206.4 526.8 207 524.8C 208.5 520 211.7 516 214.1 516C 215.7 516 216 516.7 216 520C 216 522.2 215.3 525.7 214.5 527.7C 212.8 531.8 212.6 535 214 535C 214.6 535 215 534.6 215 534C 215 533.5 216.6 531.2 218.6 529C 224.3 522.7 228.3 524.2 226.4 531.8C 225.7 534.5 224.8 535.6 223 536C 220.5 536.6 220.4 537.2 221.6 542.1C 222 544 221.5 545.5 219.5 547.8C 214.9 553.3 208.9 551.1 207.4 543.6C 207.1 541.6 206.5 540 206.1 540C 205.8 540 204.6 542.1 203.6 544.6C 201.4 549.9 194.7 557.4 192.8 556.7C 191.9 556.4 191.6 554.4 191.8 549.6C 191.9 545.8 191.7 543 191.3 543.2C 181.3 548.3 179 548.6 179 545.1C 179 542.2 181.6 539.6 184.6 539.5C 188.4 539.3 188.8 536.7 185.6 533.9C 180.3 529.3 179.8 519.9 184.7 516C 187.7 513.6 189.2 513.5 192.8 515.4z"/>
<path style="stroke:none; fill:#000000" d="M 187 485.8C 187 490.8 187.8 493 189.6 493C 193 493 192.2 482.9 188.7 482.2C 187.3 481.9 187 482.6 187 485.8zM 189.6 488.7C 188.6 489.7 187.7 488.2 188.6 486.9C 189.2 485.8 189.4 485.8 189.8 486.9C 190 487.6 189.9 488.4 189.6 488.7z"/>
<path style="stroke:none; fill:#000000" d="M 196 495.9C 194 499.8 195.3 507.4 198.7 511.2C 200.6 513.4 202.5 512.6 204 508.9C 207.2 501.2 199.7 489.1 196 495.9zM 202 499.9C 204.5 504.6 201.8 510.8 198.5 508C 197 506.8 196.4 499.9 197.7 498.7C 198.9 497.4 200.9 498 202 499.9z"/>
<path style="stroke:none; fill:#000000" d="M 158 417.5C 157.3 418.4 156.5 421.2 156.2 423.9C 155.5 432 159.6 436.4 161.9 429.9C 163.3 425.9 163.3 420.5 162 417.9C 160.7 415.6 159.7 415.5 158 417.5zM 161 423.9C 161 428.1 158.7 431.3 157.6 428.4C 157.1 427 157.7 422.6 158.7 420.7C 159.8 418.8 161 420.4 161 423.9z"/>
<path style="stroke:none; fill:#000000" d="M 584 417.5C 583.3 418.4 582.5 421.2 582.2 423.9C 581.5 432 585.6 436.4 587.9 429.9C 589.3 425.9 589.3 420.5 588 417.9C 586.7 415.6 585.7 415.5 584 417.5zM 587 423.9C 587 428.1 584.7 431.3 583.6 428.4C 583.1 427 583.7 422.6 584.7 420.7C 585.8 418.8 587 420.4 587 423.9z"/>
<path style="stroke:none; fill:#000000" d="M 156.4 452.5C 154.7 455.1 155.1 461.3 157.1 462.6C 159 463.7 161 460.8 161 457C 161 449.9 159.2 448.2 156.4 452.5zM 160 455.9C 160 456.9 159.3 458.3 158.5 459C 157.2 460 157 459.9 157 457.8C 157 456.4 157.3 455 157.7 454.7C 158.9 453.4 160 454 160 455.9z"/>
<path style="stroke:none; fill:#000000" d="M 582.4 452.5C 580.7 455.1 581.1 461.3 583.1 462.6C 585 463.7 587 460.8 587 457C 587 449.9 585.2 448.2 582.4 452.5zM 586 455.9C 586 456.9 585.3 458.3 584.5 459C 583.2 460 583 459.9 583 457.8C 583 456.4 583.3 455 583.7 454.7C 584.9 453.4 586 454 586 455.9z"/>
<path style="stroke:none; fill:#000000" d="M 30.6 520.2C 29.6 524.3 30 529.6 31.5 531.6C 33 533.5 33 533.5 34.5 531.6C 36.6 528.8 36.4 521.7 34.2 519.7C 31.8 517.5 31.4 517.6 30.6 520.2zM 34.1 524.3C 34 524.7 34 525.7 34 526.5C 34 527.3 33.6 528 33 528C 32.5 528 32 526.8 32 525.4C 32 524 32.5 523 33.1 523.2C 33.7 523.4 34.1 523.9 34.1 524.3z"/>
<path style="stroke:none; fill:#000000" d="M 456.6 520.2C 455.6 524.3 456 529.6 457.5 531.6C 459 533.5 459 533.5 460.5 531.6C 462.6 528.8 462.4 521.7 460.2 519.7C 457.8 517.5 457.4 517.6 456.6 520.2zM 460.1 524.3C 460 524.7 460 525.7 460 526.5C 460 527.3 459.6 528 459 528C 458.5 528 458 526.8 458 525.4C 458 524 458.5 523 459.1 523.2C 459.7 523.4 460.1 523.9 460.1 524.3z"/>
<path style="stroke:none; fill:#000000" d="M 541 587.1C 539.6 587.7 534.7 589.2 530 590.5C 510.1 595.9 502.6 598.2 486.7 603.7L 469.8 609.5L 469.7 622.5C 469.7 632.9 470 636.1 471.4 638.8C 472.3 640.6 472.8 642.5 472.5 643C 472.2 643.5 468.7 644.9 464.7 646.1C 460.7 647.4 457.1 648.7 456.6 649.1C 455.7 649.9 460.8 659.4 464.6 663.9C 467.2 667 468.9 667.1 478.3 664.9C 480.9 664.3 483.3 663.9 483.5 664.1C 484.1 664.8 493 686.1 493 687C 493 687.4 491.3 688.4 489.3 689.1C 476.6 693.2 474.8 694.1 475.4 696.6C 476.1 699.4 481 706.8 483.9 709.4C 486.5 711.7 489.5 711.7 495.8 709.5C 498.5 708.5 501.4 707.9 502.2 708.3C 503 708.6 504.7 710.9 505.9 713.5C 507.1 716 508.4 718 508.8 717.8C 512.1 716 529.1 708 529.4 708C 529.7 708 529 710.7 527.8 714L 525.8 720L 528 724.5C 529.2 727 531 729.5 532.1 730C 533.7 730.9 534 730.6 534.5 728.3C 534.8 726.7 536 722.3 537.2 718.5L 539.4 711.5L 540.1 716C 540.5 718.5 541.1 723.1 541.5 726.2C 542 731 542.5 731.9 544.3 732.2C 546.2 732.5 546.7 733.5 547.9 741.2C 548.7 746.1 549.7 750 550.2 750C 551.3 750 551.2 748.3 549.5 739.5C 548 731.7 548 731.7 550.5 728.8C 552.2 726.8 552.8 725.1 552.4 723.2C 552.2 721.7 551.1 715.9 550.1 710.2L 548.3 699.9L 551.5 698.6C 553.2 697.8 555.7 696.9 556.9 696.5C 558.1 696.1 562.3 694.3 566 692.4C 569.8 690.5 573.2 689 573.4 689C 573.7 689 576.3 687.9 579.3 686.6L 584.6 684.1L 585.9 671.3L 587.1 658.4L 583 651.6C 580.7 647.8 575.4 638.6 571.3 631.2C 560.7 612 545.1 586 544.2 586.1C 543.8 586.1 542.4 586.6 541 587.1zM 553.3 604.2C 560.8 616.7 584 657.9 584 658.7C 584 659.6 554 672.3 553.3 671.6C 552.9 671.2 559.6 649 560.5 648.2C 560.8 647.8 562.4 649 563.9 650.9L 566.7 654.3L 568.8 651.6C 571.1 648.6 572.8 640.3 571.4 638.5C 568.1 634 553.5 617 553 617C 552.6 617 551.7 618.5 550.8 620.2L 549.3 623.5L 549.7 618.5C 550.2 613.6 548.6 605 547.2 605C 546.8 605 540.7 607 533.6 609.4C 518.9 614.3 518.6 614.6 519.2 624.2C 519.7 631.5 521 633.2 525.1 631.7C 527.4 630.8 528.3 630.8 528.8 631.7C 529.3 632.4 530.9 643.2 532.4 655.7L 535.3 678.4L 533 679.9C 531.1 681.1 511.2 690 510.2 690C 510.1 690 506.1 682 501.4 672.2C 496.7 662.5 488.3 645.2 482.7 633.7C 476.6 621 473 612.6 473.6 612.1C 475.7 610 535.9 591.3 544.2 590.1C 544.5 590 548.6 596.4 553.3 604.2zM 544 612.2C 544 614 544.3 617.1 544.6 619.1L 545.2 622.7L 539.9 624.3C 536.9 625.2 533.1 626.2 531.3 626.5C 529.5 626.8 526.9 627.5 525.5 628C 521.7 629.4 521 628.6 521 622.6C 521 618.2 521.4 617.2 523.3 616.2C 525.5 615 541.8 609.2 543.3 609.1C 543.7 609 544 610.5 544 612.2zM 548 615.8C 548 618.4 547.6 619.9 547 619.5C 546.5 619.2 546 616.5 546 613.7C 546 610 546.3 608.9 547 610C 547.5 610.8 548 613.4 548 615.8zM 499.4 673.2L 509.2 693.9L 508.5 702.5C 508.1 707.3 507.5 710.8 507 710.4C 506.1 709.3 493.5 682.2 491 676C 490 673.5 485.3 663.2 480.6 653.1C 471.9 634.7 471.9 634.6 471.4 625.1L 470.9 615.5L 480.2 634C 485.3 644.2 493.9 661.8 499.4 673.2zM 560.7 628.8C 564.1 633.1 567.2 637.3 567.5 638.1C 567.8 638.9 567.3 641.4 566.4 643.5L 564.8 647.4L 560.1 642.4C 552.3 633.9 550 630.7 550 628.3C 550 625.4 552 621 553.4 621C 554 621.1 557.3 624.6 560.7 628.8zM 548.3 627.9C 547.8 631.2 548.2 632.3 550.4 634.7C 551.9 636.2 552.9 638.2 552.6 639C 552.3 639.8 550.4 645.9 548.4 652.5C 544.4 665.1 544.2 665.6 543.6 664.9C 542.9 664.2 539.1 628.7 539.6 627.9C 539.9 627.4 541.6 626.8 543.5 626.4C 545.5 626.1 547.3 625.4 547.6 624.9C 548.6 623.2 548.8 624 548.3 627.9zM 538.5 637.9C 539.5 649.6 543.2 677.1 548.6 712.8C 550.5 725.6 549.8 729.4 545.7 728.8C 544 728.6 543.4 727.7 543.2 725C 542.8 720.8 538.3 685.6 534 653.6C 532.4 641 531.1 630.5 531.3 630.4C 531.4 630.2 532.7 629.7 534 629.2C 537.3 628 537.7 628.7 538.5 637.9zM 557.6 649.7C 556.9 652.3 554.1 661.5 551.4 669.9L 546.5 685.4L 545.7 680.9C 544.4 673.9 545.5 666.4 550 652.5L 554.2 639.6L 556.5 642.2C 558.7 644.8 558.8 645.2 557.6 649.7zM 569.4 646.4C 569.1 647.8 568.4 649 567.9 649C 566.8 649 566.8 648.7 568 645.4C 569.3 642.1 570.3 642.8 569.4 646.4zM 475 646.9C 475 647.3 472.2 648.5 468.8 649.5C 465.4 650.4 462 651.4 461.3 651.7C 460.6 652 460 651.8 460 651.2C 460 650.7 462.8 649.4 466.3 648.2C 473.3 645.9 475 645.6 475 646.9zM 584.6 666.2C 584.3 668 583.8 671.7 583.5 674.5C 583.1 677.2 582.4 680 581.8 680.7C 580.6 682.1 562 691.2 554.1 694.2C 549.7 695.9 548.6 696 547.9 694.9C 546.6 692.8 546.8 691.2 549.1 683.4L 551.2 676.4L 562.8 671.5C 569.3 668.9 576.3 665.9 578.5 664.9C 584.4 662.3 585.2 662.5 584.6 666.2zM 536 686.2C 535.9 688 534.9 692.4 533.7 696L 531.5 702.5L 521.5 707.7C 516 710.6 511 713 510.4 713C 508.9 713 509.8 697.1 511.5 694.4C 512.6 692.7 532.2 683.4 535.3 683.1C 535.7 683 536 684.5 536 686.2zM 494.4 691C 493.1 692.3 478.9 697.2 478.2 696.6C 477.7 696 479.6 695.2 488.5 692C 494.3 689.8 495.8 689.6 494.4 691zM 537.5 709.7C 536.7 712.6 535.3 717.5 534.4 720.5C 533.6 723.5 532.5 726 532 726C 531.5 726 530.3 724.6 529.5 722.9C 527.9 720 528 719.4 532.1 707.2C 534.4 700.2 536.5 694 536.9 693.5C 537.2 692.9 537.8 695.2 538.2 698.5C 538.8 702.8 538.6 706 537.5 709.7z"/>
<path style="stroke:none; fill:#000000" d="M 395.5 590.5C 393.3 591.2 385.2 593.5 377.5 595.5C 363.6 599.1 343.8 605.3 332.7 609.5L 326.9 611.6L 326.8 624.1C 326.7 634.1 327 637.2 328.4 639.9C 330.5 643.9 330.6 643.8 320.5 647.1C 316.4 648.4 313 650 313 650.6C 313 651.2 315.1 654.8 317.8 658.6L 322.5 665.5L 328 665.5C 331 665.4 335.1 665.1 337.1 664.6L 340.7 663.8L 345.3 674.7C 347.9 680.6 350 685.8 350 686.2C 350 686.5 348.3 687.4 346.3 688.1C 344.2 688.7 340.1 690.2 337.2 691.2C 332.3 693 331.9 693.4 332.5 695.7C 333.5 699.8 340.8 708.9 343.6 709.6C 345.3 710 348.6 709.5 352.4 708.1C 355.7 706.9 358.8 706 359.2 706C 359.6 706 361.1 708.2 362.5 711C 363.9 713.7 365.2 716 365.5 716C 365.7 716 368.1 714.8 370.7 713.4C 375.8 710.7 387 706 387 706.6C 387 706.8 386.1 709.2 385 712.1C 382.6 718.1 383.3 722.1 387.6 726.1C 389.7 728.1 390.3 728.2 391 727C 391.5 726.2 392 724.8 392 723.9C 392 723.1 393 719.5 394.2 715.9L 396.4 709.5L 397.1 714C 397.5 716.5 398.1 721.1 398.5 724.2C 399 729 399.5 730 401 730C 403.5 730 403.8 730.6 405.2 739.4C 405.8 743.6 406.7 747 407.2 747C 408.3 747 408.2 744.5 406.5 736.6C 405.1 729.8 405.1 729.7 407.5 726.8C 409.1 724.9 409.8 723.1 409.5 721.7C 409.2 720.5 408.3 715.2 407.4 710C 406.6 704.8 405.6 700.2 405.4 699.8C 404.8 698.9 405.8 698.5 426.5 689.7L 441.5 683.4L 442.8 670.8L 444.2 658.1L 441.2 653.8C 439.6 651.4 433.6 641.4 427.8 631.5C 410.6 601.8 402.6 589.1 401 589.1C 400.2 589.1 397.7 589.8 395.5 590.5zM 409.3 604.5C 413.1 610.5 421.4 624.5 427.7 635.5C 434.1 646.5 439.6 655.9 440.1 656.4C 442.5 659 441.5 659.6 420.5 667.8C 415 670 410.4 671.5 410.3 671.1C 409.8 669.9 416.8 649.6 417.8 649.2C 418.3 649.1 419.7 650.1 420.9 651.6C 422.7 653.9 423.2 654.1 424.6 652.9C 426.8 651.1 429 645.8 429 642.5C 429 640.8 426.9 637.5 422.7 632.7C 419.3 628.7 415.1 623.8 413.5 621.8C 410.5 618 410.5 618 408.9 620.1C 407.4 622.1 407.3 621.9 406.7 615.4C 406.3 611.7 405.6 608.2 405.1 607.7C 404.4 607 399.4 608.2 390.6 611.1C 377.2 615.4 377 615.5 376.4 618.8C 375.6 623.1 376.4 630.6 377.9 632.4C 378.8 633.5 379.7 633.6 382 632.7C 383.6 632.1 385.2 631.9 385.6 632.3C 386.4 633 391.9 671.1 391.9 676.1C 392 678.2 391.2 679 387.3 680.8C 375.2 686.2 367.6 689 366.9 688.3C 365.8 687.2 330 615.2 330 614.1C 330 613.6 333.9 612 338.8 610.5C 343.6 609.1 350.8 606.7 354.7 605.3C 364.4 601.9 398 593.1 400.4 593.3C 401.6 593.4 404.8 597.4 409.3 604.5zM 401 613.7C 401 615.3 401.3 618.1 401.6 620.1C 402.2 623.3 401.9 623.8 399.4 624.8C 394.6 626.7 379.8 630 378.9 629.4C 377.5 628.6 377.8 619.4 379.3 618.2C 380.4 617.3 398.4 611.1 400.3 611C 400.7 611 401 612.2 401 613.7zM 405 617.3C 405 621 404.7 622.1 404 621C 402.7 619 402.7 610.7 404 611.5C 404.6 611.8 405 614.5 405 617.3zM 417.9 630.4C 421.8 635 425 639.4 425 640.1C 424.9 640.9 424.1 643 423.1 644.8L 421.4 648.1L 417.4 643.7C 407.4 632.6 406.8 631.7 407.4 628.2C 407.8 625.4 409.5 622 410.5 622C 410.7 622 414 625.8 417.9 630.4zM 405.2 629.3C 404.9 631.9 405.4 633.4 407.4 635.5C 408.9 637.1 409.9 638.8 409.7 639.4C 409.4 640 407.5 646 405.4 652.7C 403.2 659.5 401.2 665 400.9 665C 400.1 665 395.9 629.7 396.6 629C 396.9 628.7 399 628 401.3 627.3C 403.6 626.7 405.5 626.2 405.5 626.1C 405.6 626 405.4 627.5 405.2 629.3zM 395.3 638C 396.5 649.9 402.9 695.7 404.5 704C 405.3 708.1 406.2 714.2 406.6 717.5C 407.1 722.7 406.9 723.7 405.2 725.4C 404 726.4 402.6 727 401.9 726.8C 401.1 726.5 399.5 717.9 397.4 701.4C 395.6 687.7 392.8 666.6 391.2 654.5C 388 631.4 388.1 629.6 392.4 630.2C 394.2 630.5 394.6 631.5 395.3 638zM 414.6 650.3C 413.9 652.6 411.1 661.2 408.4 669.4C 404.3 681.7 403.4 683.7 402.9 681.4C 401 673 403.2 662.1 410.2 643.6L 411.4 640.7L 413.6 643.4C 415.7 645.8 415.8 646.3 414.6 650.3zM 427 645.2C 427 647.1 425.2 649.5 424.5 648.8C 424.1 648.5 424.3 647.2 425 646.1C 426.2 643.7 427 643.4 427 645.2zM 332 647.5C 332 648 319.4 652 317.7 652C 315.4 652 318.7 650.1 323.5 648.7C 328.6 647.1 332 646.6 332 647.5zM 336 655C 338.6 660.2 338.6 660.6 334.9 661.9C 327.4 664.5 322.2 662.8 318.9 656.7C 317.8 654.8 317.7 654.9 325 652.6C 332.5 650.3 333.7 650.5 336 655zM 351.4 690C 350.1 691.3 335.8 696.1 335.2 695.5C 334.4 694.7 335 694.5 343 691.7C 351.4 688.8 352.9 688.5 351.4 690zM 395.4 704.5C 394.3 710.2 389.8 724 389 724C 388.6 724 387.5 722.5 386.7 720.7C 385.2 717.6 385.3 717 389.1 706C 391.2 699.7 393.3 693.8 393.7 693C 394.6 690.9 396.1 700.8 395.4 704.5zM 355.8 697.5C 357 700 358 702.2 358 702.4C 358 702.6 355.3 703.7 351.9 704.9C 347.7 706.3 345.2 706.6 343.6 706C 341.2 705.1 336.4 699.3 337.2 698.4C 337.8 697.8 351.2 693.2 352.6 693.1C 353.1 693 354.6 695 355.8 697.5z"/>
<path style="stroke:none; fill:#000000" d="M 112 594.5C 110.1 595.2 101.3 597.9 92.5 600.4C 76.6 604.9 48.4 614.2 47.3 615.4C 46.9 615.7 46.6 621.2 46.5 627.6C 46.3 636.9 46.7 640 48.1 642.9C 49 644.9 49.7 646.7 49.5 647C 49.3 647.4 45.7 648.7 41.6 650.1C 37.4 651.4 34 653 34 653.5C 34 654.1 35.9 657.7 38.3 661.5L 42.6 668.5L 47.5 668.5C 50.3 668.4 54.1 668.1 56 667.7L 59.5 666.9L 64.1 677.7L 68.8 688.5L 66.1 689.7C 64.7 690.4 60.9 691.9 57.8 693.1C 50.7 695.6 50.4 697.2 55.6 704.8C 60.5 712.2 62.7 713 70.3 710.2C 73.7 709 76.8 708 77.1 708C 77.4 708 78.7 710.3 80 713C 81.3 715.8 82.6 717.9 82.9 717.7C 85.2 716.6 102.5 708 102.7 708C 102.9 708 102.1 710.3 101 713.2C 99.4 717.4 99.2 719.1 100 722C 101.1 726.2 105.7 731.2 106.3 728.9C 106.6 728.1 107.8 723.9 109.1 719.5L 111.5 711.5L 112.3 717.5C 112.7 720.8 113.3 725.4 113.6 727.7C 114 730.7 114.5 731.7 115.5 731.4C 117.5 730.6 119 734.2 119.7 741.5C 120.1 745.6 120.7 747.9 121.4 747.7C 122.8 747.2 122.8 747.1 121.1 738.4C 119.8 731.6 119.8 731.2 121.9 728.4L 124 725.5L 122 713.6C 120.9 707.1 120.2 701.4 120.5 701C 120.8 700.5 123.2 699.4 125.8 698.4C 128.4 697.4 131.4 696.1 132.5 695.4C 133.6 694.8 138.8 692.4 144 690.1L 153.6 686L 154.8 673.3C 155.8 662.9 155.8 660.4 154.7 659.1C 153.2 657.3 147.1 646.7 138.5 631C 130.9 617.1 116.6 593 116 593.1C 115.7 593.1 113.9 593.7 112 594.5zM 117.2 598.7C 119.6 601.6 130.9 621.1 141.5 640.5C 146.8 650.4 151.6 658.9 152.1 659.4C 154.1 661.6 152.6 663 144.3 666.3C 139.4 668.3 132.9 671 129.8 672.4C 126.6 673.8 124 674.7 124 674.4C 124 672.8 130.4 653.4 131.1 652.5C 131.7 651.9 132.9 652.6 134.5 654.5C 136.6 657.2 137 657.3 138.3 656C 139.9 654.3 142 648.6 142 645.8C 142 644.3 131.9 630.7 124.9 622.6C 124.5 622.2 123.5 623.1 122.6 624.6C 121.1 627.5 121.1 627.4 121 620.9C 121 610.3 120.7 610.2 106 615.3L 93.5 619.7L 92.8 623.6C 92.1 627.4 93.6 637 94.9 637C 95.2 637 97 636.6 98.8 636.1C 100.5 635.6 102 635.4 102 635.8C 102.1 636.2 103.4 646.4 104.9 658.5C 106.5 670.6 107.5 680.8 107.1 681.2C 106.3 682.1 86 691 84.8 691C 84.3 691 80.8 684.6 77 676.7C 58.1 637.3 50.1 620.2 49.8 619C 49.4 617.3 67.6 610.8 94.5 603C 105.5 599.8 114.8 597.1 115.1 597.1C 115.4 597 116.4 597.8 117.2 598.7zM 116 619.2C 116 621.6 116.3 624.4 116.6 625.6C 117.1 627.4 116.4 627.9 112 629.3C 109.1 630.2 106 631 105 631C 104 631 101.5 631.7 99.5 632.6C 96.4 633.9 95.6 633.9 94.9 632.8C 93.6 630.8 93.8 623.4 95.3 622.2C 96.4 621.3 113.7 615 115.3 615C 115.7 615 116 616.9 116 619.2zM 119.9 621.7C 120 623.5 119.6 625 119.1 625C 117.9 625 116.8 618.7 117.7 616.5C 118.3 614.7 118.4 614.7 119.1 616.6C 119.5 617.6 119.9 620 119.9 621.7zM 67 660.5C 71.2 669.8 76.6 681.2 78.9 685.7C 82.4 692.7 83 694.8 82.9 699.7C 82.6 712.7 82.1 712.7 75.6 699C 72.4 692.1 68.5 683.3 67 679.5C 65.5 675.6 60.7 665.1 56.4 656C 48.7 639.7 48.6 639.4 48.3 630.5L 48 621.5L 53.6 632.5C 56.7 638.5 62.7 651.1 67 660.5zM 135.5 639.1C 137.9 642.5 138 643 136.8 646.9C 136.1 649.1 135.3 651 134.9 651C 134.6 651 132.5 648.6 130.2 645.7C 127.9 642.9 124.9 639.3 123.5 637.7C 120.6 634.5 120.4 633 122.6 628.7L 124.3 625.6L 128.6 630.5C 131 633.3 134.1 637.1 135.5 639.1zM 119.5 633.1C 119.1 634.8 119.2 636.5 119.6 636.9C 120.1 637.2 121.3 638.5 122.3 639.6C 124.1 641.7 124 642.1 119.9 655.1C 117.6 662.5 115.5 668 115.4 667.5C 114.4 664.8 111.3 633.4 111.8 632.8C 112.4 632.3 114.6 631.5 119.8 630.1C 120 630 119.9 631.4 119.5 633.1zM 110.7 644.6C 112.4 660.2 116.8 692.6 119.1 705.9C 121.6 720.7 121.6 725.2 119 727.5C 117.9 728.5 116.7 729 116.2 728.6C 115.8 728.2 114.3 718.5 112.9 707.2C 111.5 695.8 108.8 675.1 107 661.1C 103.8 636.5 103.8 635.6 105.6 634.3C 106.6 633.6 107.9 633.1 108.5 633.3C 109 633.5 110 638.6 110.7 644.6zM 128.6 652C 128.3 653.9 125.8 662.5 123.1 671C 118.1 686.9 118 687 116.5 677.9C 116 674.6 118.1 666 124.2 647.1L 125.3 643.6L 127.2 646C 128.7 647.8 129 649.3 128.6 652zM 139.4 650.4C 139.1 651.8 138.4 653 137.9 653C 136.8 653 136.8 652.7 138 649.4C 139.3 646.1 140.3 646.8 139.4 650.4zM 51.6 650.9C 50.9 652 39 655.3 38.3 654.6C 38 654.3 38.3 653.8 39.1 653.5C 49 649.9 52.7 649.1 51.6 650.9zM 55.4 658.3C 57.5 663.8 57.5 663.6 53.9 664.9C 48.1 666.9 44.4 666.3 41.5 662.9C 40.1 661.2 39.1 659.3 39.3 658.6C 39.6 657.6 48.9 654.3 52.1 654.1C 53.1 654 54.3 655.6 55.4 658.3zM 152.9 673.6C 152.3 678.6 151.2 682.1 150.2 683.1C 148.2 685 125.8 695.6 121.8 696.6C 119.1 697.2 119 697.1 119.1 692.9C 119.1 690.5 119.9 686.3 120.9 683.5L 122.7 678.5L 134.1 673.7C 140.4 671.1 147.3 668.1 149.5 667.1C 151.7 666.1 153.6 665.3 153.8 665.5C 153.9 665.6 153.5 669.2 152.9 673.6zM 108.5 686C 108.8 686.5 108.2 690.5 107 694.8C 105.5 700.3 104.2 703 102.7 704C 100 705.7 85.2 713 84.5 713C 83.6 713 84 699.2 84.9 696.8C 85.7 694.5 89.8 692.3 103 686.7C 107.3 684.8 107.7 684.8 108.5 686zM 69.9 692.4C 69.2 693.1 55.9 698 54.7 698C 52.5 698 55.4 696.4 61.3 694.3C 67.1 692.3 70.9 691.5 69.9 692.4zM 108.4 714.8C 106.9 720.1 105.4 724.9 104.9 725.4C 104.5 725.8 103.4 724.8 102.5 723C 100.9 719.9 101 719.5 105.1 706.7L 109.4 693.5L 110.3 699.3C 111 704.2 110.7 706.5 108.4 714.8zM 72.1 706.1C 64.4 709.5 63.1 709.4 59.4 705.5C 57.5 703.5 56 701.5 56 701.1C 56 700.7 59.5 699.2 63.8 697.7L 71.5 695.1L 73.6 699.8L 75.8 704.5L 72.1 706.1z"/>
<path style="stroke:none; fill:#000000" d="M 254 594.5C 252.1 595.2 243.3 597.9 234.5 600.4C 218.6 604.9 190.4 614.2 189.3 615.4C 188.9 615.7 188.6 621.2 188.5 627.6C 188.3 636.9 188.7 640 190.1 642.9C 191 644.9 191.7 646.7 191.5 647C 191.3 647.4 187.7 648.7 183.6 650.1C 179.4 651.4 176 653 176 653.5C 176 654.1 177.9 657.7 180.3 661.5L 184.6 668.5L 189.5 668.5C 192.3 668.4 196.1 668.1 198 667.7L 201.5 666.9L 206.1 677.7L 210.8 688.5L 208.1 689.7C 206.7 690.4 202.9 691.9 199.8 693.1C 192.7 695.6 192.4 697.2 197.6 704.8C 202.5 712.2 204.7 713 212.3 710.2C 215.7 709 218.8 708 219.1 708C 219.4 708 220.7 710.3 222 713C 223.3 715.8 224.6 717.9 224.9 717.7C 227.2 716.6 244.5 708 244.7 708C 244.9 708 244.1 710.3 243 713.2C 241.4 717.4 241.2 719.1 242 722C 243.1 726.2 247.7 731.2 248.3 728.9C 248.6 728.1 249.8 723.9 251.1 719.5L 253.5 711.5L 254.3 717.5C 254.7 720.8 255.3 725.4 255.6 727.7C 256 730.7 256.5 731.7 257.5 731.4C 259.5 730.6 261 734.2 261.7 741.5C 262.1 745.6 262.7 747.9 263.4 747.7C 264.8 747.2 264.8 747.1 263.1 738.4C 261.8 731.6 261.8 731.2 263.9 728.4L 266 725.5L 264 713.6C 262.9 707.1 262.2 701.4 262.5 701C 262.8 700.5 265.2 699.4 267.8 698.4C 270.4 697.4 273.4 696.1 274.5 695.4C 275.6 694.8 280.8 692.4 286 690.1L 295.6 686L 296.8 673.3C 297.8 662.9 297.8 660.4 296.7 659.1C 295.2 657.3 289.1 646.7 280.5 631C 272.9 617.1 258.6 593 258 593.1C 257.7 593.1 255.9 593.7 254 594.5zM 259.2 598.7C 261.6 601.6 272.9 621.1 283.5 640.5C 288.8 650.4 293.6 658.9 294.1 659.4C 296.1 661.6 294.6 663 286.3 666.3C 281.4 668.3 274.9 671 271.8 672.4C 268.6 673.8 266 674.7 266 674.4C 266 672.8 272.4 653.4 273.1 652.5C 273.7 651.9 274.9 652.6 276.5 654.5C 278.6 657.2 279 657.3 280.3 656C 281.9 654.3 284 648.6 284 645.8C 284 644.3 273.9 630.7 266.9 622.6C 266.5 622.2 265.5 623.1 264.6 624.6C 263.1 627.5 263.1 627.4 263 620.9C 263 610.3 262.7 610.2 248 615.3L 235.5 619.7L 234.8 623.6C 234.1 627.4 235.6 637 236.9 637C 237.2 637 239 636.6 240.8 636.1C 242.5 635.6 244 635.4 244 635.8C 244.1 636.2 245.4 646.4 246.9 658.5C 248.5 670.6 249.5 680.8 249.1 681.2C 248.3 682.1 228 691 226.8 691C 226.3 691 222.8 684.6 219 676.7C 200.1 637.3 192.1 620.2 191.8 619C 191.4 617.3 209.6 610.8 236.5 603C 247.5 599.8 256.8 597.1 257.1 597.1C 257.4 597 258.4 597.8 259.2 598.7zM 258 619.2C 258 621.6 258.3 624.4 258.6 625.6C 259.1 627.4 258.4 627.9 254 629.3C 251.1 630.2 248 631 247 631C 246 631 243.5 631.7 241.5 632.6C 238.4 633.9 237.6 633.9 236.9 632.8C 235.6 630.8 235.8 623.4 237.3 622.2C 238.4 621.3 255.7 615 257.3 615C 257.7 615 258 616.9 258 619.2zM 261.9 621.7C 262 623.5 261.6 625 261.1 625C 259.9 625 258.8 618.7 259.7 616.5C 260.3 614.7 260.4 614.7 261.1 616.6C 261.5 617.6 261.9 620 261.9 621.7zM 209 660.5C 213.2 669.8 218.6 681.2 220.9 685.7C 224.4 692.7 225 694.8 224.9 699.7C 224.6 712.7 224.1 712.7 217.6 699C 214.4 692.1 210.5 683.3 209 679.5C 207.5 675.6 202.7 665.1 198.4 656C 190.7 639.7 190.6 639.4 190.3 630.5L 190 621.5L 195.6 632.5C 198.7 638.5 204.7 651.1 209 660.5zM 277.5 639.1C 279.9 642.5 280 643 278.8 646.9C 278.1 649.1 277.3 651 276.9 651C 276.6 651 274.5 648.6 272.2 645.7C 269.9 642.9 266.9 639.3 265.5 637.7C 262.6 634.5 262.4 633 264.6 628.7L 266.3 625.6L 270.6 630.5C 273 633.3 276.1 637.1 277.5 639.1zM 261.5 633.1C 261.1 634.8 261.2 636.5 261.6 636.9C 262.1 637.2 263.3 638.5 264.3 639.6C 266.1 641.7 266 642.1 261.9 655.1C 259.6 662.5 257.5 668 257.4 667.5C 256.4 664.8 253.3 633.4 253.8 632.8C 254.4 632.3 256.6 631.5 261.8 630.1C 262 630 261.9 631.4 261.5 633.1zM 252.7 644.6C 254.4 660.2 258.8 692.6 261.1 705.9C 263.6 720.7 263.6 725.2 261 727.5C 259.9 728.5 258.7 729 258.2 728.6C 257.8 728.2 256.3 718.5 254.9 707.2C 253.5 695.8 250.8 675.1 249 661.1C 245.8 636.5 245.8 635.6 247.6 634.3C 248.6 633.6 249.9 633.1 250.5 633.3C 251 633.5 252 638.6 252.7 644.6zM 270.6 652C 270.3 653.9 267.8 662.5 265.1 671C 260.1 686.9 260 687 258.5 677.9C 258 674.6 260.1 666 266.2 647.1L 267.3 643.6L 269.2 646C 270.7 647.8 271 649.3 270.6 652zM 281.4 650.4C 281.1 651.8 280.4 653 279.9 653C 278.8 653 278.8 652.7 280 649.4C 281.3 646.1 282.3 646.8 281.4 650.4zM 193.6 650.9C 192.9 652 181 655.3 180.3 654.6C 180 654.3 180.3 653.8 181.1 653.5C 191 649.9 194.7 649.1 193.6 650.9zM 197.4 658.3C 199.5 663.8 199.5 663.6 195.9 664.9C 190.1 666.9 186.4 666.3 183.5 662.9C 182.1 661.2 181.1 659.3 181.3 658.6C 181.6 657.6 190.9 654.3 194.1 654.1C 195.1 654 196.3 655.6 197.4 658.3zM 294.9 673.6C 294.3 678.6 293.2 682.1 292.2 683.1C 290.2 685 267.8 695.6 263.8 696.6C 261.1 697.2 261 697.1 261.1 692.9C 261.1 690.5 261.9 686.3 262.9 683.5L 264.7 678.5L 276.1 673.7C 282.4 671.1 289.3 668.1 291.5 667.1C 293.7 666.1 295.6 665.3 295.8 665.5C 295.9 665.6 295.5 669.2 294.9 673.6zM 250.5 686C 250.8 686.5 250.2 690.5 249 694.8C 247.5 700.3 246.2 703 244.7 704C 242 705.7 227.2 713 226.5 713C 225.6 713 226 699.2 226.9 696.8C 227.7 694.5 231.8 692.3 245 686.7C 249.3 684.8 249.7 684.8 250.5 686zM 211.9 692.4C 211.2 693.1 197.9 698 196.7 698C 194.5 698 197.4 696.4 203.3 694.3C 209.1 692.3 212.9 691.5 211.9 692.4zM 250.4 714.8C 248.9 720.1 247.4 724.9 246.9 725.4C 246.5 725.8 245.4 724.8 244.5 723C 242.9 719.9 243 719.5 247.1 706.7L 251.4 693.5L 252.3 699.3C 253 704.2 252.7 706.5 250.4 714.8zM 214.1 706.1C 206.4 709.5 205.1 709.4 201.4 705.5C 199.5 703.5 198 701.5 198 701.1C 198 700.7 201.5 699.2 205.8 697.7L 213.5 695.1L 215.6 699.8L 217.8 704.5L 214.1 706.1z"/>
</g>
</g>
</svg>