<?xml version="1.0" encoding="UTF-8" standalone="yes"?>
<!-- Created with sK1/UniConvertor (http://sk1project.org/) -->
<svg xmlns="http://www.w3.org/2000/svg" xmlns:xlink="http://www.w3.org/1999/xlink"
  width="632pt" height="221pt" viewBox="0 0 632 221"
  fill-rule="evenodd">
<g>
<g>
<path style="stroke:none; fill:#000000" d="M 104.9 27.8C 89.8 36.3 80.2 43.6 68.6 55.5C 62.6 61.5 57 69.4 57 71.6C 57 72.2 59.1 74.1 61.7 75.8L 66.4 78.8L 73.4 75.3C 85.7 69.2 104.9 53.1 118 38L 123.2 32L 121.3 28.8C 120.3 27.1 118.1 25.1 116.4 24.4C 113.5 23.2 112.8 23.4 104.9 27.8zM 118.2 27.7C 121.1 30.3 120.4 32.2 114.4 38.8C 101.1 53.6 85.5 66.8 74.7 72.5L 68 76.1L 66.9 73.3C 66.3 71.8 64.9 69.5 63.8 68.3L 61.7 66.1L 66 61C 70.4 55.8 74 54.4 74 58C 74 59.1 74.5 60 75 60C 75.6 60 76 59.1 76 58C 76 56.7 76.5 56.2 77.5 56.6C 78.3 57 79 56.8 79 56.2C 79 55.7 78.3 55 77.5 54.6C 74.9 53.6 75.9 50.6 80 47.2C 84.3 43.6 89 42.9 89 45.7C 89 47.1 89.2 47.2 89.9 46.1C 90.4 45.4 91.3 45.1 91.9 45.4C 92.5 45.8 93 45.5 93 44.7C 93 43.9 92.3 43 91.5 42.6C 88.9 41.6 89.9 39.4 94 36.6C 98.8 33.4 102 33.2 102 36C 102 37.1 102.5 38 103 38C 103.6 38 104 37.3 104 36.4C 104 35.6 104.4 35.1 104.9 35.5C 105.4 35.8 106.1 35.6 106.5 35.1C 106.8 34.6 106.3 33.7 105.4 33.2C 103.2 32 104.2 30.4 108.8 28C 113.4 25.6 115.8 25.5 118.2 27.7zM 63.8 70.2C 65.2 72.1 66.3 76 65.3 76C 63.5 76 58.7 71.3 59.4 70.2C 60.3 68.6 62.5 68.7 63.8 70.2z"/>
<path style="stroke:none; fill:#000000" d="M 549.2 27.1C 535 37.2 501.6 46 488.4 43.2C 485.7 42.6 483.4 42.3 483.2 42.4C 482.4 43.3 522.6 106.3 534.2 122.4C 535.2 123.7 536.2 124.1 537.8 123.6L 540.1 122.8L 537.5 118.5C 536.1 116.1 535 113.9 535 113.7C 535 113.5 537.6 113 540.8 112.6C 554.1 111.1 577 103.9 587.9 97.7L 593.4 94.7L 598.5 100.4C 603.4 106 603.7 106.1 607.3 105.5C 611.5 104.7 611.8 103.8 609 100.7C 605.8 97.3 589.7 74 568.3 41.8C 561.8 32.1 556.1 23.9 555.5 23.7C 555 23.5 552.1 25 549.2 27.1zM 567.5 43.8C 573.4 52.8 578 60.2 577.9 60.4C 577 61 567 64.9 562.2 66.5L 556.8 68.2L 554.2 65.7C 552.7 64.4 550.1 62.5 548.4 61.6L 545.2 60.1L 549 48.3C 551 41.8 553.3 34.1 554 31.2C 554.7 28.2 555.6 26.2 556 26.7C 556.4 27.1 561.5 34.8 567.5 43.8zM 551.5 34.7C 550.6 37.9 548.5 44.9 546.8 50.2L 543.8 60L 539.9 60C 535.9 60 531 61.9 527.8 64.7C 526.8 65.6 525.2 66 523.8 65.6C 519.5 64.5 488 46.4 488 45C 488 44.7 491.5 44.6 495.9 44.7C 502.9 44.8 504 45.1 506.4 47.5C 514.5 55.6 531.9 54.6 538.4 45.7C 539.7 43.9 540.5 41.3 540.5 38.4C 540.5 34 540.6 33.9 546.5 30.5C 549.8 28.7 552.6 27.5 552.8 28C 553 28.5 552.4 31.6 551.5 34.7zM 538.7 40.2C 538.1 45 535.8 47.7 530.5 50.1C 522.9 53.6 509.8 51.3 507 45.9C 506.1 44.3 506.5 44 509.7 43.5C 511.8 43.2 518.9 41.2 525.5 39.1C 532.1 37 537.9 35.5 538.4 35.8C 538.8 36 539 38 538.7 40.2zM 506.5 58.3C 512 61.3 518.1 64.6 520.1 65.5C 523.5 67.1 523.6 67.4 523.6 72L 523.5 76.9L 517.4 77.9C 509.2 79.4 507.7 79.3 506.4 77.2C 499.7 67 488 48 488 47.5C 488 47.2 489.9 48.2 492.3 49.8C 494.6 51.4 501 55.2 506.5 58.3zM 543 62.1C 543 63.9 540.8 71.4 540 72.3C 539.1 73.4 527.9 67.9 528.3 66.5C 529.2 63.4 543 59.3 543 62.1zM 592.3 80.1C 595.6 85.3 597.4 89 596.7 89C 595.1 89 564 81.4 559.3 79.9C 556.5 79 556.2 78.6 556.9 76.6C 557.4 75.4 557.6 73.3 557.3 71.9C 556.9 69.6 557.3 69.3 562.2 67.7C 565.2 66.8 570.3 64.9 573.6 63.6L 579.5 61.2L 583 66.2C 584.9 68.9 589.1 75.2 592.3 80.1zM 551.7 65.4L 555.4 68.8L 549 70.8C 545.4 71.9 543.2 72.9 544.1 72.9C 545 73 547.8 72.4 550.3 71.6C 555.5 70 556 70.3 556 74.1C 556 78 554.8 78.4 548.6 76.4C 541.4 74.1 541.2 73.8 544.5 63.2C 545.2 61.1 547.9 61.9 551.7 65.4zM 532.9 71.4C 537.7 73.9 537.3 74.4 529.6 75.5C 525 76.2 525 76.2 525 73.3C 525 68.3 526.3 67.9 532.9 71.4zM 538.2 80C 536.5 85.5 535.2 85.8 530 82.1C 525.9 79.1 526.3 77.5 531.7 76.3C 540.3 74.4 540 74.3 538.2 80zM 553 80.3C 553 81.7 544.1 85.1 541.1 84.8L 538.3 84.5L 539.7 79.8L 541 75.1L 547 77.2C 550.3 78.4 553 79.8 553 80.3zM 526.6 80.9C 528 82.5 530.7 84.4 532.6 85C 536.1 86.2 536.2 86.4 535.6 89.9C 535.3 91.9 533.8 97.8 532.2 102.9L 529.4 112.1L 526.7 108.6C 522 102.5 509 81.7 509.5 81.2C 509.9 80.8 520.2 78.5 523.3 78.1C 523.8 78 525.2 79.3 526.6 80.9zM 588.9 88.7C 597.1 90.3 597.2 90.3 595 92C 593.7 93 590.3 94.9 587.4 96.4L 582 99.1L 575.6 96.6C 568 93.5 563 93.4 557.5 95.9C 552.2 98.3 549.9 101 549.3 105.8C 548.7 110.2 548.7 110.3 537.3 111.6C 533.8 111.9 531 112 531 111.7C 531 111.4 532.1 107.6 533.4 103.3C 534.7 99 536.2 93.7 536.7 91.5C 537.5 87.7 537.8 87.5 544 85.7C 547.6 84.6 551.6 83 552.9 82.1C 555.2 80.4 555.8 80.5 567.9 83.7C 574.8 85.5 584.3 87.7 588.9 88.7zM 604.7 97.7L 609 103.8L 606.5 104.2C 604.4 104.6 603.2 103.8 599.4 99.3C 595 94.2 594.9 93.8 596.6 92.5C 597.7 91.7 598.9 91.2 599.4 91.3C 599.9 91.5 602.3 94.3 604.7 97.7zM 575.3 97.6C 577.3 98.6 579 99.7 579 100.1C 579 101.2 555.4 109 551.8 109C 551.3 109 551 107.8 551 106.2C 551 97.1 564.4 92.4 575.3 97.6zM 535.4 118C 537 120.5 537.5 122 536.8 122C 535.7 122 531 115.9 531 114.5C 531 112.9 533.1 114.5 535.4 118z"/>
<path style="stroke:none; fill:#000000" d="M 249.5 29C 248.7 30.6 246.8 35.8 245.4 40.7C 243.1 48.2 242.7 51.3 242.6 62C 242.6 71.1 243.1 76 244.3 80C 246.5 86.9 245 85.3 241.9 77.5C 239.9 72.2 239.6 69.8 239.6 58C 239.7 46.2 240 43.5 242.3 36.6C 243.8 32.2 244.8 28.4 244.5 28.2C 244.3 28 242.1 27.5 239.7 27.3L 235.2 26.8L 233.1 32.4C 227.9 46.3 228.1 63.7 233.4 75.8C 236.3 82.1 234.2 80.1 230.5 73C 226.3 64.8 224.9 50.5 227 37.6C 227.5 34.3 227.8 31.5 227.6 31.3C 227.4 31.1 225.7 31.3 223.9 31.7C 221 32.5 220.5 33.2 219.3 37.5C 216.7 47.7 218.2 61.1 223.1 71.5C 226.2 78.1 234.5 87.2 240.1 90L 243.2 91.7L 237.7 93.9C 233.2 95.8 231.6 97.1 229.5 100.5C 224.3 109.5 227.8 115.7 240.4 119.8C 252 123.6 258.9 122.2 262.7 115.1C 265.9 109 265.7 105 262 101C 260.4 99.2 259 97.7 259 97.5C 259 97.4 262.5 97 266.8 96.7C 271 96.3 277.2 95.4 280.5 94.5C 289.9 92 307.2 84.3 314 79.6C 319.6 75.7 320.3 74.8 320.5 71.6C 320.7 67.3 320.1 67.1 316.9 70.6C 315.6 72 312.7 74.5 310.5 76C 304.9 79.8 285.1 89.8 281.5 90.5C 279.6 90.9 281 89.9 285.3 87.6C 298.6 80.6 312.6 70 317 63.5C 318.7 61.1 320 58.6 320 58C 320 56.7 314 49 312.9 49C 312.5 49 310.7 51.6 309 54.7C 305.1 61.7 292.8 74.6 284.4 80.6C 277.1 85.8 261 94 261 92.5C 261 92.3 264.2 90.1 268 87.6C 276.8 81.9 290.5 68.8 298 58.9C 304.5 50.5 308 45 308 43.4C 308 42.4 300.1 37.4 299.7 38.1C 299.6 38.3 297.6 42.3 295.3 47C 290.1 57.4 282.9 67 273 77.1C 264.6 85.6 257.5 90.5 264.6 82.9C 276.9 69.5 291 49.1 295 38.4C 295.9 36.3 295.6 35.7 292.7 34C 287.8 31 286.7 31.5 283.6 37.7C 277 51.3 258.9 82 254.9 86.4C 253.7 87.7 262.2 65.5 266.3 56.8C 268.1 52.8 272.2 45.3 275.3 40.1C 278.5 34.9 280.7 30.3 280.3 30C 278.5 28.3 269.8 26.9 268.5 28C 264.1 31.7 252.5 62.1 251.4 72.9C 250.5 80.9 248.9 80.8 249.6 72.7C 251.5 50.9 254 40.3 259.1 32.6C 260.7 30.4 261.6 28.2 261.2 27.9C 260.8 27.5 258.3 27 255.7 26.7C 251.3 26.3 250.8 26.4 249.5 29zM 257.7 28.8C 258.6 29.3 258.1 31.2 255.9 35.5C 251.9 43.7 250.3 50.3 248.8 64.6C 248 73.2 247.9 78.4 248.6 82.3C 249.8 88.9 248.9 88.9 246.5 82.2C 245.4 79.2 244.6 73.2 244.3 65.4C 243.8 55.2 244.1 52.1 246 44.9C 249.2 32.6 251.4 28 254.2 28C 255.5 28 257 28.4 257.7 28.8zM 242.5 30.7C 235.6 48.7 236 71.2 243.5 84.7C 245.3 88 245.5 89 244.4 89C 242.6 89 236.5 79.8 233.8 72.9C 229.9 62.8 230.4 43.2 234.9 31.7C 235.8 29.5 236.5 29 239.6 29C 242.6 29 243.1 29.3 242.5 30.7zM 277.8 30.5C 278.2 30.8 277.4 33 276.1 35.3C 268.1 49.5 261.6 63.1 257.5 74C 254.9 80.9 252.6 86.7 252.3 87C 252 87.3 252 83.4 252.3 78.3C 253 67.6 258.2 50.5 265 37L 269.1 28.8L 273.2 29.3C 275.4 29.6 277.5 30.1 277.8 30.5zM 225.7 35.2C 225.4 36.5 224.8 41.1 224.5 45.5C 223.3 60 226.8 72.9 234.3 81.8C 239.6 88.1 238.8 88.3 232.6 82.1C 223 72.6 218.8 59.6 220.1 43.3C 220.6 36.1 222 33 224.7 33C 225.8 33 226.1 33.7 225.7 35.2zM 291.4 34.6C 294.8 35.9 292.5 42.2 284.3 54.9C 276 67.7 256.6 90.9 255.3 89.7C 255 89.4 257.2 85.6 260.2 81.3C 265.5 73.7 282 45.3 285.6 37.7C 287.4 34 288.4 33.5 291.4 34.6zM 306 44C 306 46.6 294 62 285 71.1C 275.9 80.3 259.6 93 258.4 91.8C 258.2 91.6 261.4 88.8 265.5 85.6C 276.8 77 289.5 61.6 297.1 47.5C 301.1 40.1 301.2 40.1 303.6 41.6C 304.9 42.5 306 43.6 306 44zM 317.9 58C 318 64.8 292.2 84.3 275.2 90.4C 264.8 94.1 264.2 93.5 273.7 88.7C 288.5 81.1 305.5 65.6 311.2 54.6L 313.2 50.7L 315.6 53.6C 316.9 55.2 317.9 57.2 317.9 58zM 315.5 76.6C 311.4 80.2 298 87.1 289.3 90.1C 282.7 92.4 281 92 287.2 89.7C 294.6 86.8 310.8 77.9 314.7 74.5C 316.8 72.6 318.7 71.7 318.9 72.3C 319.1 72.9 317.6 74.9 315.5 76.6zM 253.3 92.1C 255.5 93.3 257 94.9 257 96.1C 257 96.5 254.9 96.1 252.3 95.2C 249.6 94.4 246.9 93.5 246.2 93.3C 244 92.8 245.9 91 248.6 91C 250 91 252.1 91.5 253.3 92.1zM 280.5 93C 279.4 93.5 277.8 93.9 277 93.9C 276.1 93.9 276.2 93.5 277.5 93C 278.6 92.5 280.2 92.1 281 92.1C 281.9 92.1 281.8 92.5 280.5 93zM 273.7 94.6C 273.4 94.9 272.5 95 271.8 94.7C 271 94.4 271.3 94.1 272.4 94.1C 273.5 94 274.1 94.3 273.7 94.6zM 252.2 96.7C 257.1 98.4 262.7 103.3 263 106C 263.1 106.8 263.2 108.6 263.1 110L 263 112.5L 260.5 109.4C 255.9 103.6 241.1 99.4 233.9 101.9C 232.1 102.5 230.5 102.9 230.3 102.7C 229.6 102 234.3 96.8 236.4 96C 239.9 94.6 247.2 94.9 252.2 96.7zM 250.1 104.8C 258.8 108.1 262.3 112.4 259.6 116.6C 258.7 117.9 256.8 119.3 255.4 119.6C 251.5 120.6 241.7 119.4 237.9 117.5C 233.7 115.4 228 110.1 228 108.3C 228 107.6 229.5 106.1 231.3 105C 235.3 102.5 243.7 102.4 250.1 104.8z"/>
<path style="stroke:none; fill:#000000" d="M 155.8 32.7C 153.5 35.1 153 36.5 153 40.8C 153 47.5 155.6 65.5 158.1 75.1C 160.4 84.6 166.7 102.6 168.8 106.2C 170.5 109.2 173.9 109.8 181 108.3L 184.3 107.7L 183.6 99.3C 182.1 79.6 178.1 62.2 171 44.8C 166.1 32.6 165.2 31.2 161.4 30.4C 159.1 30 157.9 30.4 155.8 32.7zM 166.4 38.1C 168.3 41.7 169.1 44.3 168.6 45.5C 168.1 46.9 167.7 47.1 166.8 46.2C 165.1 44.5 163.5 44.7 164.9 46.4C 165.7 47.4 165.8 48 165 48.5C 164.5 48.8 164 49.6 164 50.2C 164 50.9 164.6 50.8 165.5 50C 166.7 49 167.3 49 168.6 50.1C 170.1 51.3 170.2 51.2 169.5 49.1C 168.1 44.4 170.9 48 172.8 53.3C 176.1 62.2 176.2 63.7 174 64.3C 172.9 64.6 171.7 64.4 171.4 63.9C 171.1 63.4 170.4 63 169.8 63C 169.1 63 169.1 63.4 169.9 64.3C 170.7 65.3 170.6 66 169.8 66.8C 168.2 68.4 169.6 69.6 171.4 68.1C 172.4 67.3 173 67.2 173.5 68C 173.8 68.5 174.6 69 175.2 69C 175.9 69 175.8 68.5 175.1 67.6C 174.2 66.6 174.2 66 175 65.5C 175.6 65.1 176.3 65 176.5 65.2C 177.3 66 181.1 86.4 181.7 93.4L 182.3 100.9L 178.8 100.4C 175.7 99.9 175 100.2 172.8 103L 170.3 106.2L 166.6 96.4C 157.2 71.9 151.9 38.3 156.6 33.5C 159.8 30.4 163.2 32 166.4 38.1zM 181.1 103.6C 182.1 104.9 182.1 105.3 180.9 106.1C 178.7 107.5 173 107.2 173 105.7C 173 102.2 178.7 100.7 181.1 103.6z"/>
<path style="stroke:none; fill:#000000" d="M 173.2 84.7C 173.9 85.6 173.9 86.4 173 87.5C 172.2 88.4 172.1 89 172.8 89C 173.4 89 174.2 88.5 174.5 88C 174.9 87.4 175.9 87.2 176.8 87.4C 178 87.8 178.5 87.3 178.6 85.7C 178.7 83.7 178.3 83.4 175.4 83.4C 172.8 83.4 172.3 83.7 173.2 84.7z"/>
<path style="stroke:none; fill:#000000" d="M 345.5 33.6C 341.5 37.3 343.3 37.8 347.5 34.1C 349.5 32.4 350.4 31 349.7 31C 348.9 31 347.1 32.1 345.5 33.6z"/>
<path style="stroke:none; fill:#000000" d="M 353.4 32.9C 350.1 34.9 347.5 37.8 348.2 38.6C 348.5 38.9 350.1 37.9 351.6 36.4C 353.2 35 355.4 33.4 356.4 33.1C 357.5 32.7 357.9 32.1 357.4 31.7C 356.8 31.4 355 31.9 353.4 32.9z"/>
<path style="stroke:none; fill:#000000" d="M 358.5 34.4C 355.2 35.9 351.3 39.7 352.3 40.6C 352.6 40.9 354.1 40 355.7 38.6C 357.2 37.1 359.5 35.7 360.8 35.4C 362 35 363 34.4 363 33.9C 363 32.7 362.1 32.8 358.5 34.4z"/>
<path style="stroke:none; fill:#000000" d="M 387.5 35C 378.3 36.3 368.4 38.8 364 41C 357 44.6 356.9 44.9 358.6 67C 359.4 78.1 360.7 88.3 361.6 90.7C 364.2 97.7 370.8 102.8 390 112.3C 399.5 117.1 408.3 121.9 409.6 123.1C 412.3 125.6 416.1 125.3 417.4 122.4C 417.9 121.3 420.6 119.1 423.4 117.5C 432.8 112.3 445.5 103.8 449.2 100.2C 455.6 94.1 456.5 89.7 456.5 65.2L 456.5 43.8L 453.6 41.5C 450.2 38.8 442 36.5 430.7 35C 421.7 33.9 396.4 33.9 387.5 35zM 438.1 37.4C 447.1 39 454.3 42.4 453.8 44.7C 453.4 46.8 446 50.6 439.6 52C 436.9 52.6 426.8 53.5 417.2 54C 391.3 55.5 369.9 53.3 362.3 48.3C 359.2 46.3 359.4 45.5 363.4 43.1C 368.1 40.2 380.9 37.1 392.7 36C 404.9 34.9 428.1 35.6 438.1 37.4zM 455 52C 455 55.6 451.1 58.5 442.7 61.2C 427.4 66.1 373.4 64.1 362.3 58.2C 360.5 57.2 358.2 50.5 359.3 49.4C 359.5 49.2 361.7 49.8 364.1 50.9C 372.5 54.6 380.4 55.5 404.5 55.4C 429.9 55.3 440.8 54.1 448.4 50.6C 451.2 49.3 453.8 48.5 454.3 48.7C 454.7 48.9 455 50.4 455 52zM 453.4 60.7C 448.1 64.6 440.5 66.3 424.5 67C 395.1 68.4 368.2 65.7 361.9 60.9C 359.6 59.1 359.8 59.1 365.5 61C 374.4 64.1 388.2 65.4 411 65.4C 433.4 65.4 442.9 64 450.5 59.7C 454.5 57.4 456.9 58.2 453.4 60.7zM 382 67.9C 386.6 68.5 399.5 69 410.6 69C 432.2 69 441.7 67.8 450.4 64.1L 455.3 62L 454.8 74.8C 454.1 94.9 452 98.1 432 110.7C 414 121.9 411.4 121.9 390 110.7C 371.3 100.9 365.7 96.5 363.1 89.7C 362.6 88.4 361.9 83.1 361.5 77.9C 361.2 72.7 360.7 67.1 360.4 65.4L 360 62.3L 366.7 64.6C 370.5 65.9 377.3 67.4 382 67.9zM 414.7 122.7C 413.1 124.3 412.9 124.3 411.3 122.7C 409.7 121.1 409.8 121 413 121C 416.2 121 416.3 121.1 414.7 122.7z"/>
<path style="stroke:none; fill:#000000" d="M 400.6 40C 394.4 41.1 392.8 42.6 395.5 44.6C 398 46.5 415.2 46.2 417.2 44.2C 420.6 40.8 410.5 38.2 400.6 40zM 415.7 42.7C 416.3 44.3 404.1 45.5 399.3 44.3C 395.5 43.3 395.5 43.3 398 42.2C 401.3 40.7 415.2 41.1 415.7 42.7z"/>
<path style="stroke:none; fill:#000000" d="M 132.1 48.6C 129.5 51.8 127.5 58.6 125.3 70.5C 123.2 81.9 122.9 111.3 124.8 118.5L 126.1 123.6L 132.7 123.4C 137.1 123.3 139.5 122.8 140 121.9C 140.4 121.1 141.8 115.5 143 109.5C 147.2 88.5 146.8 50.6 142.3 47.2C 139.3 45 134.4 45.7 132.1 48.6zM 142.1 51.2C 144.4 56.6 144 95.9 141.6 108C 140.6 113.2 139.6 117.7 139.4 117.9C 139.2 118.1 138.4 117.5 137.5 116.6C 135.4 114.6 130.6 114.5 128.9 116.6C 126.8 119.2 125.9 115.9 125.3 103.2C 124.7 89.7 126.2 73 129.1 61.5C 131.9 50.7 133.6 48 137.6 48C 140.2 48 141 48.6 142.1 51.2zM 136.4 118.9C 138 120.7 137.9 120.8 134.7 121.4C 129.9 122.3 127.7 121.3 129.1 118.9C 130.4 116.5 134.2 116.5 136.4 118.9z"/>
<path style="stroke:none; fill:#000000" d="M 134.4 62.5C 134.3 63.9 134.6 64.7 135.2 64.4C 135.7 64.1 136.8 64.4 137.7 65.2C 139.2 66.3 139.3 66.3 138.7 64.7C 138.4 63.8 138.5 63 139.1 63C 139.7 63 139.8 62.5 139.5 62C 139.1 61.4 138.5 61.2 138 61.5C 137.5 61.8 136.9 61.6 136.5 61C 135.4 59.3 134.5 59.9 134.4 62.5z"/>
<path style="stroke:none; fill:#000000" d="M 133.6 81.5C 133.9 82.2 133.7 83.1 133.1 83.5C 132.5 83.8 132 84.6 132 85.3C 132 85.9 132.7 85.7 133.7 84.7C 135.2 83.2 135.5 83.2 137.1 84.6C 138.8 86.1 138.9 86 138.6 83.5C 138.4 81.3 137.7 80.6 135.7 80.4C 133.9 80.2 133.3 80.5 133.6 81.5z"/>
<path style="stroke:none; fill:#000000" d="M 131.4 99.5C 131.7 100.5 131.5 101.9 130.8 102.8C 129.7 104.1 129.8 104.2 131.8 103.6C 133.1 103.1 134.7 103.3 135.4 103.9C 136.5 104.8 136.8 104.5 136.8 102.6C 136.8 101.3 136 99.9 135.1 99.6C 134.2 99.3 132.9 98.7 132.1 98.4C 131.1 97.9 130.9 98.2 131.4 99.5z"/>
<path style="stroke:none; fill:#000000" d="M 106.5 56.1C 91.5 67.6 78.6 81.7 71.6 94.3C 66.1 104.3 66.1 104.3 72.4 108.5C 78.8 112.7 78.3 112.8 89.7 104.3C 101 95.8 116.9 76.8 122.1 65.5C 126.3 56.4 126.3 55.7 123.6 52.7C 119.5 48.3 115.8 49 106.5 56.1zM 122.4 54.2C 126.4 60.7 104.2 91.8 86.5 104.5C 79.6 109.4 79 109.7 79 107.6C 79 105.4 75 101 72.9 101C 70.5 101 70.5 100.9 73.1 95.7C 76.8 88.4 84.6 78.7 93.9 69.7C 103.5 60.4 107.1 58.9 108.5 63.2C 109.1 65.2 109.3 65.2 109.7 63.7C 109.9 62.8 110.6 62 111.3 62C 111.9 62 111.4 61.1 110.2 60C 109 58.8 108 57.7 108 57.5C 108 57.3 109.9 56 112.3 54.5C 116.9 51.7 120.7 51.6 122.4 54.2zM 76.1 105.6C 77.4 109.1 77 109.3 73.2 106.8C 69.4 104.4 69.1 103 72.5 103C 74.3 103 75.3 103.7 76.1 105.6z"/>
<path style="stroke:none; fill:#000000" d="M 95.4 70.9C 95.7 71.4 95.1 72 94 72.3C 92.9 72.6 92 73.3 92 73.8C 92 74.4 92.9 74.6 94 74.3C 95.4 73.9 96 74.3 96 75.3C 96 76.5 96.4 76.6 98.4 75.7L 100.8 74.5L 98.3 72.3C 95.9 70 94.4 69.3 95.4 70.9z"/>
<path style="stroke:none; fill:#000000" d="M 83 84.6C 83 85.9 82.1 87.1 80.8 87.5C 78.6 88.3 78.6 88.3 81.3 88.7C 82.8 88.9 84 89.8 84 90.6C 84 91.4 84.5 92 85 92C 85.6 92 86 91.3 86 90.5C 86 89.7 86.6 89 87.3 89C 88.1 88.9 88 88.5 86.9 87.7C 86.1 87 84.8 85.6 84.2 84.5C 83.1 82.5 83.1 82.5 83 84.6z"/>
<path style="stroke:none; fill:#000000" d="M 456.9 96.8C 454.6 101.3 454.6 101.6 456.4 100.1C 458.7 98.2 460.2 95.2 459.1 94.6C 458.7 94.3 457.7 95.3 456.9 96.8z"/>
<path style="stroke:none; fill:#000000" d="M 460.3 98.5C 459.1 100.4 458.5 102 459 102C 460 102 464 97.1 464 95.9C 464 94.1 462.4 95.2 460.3 98.5z"/>
<path style="stroke:none; fill:#000000" d="M 112.3 142.1C 110 142.8 109 143.7 109 145C 109 148.6 119.7 149.9 123.8 146.7C 125.8 145.1 125.2 144 121.5 142.4C 117.6 140.8 116.8 140.8 112.3 142.1zM 122 145C 122 146.7 121.3 147 117.1 147C 114.3 147 111.8 146.5 111.5 146C 110.3 144 112.2 143 117.1 143C 121.3 143 122 143.3 122 145z"/>
<path style="stroke:none; fill:#000000" d="M 250 145.5C 250 149.3 249.7 150 248 150C 246.9 150 246 150.4 246 151C 246 151.5 246.9 152 248 152C 249.8 152 250 152.7 250 158.5C 250 162.2 250.4 165 251 165C 251.6 165 252 160.3 252 153C 252 145.7 251.6 141 251 141C 250.5 141 250 143 250 145.5z"/>
<path style="stroke:none; fill:#000000" d="M 255 153.5C 255 161.2 255.4 166 256 166C 256.6 166 257 161.2 257 153.5C 257 145.8 256.6 141 256 141C 255.4 141 255 145.8 255 153.5z"/>
<path style="stroke:none; fill:#000000" d="M 279 153.5C 279 161.2 279.4 166 280 166C 280.6 166 281 161.2 281 153.5C 281 145.8 280.6 141 280 141C 279.4 141 279 145.8 279 153.5z"/>
<path style="stroke:none; fill:#000000" d="M 391 148C 391 153.3 391.3 155.1 392.3 154.8C 392.9 154.5 393.6 153.1 393.8 151.7C 394.3 147.6 397 148.3 397 152.5C 397 154.4 397.5 156 398 156C 398.6 156 399 152.8 399 148.5C 399 144.2 398.6 141 398 141C 397.5 141 397 142.3 397 144C 397 147.8 394.3 148.1 393.8 144.3C 393.6 142.9 392.9 141.5 392.3 141.2C 391.3 140.9 391 142.7 391 148z"/>
<path style="stroke:none; fill:#000000" d="M 421 153.5C 421 161.2 421.4 166 422 166C 422.6 166 423 161.2 423 153.5C 423 145.8 422.6 141 422 141C 421.4 141 421 145.8 421 153.5z"/>
<path style="stroke:none; fill:#000000" d="M 551 143C 551 144.6 550.3 145 548 145C 546.3 145 543.8 144.3 542.5 143.4C 537.9 140.4 532.1 145.5 534.1 150.8C 535.2 153.6 539.4 155.4 542 154C 543 153.5 545.5 153 547.4 153C 550.7 153 551 153.2 551 156C 551 157.6 551.5 159 552 159C 552.6 159 553 155.3 553 150C 553 144.7 552.6 141 552 141C 551.5 141 551 141.9 551 143zM 543 145.9C 543.7 147.2 543.7 148.7 543 150.5C 542.2 152.6 541.4 153.1 539.2 152.8C 537.1 152.6 536.4 151.9 536.2 149.7C 536 148.1 536.1 146.2 536.4 145.4C 537.2 143.3 541.8 143.7 543 145.9zM 551 149C 551 150.5 550.3 151 548.5 151C 546.7 151 546 150.5 546 149C 546 147.5 546.7 147 548.5 147C 550.3 147 551 147.5 551 149z"/>
<path style="stroke:none; fill:#000000" d="M 377 143C 377 143.5 377.5 144 378 144C 378.6 144 379 145.8 379 148C 379 150.2 378.6 152 378 152C 377.5 152 377 152.4 377 153C 377 153.5 378.7 153.9 380.8 153.9C 384.9 153.7 391.5 152.3 388.8 152.1C 387.4 152 387 151.1 387 148C 387 145.8 387.5 144 388 144C 388.6 144 389 143.5 389 143C 389 142.4 386.3 142 383 142C 379.7 142 377 142.4 377 143zM 385 148C 385 150.9 384.6 152 383.5 152C 382.4 152 382 150.9 382 148C 382 145.1 382.4 144 383.5 144C 384.6 144 385 145.1 385 148z"/>
<path style="stroke:none; fill:#000000" d="M 236 144C 236 144.5 237.6 145 239.5 145C 241.4 145 243 145.5 243 146C 243 147.9 239.9 153.4 237.2 156.2C 235.8 157.8 235 159 235.5 159C 236 159 237.7 157.8 239.3 156.2L 242.1 153.5L 244.2 156.3C 245.3 157.8 246.6 158.7 247.1 158.4C 247.6 158.1 246.9 156.5 245.6 154.9C 243.4 152.4 243.3 151.6 244.2 149C 245.7 144.5 244.7 143 240 143C 237.8 143 236 143.4 236 144z"/>
<path style="stroke:none; fill:#000000" d="M 262 144C 262 144.5 264 145 266.5 145C 269.9 145 271 145.4 271 146.5C 271 149 268.5 153.2 265.1 156.4C 261.1 160.2 261.1 161.8 265.1 159C 269 156.2 272.8 150.4 273.2 146.5C 273.5 143.5 273.5 143.5 267.8 143.2C 264.2 143 262 143.3 262 144z"/>
<path style="stroke:none; fill:#000000" d="M 406.6 145.1C 404.5 146.7 404 148 404 151.5C 404 155 404.5 156.3 406.6 157.9C 410 160.6 410.6 160.5 413.5 157.5C 416.9 154.2 416.9 148.8 413.5 145.5C 410.6 142.5 410 142.4 406.6 145.1zM 413 146.9C 415.3 151.3 413.5 158 410 158C 407.6 158 406 155.1 406 150.8C 406 145.3 410.7 142.7 413 146.9z"/>
<path style="stroke:none; fill:#000000" d="M 105 152C 105 152.5 106.1 153 107.5 153C 109.3 153 110 153.5 110 155C 110 156.1 110.5 157 111 157C 111.6 157 112 156.1 112 155C 112 153.3 112.7 153 116.5 153C 120.3 153 121 153.3 121 155C 121 156.1 121.5 157 122 157C 122.6 157 123 156.1 123 155C 123 153.5 123.7 153 125.5 153C 126.9 153 128 152.5 128 152C 128 151.4 123.5 151 116.5 151C 109.5 151 105 151.4 105 152z"/>
<path style="stroke:none; fill:#000000" d="M 114 156C 114 156.5 115.1 157 116.5 157C 117.9 157 119 156.5 119 156C 119 155.4 117.9 155 116.5 155C 115.1 155 114 155.4 114 156z"/>
<path style="stroke:none; fill:#000000" d="M 386.3 157.5C 381.7 159.5 381.9 162.6 386.6 164.6C 391.4 166.6 398.3 164.7 398.8 161.3C 399.4 157.5 391.6 155.1 386.3 157.5zM 396 159.5C 398 162 395.5 164 390.3 164C 385.8 164 384.2 162.6 385.4 159.5C 385.8 158.5 387.3 158 390.3 158C 393 158 395.2 158.6 396 159.5z"/>
<path style="stroke:none; fill:#000000" d="M 109 159C 109 159.5 111.5 160 114.6 160C 121.4 160 120.9 161.4 113.5 163.1C 110.5 163.8 108 164.6 108 165.1C 108 165.7 116 164.4 116.8 163.6C 117 163.4 119.1 163.8 121.6 164.6C 124.1 165.3 126 165.5 126 165C 126 164.4 125 164 123.7 164C 120.3 164 119.7 162.9 122 161.3C 123.1 160.5 123.8 159.4 123.5 158.9C 122.7 157.7 109 157.7 109 159z"/>
<path style="stroke:none; fill:#000000" d="M 538.2 161.7L 538.5 165.5L 546.3 165.8C 551.1 166 554 165.7 554 165C 554 164.4 551.2 164 547 164L 540 164L 540 161C 540 159.3 539.5 158 538.9 158C 538.3 158 538 159.6 538.2 161.7z"/>
<path style="stroke:none; fill:#000000" d="M 169 183.5C 169 190.8 168.9 191 166.5 191C 165.1 191 164 191.4 164 192C 164 192.5 165.1 193 166.5 193C 168.1 193 169 193.6 169 194.5C 169 195.3 169.5 196 170 196C 170.6 196 171 192 171 186C 171 180 170.6 176 170 176C 169.4 176 169 179.2 169 183.5z"/>
<path style="stroke:none; fill:#000000" d="M 303 183.5C 303 190.8 302.9 191 300.5 191C 299.1 191 298 191.4 298 192C 298 192.5 299.1 193 300.5 193C 302.1 193 303 193.6 303 194.5C 303 195.3 303.5 196 304 196C 304.6 196 305 192 305 186C 305 180 304.6 176 304 176C 303.4 176 303 179.2 303 183.5z"/>
<path style="stroke:none; fill:#000000" d="M 446 183.5C 446 190.8 445.9 191 443.5 191C 442.1 191 441 191.4 441 192C 441 192.5 442.1 193 443.5 193C 445.1 193 446 193.6 446 194.5C 446 195.3 446.5 196 447 196C 447.6 196 448 192 448 186C 448 180 447.6 176 447 176C 446.4 176 446 179.2 446 183.5z"/>
<path style="stroke:none; fill:#000000" d="M 596 183.5C 596 190.8 595.9 191 593.5 191C 592.1 191 591 191.4 591 192C 591 192.5 592.1 193 593.5 193C 595.1 193 596 193.6 596 194.5C 596 195.3 596.5 196 597 196C 597.6 196 598 192 598 186C 598 180 597.6 176 597 176C 596.4 176 596 179.2 596 183.5z"/>
<path style="stroke:none; fill:#000000" d="M 156 177.7C 153.7 178.5 152.1 181 152.7 182.7C 154.1 186.3 162.2 186.2 163.7 182.4C 164.7 179.7 159.5 176.5 156 177.7zM 161.5 181.5C 161.5 183 160.7 183.6 158.3 183.8C 155.3 184.1 155 183.9 155 181.5C 155 179.1 155.3 178.9 158.3 179.2C 160.7 179.4 161.5 180 161.5 181.5z"/>
<path style="stroke:none; fill:#000000" d="M 290 177.7C 287.7 178.5 286.1 181 286.7 182.7C 288.1 186.3 296.2 186.2 297.7 182.4C 298.7 179.7 293.5 176.5 290 177.7zM 295.5 181.5C 295.5 183 294.7 183.6 292.3 183.8C 289.3 184.1 289 183.9 289 181.5C 289 179.1 289.3 178.9 292.3 179.2C 294.7 179.4 295.5 180 295.5 181.5z"/>
<path style="stroke:none; fill:#000000" d="M 433 177.7C 430.7 178.5 429.1 181 429.7 182.7C 431.1 186.3 439.2 186.2 440.7 182.4C 441.7 179.7 436.5 176.5 433 177.7zM 438.5 181.5C 438.5 183 437.7 183.6 435.3 183.8C 432.3 184.1 432 183.9 432 181.5C 432 179.1 432.3 178.9 435.3 179.2C 437.7 179.4 438.5 180 438.5 181.5z"/>
<path style="stroke:none; fill:#000000" d="M 583 177.7C 580.7 178.5 579.1 181 579.7 182.7C 581.1 186.3 589.2 186.2 590.7 182.4C 591.7 179.7 586.5 176.5 583 177.7zM 588.5 181.5C 588.5 183 587.7 183.6 585.3 183.8C 582.3 184.1 582 183.9 582 181.5C 582 179.1 582.3 178.9 585.3 179.2C 587.7 179.4 588.5 180 588.5 181.5z"/>
<path style="stroke:none; fill:#000000" d="M 63.5 179C 61.9 179.6 62.3 179.9 65.5 180.1C 69 180.5 69.5 180.8 69.5 183C 69.5 185 68.9 185.6 66.8 185.8C 65.2 186 64 186.5 64 187C 64 187.5 65.2 188 66.8 188.2C 69.2 188.5 69.5 188.9 69.5 192C 69.5 195.4 69.4 195.5 65 196C 61 196.5 60.8 196.6 63.2 197.3C 69.9 199.1 76.5 190.9 70.3 188.6C 68.9 188 69 187.6 70.9 185.6C 73.5 182.9 72.8 180.3 69.3 178.9C 66.5 177.9 66.2 177.9 63.5 179z"/>
<path style="stroke:none; fill:#000000" d="M 80.5 180.5C 78.6 182.4 78 184 78 187.5C 78 195.1 81.4 198.9 86.4 197C 91.9 194.9 91.9 181.1 86.4 179C 83.1 177.7 83.3 177.6 80.5 180.5zM 87.4 181.6C 87.7 182.5 88 185.3 88 188C 88 194.4 87.3 196 84.4 196C 81.7 196 80 192.9 80 188C 80 183.1 81.7 180 84.4 180C 85.7 180 87.1 180.7 87.4 181.6z"/>
<path style="stroke:none; fill:#000000" d="M 104.5 180.5C 102.6 182.4 102 184 102 187.5C 102 195.1 105.4 198.9 110.4 197C 115.9 194.9 115.9 181.1 110.4 179C 107.1 177.7 107.3 177.6 104.5 180.5zM 111.4 181.6C 111.7 182.5 112 185.3 112 188C 112 194.4 111.3 196 108.4 196C 105.7 196 104 192.9 104 188C 104 183.1 105.7 180 108.4 180C 109.7 180 111.1 180.7 111.4 181.6z"/>
<path style="stroke:none; fill:#000000" d="M 121.5 180.5C 119.6 182.4 119 184 119 187.5C 119 195.1 122.4 198.9 127.4 197C 132.9 194.9 132.9 181.1 127.4 179C 124.1 177.7 124.3 177.6 121.5 180.5zM 128.4 181.6C 128.7 182.5 129 185.3 129 188C 129 194.4 128.3 196 125.4 196C 122.7 196 121 192.9 121 188C 121 183.1 122.7 180 125.4 180C 126.7 180 128.1 180.7 128.4 181.6z"/>
<path style="stroke:none; fill:#000000" d="M 137.5 180.5C 135.6 182.4 135 184 135 187.5C 135 195.1 138.4 198.9 143.4 197C 148.9 194.9 148.9 181.1 143.4 179C 140.1 177.7 140.3 177.6 137.5 180.5zM 144.4 181.6C 144.7 182.5 145 185.3 145 188C 145 194.4 144.3 196 141.4 196C 138.7 196 137 192.9 137 188C 137 183.1 138.7 180 141.4 180C 142.7 180 144.1 180.7 144.4 181.6z"/>
<path style="stroke:none; fill:#000000" d="M 215.9 185.2C 213.5 189.2 211.4 192.8 211.2 193.2C 211 193.7 212.9 194 215.4 194C 219.3 194 220 194.3 220 196C 220 197.1 220.5 198 221 198C 221.6 198 222 197.1 222 196C 222 194.9 222.7 194 223.5 194C 224.3 194 225 193.5 225 193C 225 192.4 224.3 192 223.5 192C 222.3 192 222 190.6 222 185C 222 181.1 221.6 178 221.1 178C 220.6 178 218.3 181.3 215.9 185.2zM 220 187C 220 191.9 219.9 192 217 192C 215.4 192 214 191.7 214 191.4C 214 190.6 219.1 182 219.6 182C 219.8 182 220 184.2 220 187z"/>
<path style="stroke:none; fill:#000000" d="M 238.5 180.5C 236.6 182.4 236 184 236 187.5C 236 195.1 239.4 198.9 244.4 197C 249.9 194.9 249.9 181.1 244.4 179C 241.1 177.7 241.3 177.6 238.5 180.5zM 245.4 181.6C 245.7 182.5 246 185.3 246 188C 246 194.4 245.3 196 242.4 196C 239.7 196 238 192.9 238 188C 238 183.1 239.7 180 242.4 180C 243.7 180 245.1 180.7 245.4 181.6z"/>
<path style="stroke:none; fill:#000000" d="M 255.5 180.5C 253.6 182.4 253 184 253 187.5C 253 195.1 256.4 198.9 261.4 197C 266.9 194.9 266.9 181.1 261.4 179C 258.1 177.7 258.3 177.6 255.5 180.5zM 262.4 181.6C 262.7 182.5 263 185.3 263 188C 263 194.4 262.3 196 259.4 196C 256.7 196 255 192.9 255 188C 255 183.1 256.7 180 259.4 180C 260.7 180 262.1 180.7 262.4 181.6z"/>
<path style="stroke:none; fill:#000000" d="M 271.5 180.5C 269.6 182.4 269 184 269 187.5C 269 195.1 272.4 198.9 277.4 197C 282.9 194.9 282.9 181.1 277.4 179C 274.1 177.7 274.3 177.6 271.5 180.5zM 278.4 181.6C 278.7 182.5 279 185.3 279 188C 279 194.4 278.3 196 275.4 196C 272.7 196 271 192.9 271 188C 271 183.1 272.7 180 275.4 180C 276.7 180 278.1 180.7 278.4 181.6z"/>
<path style="stroke:none; fill:#000000" d="M 357.3 179.2C 354.2 180.7 353.8 182.5 356.1 185.4C 358.1 187.9 358.1 187.9 356 189C 353 190.6 353.7 195.1 357.1 196.7C 363 199.5 369.4 194 365.2 189.8C 363.3 187.9 363.3 187.6 364.9 184.8C 366.4 182 366.4 181.8 364.1 179.9C 361.5 177.8 360.5 177.7 357.3 179.2zM 363.6 181.5C 364.4 183.5 362.3 186 359.8 186C 357.7 186 356.5 183.8 357.4 181.5C 358.1 179.5 362.9 179.6 363.6 181.5zM 362.8 189.9C 363.6 190.3 364 191.8 363.8 193.1C 363.4 196.5 357.5 197.2 356.5 194C 355.3 190.3 359.3 187.7 362.8 189.9z"/>
<path style="stroke:none; fill:#000000" d="M 381.5 180.5C 379.6 182.4 379 184 379 187.5C 379 195.1 382.4 198.9 387.4 197C 392.9 194.9 392.9 181.1 387.4 179C 384.1 177.7 384.3 177.6 381.5 180.5zM 388.4 181.6C 388.7 182.5 389 185.3 389 188C 389 194.4 388.3 196 385.4 196C 382.7 196 381 192.9 381 188C 381 183.1 382.7 180 385.4 180C 386.7 180 388.1 180.7 388.4 181.6z"/>
<path style="stroke:none; fill:#000000" d="M 397.5 180.5C 395.6 182.4 395 184 395 187.5C 395 195.1 398.4 198.9 403.4 197C 408.9 194.9 408.9 181.1 403.4 179C 400.1 177.7 400.3 177.6 397.5 180.5zM 404.4 181.6C 404.7 182.5 405 185.3 405 188C 405 194.4 404.3 196 401.4 196C 398.7 196 397 192.9 397 188C 397 183.1 398.7 180 401.4 180C 402.7 180 404.1 180.7 404.4 181.6z"/>
<path style="stroke:none; fill:#000000" d="M 413.5 180.5C 411.6 182.4 411 184 411 187.5C 411 195.1 414.4 198.9 419.4 197C 424.9 194.9 424.9 181.1 419.4 179C 416.1 177.7 416.3 177.6 413.5 180.5zM 420.4 181.6C 420.7 182.5 421 185.3 421 188C 421 194.4 420.3 196 417.4 196C 414.7 196 413 192.9 413 188C 413 183.1 414.7 180 417.4 180C 418.7 180 420.1 180.7 420.4 181.6z"/>
<path style="stroke:none; fill:#000000" d="M 490.5 179C 488.9 179.6 489.3 179.9 492.5 180.1C 498.2 180.7 498.4 184 493.2 190.6C 487.2 198.3 487.1 198 493.9 198C 497.3 198 500 197.6 500 197C 500 196.4 498 196 495.5 196L 491 196L 495 190.9C 499.5 185.2 500 181.8 496.8 179.6C 494.3 177.8 493.4 177.8 490.5 179z"/>
<path style="stroke:none; fill:#000000" d="M 506.5 180.5C 504.6 182.4 504 184 504 187.5C 504 195.1 507.4 198.9 512.4 197C 517.9 194.9 517.9 181.1 512.4 179C 509.1 177.7 509.3 177.6 506.5 180.5zM 513.4 181.6C 513.7 182.5 514 185.3 514 188C 514 194.4 513.3 196 510.4 196C 507.7 196 506 192.9 506 188C 506 183.1 507.7 180 510.4 180C 511.7 180 513.1 180.7 513.4 181.6z"/>
<path style="stroke:none; fill:#000000" d="M 531.5 180.5C 529.6 182.4 529 184 529 187.5C 529 195.1 532.4 198.9 537.4 197C 542.9 194.9 542.9 181.1 537.4 179C 534.1 177.7 534.3 177.6 531.5 180.5zM 538.4 181.6C 538.7 182.5 539 185.3 539 188C 539 194.4 538.3 196 535.4 196C 532.7 196 531 192.9 531 188C 531 183.1 532.7 180 535.4 180C 536.7 180 538.1 180.7 538.4 181.6z"/>
<path style="stroke:none; fill:#000000" d="M 547.5 180.5C 545.6 182.4 545 184 545 187.5C 545 195.1 548.4 198.9 553.4 197C 558.9 194.9 558.9 181.1 553.4 179C 550.1 177.7 550.3 177.6 547.5 180.5zM 554.4 181.6C 554.7 182.5 555 185.3 555 188C 555 194.4 554.3 196 551.4 196C 548.7 196 547 192.9 547 188C 547 183.1 548.7 180 551.4 180C 552.7 180 554.1 180.7 554.4 181.6z"/>
<path style="stroke:none; fill:#000000" d="M 564.5 180.5C 562.6 182.4 562 184 562 187.5C 562 195.1 565.4 198.9 570.4 197C 575.9 194.9 575.9 181.1 570.4 179C 567.1 177.7 567.3 177.6 564.5 180.5zM 571.4 181.6C 571.7 182.5 572 185.3 572 188C 572 194.4 571.3 196 568.4 196C 565.7 196 564 192.9 564 188C 564 183.1 565.7 180 568.4 180C 569.7 180 571.1 180.7 571.4 181.6z"/>
<path style="stroke:none; fill:#000000" d="M 158.3 187.7C 153.7 187.9 150 188.5 150 189C 150 189.6 151.6 190 153.5 190C 156.6 190 157 190.3 157 192.5C 157 193.9 157.5 195 158 195C 158.6 195 159 193.9 159 192.6C 159 190.1 160.6 189 164.6 189C 165.9 189 167 188.5 167 188C 167 187.4 166.9 187.1 166.8 187.2C 166.6 187.3 162.8 187.6 158.3 187.7z"/>
<path style="stroke:none; fill:#000000" d="M 292.3 187.7C 287.7 187.9 284 188.5 284 189C 284 189.6 285.6 190 287.5 190C 290.6 190 291 190.3 291 192.5C 291 193.9 291.5 195 292 195C 292.6 195 293 193.9 293 192.6C 293 190.1 294.6 189 298.6 189C 299.9 189 301 188.5 301 188C 301 187.4 300.9 187.1 300.8 187.2C 300.6 187.3 296.8 187.6 292.3 187.7z"/>
<path style="stroke:none; fill:#000000" d="M 435.3 187.7C 430.7 187.9 427 188.5 427 189C 427 189.6 428.6 190 430.5 190C 433.6 190 434 190.3 434 192.5C 434 193.9 434.5 195 435 195C 435.6 195 436 193.9 436 192.6C 436 190.1 437.6 189 441.6 189C 442.9 189 444 188.5 444 188C 444 187.4 443.9 187.1 443.8 187.2C 443.6 187.3 439.8 187.6 435.3 187.7z"/>
<path style="stroke:none; fill:#000000" d="M 585.3 187.7C 580.7 187.9 577 188.5 577 189C 577 189.6 578.6 190 580.5 190C 583.6 190 584 190.3 584 192.5C 584 193.9 584.5 195 585 195C 585.6 195 586 193.9 586 192.6C 586 190.1 587.6 189 591.6 189C 592.9 189 594 188.5 594 188C 594 187.4 593.9 187.1 593.8 187.2C 593.6 187.3 589.8 187.6 585.3 187.7z"/>
<path style="stroke:none; fill:#000000" d="M 95 197.4C 95 198.2 94.7 199.5 94.4 200.4C 93.4 203.1 95.6 202.2 96.8 199.5C 98.3 196.2 98.3 196 96.5 196C 95.7 196 95 196.6 95 197.4z"/>
<path style="stroke:none; fill:#000000" d="M 154.2 198.2C 154.5 200.3 155.1 200.5 162.8 200.8C 168 201 171 200.7 171 200C 171 199.4 168.2 199 164 199C 158.4 199 157 198.7 157 197.5C 157 196.7 156.3 196 155.4 196C 154.4 196 154 196.7 154.2 198.2z"/>
<path style="stroke:none; fill:#000000" d="M 229 197.4C 229 198.2 228.7 199.5 228.4 200.4C 227.4 203.1 229.6 202.2 230.8 199.5C 232.3 196.2 232.3 196 230.5 196C 229.7 196 229 196.6 229 197.4z"/>
<path style="stroke:none; fill:#000000" d="M 288.2 198.2C 288.5 200.3 289.1 200.5 296.8 200.8C 302 201 305 200.7 305 200C 305 199.4 302.2 199 298 199C 292.4 199 291 198.7 291 197.5C 291 196.7 290.3 196 289.4 196C 288.4 196 288 196.7 288.2 198.2z"/>
<path style="stroke:none; fill:#000000" d="M 371 197.4C 371 198.2 370.7 199.5 370.4 200.4C 369.4 203.1 371.6 202.2 372.8 199.5C 374.3 196.2 374.3 196 372.5 196C 371.7 196 371 196.6 371 197.4z"/>
<path style="stroke:none; fill:#000000" d="M 431.2 198.2C 431.5 200.3 432.1 200.5 439.8 200.8C 445 201 448 200.7 448 200C 448 199.4 445.2 199 441 199C 435.4 199 434 198.7 434 197.5C 434 196.7 433.3 196 432.4 196C 431.4 196 431 196.7 431.2 198.2z"/>
<path style="stroke:none; fill:#000000" d="M 522 197.4C 522 198.2 521.7 199.5 521.4 200.4C 520.4 203.1 522.6 202.2 523.8 199.5C 525.3 196.2 525.3 196 523.5 196C 522.7 196 522 196.6 522 197.4z"/>
<path style="stroke:none; fill:#000000" d="M 581.2 198.2C 581.5 200.3 582.1 200.5 589.8 200.8C 595 201 598 200.7 598 200C 598 199.4 595.2 199 591 199C 585.4 199 584 198.7 584 197.5C 584 196.7 583.3 196 582.4 196C 581.4 196 581 196.7 581.2 198.2z"/>
</g>
</g>
</svg>