<?xml version="1.0" encoding="UTF-8" standalone="yes"?>
<!-- Created with sK1/UniConvertor (http://sk1project.org/) -->
<svg xmlns="http://www.w3.org/2000/svg" xmlns:xlink="http://www.w3.org/1999/xlink"
  width="611pt" height="780pt" viewBox="0 0 611 780"
  fill-rule="evenodd">
<g>
<g>
<path style="stroke:none; fill:#000000" d="M 112 22.8C 103.7 25.6 102 26.8 100 31.3C 97.6 36.9 96.5 46.1 97.9 48.9C 101 54.6 123.9 62.2 137.8 62.1C 144.2 62.1 145.4 61.8 147.1 59.8C 150.5 55.8 155 45 155 40.7C 155 37.1 154.4 36 149.9 31.7C 142.7 24.8 135.8 21.9 125.7 21.4C 119.6 21.1 116.1 21.4 112 22.8zM 123.5 30.1C 123 34 123.1 35.1 124 34.5C 124.6 34.1 125.8 34.6 126.6 35.6C 128 37.4 128.1 37.2 127.5 33.8C 127.2 31.7 127.4 29.9 128 29.5C 128.5 29.2 129 28 129 26.9C 129 25.4 129.5 25 130.8 25.4C 131.7 25.7 133.7 26.2 135.3 26.6C 137.6 27.1 138 27.7 138 30.5001C 138 32.4001 137.6 34.2001 137 34.5001C 135.3 35.5001 135.8 39.3 137.5 38.6C 138.4 38.3 139 38.6 139 39.5001C 139 40.3 139.5 41.0001 140.1 41.0001C 140.7 41.0001 141.1 39.8 140.9 38.2001C 140.8 36.7001 141 34.8 141.3 34.0001C 141.6 33.2001 142 31.8 142.2 31.0001C 142.5 30.0001 143.8 30.7001 146.9 33.6L 151.2 37.6L 149.1 41.2C 147.9 43.2 146.7 47.2 146.3 50.1C 146 53.1 145.3 56.0001 144.8 56.6C 141.1 61.4 114.1 56.2 102.3 48.5001C 99.9 46.9001 99.8 46.4001 100.3 40.9001C 100.9 34.5001 103.6 29.6001 107.1 28.7001C 109 28.2001 109.1 28.4001 108.4 32.3C 107.8 36.0001 107.9 36.3 109.3 35.2001C 110.6 34.1001 111 34.2001 111.8 35.6001C 112.4 36.7001 112.9 36.9001 113.4 36.1001C 113.8 35.5001 113.7 34.3001 113.2 33.4001C 112 31.3001 113.8 26.2001 116 25.6001C 116.8 25.4001 119 25.2001 120.8 25.1001L 124.2 25.0001L 123.5 30.1zM 127 26C 127 26.5 126.6 27 126 27C 125.5 27 125 26.5 125 26C 125 25.4 125.5 25 126 25C 126.6 25 127 25.4 127 26zM 141 30.1C 141 30.6 140.6 31 140 31C 139.5 31 139 30.3 139 29.4C 139 28.6 139.5 28.2 140 28.5C 140.6 28.8 141 29.5 141 30.1zM 151.4 45.7C 149.9 49.4 148 52.1 148 50.7C 148 49.1 151.3 41.9999 152.1 41.9999C 152.5 41.9999 152.2 43.7 151.4 45.7z"/>
<path style="stroke:none; fill:#000000" d="M 537 22.8C 528.7 25.6 527 26.8 525 31.3C 522.6 36.9 521.5 46.1 522.9 48.9C 526 54.6 548.9 62.2 562.8 62.1C 569.2 62.1 570.4 61.8 572.1 59.8C 575.5 55.8 580 45 580 40.7C 580 37.1 579.4 36 574.9 31.7C 567.7 24.8 560.8 21.9 550.7 21.4C 544.6 21.1 541.1 21.4 537 22.8zM 548.5 30.1C 548 34 548.1 35.1 549 34.5C 549.6 34.1 550.8 34.6 551.6 35.6C 553 37.4 553.1 37.2 552.5 33.8C 552.2 31.7 552.4 29.9 553 29.5C 553.5 29.2 554 28 554 26.9C 554 25.4 554.5 25 555.8 25.4C 556.7 25.7 558.7 26.2 560.3 26.6C 562.6 27.1 563 27.7 563 30.5001C 563 32.4001 562.6 34.2001 562 34.5001C 560.3 35.5001 560.8 39.3 562.5 38.6C 563.4 38.3 564 38.6 564 39.5001C 564 40.3 564.5 41.0001 565.1 41.0001C 565.7 41.0001 566.1 39.8 565.9 38.2001C 565.8 36.7001 566 34.8 566.3 34.0001C 566.6 33.2001 567 31.8 567.2 31.0001C 567.5 30.0001 568.8 30.7001 571.9 33.6L 576.2 37.6L 574.1 41.2C 572.9 43.2 571.7 47.2 571.3 50.1C 571 53.1 570.3 56.0001 569.8 56.6C 566.1 61.4 539.1 56.2 527.3 48.5001C 524.9 46.9001 524.8 46.4001 525.3 40.9001C 525.9 34.5001 528.6 29.6001 532.1 28.7001C 534 28.2001 534.1 28.4001 533.4 32.3C 532.8 36.0001 532.9 36.3 534.3 35.2001C 535.6 34.1001 536 34.2001 536.8 35.6001C 537.4 36.7001 537.9 36.9001 538.4 36.1001C 538.8 35.5001 538.7 34.3001 538.2 33.4001C 537 31.3001 538.8 26.2001 541 25.6001C 541.8 25.4001 544 25.2001 545.8 25.1001L 549.2 25.0001L 548.5 30.1zM 552 26C 552 26.5 551.6 27 551 27C 550.5 27 550 26.5 550 26C 550 25.4 550.5 25 551 25C 551.6 25 552 25.4 552 26zM 566 30.1C 566 30.6 565.6 31 565 31C 564.5 31 564 30.3 564 29.4C 564 28.6 564.5 28.2 565 28.5C 565.6 28.8 566 29.5 566 30.1zM 576.4 45.7C 574.9 49.4 573 52.1 573 50.7C 573 49.1 576.3 41.9999 577.1 41.9999C 577.5 41.9999 577.2 43.7 576.4 45.7z"/>
<path style="stroke:none; fill:#000000" d="M 402 27.2C 394.2 28.2 387 31.1 384.8 34.1C 381.9 37.9 379.6 49.7 381.1 53.1C 383.4 58.7 402.8 65.9 417.7 66.7C 426.5 67.2 427.1 67.2 429 64.9C 432.4 61 437 50 437 46C 437 42.7 436.3 41.6 431.1 36.8C 427.9 33.8 423.7 30.6 421.8 29.7C 417 27.4 408.4 26.3 402 27.2zM 405.9 36.6C 404.6 39.1 405.7 42.1 407.1 39.9C 407.7 38.8 408 38.9 408.6 40.3C 409.8 43.4 410.6 42.1 410.6 37.0001C 410.6 34.3 410.9 31.7001 411.3 31.4001C 411.7 31.0001 413.7 31.1001 415.8 31.6001C 418.8 32.3001 419.6 33.0001 420 35.5001C 420.4 37.3001 420 39.4001 419.2 40.7001C 418.4 42.0001 418 43.1002 418.4 43.1002C 418.7 43.2001 419.5 43.3002 420.1 43.4001C 420.8 43.4001 421.6 44.4001 422.1 45.5001C 422.7 47.1001 422.9 46.9001 422.9 44.4001C 423 42.6002 423.6 40.0001 424.4 38.5001L 425.8 35.8001L 429.5 39.2001L 433.2 42.6002L 431 46.8002C 429.6 49.5002 428.8 52.8002 428.8 55.4001C 429 61.6002 426.8 63.2001 418.8 63.2001C 408.6 63.1002 396.3 59.7001 387.1 54.3001L 382.8 51.8001L 383.4 46.3001C 384.1 40.5001 386.1 36.6001 389.2 34.9001C 391.9 33.4001 393.1 34.6001 391.8 37.5001C 390.6 40.2001 391.6 42.3 392.9 40.1C 393.6 39.0001 394 39.1 394.8 40.6C 396.2 43.1 397.5 41.7 396.1 39.2C 394.3 35.8 397.2 31.6 401.7 31C 404.8 30.6 405.6 30.9 406.3 32.5C 406.8 33.6 406.6 35.3 405.9 36.6zM 410 31.4C 410 31.7 409.6 32.2 409 32.5C 408.5 32.8 408 32.6 408 32.1C 408 31.5 408.5 31 409 31C 409.6 31 410 31.2 410 31.4zM 422.7 36.2C 422.4 37 422.1 36.7 422.1 35.6C 422 34.5001 422.3 33.9 422.6 34.3C 422.9 34.6 423 35.5 422.7 36.2z"/>
<path style="stroke:none; fill:#000000" d="M 250.2 32.5C 239.1 35.6 236.5 38.6 235.3 50.2C 234.6 57.3 235.5 58.6 244 62.4C 252.7 66.3 264.6 69.1 272.8 69.1C 279.2 69.1 280.3 68.8 282.1 66.8C 285 63.4 290 52.6 290 49.5001C 290 45.9001 282.1 37.7001 275.5 34.4001C 268.8 31.2001 257.9 30.3 250.2 32.5zM 259.6 39.6C 259.2 43 259.3 44.1 260.3 43.7C 260.9 43.4999 262.1 43.9999 262.8 44.9C 264 46.3 264.1 46.1 263.6 43.3C 263.3 41.5 263.5 39.8 264 39.5C 264.6 39.2 265 38 265 36.8C 265 35.1 265.4 34.9 267.8 35.5C 269.3 36 271.5 36.4 272.7 36.5C 273.9 36.6 277.4 38.8 280.5 41.4L 286 46.2L 284.1 49.4C 283 51.1 281.8 55 281.4 58C 281 61.1 280 64 279.1 64.7C 275.6 67.4 262.8 65.7 249.5 60.9C 238.7 57 236.6 55 237.4 49.8C 237.8 47.6 238.7 44.5001 239.5 42.9C 242.2 37.7 248.1 36.4 245.8 41.5C 244.6 44.3 245.6 46.3 247 44C 247.8 42.8 248 42.8 248.6 44.3C 248.9 45.2 249.6 45.7 250.1 45.4C 250.6 45.1 250.6 44.1 250 42.9999C 249.2 41.5999 249.3 40.4 250.2 38.7999C 252 35.5999 253 34.9999 256.9 34.9999L 260.3 34.9999L 259.6 39.6zM 285.5 55.5C 284.7 57.6 283.7 59.1 283.4 58.8C 283.1 58.5 283.6 56.5 284.5 54.5C 285.3 52.4 286.3 50.9 286.6 51.2C 286.9 51.5 286.4 53.5 285.5 55.5z"/>
<path style="stroke:none; fill:#000000" d="M 55.9 41.5C 53.1 43 48 51.6 48 54.8C 48 58 52.8 73.7 57.1 84.5C 64.6 103.4 77.7 125.1 84.9 130.7L 87.9 133L 94.6 127.3L 101.3 121.7L 100.7 115.1C 100.2 109.2 97.7 98.1 95.6 92.5001L 94.8 90.5001L 96.4 92.5001C 104.7 103.2 110.4 108.7 119 114.4C 130.4 122 137.4 125 143.3 125C 147.5 125 147.9 124.7 152.3 119C 155.2 115.4 157 112 157 110.4C 157 103.2 139.8 83.3001 127.7 76.6001C 116 70.0001 104.3 67.5001 100.6 70.8001C 98.1 73.0001 94 81.8001 94 85.0001C 94 86.6001 92.1 83.6001 88.6 76.5001C 81 61.2001 72 48.9001 63.5 42.2001C 60.3 39.7001 59.4 39.6 55.9 41.5zM 68.1 50.9C 80.7 64.2 94.7 91.3 97.5 107.7C 98.5 113.7 98.5 113.5 95.2 113.2C 91.3 112.8 87 117.7 87 122.7C 87 127.9 84.6 126.7 78.3 118.5C 66.8 103.4 51 67.6 51 56.6C 51 51.3 55.8 45 59.9 45C 61.7 45 64.1 46.7 68.1 50.9zM 108 75.7C 108 76.6 107.3 78.1 106.4 79.1C 104.8 80.9 105.3 83.5001 107.1 82.4C 107.7 82.1 108.8 82.6 109.5 83.6C 110.8 85.4 110.9 85.3 111 82.7C 111 81.2 111.5 80 112 80C 112.6 80 113 79.1 113 78C 113 76.9 112.3 76 111.5 76C 110.7 76 110 75.6 110 75C 110 72.6 122 77.2 131.8 83.4C 137.2 86.8 146.9 96.6 149.4 101.1C 151.2 104.6 151.2 104.6 148.7 108.3C 147.3 110.4 145.9 113.8 145.5 116C 144.8 119.9 144.8 120 140.5 120C 131.3 120 113.8 108.7 102.8 95.6C 98.1 90.0001 97 88.0001 97 85.1C 97 79.5001 101.3 74.0001 105.7 74.0001C 107.2 74.0001 108 74.6 108 75.7zM 154 110.8C 154 111.2 152.6 113.1 150.9 115L 147.9 118.5L 148.5 115.5C 148.9 113.9 149.6 111.9 150.2 111.3C 151.4 109.9 154 109.5 154 110.8zM 97.4 118.9C 98 119.7 91 126 89.6 126C 88.3 126 89.1 121.6 90.7 119.8C 92.4 117.9 96.5 117.4 97.4 118.9z"/>
<path style="stroke:none; fill:#000000" d="M 63 49.5C 63 50.3 62.3 51.3 61.5 51.6C 59.8 52.3 59.4 56 61 56C 61.6 56 62 57.2 62 58.6C 62 60 62.4 60.9 63 60.5C 63.6 60.2 64 59.1 64 58.1C 64 57 65 56 66.3 55.6C 68.5 55 68.5 55 66.5 53.4C 65.4 52.6 64.6 51.3 64.8 50.4999C 64.9 49.7999 64.6 48.9 64 48.4999C 63.5 48.2 63 48.6 63 49.5z"/>
<path style="stroke:none; fill:#000000" d="M 75.6 67.2C 75.1 68.8 74.2 70 73.4 70C 72.6 70 72 70.9 72 72C 72 73.1 72.5 74 73 74C 73.6 74 74 74.7 74 75.5C 74 77.7 75.7 77.3 76.3 75C 76.6 73.7 77.3 73.2 78.4 73.6C 80.4 74.4 80.6 71.4 78.6 70.3C 77.8 69.9 77 68.4 76.8 67L 76.4 64.5L 75.6 67.2z"/>
<path style="stroke:none; fill:#000000" d="M 88 91.1C 88 92.6 87.5 93 86.5 92.6C 84.9 92 84.3 95.4 85.9 96.4C 86.3 96.7 86.5 98.1 86.2 99.4999C 86 100.9 86.2 102 86.8 102C 87.4 102 88 101 88.2 99.7C 88.4 98.2 89.1 97.6 90.3 97.7999C 92.4 98.2 92.6 95.2 90.5 94.3999C 89.5 93.9999 89.2 92.9999 89.6 91.3999C 90 89.8999 89.8 88.9999 89.1 88.9999C 88.5 88.9999 88 89.9 88 91.1z"/>
<path style="stroke:none; fill:#000000" d="M 122.6 80.2C 122.2 81.1 122.1 82.4 122.5 83C 122.9 83.6 122.4 85 121.5 86C 119.8 87.9 120.3 90.6 122.1 89.4C 122.7 89.1 123.8 89.6 124.5 90.6C 125.9 92.4 125.9 92.4 126 90.0001C 126 88.6 126.3 86.5001 126.6 85.2001C 127.1 83.6001 126.8 83.0001 125.7 83.0001C 124.8 83.0001 124 82.0001 123.7 80.7001C 123.4 78.8 123.2 78.7 122.6 80.2z"/>
<path style="stroke:none; fill:#000000" d="M 136 91.4C 136 92.8 135.6 94.2 135 94.4999C 133.3 95.4999 133.8 99.2999 135.5 98.5999C 136.5 98.2999 137 98.6999 137 99.9999C 137 101 137.5 102.2 138 102.5C 138.6 102.9 139 101.8 139 99.9C 139 98.1 139.7 96.2 140.7 95.4999C 142.6 94.0999 141.5 91.5999 139.4 92.4C 138.5 92.7 138 92.2 138 90.9999C 138 89.9 137.6 88.9999 137 88.9999C 136.5 88.9999 136 90.0999 136 91.4z"/>
<path style="stroke:none; fill:#000000" d="M 480.9 41.5C 478.1 43 473 51.6 473 54.8C 473 58 477.8 73.7 482.1 84.5C 489.6 103.4 502.7 125.1 509.9 130.7L 512.9 133L 519.6 127.3L 526.3 121.7L 525.7 115.1C 525.2 109.2 522.7 98.1 520.6 92.5001L 519.8 90.5001L 521.4 92.5001C 529.7 103.2 535.4 108.7 544 114.4C 555.4 122 562.4 125 568.3 125C 572.5 125 572.9 124.7 577.3 119C 580.2 115.4 582 112 582 110.4C 582 103.2 564.8 83.3001 552.7 76.6001C 541 70.0001 529.3 67.5001 525.6 70.8001C 523.1 73.0001 519 81.8001 519 85.0001C 519 86.6001 517.1 83.6001 513.6 76.5001C 506 61.2001 497 48.9001 488.5 42.2001C 485.3 39.7001 484.4 39.6 480.9 41.5zM 493.1 50.9C 505.7 64.2 519.7 91.3 522.5 107.7C 523.5 113.7 523.5 113.5 520.2 113.2C 516.3 112.8 512 117.7 512 122.7C 512 127.9 509.6 126.7 503.3 118.5C 491.8 103.4 476 67.6 476 56.6C 476 51.3 480.8 45 484.9 45C 486.7 45 489.1 46.7 493.1 50.9zM 533 75.7C 533 76.6 532.3 78.1 531.4 79.1C 529.8 80.9 530.3 83.5001 532.1 82.4C 532.7 82.1 533.8 82.6 534.5 83.6C 535.8 85.4 535.9 85.3 536 82.7C 536 81.2 536.5 80 537 80C 537.6 80 538 79.1 538 78C 538 76.9 537.3 76 536.5 76C 535.7 76 535 75.6 535 75C 535 72.6 547 77.2 556.8 83.4C 562.2 86.8 571.9 96.6 574.4 101.1C 576.2 104.6 576.2 104.6 573.7 108.3C 572.3 110.4 570.9 113.8 570.5 116C 569.8 119.9 569.8 120 565.5 120C 556.3 120 538.8 108.7 527.8 95.6C 523.1 90.0001 522 88.0001 522 85.1C 522 79.5001 526.3 74.0001 530.7 74.0001C 532.2 74.0001 533 74.6 533 75.7zM 579 110.8C 579 111.2 577.6 113.1 575.9 115L 572.9 118.5L 573.5 115.5C 573.9 113.9 574.6 111.9 575.2 111.3C 576.4 109.9 579 109.5 579 110.8zM 522.4 118.9C 523 119.7 516 126 514.6 126C 513.3 126 514.1 121.6 515.7 119.8C 517.4 117.9 521.5 117.4 522.4 118.9z"/>
<path style="stroke:none; fill:#000000" d="M 488 49.5C 488 50.3 487.3 51.3 486.5 51.6C 484.8 52.3 484.4 56 486 56C 486.6 56 487 57.2 487 58.6C 487 60 487.4 60.9 488 60.5C 488.6 60.2 489 59.1 489 58.1C 489 57 490 56 491.3 55.6C 493.5 55 493.5 55 491.5 53.4C 490.4 52.6 489.6 51.3 489.8 50.4999C 489.9 49.7999 489.6 48.9 489 48.4999C 488.5 48.2 488 48.6 488 49.5z"/>
<path style="stroke:none; fill:#000000" d="M 500.6 67.2C 500.1 68.8 499.2 70 498.4 70C 497.6 70 497 70.9 497 72C 497 73.1 497.5 74 498 74C 498.6 74 499 74.7 499 75.5C 499 77.7 500.7 77.3 501.3 75C 501.6 73.7 502.3 73.2 503.4 73.6C 505.4 74.4 505.6 71.4 503.6 70.3C 502.8 69.9 502 68.4 501.8 67L 501.4 64.5L 500.6 67.2z"/>
<path style="stroke:none; fill:#000000" d="M 513 91.1C 513 92.6 512.5 93 511.5 92.6C 509.9 92 509.3 95.4 510.9 96.4C 511.3 96.7 511.5 98.1 511.2 99.4999C 511 100.9 511.2 102 511.8 102C 512.4 102 513 101 513.2 99.7C 513.4 98.2 514.1 97.6 515.3 97.7999C 517.4 98.2 517.6 95.2 515.5 94.3999C 514.5 93.9999 514.2 92.9999 514.6 91.3999C 515 89.8999 514.8 88.9999 514.1 88.9999C 513.5 88.9999 513 89.9 513 91.1z"/>
<path style="stroke:none; fill:#000000" d="M 547.6 80.2C 547.2 81.1 547.1 82.4 547.5 83C 547.9 83.6 547.4 85 546.5 86C 544.8 87.9 545.3 90.6 547.1 89.4C 547.7 89.1 548.8 89.6 549.5 90.6C 550.9 92.4 550.9 92.4 551 90.0001C 551 88.6 551.3 86.5001 551.6 85.2001C 552.1 83.6001 551.8 83.0001 550.7 83.0001C 549.8 83.0001 549 82.0001 548.7 80.7001C 548.4 78.8 548.2 78.7 547.6 80.2z"/>
<path style="stroke:none; fill:#000000" d="M 561 91.4C 561 92.8 560.6 94.2 560 94.4999C 558.3 95.4999 558.8 99.2999 560.5 98.5999C 561.5 98.2999 562 98.6999 562 99.9999C 562 101 562.5 102.2 563 102.5C 563.6 102.9 564 101.8 564 99.9C 564 98.1 564.7 96.2 565.7 95.4999C 567.6 94.0999 566.5 91.5999 564.4 92.4C 563.5 92.7 563 92.2 563 90.9999C 563 89.9 562.6 88.9999 562 88.9999C 561.5 88.9999 561 90.0999 561 91.4z"/>
<path style="stroke:none; fill:#000000" d="M 340.8 46.6C 339.3 47.4 336.9 50.1 335.4 52.6C 333.1 56.5 332.8 57.8 333.4 62.3C 335 75.4 347.7 105.6 358.3 121.5C 362.7 128.2 369.9 136 371.5 136C 372 136 375.3 133.3 378.8 130.1L 385.2 124.2L 384.5 119.4C 383.7 114.2 379.9 98.8 378.5 95.4999C 378.1 94.4 379.7 96.2 382.2 99.4999C 389.7 109.4 400.6 118.7 410.9 123.9C 416.3 126.7 425.8 129.1 428.4 128.4C 431.4 127.6 439 117.2 439 114C 439 112.5 437.2 108.5 434.9 105C 424.1 88.2 406.8 76.2 390.8 74.2999C 386.6 73.7999 385.6 73.9999 383.5 75.9999C 380.6 78.7 376.8 88.2 377.6 90.7C 377.8 91.7 376.5 89.2 374.6 85.2C 368.3 72.1 360.8 60.7999 353.1 52.7999C 348.9 48.4999 345 44.9999 344.5 44.9999C 343.9 45.0999 342.3 45.7 340.8 46.6zM 352.8 56.7C 365.3 70.1 377.9 95.2 381.6 113.9C 382.2 117.2 382.1 117.2 379.6 116.6C 375.8 115.7 371.5 120.1 370.5 125.9L 369.8 130.2L 366.8 127.3C 357.2 118.3 342.2 89.0999 337.1 69.4999C 334.6 60.2999 335 57.2999 339.1 52.9C 343.1 48.6 346 49.4999 352.8 56.7zM 391 80.1C 391 81.2 390.3 82.8 389.5 83.6C 388.7 84.4 388.4 85.8 388.7 86.6C 389.1 87.7 389.6 87.8 390.3 87.1C 391 86.4 391.7 86.6 392.6 87.8C 393.8 89.4 393.9 89.3 394 87.4C 394 86.3 394.5 84.9 395.1 84.3C 396.5 82.9 395.5 79.6 394 80.5C 393.5 80.8 393 80.6 393 80.1C 393 77.4 401.6 80 410.5 85.4C 418.3 89.9999 425 95.9999 429.7 102.4L 434 108.2L 431.5 111.1C 430.2 112.7 428.8 115.7 428.5 117.8C 427.5 123.5 427.2 124 424.7 124C 415.4 124 397.6 113.1 387.4 101.2C 383.9 97 380.7 92.5 380.3 91.2C 379.5 88 383.3 80.2 386.3 79C 389.8 77.6 391 77.9 391 80.1z"/>
<path style="stroke:none; fill:#000000" d="M 347 55C 347 56.1 346.3 57 345.5 57C 344.7 57 344 57.9 344 59C 344 60.1 344.5 61 345 61C 345.6 61 346 62.1 346 63.5C 346 64.9 346.5 66 347 66C 347.6 66 348 64.9 348 63.5C 348 61.7 348.5 61 350 61C 351.1 61 352 60.3 352 59.5C 352 58.7 351.3 58 350.5 58C 349.6 58 349 57.1 349 55.5C 349 54.1 348.6 53 348 53C 347.5 53 347 53.9 347 55z"/>
<path style="stroke:none; fill:#000000" d="M 359.6 72.2C 359.1 73.8 358.2 75 357.4 75C 356.6 75 356 75.7 356 76.5C 356 77.3 356.5 78 357 78C 357.6 78 358 78.9 358 80C 358 81.1 358.5 82 359 82C 359.6 82 360 81.1 360 80C 360 78.7 360.7 78 362 78C 364.3 78 364.6 76.5 362.6 75.3C 361.8 74.9 361 73.4 360.8 72L 360.4 69.5L 359.6 72.2z"/>
<path style="stroke:none; fill:#000000" d="M 371.8 94.9C 371.4 96.2 370.7 96.9 370.1 96.4999C 368.5 95.5999 367.5 98.9 368.9 100.3C 369.5 100.9 370 102.5 370 103.8C 370 105.1 370.4 105.8 371 105.5C 371.6 105.2 372 104.1 372 103C 372 101.7 372.5 101.3 374 101.7C 376.4 102.3 376.8 99.6 374.6 98.2999C 373.8 97.8999 373 96.3999 372.8 94.9999L 372.5 92.4999L 371.8 94.9z"/>
<path style="stroke:none; fill:#000000" d="M 405 86.9C 405 88.6 404.6 90.2 404 90.4999C 402.4 91.4999 402.8 94.2999 404.5 93.5999C 405.3 93.2999 406.4 93.7999 406.9 94.7999C 408 96.5999 408.1 96.5999 408.6 93.4999C 409.5 88.2 409.4 87.4999 408.3 87.7C 407.6 87.9 407 87.1 407 85.9999C 407 84.9 406.6 83.9999 406 83.9999C 405.5 83.9999 405 85.2999 405 86.9z"/>
<path style="stroke:none; fill:#000000" d="M 419.1 95.1C 419 96.6 418.3 98.3 417.5 99C 415.6 100.6 415.5 103.4 417.4 102.7C 418.3 102.3 419.1 102.9 419.5 104.1C 419.9 105.1 420.6 105.8 421.1 105.4C 421.6 105.1 421.8 104 421.5 103C 421.1 101.8 421.5 100.8 422.6 100.2C 423.7 99.6 424.1 98.6 423.7 97.6C 423.3 96.6 422.6 96.2 422 96.5001C 421.4 96.8 420.6 96.1 420.1 94.8C 419.1 92.5001 419.1 92.5 419.1 95.1z"/>
<path style="stroke:none; fill:#000000" d="M 195.8 50.1C 193.2 51.6 189 59.3 189 62.5C 189 72.4 201.6 102.9 212.3 119C 217.4 126.6 224.1 134 225.8 134C 226.7 134 230.2 131.6 233.4 128.7L 239.3 123.4L 238.1 115.4C 237.4 111.1 236 105 235 102C 234 99 233.2 96.4 233.3 96.4C 233.4 96.3 236.3 99.5 239.8 103.6C 250.4 116.2 267.2 126.5 278 127.2C 282.5 127.4 282.8 127.2 288 120.5C 293 114.1 292.9 113 287.1 104.2C 282.5 97.3 275.6 90.2 269.4 85.9C 257.5 77.7 242.3 73.6 238 77.5C 235.6 79.6 232 87.3 232 90.2C 231.9 91.6 230.6 89.7 228.5 85.1C 222.2 71.8 210.2 55.5001 203.1 50.8C 200.2 48.8 198.3 48.6 195.8 50.1zM 207.3 58.9C 219.1 70.3 233 96.7 235.5 112.5C 236.2 116.5 236.2 116.5 232.9 116.5C 230.3 116.5 229.1 117.2 227.3 119.9C 226 121.8 225 124.4 225 125.6C 225 128.8 224 128.6 220.3 124.7C 209.7 113.5 194.3 82.2999 191.5 65.9C 190.4 59.7 195.8 52.2 200.5 53.6C 201.6 53.9 204.7 56.3 207.3 58.9zM 245 81.9C 245 82.9999 244.6 84.2 244 84.4999C 243.5 84.7999 243 86.0999 243 87.2999C 243 88.8999 243.3 89.0999 244.2 88.2C 245.1 87.2999 245.6 87.4999 246.6 88.7999C 247.8 90.3999 247.9 90.2999 248 88.2999C 248 87.0999 248.5 85.7999 249 85.4999C 250.5 84.4999 250.2 81.9999 248.5 81.9999C 247.7 81.9999 247 81.5999 247 80.9999C 247 79.2999 253.2 81.0999 261.2 85.0999C 269.2 89.0999 280.3 98.5999 284 104.5L 286 107.8L 283.8 111.5C 282.6 113.6 281.4 116.9 281 118.9C 280.4 122.5 280.4 122.5 275.8 122.3C 266.6 122 251.4 112.7 241.4 101.3C 234.5 93.3 233.6 90.5 236.5 85C 239 80.2 245 77.9999 245 81.9zM 288.4 113.8C 288.6 114.2 287.5 116.1 285.9 118C 282.8 121.8 282.1 120.7 284.5 116C 286 113.1 287.4 112.3 288.4 113.8zM 235 121C 235.8 121.5 236.2 122.1 236 122.2C 235.7 122.4 234 123.8 232.2 125.3C 230.3 126.8 228.4 128 227.9 128C 226.3 128 227 124.4 229 122.2C 231.3 119.8 232.7 119.5 235 121z"/>
<path style="stroke:none; fill:#000000" d="M 202.6 57.7C 202.2 59 201.4 60 200.9 60C 200.4 60 200 60.9 200 62C 200 63.1 200.5 64 201 64C 201.6 64 202 65 202.1 66.2C 202.2 68.4 202.2 68.4 202.9 66C 203.4 64.4 204.2 63.6 205.3 63.8C 207.4 64.1 207.6 61.4 205.6 60.3C 204.8 59.9 204 58.6 203.8 57.5C 203.4 55.6 203.3 55.6 202.6 57.7z"/>
<path style="stroke:none; fill:#000000" d="M 214.7 73.7C 214.3 74.8 213.3 76.1 212.5 76.4C 210.8 77 210.4 80 212 80C 212.6 80 213 80.7 213 81.5C 213 82.3 213.5 83 214 83C 214.6 83 215 82.3 215 81.5C 215 80.7 215.9 80 217 80C 218.1 80 219 79.3 219 78.5C 219 77.7 218.4 77 217.6 77C 216.8 77 216 75.8 215.8 74.2C 215.5 71.7 215.4 71.6 214.7 73.7z"/>
<path style="stroke:none; fill:#000000" d="M 259 87.4C 259 88.8 258.6 90.2 258 90.4999C 256.3 91.4999 256.8 95.2999 258.5 94.7C 259.3 94.2999 260.3 94.6 260.7 95.2999C 261.2 96.0999 261.7 95.5999 262.1 93.9999C 263.2 90.2 263.1 87.7999 262 88.4999C 261.5 88.7999 261 88.4 261 87.5999C 261 86.7999 260.6 85.7999 260 85.4999C 259.4 85.2 259 85.9999 259 87.4z"/>
<path style="stroke:none; fill:#000000" d="M 34.4 112.4C 31.1 116.5 28.1 123.4 28.1 127.1C 28 132.1 31.1 138.5 38.1 147.7C 47.1 159.5 58.6 170.3 71.3 178.8C 82.1 186 88.1 188.3 94.5 187.8C 98.4 187.5 98.6 187.3 102.8 179C 108 168.8 107.9 166.8 102 156C 96.3 145.6 91.1 139 80 128C 66.8 114.8 54.8 109 40.9 109C 37.8 109 36.6 109.6 34.4 112.4zM 54.1 115.3C 66.7 119.2 77.8 128.1 91.3 145C 94.5 149.1 98.4 154.8 99.9 157.8C 102.3 162.8 102.4 163.2 100.7 164.1C 98.6 165.3 95.5 171.3 94.5 176C 93.2 182.8 93.1 183 89.3 183C 76.7 183 41.7 153.1 32 134.1C 30 130.1 29.9 129.2 31 125.6C 34.5 113.3 39.9 111 54.1 115.3zM 104 169C 104 170.6 97.6 183 96.8 183C 94.7 183 97.1 172.9 100.1 169.3C 101.4 167.8 104 167.6 104 169z"/>
<path style="stroke:none; fill:#000000" d="M 44.8 115.6C 44.4 115.9 44.3 117.5 44.6 119C 45 120.5 44.7 122.1 44.1 122.4C 42.8 123.2 42.6 127 43.8 127C 44.2 127 45.1 126.5 45.7 125.9C 46.6 125 47.1 125.4 47.6 127.4C 48.5 131.2 50.4 130.7 49.6 126.9C 49.2 124.6 49.4 123.4 50.7 122.5C 52.9 120.8 51.7 118 49.1 118.7C 47.6 119.1 46.8 118.6 46.2 117.1C 45.8 115.9 45.1 115.2 44.8 115.6z"/>
<path style="stroke:none; fill:#000000" d="M 64.3 126.9C 64.7 128.8 64.4 130.2 63.5 131C 62.7 131.7 62 133.1 62 134.1C 62 136.1 63.5 136.6 64.5 135C 65.5 133.3 67 133.9 67 135.9C 67 137 67.5 138.2 68 138.5C 68.6 138.9 69 137.9 69 136.1C 69 134.5 69.5 132.8 70 132.5C 71.9 131.3 71.1 128 68.9 128C 67.7 128 66.6 127.2 66.3 126C 65.5 122.8 63.7 123.6 64.3 126.9z"/>
<path style="stroke:none; fill:#000000" d="M 83 143.5C 83 145 82.3 146.8 81.5 147.6C 79.9 149.2 79.4 153 80.8 153C 81.2 153 82.1 152.5 82.7 151.9C 83.6 151 84.1 151.4 84.6 153.4C 85.5 157.1 87.3 156.7 86.5 153C 86 150.6 86.2 150 87.5 150C 88.6 150 89 149.3 88.8 147.7C 88.6 146.2 87.9 145.6 86.8 145.8C 85.6 146 85 145.4 85 144.1C 85 143 84.6 141.8 84 141.5C 83.4 141.1 83 142 83 143.5z"/>
<path style="stroke:none; fill:#000000" d="M 459.4 112.4C 456.1 116.5 453.1 123.4 453.1 127.1C 453 132.1 456.1 138.5 463.1 147.7C 472.1 159.5 483.6 170.3 496.3 178.8C 507.1 186 513.1 188.3 519.5 187.8C 523.4 187.5 523.6 187.3 527.8 179C 533 168.8 532.9 166.8 527 156C 521.3 145.6 516.1 139 505 128C 491.8 114.8 479.8 109 465.9 109C 462.8 109 461.6 109.6 459.4 112.4zM 479.1 115.3C 491.7 119.2 502.8 128.1 516.3 145C 519.5 149.1 523.4 154.8 524.9 157.8C 527.3 162.8 527.4 163.2 525.7 164.1C 523.6 165.3 520.5 171.3 519.5 176C 518.2 182.8 518.1 183 514.3 183C 501.7 183 466.7 153.1 457 134.1C 455 130.1 454.9 129.2 456 125.6C 459.5 113.3 464.9 111 479.1 115.3zM 529 169C 529 170.6 522.6 183 521.8 183C 519.7 183 522.1 172.9 525.1 169.3C 526.4 167.8 529 167.6 529 169z"/>
<path style="stroke:none; fill:#000000" d="M 469.8 115.6C 469.4 115.9 469.3 117.5 469.6 119C 470 120.5 469.7 122.1 469.1 122.4C 467.8 123.2 467.6 127 468.8 127C 469.2 127 470.1 126.5 470.7 125.9C 471.6 125 472.1 125.4 472.6 127.4C 473.5 131.2 475.4 130.7 474.6 126.9C 474.2 124.6 474.4 123.4 475.7 122.5C 477.9 120.8 476.7 118 474.1 118.7C 472.6 119.1 471.8 118.6 471.2 117.1C 470.8 115.9 470.1 115.2 469.8 115.6z"/>
<path style="stroke:none; fill:#000000" d="M 489.3 126.9C 489.7 128.8 489.4 130.2 488.5 131C 487.7 131.7 487 133.1 487 134.1C 487 136.1 488.5 136.6 489.5 135C 490.5 133.3 492 133.9 492 135.9C 492 137 492.5 138.2 493 138.5C 493.6 138.9 494 137.9 494 136.1C 494 134.5 494.5 132.8 495 132.5C 496.9 131.3 496.1 128 493.9 128C 492.7 128 491.6 127.2 491.3 126C 490.5 122.8 488.7 123.6 489.3 126.9z"/>
<path style="stroke:none; fill:#000000" d="M 508 143.5C 508 145 507.3 146.8 506.5 147.6C 504.9 149.2 504.4 153 505.8 153C 506.2 153 507.1 152.5 507.7 151.9C 508.6 151 509.1 151.4 509.6 153.4C 510.5 157.1 512.3 156.7 511.5 153C 511 150.6 511.2 150 512.5 150C 513.6 150 514 149.3 513.8 147.7C 513.6 146.2 512.9 145.6 511.8 145.8C 510.6 146 510 145.4 510 144.1C 510 143 509.6 141.8 509 141.5C 508.4 141.1 508 142 508 143.5z"/>
<path style="stroke:none; fill:#000000" d="M 176.7 114.4C 173.7 117.1 171.6 121 170.2 126.4C 169.3 129.5 169.4 131.1 171 135.2C 176.3 149.1 200.9 172.9 219.3 182C 224.5 184.5 226.7 185.1 231.1 184.8L 236.5 184.5L 240.2 177.5C 242.5 173.3 243.9 169.1 243.9 167C 243.9 159.9 230.7 140.4 218.1 128.8C 206.6 118.3 197.2 113.8 184.8 112.6C 179.9 112.2 178.8 112.4 176.7 114.4zM 194.7 118.5C 206.9 122.4 216.6 129.8 228.4 144.4C 234.6 152.1 240 160.5 240 162.5C 240 162.8 239.4 163 238.7 163C 237 163 233.4 169.4 232.5 174C 231.3 180.6 231 181 228.1 181C 224 181 212.8 175 202.9 167.6C 187.6 156.1 172 137.3 172 130.6C 172.1 126.1 176.9 117.7 180 116.9C 184.4 115.7 186.7 115.9 194.7 118.5zM 242 167.7C 242 169.4 234.6 181.3 234.2 180.2C 232.9 176.3 237.4 167 240.6 167C 241.4 167 242 167.3 242 167.7z"/>
<path style="stroke:none; fill:#000000" d="M 185.3 120.8C 185.7 122.5 185.5 124.2 185 124.5C 183.7 125.3 183.7 129 185 129C 185.6 129 186 128.5 186 128C 186 127.4 186.5 127 187 127C 187.6 127 188 127.9 188 128.9C 188 130 188.5 131.2 189.1 131.6C 189.9 132.1 190.1 131.3 189.8 129C 189.5 126.9 189.8 125.6 190.7 125.3C 191.4 125 192 123.9 192 122.9C 192 121.3 191.5 121.1 189.5 121.6C 187.6 122.1 187 121.8 187 120.7C 187 119.8 186.5 118.8 185.8 118.4C 185 117.9 184.9 118.6 185.3 120.8z"/>
<path style="stroke:none; fill:#000000" d="M 204 128.9C 204 130.5 203.6 132.2 203 132.5C 202.5 132.8 202 134 202 135.1C 202 136.7 202.4 137 204.1 136.5C 205.6 136 206.3 136.3 206.7 137.9C 207.6 141.2 209.2 140.4 208.5 137C 208.1 135.1 208.2 134 208.9 134C 209.5 134 210 133.1 210 132C 210 130.7 209.3 130 208 130C 206.9 130 206 129.4 206 128.6C 206 127.8 205.6 126.8 205 126.5C 204.4 126.1 204 127.1 204 128.9z"/>
<path style="stroke:none; fill:#000000" d="M 319.8 115.7C 314 122 311.9 129.9 314.4 136.9C 316.8 143.5 324.3 153.4 334.9 164C 351 180.1 366.9 190 376.6 190L 382 190L 386 181.8C 388.2 177.3 390 172.3 390 170.6C 390 166.6 384 155.1 377.5 146.5C 361 124.8 343.4 113 327.5 113C 323.2 113 322 113.4 319.8 115.7zM 341.2 119.8C 348 122.2 353.8 126.1 362.1 133.7C 369.5 140.6 379.8 153.6 383.3 160.6C 385.8 165.6 385.8 165.6 383.8 166.9C 381.4 168.4 378.5 174.9 377.5 180.7C 376.9 184.8 376.7 185 373.4 185C 358.4 185 315.3 145.3 315.6 131.9C 315.8 127.3 319.7 120 323 118.2C 326.2 116.5 333.7 117.2 341.2 119.8z"/>
<path style="stroke:none; fill:#000000" d="M 329.3 122C 329.7 123.6 329.5 125.2 329 125.5C 328.4 125.8 328 127.3 328 128.8C 328 130.8 328.3 131.1 329.2 130.2C 331 128.4 331.7 128.7 332.4 131.6C 332.9 133.6 333.4 134 334.2 133.2C 335 132.4 335.1 131.4 334.2 129.6C 333.3 127.7 333.4 127.1 334.6 126.6C 335.4 126.3 336 124.9 336 123.5C 336 121.2 335.8 121.1 333.9 122C 332.2 123 331.8 122.8 331.3 121.1C 330.5 117.8 328.7 118.6 329.3 122z"/>
<path style="stroke:none; fill:#000000" d="M 348.8 127.5C 348.4 127.9 348.4 129.5 348.7 131.1C 349 132.8 348.8 134 348.2 134C 346.8 134 345.9 136.7 346.7 138.5C 347.2 139.9 347.4 139.9 349 138.5C 350.7 136.9 350.9 137 351.2 139C 351.6 141.7 353.6 141.5 353.2 138.8C 353.1 137.7 353.5 136.1 354.1 135.4C 355.5 133.7 354.5 130.9 352.7 131.5C 351.9 131.9 351 131 350.5 129.4C 349.9 128 349.2 127.1 348.8 127.5z"/>
<path style="stroke:none; fill:#000000" d="M 367.1 146.1C 367 147.6 366.3 149.3 365.5 150C 364.7 150.7 364 152.4 364 153.8C 364 155.8 364.3 156.1 365.2 155.2C 366.9 153.5 368 153.7 368 155.9C 368 157 368.5 158.2 369 158.5C 369.6 158.9 370 158 370 156.4C 370 154.9 370.7 153.2 371.6 152.6C 373.4 151.3 372.5 147.9 370.5 148.6C 369.7 148.9 368.8 148 368.2 146.3L 367.2 143.5L 367.1 146.1z"/>
<path style="stroke:none; fill:#000000" d="M 227.5 214.2C 227.2 215 227 216.5 227.1 217.5C 227.2 218.6 227.2 221.1 227.1 223C 226.8 226.2 226.7 226.3 226.1 224C 225.5 221.8 224.7 221.4 220 220.9C 217 220.6 213 220 211.2 219.6C 208.7 219 207.9 219.2 207.4 220.4C 207.1 221.3 207.3 222.6 207.9 223.4C 209.5 225.3 207.3 226 199 226L 192.2 226L 192.4 231.2C 192.5 235.4 192.2 236.5 190.8 236.8C 189.6 237 188.6 236 187.6 233.6C 186 229.7 183.7 228.2 181.7 229.8C 181.1 230.3 178.6 231.3 176.3 231.9C 172 233.1 171 234.3 173.1 235.6C 175.3 236.9 178 244.6 178 249.8C 178 252.7 176.9 261.6 175.5 269.6C 172.6 286.4 172.2 302 174.5 309.6C 175.3 312.3 177.6 316.5 179.6 318.8C 183.3 323.2 196.9 334 200.5 335.5C 202.3 336.2 202.1 336.4 199.2 337.3C 197.4 337.9 194.6 339.8 193 341.7C 190.1 344.9 190 345.5 190 354.1C 190 362.9 190.1 363.3 193 366C 197.7 370.4 202.2 371.5 215.5 371.5C 226.7 371.5 227.9 371.3 232.8 368.7L 238 366L 238 355.1C 238 344.2 238 344.2 235 341.7C 233.4 340.3 230.7 338.9 229.1 338.5C 222.4 337.1 222.6 333 229.8 320.2C 235.9 309.2 240.1 305.7 259.1 295.5C 279.1 284.8 282.4 281.9 290.9 267.8L 293.1 264.1L 289.1 262C 286.8 260.9 285 259.6 285 259.2C 285.1 258.8 285.7 256 286.4 253C 287.1 250 287.7 245.9 287.6 244C 287.5 241.1 287.1 240.5 285.5 240.7C 284.4 240.8 281.8 240.5 279.6 240C 274 238.8 273.2 239.4 273.2 245.2C 273.1 250.5 268 263 265.8 263C 265.2 263 265.1 262.3 265.5 261.2C 270.3 249.6 270.5 248.6 270.5 235.8C 270.5 228.8 270 222.6 269.5 222.1C 268.9 221.6 265.4 221.5 261.5 221.9L 254.5 222.5L 254.8 225.7C 255.1 228.4 254.8 229 253.3 229C 252.3 229 251 228 250.5 226.8C 249.7 225 248.3 224.3 244.6 223.8C 239.3 223.1 238 221.9 238 217.9C 238 215.7 237.4 215.2 234.8 214.7C 233 214.4 230.7 213.9 229.8 213.5C 228.7 213.1 227.8 213.3 227.5 214.2zM 234.6 221.6C 236.5 231.6 232.5 241 223 248.8C 206.4 262.6 203.2 265.9 199.8 272.7L 196.5 279.5L 196.5 295C 196.5 309.7 196.7 310.9 199.3 317.8C 201 322 204.5 328 207.7 332C 211.3 336.7 212.6 339 211.6 339C 210.7 339 210 338.6 210 338.1C 210 337.7 207 334.2 203.4 330.4C 196.7 323.3 191.9 314.8 190.6 307.7C 189.4 301 189.8 288.7 191.4 284.2C 194 277 200.7 266.7 207.8 258.9C 223.1 242.3 230 231.6 230.8 222.9C 231.3 217 233.6 216.3 234.6 221.6zM 222.2 224.8C 222.7 225.3 222.5 227.8 222 230.6C 221.4 233.3 220.9 236.2 220.8 237C 220.7 239.3 204.3 259.6 203.4 258.7C 203.1 258.5 204.1 256.3 205.5 253.8C 208.7 248 212 235.2 212 228.2L 212 222.7L 216.7 223.4C 219.3 223.7 221.8 224.4 222.2 224.8zM 258 233.5C 260 235.9 258.6 248.3 255.4 257C 252.4 265.1 249.3 268.7 233.8 282.3C 220 294.4 215.5 305.1 216.2 324.1C 216.6 335.8 215.9 336.9 214.1 327.6C 211.8 315.5 213.3 301.8 218.1 291.2C 221.2 284.3 227.9 277 236.2 271.4C 249.9 262.2 254.8 255.4 256 244C 256.8 236.8 256.1 235 252.4 235C 250.9 235 250 234.4 250 233.5C 250 231.5 256.3 231.5 258 233.5zM 184.9 236.4C 187.8 242.4 187.5 249.7 183.5 265.5C 180.2 278.7 179.8 281.9 179.9 291.9C 180.1 304.9 181.1 310.7 184.6 316.9C 187.7 322.5 187.6 323 184.2 319.7C 178.7 314.5 176.6 308.5 176.2 297.5C 175.8 287.3 176.3 282.5 180 261.7C 182 250.6 182 249.5 180.5 243.7C 179.7 240.4 178.5 237.1 177.9 236.3C 177 235.3 177.3 234.8 179.1 234.1C 182.3 232.8 183.3 233.2 184.9 236.4zM 252.1 239.1C 252.8 240.4 252.9 243 252.5 245.9C 251.2 254.6 246.6 261.2 237.7 267.2C 229.6 272.6 219.3 282.6 217 287.1C 212.4 296 210.6 304.2 210.5 315.7C 210.5 321.8 210.2 326.6 209.9 326.4C 209.6 326.2 208.5 323.5 207.4 320.3C 204.9 312.2 204.8 294.6 207.4 287C 211.4 275.1 218 266 227.7 258.8C 235.9 252.8 245.6 243.3 247 240C 248.5 236.5 250.5 236.1 252.1 239.1zM 196 241.9C 196 243.9 193.2 252.6 188 266.3C 183.1 279.3 183.1 277.7 187.9 259.6C 189.1 255.2 190 249.1 190 245.8C 190 240 190 240 193 240C 195.3 240 196 240.5 196 241.9zM 283.8 246.8C 284.2 251 281.5 260.3 278.4 265.8C 274 273.4 269.8 277.1 255.3 286.7C 238.9 297.5 232.8 303.6 225.8 316.6C 220.9 325.6 220.5 324.9 224.1 313.5C 226.5 306.1 236.6 292.2 245.2 284.8C 248.5 281.9 253.6 277.5 256.4 275C 259.2 272.5 263.2 269.2 265.3 267.6C 270 264.1 274.6 256.2 276.2 248.7C 277.4 243.1 277.5 242.9 280.5 243.2C 283.1 243.5 283.5 243.9 283.8 246.8zM 203.8 343.4C 204.2 346.9 208.8 349 216 349C 221.1 349 221.2 348.9 222.7 345C 224.6 340.2 227.4 339.7 231.7 343.4C 234 345.4 234.3 346.2 233.4 347.7C 231.6 350.7 223.6 352.1 211.5 351.7C 194.9 351.2 189.9 347.7 197.9 342.3C 202.1 339.5 203.4 339.8 203.8 343.4zM 219.4 342.3C 221.3 342.5 221.3 342.6 219.6 344.2C 216.5 347.4 207 345.8 207 342.2C 207 341.6 213.5 341.6 219.4 342.3z"/>
<path style="stroke:none; fill:#000000" d="M 88.5 219.2C 88.2 220 88 221.5 88.1 222.5C 88.2 223.6 88.2 226.1 88.1 228C 87.8 231.2 87.7 231.3 87.1 229C 86.5 226.8 85.7 226.4 81 225.9C 78 225.6 74 225 72.2 224.6C 69.7 224 68.9 224.2 68.4 225.4C 68.1 226.3 68.3 227.7 68.9 228.4C 70.5 230.3 67.7 231.2 60.7 231C 57.9 230.9 55 230.9 54.5 230.9C 53.9 231 53.4 233.3 53.5 236.2C 53.5 239.3 53 241.5 52.3 241.7C 51.2 242.1 47.7 237.5 46.7 234.5C 46.4 233.8 36.3 236.3 34.1 237.7C 34 237.8 35 240.3 36.5 243.3C 39.9 250.3 40 257.4 36.9 272.5C 34.3 285.3 33.7 306.9 35.8 313.6C 36.4 315.9 38.9 319.8 41.1 322.4C 45.3 327.2 57.8 337 61.5 338.4C 63.2 339 62.9 339.4 59.4 340.9C 52.5 344 51 346.9 51 356.9C 51 365.1 51.2 365.8 53.8 368.3C 58.4 372.7 64.3 374.3 76.5 374.4C 86.7 374.5 87.9 374.3 93.3 371.7L 99 368.9L 99 358.6C 99 346.6 97.7 343.9 90.9 341.9C 85.3 340.2 84.4 338.8 86 333.7C 87.9 327.1 94.4 316.8 99.8 311.8C 102.5 309.2 108.1 305.5 112.1 303.4C 124.5 297.2 135.3 290.9 139.9 287.2C 144.1 283.8 153 271.2 153 268.7C 153 268.1 151.2 266.7 149.1 265.7L 145.2 264L 146.5 260.2C 147.2 258.2 148 254 148.1 251L 148.5 245.5L 142 244.9C 138.4 244.5 135.2 244.4 134.8 244.7C 134.3 244.9 134 247 134 249.4C 134 254.5 132.5 259.1 129.3 264.2C 126.1 269.3 124.7 269 127 263.7C 131.8 253 133 242.4 130.9 231.7L 129.7 226.1L 123.6 226.6C 115.1 227.4 114.9 227.5 115.6 231C 116.1 233.5 115.9 234 114.4 234C 113.3 234 112 233 111.5 231.8C 110.7 230 109.3 229.3 105.6 228.8C 100.3 228.1 99 226.9 99 222.9C 99 220.7 98.4 220.2 95.8 219.7C 94 219.4 91.7 218.9 90.8 218.5C 89.7 218.1 88.8 218.3 88.5 219.2zM 95.8 229.4C 96.7 240.6 93.3 245.6 73.5 262.4C 65.5 269.1 60.5 275.6 58.8 281.4C 58.2 283.7 57.6 291.8 57.6 299.5C 57.5 312.5 57.7 314 60.3 320.5C 63 327.6 64.8 330.5 70.8 337.9C 72.7 340.2 73.8 342 73.3 342C 71.9 342 57.9 326.6 55.9 322.8C 51 313.4 49.5 297.7 52.7 288.4C 55.4 280.3 60.4 272.7 69.1 263.4C 78.4 253.4 88.7 239.3 90.5 234.1C 91.3 231.6 92 228.2 92 226.5C 92 219.2 95.1 221.6 95.8 229.4zM 83.1 229.7C 83.6 230.2 83.5 233.1 82.9 236.9C 81.9 242.3 80.9 244.2 76 250.3C 72.9 254.3 68.8 258.8 67 260.5L 63.7 263.5L 66.3 259C 69.8 252.9 73 240.8 73 233.6L 73 227.7L 77.6 228.3C 80.1 228.5 82.6 229.2 83.1 229.7zM 127 231C 129.2 235.2 129.3 244.3 127.2 252.8C 123.9 265.9 119.9 273.1 112.7 279.2C 96.4 293.2 86.9 304.8 82.5 316.3C 80.3 322.1 80.1 322.3 80.1 319C 80 313.9 82.4 305.7 85.6 300.2C 88.6 295 92.3 291.3 104.8 280.8C 114.5 272.6 117 269.1 120.5 259C 123.9 249.1 124.2 236.4 121 233.8C 118.5 231.8 118.4 230.3 120.8 229.7C 124.4 228.7 126 229.1 127 231zM 105.9 232C 108.1 232 106.7 240.1 103.6 245.4C 102 248.2 97.7 252.5 92.3 256.7C 78.6 267.4 75.2 270.9 71.3 277.8C 65.9 287.4 63.9 295.6 63.8 307.7C 63.8 313.3 64.1 318.9 64.4 320.2C 64.7 321.5 64 320.5 62.8 318C 60.7 314 60.5 312.1 60.6 299.5C 60.6 291.7 61.1 283.7 61.8 281.4C 63.6 275.3 68.8 269.1 79.2 260.8C 84.3 256.6 90.2 251.5 92.1 249.3C 95.5 245.5 100 235.9 100 232.3C 100 231.2 100.6 230.9 102.3 231.4C 103.5 231.7 105.1 232 105.9 232zM 69.9 234.6C 70.1 234.8 69.7 238.2 69.1 242.1C 68.1 247.6 65.8 253.1 58.9 266.5C 48 287.8 47.1 291.1 48.1 304.9C 48.8 313.3 49.5 316.5 52 321.8C 56.1 330.5 53.2 327.9 48.5 318.5C 45 311.6 44.6 310.2 44.6 302.7C 44.5 292.9 46.3 285.5 52.6 269.9C 57.7 257.2 61 246.7 61 243.2C 61 241.7 60.3 240.6 59 240.3C 57.6 239.9 57 238.9 57 236.9C 57 234.4 57.4 234.1 60.8 233.8C 64.3 233.4 69 233.9 69.9 234.6zM 119.6 239.6C 120.7 243.8 119.2 253.2 116.3 261.1C 113.4 269.1 110.6 272.3 94.5 286.6C 80.8 298.8 76.5 309.1 77.2 327.7C 77.6 338.9 76.9 339.8 75.1 330.6C 73.5 321.9 73.7 313.3 75.9 304.7C 79.4 291 83.9 285.1 98.3 274.8C 112.6 264.6 117.5 256.8 116.8 245.5C 116.5 241.2 116.2 240.5 114.1 240C 109.8 239 110.4 237 114.9 237C 118.4 237 119 237.3 119.6 239.6zM 46.2 242C 48.9 247.3 48.4 255.4 44.5 270.9C 41.7 281.8 41 286.6 41 294.1C 41 306 42.5 314.2 45.6 319.9C 48.7 325.5 48.6 326 45.2 322.7C 35.8 313.7 34.9 301.5 41.1 266.7C 43.1 255.3 43.2 253.4 42 248.7C 41.3 245.9 40.1 242.5 39.3 241.3C 38 239.4 38.1 239.1 39.7 238.7C 43.1 237.8 44.5 238.5 46.2 242zM 112.9 243.9C 114.1 246.1 113.4 252.9 111.4 257.6C 109.4 262.4 104.5 267.6 97.6 272.3C 78.5 285.2 71.5 298.1 71.5 320.3L 71.5 331.1L 69.8 327C 67.5 321.6 65.7 307.8 66.5 301.6C 68.5 285.7 76.5 271.6 87.9 263.7C 96.2 258 105.7 249.2 107.4 245.6C 109.3 241.6 111.4 241 112.9 243.9zM 56.6 248.9C 56.1 252.2 48.9 272.1 46 278.5C 44.6 281.4 45.7 276.4 48.6 266.1C 50 261.3 51 255.1 51 251.4L 51 245L 54.1 245C 57.2 245 57.2 245.1 56.6 248.9zM 144.7 249.6C 145.6 252 143.3 261.4 140.3 267.7C 136.4 275.8 129.4 282.4 115.8 290.8C 101.6 299.6 92.1 309.3 86.4 320.7C 84.4 324.8 82.6 327.9 82.4 327.7C 82.1 327.5 83.1 323.6 84.5 319.1C 89.1 304.7 99.1 293.4 127.7 270.5C 131.6 267.4 137 256.9 137 252.5C 137 250.8 137.3 249 137.7 248.7C 139 247.4 144.1 248 144.7 249.6zM 147.6 269.5C 148.5 271.7 143 280.8 138.2 285.1C 135.8 287.2 127 292.6 118.7 297.1C 110.3 301.6 101.5 306.9 99 308.8L 94.5 312.5L 97.4 309C 101.5 304 109.6 297.2 114.4 294.8C 126.8 288.5 138.3 278.7 141.7 271.5C 143.4 267.9 146.6 266.8 147.6 269.5zM 65.3 346.9C 66 350.4 69.9 352 77.2 352C 82.1 352 82.2 351.9 83.8 347.9C 85.3 344.1 85.6 343.9 88.4 344.4C 92.2 345.2 95.5 348.3 94.7 350.4C 92.4 356.4 57.6 356.3 55.3 350.3C 54.5 348.2 59.3 344 62.4 344C 64.2 344 64.9 344.7 65.3 346.9zM 81 347.1C 79.1 350.6 68 349 68 345.2C 68 344.8 71.1 344.6 75 344.8C 81.5 345.1 81.9 345.3 81 347.1zM 75 358.1C 83.3 358 90.6 357 94.3 355.5C 95.9 354.8 96.1 355.3 95.8 360.6L 95.5 366.5L 90.5 369C 86.3 371.1 84.1 371.5 76.5 371.5C 66.5 371.5 59 369.8 56.4 366.9C 55.4 365.8 54.5 362.7 54.2 359.6L 53.8 354.1L 60.1 356.1C 64.5 357.5 69.2 358.1 75 358.1z"/>
<path style="stroke:none; fill:#000000" d="M 372.5 219.2C 372.2 220 372 221.5 372.1 222.5C 372.2 223.6 372.2 226.1 372.1 228C 371.8 231.2 371.7 231.3 371.1 229C 370.5 226.8 369.7 226.4 365 225.9C 362 225.6 358 225 356.2 224.6C 353.7 224 352.9 224.2 352.4 225.4C 352.1 226.3 352.3 227.7 352.9 228.4C 354.5 230.3 351.7 231.2 344.7 231C 341.9 230.9 339 230.9 338.5 230.9C 337.9 231 337.4 233.3 337.5 236.2C 337.5 239.3 337 241.5 336.3 241.7C 335.2 242.1 331.7 237.5 330.7 234.5C 330.4 233.8 320.3 236.3 318.1 237.7C 318 237.8 319 240.3 320.5 243.3C 323.9 250.3 324 257.4 320.9 272.5C 318.3 285.3 317.7 306.9 319.8 313.6C 320.4 315.9 322.9 319.8 325.1 322.4C 329.3 327.2 341.8 337 345.5 338.4C 347.2 339 346.9 339.4 343.4 340.9C 336.5 344 335 346.9 335 356.9C 335 365.1 335.2 365.8 337.8 368.3C 342.4 372.7 348.3 374.3 360.5 374.4C 370.7 374.5 371.9 374.3 377.3 371.7L 383 368.9L 383 358.6C 383 346.6 381.7 343.9 374.9 341.9C 369.3 340.2 368.4 338.8 370 333.7C 371.9 327.1 378.4 316.8 383.8 311.8C 386.5 309.2 392.1 305.5 396.1 303.4C 408.5 297.2 419.3 290.9 423.9 287.2C 428.1 283.8 437 271.2 437 268.7C 437 268.1 435.2 266.7 433.1 265.7L 429.2 264L 430.5 260.2C 431.2 258.2 432 254 432.1 251L 432.5 245.5L 426 244.9C 422.4 244.5 419.2 244.4 418.8 244.7C 418.3 244.9 418 247 418 249.4C 418 254.5 416.5 259.1 413.3 264.2C 410.1 269.3 408.7 269 411 263.7C 415.8 253 417 242.4 414.9 231.7L 413.7 226.1L 407.6 226.6C 399.1 227.4 398.9 227.5 399.6 231C 400.1 233.5 399.9 234 398.4 234C 397.3 234 396 233 395.5 231.8C 394.7 230 393.3 229.3 389.6 228.8C 384.3 228.1 383 226.9 383 222.9C 383 220.7 382.4 220.2 379.8 219.7C 378 219.4 375.7 218.9 374.8 218.5C 373.7 218.1 372.8 218.3 372.5 219.2zM 379.8 229.4C 380.7 240.6 377.3 245.6 357.5 262.4C 349.5 269.1 344.5 275.6 342.8 281.4C 342.2 283.7 341.6 291.8 341.6 299.5C 341.5 312.5 341.7 314 344.3 320.5C 347 327.6 348.8 330.5 354.8 337.9C 356.7 340.2 357.8 342 357.3 342C 355.9 342 341.9 326.6 339.9 322.8C 335 313.4 333.5 297.7 336.7 288.4C 339.4 280.3 344.4 272.7 353.1 263.4C 362.4 253.4 372.7 239.3 374.5 234.1C 375.3 231.6 376 228.2 376 226.5C 376 219.2 379.1 221.6 379.8 229.4zM 367.1 229.7C 367.6 230.2 367.5 233.1 366.9 236.9C 365.9 242.3 364.9 244.2 360 250.3C 356.9 254.3 352.8 258.8 351 260.5L 347.7 263.5L 350.3 259C 353.8 252.9 357 240.8 357 233.6L 357 227.7L 361.6 228.3C 364.1 228.5 366.6 229.2 367.1 229.7zM 411 231C 413.2 235.2 413.3 244.3 411.2 252.8C 407.9 265.9 403.9 273.1 396.7 279.2C 380.4 293.2 370.9 304.8 366.5 316.3C 364.3 322.1 364.1 322.3 364.1 319C 364 313.9 366.4 305.7 369.6 300.2C 372.6 295 376.3 291.3 388.8 280.8C 398.5 272.6 401 269.1 404.5 259C 407.9 249.1 408.2 236.4 405 233.8C 402.5 231.8 402.4 230.3 404.8 229.7C 408.4 228.7 410 229.1 411 231zM 389.9 232C 392.1 232 390.7 240.1 387.6 245.4C 386 248.2 381.7 252.5 376.3 256.7C 362.6 267.4 359.2 270.9 355.3 277.8C 349.9 287.4 347.9 295.6 347.8 307.7C 347.8 313.3 348.1 318.9 348.4 320.2C 348.7 321.5 348 320.5 346.8 318C 344.7 314 344.5 312.1 344.6 299.5C 344.6 291.7 345.1 283.7 345.8 281.4C 347.6 275.3 352.8 269.1 363.2 260.8C 368.3 256.6 374.2 251.5 376.1 249.3C 379.5 245.5 384 235.9 384 232.3C 384 231.2 384.6 230.9 386.3 231.4C 387.5 231.7 389.1 232 389.9 232zM 353.9 234.6C 354.1 234.8 353.7 238.2 353.1 242.1C 352.1 247.6 349.8 253.1 342.9 266.5C 332 287.8 331.1 291.1 332.1 304.9C 332.8 313.3 333.5 316.5 336 321.8C 340.1 330.5 337.2 327.9 332.5 318.5C 329 311.6 328.6 310.2 328.6 302.7C 328.5 292.9 330.3 285.5 336.6 269.9C 341.7 257.2 345 246.7 345 243.2C 345 241.7 344.3 240.6 343 240.3C 341.6 239.9 341 238.9 341 236.9C 341 234.4 341.4 234.1 344.8 233.8C 348.3 233.4 353 233.9 353.9 234.6zM 403.6 239.6C 404.7 243.8 403.2 253.2 400.3 261.1C 397.4 269.1 394.6 272.3 378.5 286.6C 364.8 298.8 360.5 309.1 361.2 327.7C 361.6 338.9 360.9 339.8 359.1 330.6C 357.5 321.9 357.7 313.3 359.9 304.7C 363.4 291 367.9 285.1 382.3 274.8C 396.6 264.6 401.5 256.8 400.8 245.5C 400.5 241.2 400.2 240.5 398.1 240C 393.8 239 394.4 237 398.9 237C 402.4 237 403 237.3 403.6 239.6zM 330.2 242C 332.9 247.3 332.4 255.4 328.5 270.9C 325.7 281.8 325 286.6 325 294.1C 325 306 326.5 314.2 329.6 319.9C 332.7 325.5 332.6 326 329.2 322.7C 319.8 313.7 318.9 301.5 325.1 266.7C 327.1 255.3 327.2 253.4 326 248.7C 325.3 245.9 324.1 242.5 323.3 241.3C 322 239.4 322.1 239.1 323.7 238.7C 327.1 237.8 328.5 238.5 330.2 242zM 396.9 243.9C 398.1 246.1 397.4 252.9 395.4 257.6C 393.4 262.4 388.5 267.6 381.6 272.3C 362.5 285.2 355.5 298.1 355.5 320.3L 355.5 331.1L 353.8 327C 351.5 321.6 349.7 307.8 350.5 301.6C 352.5 285.7 360.5 271.6 371.9 263.7C 380.2 258 389.7 249.2 391.4 245.6C 393.3 241.6 395.4 241 396.9 243.9zM 340.6 248.9C 340.1 252.2 332.9 272.1 330 278.5C 328.6 281.4 329.7 276.4 332.6 266.1C 334 261.3 335 255.1 335 251.4L 335 245L 338.1 245C 341.2 245 341.2 245.1 340.6 248.9zM 428.7 249.6C 429.6 252 427.3 261.4 424.3 267.7C 420.4 275.8 413.4 282.4 399.8 290.8C 385.6 299.6 376.1 309.3 370.4 320.7C 368.4 324.8 366.6 327.9 366.4 327.7C 366.1 327.5 367.1 323.6 368.5 319.1C 373.1 304.7 383.1 293.4 411.7 270.5C 415.6 267.4 421 256.9 421 252.5C 421 250.8 421.3 249 421.7 248.7C 423 247.4 428.1 248 428.7 249.6zM 431.6 269.5C 432.5 271.7 427 280.8 422.2 285.1C 419.8 287.2 411 292.6 402.7 297.1C 394.3 301.6 385.5 306.9 383 308.8L 378.5 312.5L 381.4 309C 385.5 304 393.6 297.2 398.4 294.8C 410.8 288.5 422.3 278.7 425.7 271.5C 427.4 267.9 430.6 266.8 431.6 269.5zM 349.3 346.9C 350 350.4 353.9 352 361.2 352C 366.1 352 366.2 351.9 367.8 347.9C 369.3 344.1 369.6 343.9 372.4 344.4C 376.2 345.2 379.5 348.3 378.7 350.4C 376.4 356.4 341.6 356.3 339.3 350.3C 338.5 348.2 343.3 344 346.4 344C 348.2 344 348.9 344.7 349.3 346.9zM 365 347.1C 363.1 350.6 352 349 352 345.2C 352 344.8 355.1 344.6 359 344.8C 365.5 345.1 365.9 345.3 365 347.1zM 359 358.1C 367.3 358 374.6 357 378.3 355.5C 379.9 354.8 380.1 355.3 379.8 360.6L 379.5 366.5L 374.5 369C 370.3 371.1 368.1 371.5 360.5 371.5C 350.5 371.5 343 369.8 340.4 366.9C 339.4 365.8 338.5 362.7 338.2 359.6L 337.8 354.1L 344.1 356.1C 348.5 357.5 353.2 358.1 359 358.1z"/>
<path style="stroke:none; fill:#000000" d="M 506.8 218.5C 506.5 218.8 506.5 221.2 506.8 223.8C 507.3 228.3 507.2 228.4 505.4 226.9C 504.2 225.9 500.6 225 495.8 224.6C 487.8 223.9 485.7 224.7 488.1 227.6C 488.7 228.4 489.1 229.3 488.8 229.5C 488.5 229.8 485 230.1 480.9 230.3L 473.5 230.5L 473.8 235.8C 474.2 240.5 474 241.1 472.4 240.8C 471.4 240.6 469.7 238.8 468.6 236.7C 467.2 234.1 466.1 233 465 233.4C 459.3 235.2 455.5 236.9 455.2 237.8C 455 238.4 455.8 240.2 457 241.8C 460.3 246.3 460.7 255.1 458 269.5C 456.8 276.1 455.6 286.3 455.3 292.1C 454.2 312.4 457.8 319.3 475.9 332.1L 482.1 336.4L 478.8 338.1C 472.5 341.3 471.7 343.1 471.5 353.1C 471.4 361.9 471.5 362.4 474.2 365C 478.5 369.4 483.1 370.5 496 370.5C 506.7 370.4 507.8 370.2 512.2 367.7L 516.8 364.9L 516.9 355.1C 517 343.7 515.7 340.9 508.9 338.9C 503.2 337.1 502.5 335.9 504.3 330.6C 506.9 323.1 513.8 312.3 518.6 308.3C 521.1 306.2 529.3 301.2 536.8 297.1C 544.3 293 552.5 288.1 554.9 286.1C 560.6 281.4 569.3 268.1 567.8 266.3C 567.2 265.6 566.2 265 565.6 265C 565 265 563.7 264.4 562.8 263.6C 561.2 262.5 561.2 261.9 562.5 256.9C 564.1 251 564.4 245.4 563.3 244.7C 562.8 244.4 559.8 244.1 556.5 243.9L 550.5 243.5L 549.9 249.6C 549.3 255.7 545.4 265 543.2 265.8C 542.5 266 543.3 263.1 544.7 259.3C 547.2 253.2 547.5 251.3 547.5 239.7C 547.5 231.2 547.1 226.7 546.3 226.2C 545.7 225.8 542.3 225.7 538.8 226L 532.5 226.5L 532.8 229.7C 533.1 232.4 532.8 233 531.2 233C 530.1 233 529 232.1 528.7 231C 528.4 229.8 527.3 229 526.1 229C 524.9 229 522.4 228.3 520.5 227.6C 517.6 226.3 517 225.6 517 223C 517 221.3 516.4 219.8 515.8 219.5C 512.9 218.7 507.3 218 506.8 218.5zM 513.1 224.1C 514.8 227.3 513.7 236.8 511.1 242.3C 509.4 245.8 505.9 249.5 497.2 256.9C 479.3 272.1 476.4 278.5 477.2 301C 477.6 311 478.1 313.4 480.8 319.9C 482.5 323.9 485.9 329.9 488.5 333.1C 491 336.3 492.8 339 492.3 339C 490.6 338.9 478.2 324.2 475.7 319.4C 472.3 312.7 470.6 303.5 471.2 294.9C 471.9 285.1 477.6 273.9 487.1 263.4C 495.4 254.3 504.1 242.7 507.2 236.8C 508.4 234.5 509.6 230.3 509.8 227.3C 510.3 221.6 511.2 220.7 513.1 224.1zM 501.7 229.8C 502.1 230.6 501.8 234.1 501.1 237.4C 500 242.4 498.8 244.7 494.2 250.4C 482.6 264.4 482.1 264.8 486.4 256.1C 489.6 249.9 492.1 240.1 492.2 233.6C 492.2 230.8 492.4 228.3 492.6 228C 493.2 226.7 501.2 228.3 501.7 229.8zM 543.5 230C 543.9 230.6 544.4 234.4 544.7 238.5C 545.3 246.5 544.4 251.5 540.3 262.5C 537.9 268.9 536.6 270.5 525.9 281C 512.2 294.4 504.9 303.9 501.9 312.1C 500.7 315.4 499.5 318 499.2 318C 497.7 318 500.3 305.9 502.9 300.5C 505.8 294.6 507.5 292.8 526.3 275.2C 529.4 272.3 532.8 268.3 533.9 266.2C 537.5 259 540 249 540 241.3C 540 234.7 539.8 233.8 538 233.3C 536.9 233 536 231.9 536 230.9C 536 229.4 536.7 229 539.4 229C 541.3 229 543.2 229.5 543.5 230zM 521.9 231.1C 525 232.2 525.1 232.5 524.5 235.9C 523.1 243.7 518.1 249.9 505.3 259.9C 497.1 266.3 493.2 270.6 490.1 276.8C 484.7 287.8 483.6 292.5 483.5 305.7C 483.5 315.8 483.3 317.5 482.3 315.6C 478.7 308.7 479 285.4 482.7 276.9C 485.4 270.9 488.8 267.2 500.9 257C 509 250.2 511.6 247.3 514 242.6C 515.7 239.3 517 235.5 517 234C 517 231.8 517.7 230 518.5 230C 518.6 230 520.2 230.5 521.9 231.1zM 489 236.3C 489 242.3 485.3 252.5 478.2 266C 474.3 273.4 470.5 281.9 469.6 284.9C 466.6 295.1 468 311.1 472.6 320.2C 473.9 322.8 474.6 325 474.2 325C 473.7 325 471.6 321.6 469.5 317.5C 462.7 304.3 463.4 292.1 472.2 269.7C 480.2 249.3 482.3 239.3 478.6 239.6C 477.4 239.7 477 238.9 477 236.4L 477 233L 483 233L 489 233L 489 236.3zM 536.4 239.8C 537.8 244.6 535.4 255.9 531.3 264.1C 528.3 270 526.2 272.5 517.4 280.1C 506.7 289.5 501.6 296 498.4 304.5C 496.9 308.5 496.5 312.1 496.5 322.2C 496.5 329.2 496.2 334.6 495.8 334.2C 494.7 333 493 322 493 316C 493 309.3 496 296.9 499 291C 502.1 285 508.1 278.8 517.2 272.4C 529.2 264 534.4 255.4 533.8 245C 533.5 240.2 533.2 239.5 531.1 239C 526.9 238 527.3 235.8 531.6 236.2C 535 236.5 535.6 236.9 536.4 239.8zM 466.6 240.6C 469 246.4 468.5 256.2 465 269C 462.3 279 461.9 282.1 461.9 292.7C 462 306.8 463 312.4 466.7 318.9L 469.3 323.5L 466.3 320.7C 457.6 312.6 456 299.2 460.5 272.6C 463.4 255.5 463.5 247.7 460.7 242.1C 458.6 238 458.6 238.2 460.8 237.7C 464.4 236.7 465.1 237.1 466.6 240.6zM 530 242.5C 530.8 243.5 531 245.5 530.5 248.7C 529.1 258.5 525.7 263.2 514.1 271.7C 501.4 281 497.2 286.6 492.9 299.6C 491 305.1 490.6 308.7 490.6 317.2C 490.6 323.2 490.2 327.4 489.8 326.6C 487.8 323.1 486 312.8 486 305C 486 286.5 493.3 271.9 507.9 261.1C 515.7 255.3 524.4 246.4 525.4 243.2C 526.2 240.7 528.2 240.3 530 242.5zM 476.7 247.3C 476.2 250.3 469.1 270.9 466.9 275.5C 465.5 278.4 466.4 273.4 469 264.1C 470.1 260 471 253.8 471 250.3L 471 244L 474.1 244C 477.1 244 477.2 244.2 476.7 247.3zM 560 251.3C 560 259.7 554.3 272.1 547.6 278.2C 545.9 279.8 540 284.1 534.5 287.7C 516.8 299.4 511.6 304.8 504.5 318.9C 502.6 322.5 501.1 325 501 324.4C 501 321.8 505.3 309.5 507.5 306C 511.5 299.6 522 287.1 525.3 284.8C 527.1 283.5 531 280.3 534.1 277.5C 537.2 274.8 541.3 271.3 543.3 269.8C 547.7 266.4 553 256.1 553 250.8C 553 247.1 553.1 247 556.5 247C 560 247 560 247 560 251.3zM 564 268.6C 564 270.2 559.6 277.1 556.2 281C 552.2 285.5 549.9 287.1 531.1 297.5C 525.4 300.7 518.9 304.9 516.6 306.9L 512.6 310.5L 514.8 307.3C 517.9 302.8 526.7 295.2 531.4 292.8C 541.8 287.5 552.4 278.3 557.4 270.2C 559.7 266.5 560.3 266.1 562 267C 563.1 267.6 564 268.3 564 268.6zM 485 344.2C 485 346.8 491 349.2 496.3 348.8C 500 348.5 500.7 348.1 502.3 344.7C 504.3 340.3 506.7 339.9 510.6 343.3C 516.5 348.4 509.7 351.5 493 351.4C 482.1 351.3 475 349.4 475 346.7C 475 345.2 478.7 341.5 481 340.8C 483 340.1 485 341.8 485 344.2zM 499.4 344.1C 496.7 347.1 488 346.1 488 342.7C 488 341.9 489.9 341.6 494.6 341.8C 501 342.2 501.1 342.2 499.4 344.1z"/>
<path style="stroke:none; fill:#000000" d="M 359.4 401.8C 359.1 402.7 356.2 410.5 352.9 419C 349.7 427.5 344.2 442.6 340.6 452.5C 333.5 472.6 331.4 478 327.7 486C 313.9 516.2 312.7 519.7 312.7 532.1C 312.7 537.9 313 543.2 313.4 543.9C 314 544.8 315.3 544 318 541.2L 321.8 537.3L 319.9 531.9C 317.2 523.9 317.5 521.2 322 513.9C 324.2 510.4 327.4 504.9 329 501.7C 332 496 332.1 496 334.8 497.4C 343.8 502.1 364.9 519.4 365 522.1C 365 523 363.8 526.9 362.4 530.6C 358 542 356.9 547 356.5 557.9L 356.1 568.2L 359.2 567.6C 360.9 567.3 362.9 567 363.7 567C 364.9 567 365.1 566.2 364.6 563.7C 363.7 558.7 365.8 544.3 368.7 536.5C 370.1 532.6 373.9 521.7 377.1 512.1C 380.4 502.5 383.1 494.5 383.3 494.3C 383.5 494.2 385.5 498.9 387.8 504.8C 397.1 528.8 410.4 542.2 426.4 543.7C 431.5 544.1 433.5 543.9 437.5 542.1C 440.1 540.9 442.1 539.7 441.7 539.4C 441.4 539.1 439.7 539.7 437.8 540.6C 435.6 541.8 432.4 542.4 428.5 542.4C 418.4 542.3 410 537.5 402.1 527.6C 395.5 519.2 392.6 513.9 388.1 502L 384.2 491.7L 391 471.6C 394.8 460.5 399.1 447.2 400.6 442L 403.3 432.5L 395.4 425.2C 385.8 416.2 378 410.1 369.7 405.1C 361.4 400.1 360.1 399.6 359.4 401.8zM 368.4 406.6C 380 413.6 401 431.5 401 434.5C 401 436.3 388 476 387.4 476C 387.1 476 385 474.4 382.7 472.5L 378.5 468.9L 378.9 462.1C 379.7 444.7 367.8 435.6 358.4 446.4L 355.3 449.9L 350.4 447.3C 347.7 445.9 345.4 444.7 345.3 444.5C 345.1 444.4 347.8 437.2 351.1 428.4C 354.5 419.7 357.9 410.4 358.8 407.7C 359.7 405.1 360.9 403 361.4 403C 362 403 365.2 404.6 368.4 406.6zM 370 445.1C 370 447.2 367.7 454 367 454C 366.3 454 365 448.3 365 445.2C 365 444.6 366.1 444 367.5 444C 368.9 444 370 444.5 370 445.1zM 363.3 452.3C 363.9 456.5 364 456.5 358.7 452.1C 357.1 450.7 357.1 450.5 359.2 448.3C 361.7 445.6 362.4 446.3 363.3 452.3zM 350 449.1L 353.8 451.2L 353.5 460.3L 353.2 469.3L 346.3 475.7C 340.1 481.5 328 490.7 328 489.6C 328 489.4 329.3 486.3 330.8 482.8C 332.4 479.4 336 469.9 339 461.7C 341.9 453.6 344.7 447 345.2 447C 345.8 447 347.9 448 350 449.1zM 375.1 449.2C 376.1 451.1 375.9 451.7 373.4 453.6C 371.9 454.9 370.4 455.8 370.2 455.6C 369.6 454.9 372.3 447 373.1 447C 373.6 447 374.5 448 375.1 449.2zM 363.4 457.8C 363.7 458.3 363.6 459 363.2 459.6C 362.2 460.9 355.3 466 354.4 466C 353.7 466 354.6 456.1 355.4 455.3C 355.7 455 357.2 455.7 358.8 456.9C 363.3 460 364 459.4 360 455.9C 356.5 452.8 356.5 452.8 359.7 455C 361.5 456.1 363.1 457.4 363.4 457.8zM 374 456C 370.5 458.4 368.6 459.1 371 457.1C 372.4 456 374 455 374.5 455C 375.1 455 374.8 455.5 374 456zM 378 461C 378 463.7 377.6 466 377 466C 376.5 466 374.6 464.7 372.9 463.2L 369.7 460.4L 373.1 458.2C 375 457 376.8 456 377.3 456C 377.7 456 378 458.2 378 461zM 362 463.4C 362 463.6 360.4 465 358.5 466.4C 356.6 467.9 355 468.7 355 468.3C 355 467.9 356.5 466.5 358.3 465.2C 361.6 462.9 362 462.7 362 463.4zM 361.6 470.6C 359.9 475.7 359.5 478.8 361.1 475.5C 361.9 473.6 362 473.6 361.7 475.4C 361.4 478.4 359.8 477.9 357.6 474.1L 355.6 470.7L 358.9 467.8C 360.7 466.2 362.4 465.1 362.7 465.4C 363 465.7 362.5 468 361.6 470.6zM 373.5 471.1C 374.8 473.5 374.7 474.1 372.7 476.6L 370.5 479.5L 369.8 475C 369.5 472.5 369.1 469.1 369.1 467.5C 369.1 464.6 369.1 464.6 370.6 466.5C 371.5 467.6 372.8 469.7 373.5 471.1zM 366.9 477.3C 367 480.7 366.8 481.1 364.8 480.8C 362.8 480.5 362.5 479.9 362.4 476C 362.3 473.5 362.7 470.8 363.2 470C 363.7 469 363.9 469.5 363.5 471.5C 363.1 474.2 363.2 474.2 364.2 471L 365.5 467.5L 366.1 470.5C 366.5 472.1 366.8 475.2 366.9 477.3zM 356.8 475.8L 359 480.5L 354.9 492.5C 352.7 499.1 350.7 504.6 350.6 504.8C 350.4 505 346.2 502.5 341.3 499.3C 336.3 496.1 331.5 493 330.5 492.5C 329 491.6 329.4 491 334.1 487.8C 337.1 485.8 342.7 481.3 346.5 477.7C 350.4 474 353.7 471.1 354 471.1C 354.3 471.1 355.5 473.2 356.8 475.8zM 382.8 474.8L 387 478.7L 385.3 483.5L 383.7 488.4L 380.3 481.1C 375.3 470 375.9 468.4 382.8 474.8zM 377 476.2C 377 476.4 378.3 479.7 379.9 483.7L 382.8 490.8L 378.9 501.7C 376.7 507.6 374.4 514.3 373.8 516.5L 372.7 520.5L 372 517.3C 371.6 515.6 371 507 370.6 498.3L 369.9 482.4L 372.7 479.2C 375.1 476.6 377 475.2 377 476.2zM 362.5 482C 362.8 482.5 364.2 483 365.6 483C 366.9 483 368 483.1 368.1 483.2C 368.5 484.4 370.7 522.6 370.4 522.9C 370.2 523.1 367 520.3 363.3 516.7C 359.5 513.1 355.4 509.3 354.2 508.3L 351.8 506.4L 356 493.7C 359.9 481.7 361 479.6 362.5 482zM 329.1 494C 330.9 495 330.9 495.2 328.4 500.2C 325.5 505.8 318.9 516.2 318.4 515.7C 317.3 514.6 325.2 493 326.7 493C 326.9 493 328 493.5 329.1 494zM 316.8 522.9C 316.9 526.1 317.6 530.5 318.4 532.7C 319.7 536.3 319.6 536.7 317.4 539.5L 315.1 542.4L 314.4 539.6C 313.2 534.6 314.6 517 316.3 517C 316.4 517 316.6 519.6 316.8 522.9zM 369.3 525.2C 370.1 526.3 369.4 529.5 367.2 536.3C 365 542.9 363.8 548.8 363.3 555.2C 362.7 564.2 362 566 359.1 566C 358 566 357.9 564 358.2 555.7C 358.6 547.2 359.3 543.7 362.5 534.2C 366.3 523.3 367.3 521.9 369.3 525.2z"/>
<path style="stroke:none; fill:#000000" d="M 374.6 419.9C 369.5 425.5 371.5 437 377.6 437C 380.9 437 383.5 432.6 383.5 427.2C 383.5 423.6 383 422.4 380.7 420.4C 377.3 417.5 376.8 417.5 374.6 419.9zM 380.7 423.1C 381.8 425.2 381.7 425.6 379.7 426.2C 375.6 427.3 375 427.1 375 424.1C 375 419.5 378.6 418.9 380.7 423.1z"/>
<path style="stroke:none; fill:#000000" d="M 69.6 411.3C 67.5 416.9 61.4 433.4 56 448C 44.9 478.2 45.2 477.3 41.2 486C 27.9 514.6 26.6 518.7 26.6 531.2C 26.6 537.1 26.9 542.3 27.3 542.7C 27.7 543 29.8 541.7 31.9 539.6L 35.7 535.8L 33.9 530.9C 31.1 523.5 31.4 520.3 36 512.9C 38.2 509.4 41.2 504.1 42.7 501.2C 44.2 498.4 46 496 46.6 496C 48.8 496 65.9 508.1 72.6 514.4L 79.1 520.5L 74.9 532.5C 71.1 543.2 70.6 545.7 70.2 555.9L 69.7 567.2L 72.1 566.4C 73.4 566 75.3 565.6 76.3 565.5C 77.8 565.4 78.1 564.1 78.4 555.4C 78.6 547.6 79.3 543.7 81.7 537C 83.3 532.3 87.3 520.7 90.5 511.2C 93.8 501.8 96.7 494 97.1 494C 97.4 494 98.2 495.8 98.9 498.1C 101.1 505.3 106.9 517.1 111.4 523.4C 120.5 536.2 130.5 542.4 142 542.4C 148.7 542.4 155.7 539.9 154.4 537.9C 154 537.3 153 537.6 151.8 538.7C 148.6 541.5 134.9 541.2 129.2 538.2C 118.5 532.6 108.8 519.7 102 502.3L 97.7 491.5L 103.6 474C 112 448.8 116 435.8 115.9 433.5C 115.8 429.1 79.8 401 74.3 401C 73.9 401 71.8 405.6 69.6 411.3zM 93.2 414.8C 97.4 417.9 104 423.5 107.9 427.1L 114.9 433.8L 113.1 439.6C 105.8 462.3 101.7 474.6 101.1 475.2C 100.8 475.6 98.7 474.4 96.5 472.6L 92.6 469.3L 92.5 461.4C 92.3 444.3 82.3 436.5 72.8 446L 68.8 449.9L 63.9 447.4C 58 444.5 57.8 447 66.5 424C 69.9 414.9 73.1 406.5 73.5 405.2L 74.1 403L 79.8 406C 83 407.7 89 411.6 93.2 414.8zM 84 444.3C 84 444.5 83.3 446.8 82.3 449.5C 81 453.5 80.5 454.1 79.9 452.5C 79.5 451.4 79.1 449 79.1 447.2C 79 444.4 79.3 444 81.5 444C 82.9 444 84 444.1 84 444.3zM 76 447.4C 76 448.1 76.3 450.2 76.6 451.9C 77.3 455.5 76.5 455.7 73.1 453C 70.9 451.1 70.8 450.9 72.4 448.5C 74.2 445.8 76 445.2 76 447.4zM 63.9 449.4L 67.7 451.8L 67.3 460.2L 66.9 468.5L 59.7 475.4C 53 481.7 43 489.4 42.3 488.6C 42.1 488.5 43 485.9 44.4 482.9C 46.2 478.7 55 455.6 57.5 448.2C 58.1 446.4 59.6 446.7 63.9 449.4zM 89 450C 89.8 451.5 89.4 452.2 86.8 453.9C 85 455 83.4 455.7 83.2 455.6C 83.1 455.4 83.7 453.4 84.6 451.1C 86.2 446.9 87.2 446.7 89 450zM 74.5 455.8C 77.9 458.8 77 458.5 72.6 455.2C 71 454 70.1 453 70.6 453C 71.1 453 72.9 454.3 74.5 455.8zM 73 457.2C 74.7 458.4 76 459.7 76 460.1C 76 460.4 74.2 461.9 72 463.4L 68 466L 68 462.1C 68 458.3 68.8 455 69.6 455C 69.9 455 71.4 456 73 457.2zM 87.4 456.1C 87 456.9 87.4 457 88.9 456.5C 90.9 455.9 91 456.2 91 460.9C 91 463.7 90.7 466 90.4 466C 89.2 466 83.6 460.7 83.4 459.4C 83.3 458.6 84.1 457.3 85.3 456.5C 87.9 454.7 88.4 454.6 87.4 456.1zM 75 463.4C 75 463.7 73.5 464.8 71.8 466L 68.5 468.2L 71.5 465.6C 74.6 462.9 75 462.7 75 463.4zM 86.5 465C 87.5 466.1 88.1 467 87.8 467C 87.5 467 86.5 466.1 85.5 465C 84.5 463.9 83.9 463 84.2 463C 84.5 463 85.5 463.9 86.5 465zM 76 467.4C 75.5 468.9 75.3 471.3 75.6 472.8C 76.1 475 75.9 475.2 75 474C 74 472.7 73.9 472.9 74.3 474.7C 75 477.7 72.3 476.6 70.5 473C 69.1 470.3 69.2 470.1 72.8 467.2C 74.8 465.5 76.6 464.3 76.8 464.4C 76.9 464.6 76.6 465.9 76 467.4zM 85.8 468.5C 88.5 472.7 88.6 474.2 86.1 476.4C 84.3 478.1 84.2 478 83.7 475.3C 81.5 463.8 81.9 462.6 85.8 468.5zM 77.5 469.7L 77 472.5L 78.1 470C 79.2 467.7 79.4 468 80.2 473.9C 80.7 477.4 80.8 480.5 80.5 480.8C 80.2 481.1 78.9 480.8 77.5 480.2C 75.3 479.2 75.1 478.7 76.1 476.4C 76.6 474.9 76.8 473 76.5 472.2C 76 470.7 76.7 467 77.6 467C 77.8 467 77.8 468.2 77.5 469.7zM 70.3 475.2L 72.7 479.3L 68.6 491.7C 66.4 498.4 64.2 504 63.9 504C 63.5 504 60 501.8 56.1 499.1C 52.2 496.4 47.6 493.7 46 493C 44.3 492.3 43 491.5 43 491.1C 43 490.8 45 489.2 47.5 487.6C 50 486.1 55.3 481.7 59.3 477.9C 63.2 474.2 66.8 471.1 67.1 471C 67.5 471 68.9 472.9 70.3 475.2zM 95.4 473.6C 97.1 475.1 98.9 476.9 99.3 477.6C 100.2 479.1 98.2 487 96.9 487C 96.5 487 95.6 485.3 95 483.2C 94.3 481.2 92.9 478 91.9 476.2C 90.2 473.2 90.1 471 91.7 471C 92 471 93.6 472.2 95.4 473.6zM 91.4 504.2C 88.7 512.3 86.3 518.9 85.9 519C 85.6 519 84.9 510.7 84.3 500.6L 83.1 482.2L 86.3 478.7L 89.5 475.2L 92.9 482.3L 96.3 489.5L 91.4 504.2zM 80 482.4C 81.9 482.8 82.5 487.3 83.4 506.9L 84 522.3L 78.2 516.9C 75.1 513.9 71 510.3 69.3 508.8C 67.5 507.3 66 505.6 66 504.8C 66 504.1 67.7 498.5 69.8 492.2C 73.4 481.3 73.6 480.9 76 481.6C 77.4 481.9 79.2 482.3 80 482.4zM 43.6 494.5C 44.2 496.1 39.9 504.4 34.9 511.2C 30.4 517.5 31.5 512.4 38.1 496.2C 39.5 492.8 42.6 491.8 43.6 494.5zM 32.6 533.5C 33 535.8 32.7 537 31.1 538.4C 29.9 539.5 28.8 540.1 28.5 539.8C 27.6 539 27.8 522.7 28.6 519.4C 29.3 516.8 29.5 517.3 30.7 523.5C 31.4 527.3 32.2 531.9 32.6 533.5zM 82.2 530.7C 78.9 538.4 77.7 543.9 77.1 554C 76.5 562.7 76.3 563.5 74.3 563.8C 69 564.6 70.4 548.3 77.2 530.2C 80.3 521.9 80.3 521.9 82.3 523.9C 84.3 525.9 84.3 525.9 82.2 530.7z"/>
<path style="stroke:none; fill:#000000" d="M 87.5 421C 86.6 422 85.5 424.9 85.3 427.3C 84.8 431.1 85.2 432.1 87.6 434.9C 91 438.6 93.3 438.4 95.5 433.9C 97.6 429.9 97.4 424.7 94.9 421.6C 92.5 418.5 90 418.3 87.5 421zM 94 422.9C 95.4 425.6 95.3 425.7 92.4 426.4C 89.1 427.3 87.6 425.9 88.5 423.1C 89.3 420.5 92.6 420.4 94 422.9zM 91.7 429.1C 93.6 428.2 94 428.3 94.5 430.1C 95 431.6 94.6 432.9 93 434.4L 90.9 436.5L 88.4 433.7C 87.1 432.2 86 429.7 86 428.3L 86 425.8L 87.8 428C 89.3 429.9 90 430.1 91.7 429.1z"/>
<path style="stroke:none; fill:#000000" d="M 84.5 458C 84.2 458.5 84.3 459 84.9 459C 85.4 459 86.2 458.5 86.5 458C 86.8 457.4 86.7 457 86.1 457C 85.6 457 84.8 457.4 84.5 458z"/>
<path style="stroke:none; fill:#000000" d="M 211.6 411.3C 209.5 416.9 203.4 433.4 198 448C 186.9 478.2 187.2 477.3 183.2 486C 169.9 514.6 168.6 518.7 168.6 531.2C 168.6 537.1 168.9 542.3 169.3 542.7C 169.7 543 171.8 541.7 173.9 539.6L 177.7 535.8L 175.9 530.9C 173.1 523.5 173.4 520.3 178 512.9C 180.2 509.4 183.2 504.1 184.7 501.2C 186.2 498.4 188 496 188.6 496C 190.8 496 207.9 508.1 214.6 514.4L 221.1 520.5L 216.9 532.5C 213.1 543.2 212.6 545.7 212.2 555.9L 211.7 567.2L 214.1 566.4C 215.4 566 217.3 565.6 218.3 565.5C 219.8 565.4 220.1 564.1 220.4 555.4C 220.6 547.6 221.3 543.7 223.7 537C 225.3 532.3 229.3 520.7 232.5 511.2C 235.8 501.8 238.7 494 239.1 494C 239.4 494 240.2 495.8 240.9 498.1C 243.1 505.3 248.9 517.1 253.4 523.4C 262.5 536.2 272.5 542.4 284 542.4C 290.7 542.4 297.7 539.9 296.4 537.9C 296 537.3 295 537.6 293.8 538.7C 290.6 541.5 276.9 541.2 271.2 538.2C 260.5 532.6 250.8 519.7 244 502.3L 239.7 491.5L 245.6 474C 254 448.8 258 435.8 257.9 433.5C 257.8 429.1 221.8 401 216.3 401C 215.9 401 213.8 405.6 211.6 411.3zM 235.2 414.8C 239.4 417.9 246 423.5 249.9 427.1L 256.9 433.8L 255.1 439.6C 247.8 462.3 243.7 474.6 243.1 475.2C 242.8 475.6 240.7 474.4 238.5 472.6L 234.6 469.3L 234.5 461.4C 234.3 444.3 224.3 436.5 214.8 446L 210.8 449.9L 205.9 447.4C 200 444.5 199.8 447 208.5 424C 211.9 414.9 215.1 406.5 215.5 405.2L 216.1 403L 221.8 406C 225 407.7 231 411.6 235.2 414.8zM 226 444.3C 226 444.5 225.3 446.8 224.3 449.5C 223 453.5 222.5 454.1 221.9 452.5C 221.5 451.4 221.1 449 221.1 447.2C 221 444.4 221.3 444 223.5 444C 224.9 444 226 444.1 226 444.3zM 218 447.4C 218 448.1 218.3 450.2 218.6 451.9C 219.3 455.5 218.5 455.7 215.1 453C 212.9 451.1 212.8 450.9 214.4 448.5C 216.2 445.8 218 445.2 218 447.4zM 205.9 449.4L 209.7 451.8L 209.3 460.2L 208.9 468.5L 201.7 475.4C 195 481.7 185 489.4 184.3 488.6C 184.1 488.5 185 485.9 186.4 482.9C 188.2 478.7 197 455.6 199.5 448.2C 200.1 446.4 201.6 446.7 205.9 449.4zM 231 450C 231.8 451.5 231.4 452.2 228.8 453.9C 227 455 225.4 455.7 225.2 455.6C 225.1 455.4 225.7 453.4 226.6 451.1C 228.2 446.9 229.2 446.7 231 450zM 216.5 455.8C 219.9 458.8 219 458.5 214.6 455.2C 213 454 212.1 453 212.6 453C 213.1 453 214.9 454.3 216.5 455.8zM 215 457.2C 216.7 458.4 218 459.7 218 460.1C 218 460.4 216.2 461.9 214 463.4L 210 466L 210 462.1C 210 458.3 210.8 455 211.6 455C 211.9 455 213.4 456 215 457.2zM 229.4 456.1C 229 456.9 229.4 457 230.9 456.5C 232.9 455.9 233 456.2 233 460.9C 233 463.7 232.7 466 232.4 466C 231.2 466 225.6 460.7 225.4 459.4C 225.3 458.6 226.1 457.3 227.3 456.5C 229.9 454.7 230.4 454.6 229.4 456.1zM 217 463.4C 217 463.7 215.5 464.8 213.8 466L 210.5 468.2L 213.5 465.6C 216.6 462.9 217 462.7 217 463.4zM 228.5 465C 229.5 466.1 230.1 467 229.8 467C 229.5 467 228.5 466.1 227.5 465C 226.5 463.9 225.9 463 226.2 463C 226.5 463 227.5 463.9 228.5 465zM 218 467.4C 217.5 468.9 217.3 471.3 217.6 472.8C 218.1 475 217.9 475.2 217 474C 216 472.7 215.9 472.9 216.3 474.7C 217 477.7 214.3 476.6 212.5 473C 211.1 470.3 211.2 470.1 214.8 467.2C 216.8 465.5 218.6 464.3 218.8 464.4C 218.9 464.6 218.6 465.9 218 467.4zM 227.8 468.5C 230.5 472.7 230.6 474.2 228.1 476.4C 226.3 478.1 226.2 478 225.7 475.3C 223.5 463.8 223.9 462.6 227.8 468.5zM 219.5 469.7L 219 472.5L 220.1 470C 221.2 467.7 221.4 468 222.2 473.9C 222.7 477.4 222.8 480.5 222.5 480.8C 222.2 481.1 220.9 480.8 219.5 480.2C 217.3 479.2 217.1 478.7 218.1 476.4C 218.6 474.9 218.8 473 218.5 472.2C 218 470.7 218.7 467 219.6 467C 219.8 467 219.8 468.2 219.5 469.7zM 212.3 475.2L 214.7 479.3L 210.6 491.7C 208.4 498.4 206.2 504 205.9 504C 205.5 504 202 501.8 198.1 499.1C 194.2 496.4 189.6 493.7 188 493C 186.3 492.3 185 491.5 185 491.1C 185 490.8 187 489.2 189.5 487.6C 192 486.1 197.3 481.7 201.3 477.9C 205.2 474.2 208.8 471.1 209.1 471C 209.5 471 210.9 472.9 212.3 475.2zM 237.4 473.6C 239.1 475.1 240.9 476.9 241.3 477.6C 242.2 479.1 240.2 487 238.9 487C 238.5 487 237.6 485.3 237 483.2C 236.3 481.2 234.9 478 233.9 476.2C 232.2 473.2 232.1 471 233.7 471C 234 471 235.6 472.2 237.4 473.6zM 233.4 504.2C 230.7 512.3 228.3 518.9 227.9 519C 227.6 519 226.9 510.7 226.3 500.6L 225.1 482.2L 228.3 478.7L 231.5 475.2L 234.9 482.3L 238.3 489.5L 233.4 504.2zM 222 482.4C 223.9 482.8 224.5 487.3 225.4 506.9L 226 522.3L 220.2 516.9C 217.1 513.9 213 510.3 211.3 508.8C 209.5 507.3 208 505.6 208 504.8C 208 504.1 209.7 498.5 211.8 492.2C 215.4 481.3 215.6 480.9 218 481.6C 219.4 481.9 221.2 482.3 222 482.4zM 185.6 494.5C 186.2 496.1 181.9 504.4 176.9 511.2C 172.4 517.5 173.5 512.4 180.1 496.2C 181.5 492.8 184.6 491.8 185.6 494.5zM 174.6 533.5C 175 535.8 174.7 537 173.1 538.4C 171.9 539.5 170.8 540.1 170.5 539.8C 169.6 539 169.8 522.7 170.6 519.4C 171.3 516.8 171.5 517.3 172.7 523.5C 173.4 527.3 174.2 531.9 174.6 533.5zM 224.2 530.7C 220.9 538.4 219.7 543.9 219.1 554C 218.5 562.7 218.3 563.5 216.3 563.8C 211 564.6 212.4 548.3 219.2 530.2C 222.3 521.9 222.3 521.9 224.3 523.9C 226.3 525.9 226.3 525.9 224.2 530.7z"/>
<path style="stroke:none; fill:#000000" d="M 229.5 421C 228.6 422 227.5 424.9 227.3 427.3C 226.8 431.1 227.2 432.1 229.6 434.9C 233 438.6 235.3 438.4 237.5 433.9C 239.6 429.9 239.4 424.7 236.9 421.6C 234.5 418.5 232 418.3 229.5 421zM 236 422.9C 237.4 425.6 237.3 425.7 234.4 426.4C 231.1 427.3 229.6 425.9 230.5 423.1C 231.3 420.5 234.6 420.4 236 422.9zM 233.7 429.1C 235.6 428.2 236 428.3 236.5 430.1C 237 431.6 236.6 432.9 235 434.4L 232.9 436.5L 230.4 433.7C 229.1 432.2 228 429.7 228 428.3L 228 425.8L 229.8 428C 231.3 429.9 232 430.1 233.7 429.1z"/>
<path style="stroke:none; fill:#000000" d="M 226.5 458C 226.2 458.5 226.3 459 226.9 459C 227.4 459 228.2 458.5 228.5 458C 228.8 457.4 228.7 457 228.1 457C 227.6 457 226.8 457.4 226.5 458z"/>
<path style="stroke:none; fill:#000000" d="M 494.4 413.8C 492.6 418.1 486.1 434.3 479.8 450C 473.5 465.7 466.2 482.7 463.6 487.9C 455.8 503.2 451 515 450.1 521C 449.2 526.7 449.7 539 450.9 539C 451.2 539 453.2 537.5 455.2 535.7L 459 532.5L 457 527C 455.9 524 455.1 520.5 455 519.3C 455 518.1 457.4 513.6 460.3 509.3C 463.3 505 466.4 500 467.4 498.2C 468.3 496.5 469.7 495 470.4 495C 472.1 495 494.3 509.9 499.3 514.4L 503.1 517.8L 499.7 526.6C 494.7 539.4 494 542.5 494 552.4C 494 561.1 494 561.2 496.3 560.6C 497.5 560.3 499.4 560 500.5 560C 502.3 560 502.5 559.3 502.6 550.7C 502.7 540.9 502.5 541.6 512.5 515C 515.1 508.1 517.9 500.4 518.8 497.7C 520.2 493.4 522 491.4 522 494.1C 522 496.3 529.2 511.4 532.7 516.8C 541.9 530.5 553.8 538.3 566 538.4C 572.3 538.5 579 536.7 579 534.9C 579 533.7 578.8 533.7 575.1 535.6C 570.1 538.1 559 537.1 552.1 533.5C 541.6 528.2 531.9 515.6 525 498.5L 521.8 490.5L 527 476.5C 529.9 468.8 534.2 456.6 536.6 449.5L 541 436.5L 535.7 431.7C 525.3 422.2 509.2 411 501 407.6L 497.5 406.2L 494.4 413.8zM 509.3 414.2C 517.9 419.3 526.7 425.9 534.9 433.3L 539.1 437.1L 537.4 442.3C 535.1 449.6 525.8 475.4 525.4 475.9C 525.2 476.2 523.1 475 520.8 473.3L 516.5 470.2L 516.5 462.9C 516.4 453.8 513.7 447.8 508.6 445.3C 504.2 443.2 500.6 444.2 496.3 448.5L 492.8 452L 487.9 449.9C 485.2 448.7 483 447.4 483 446.9C 483 446 487.3 434.9 492.4 422.7C 494.4 417.9 496.5 412.8 497 411.5C 497.5 410.1 498.6 409 499.3 409C 500 409 504.5 411.3 509.3 414.2zM 506.3 446.6C 507.7 447.1 507.7 447.7 506.3 451.6C 504.6 456.7 504.2 456.7 503 451.4C 501.8 446.3 502.6 445.2 506.3 446.6zM 500.3 452.7C 500.7 455 500.5 456.6 499.9 456.8C 499.3 457.1 499.4 457.8 500.2 458.8C 500.9 459.6 499.8 459.3 497.8 457.9C 495.8 456.6 494.3 455.3 494.5 455.1C 494.8 454.9 495.6 455.3 496.5 456C 497.4 456.7 498.3 457 498.6 456.7C 498.9 456.4 498.3 455.5 497.1 454.8C 494.6 453.3 494.5 452.6 496.6 450.6C 498.9 448.2 499.7 448.6 500.3 452.7zM 513 452C 513.8 453.5 513.4 454.2 510.5 455.9C 506.5 458.3 506.5 458.3 508.6 453C 510.2 448.9 511.2 448.7 513 452zM 497.4 459.3L 500.2 461.6L 496.1 464.3L 492 467L 492 462C 492 456.3 493 455.8 497.4 459.3zM 512 457.4C 512 457.6 511.3 458.1 510.4 458.4C 509.6 458.7 509.2 458.6 509.5 458C 510.1 457 512 456.6 512 457.4zM 515 462.5C 515 465 514.7 467 514.4 467C 514.1 467 512.3 465.8 510.4 464.3L 506.8 461.6L 510.2 459.9C 514.8 457.4 515 457.5 515 462.5zM 499 464.4C 499 464.7 497.5 465.8 495.8 467L 492.5 469.2L 495.5 466.6C 498.6 463.9 499 463.7 499 464.4zM 499.4 470.6C 497.2 477.2 496.4 477.8 494.6 474.2C 493 471.2 493.1 471.1 496.8 468.2C 498.8 466.5 500.6 465.3 500.7 465.4C 500.9 465.6 500.3 467.9 499.4 470.6zM 511.1 466.7C 512.4 468.3 512.3 468.4 510.8 467.1C 509.1 465.8 508.6 465 509.4 465C 509.6 465 510.4 465.8 511.1 466.7zM 512 473.5C 512 474 511.1 475.6 510.1 476.9L 508.2 479.3L 507.7 476.4C 507.4 474.8 506.9 471.7 506.6 469.5L 506 465.5L 509 469C 510.6 470.9 512 472.9 512 473.5zM 504 472C 504 473.5 504.3 476.2 504.7 478C 505.3 481.2 505.2 481.3 502.4 480.6C 499.6 479.8 498 478.4 498 476.5C 498 475.9 498.4 476.1 498.8 476.8C 499.4 477.7 500.1 476.8 501 474.1C 501.7 472 501.9 469.7 501.6 469.1C 501.1 468.4 501.5 468.2 502.4 468.6C 503.3 469 504 470.4 504 472zM 466.9 492.9C 468 493.6 467.8 494.7 465.6 498.6C 462.5 504.1 456.8 511.9 455.8 512C 454.7 512 456.1 507.8 459.8 499.7C 463.3 492.1 464.2 491.2 466.9 492.9zM 455.8 528.7C 456.8 530.6 456.8 531.4 455.4 533.5C 452.4 538.2 451 536.1 451 526.8C 451 523.5 451.6 518.9 452.3 516.6L 453.5 512.5L 454.1 519.5C 454.4 523.3 455.2 527.5 455.8 528.7zM 505.7 528.6C 502.5 536.3 501 543 500.7 551C 500.5 556.5 500.2 557.6 498.5 558.1C 495.5 559 495 558.3 495 553.1C 495 545.7 496.9 537.3 500.7 527.7C 504.2 518.9 504.3 518.9 506.2 520.8C 508.1 522.7 508.1 522.8 505.7 528.6z"/>
<path style="stroke:none; fill:#000000" d="M 511.1 425.6C 508.6 428.7 508.4 433 510.5 436.9C 512.2 440.3 514.5 441.4 517 440C 521.6 437.5 522.6 428.8 518.7 425.2C 515.6 422.3 513.6 422.4 511.1 425.6zM 517.8 426.2C 519.7 428.1 519.2 429.7 516.4 430.4C 513.1 431.3 511.6 429.9 512.5 427.1C 513.2 424.8 515.9 424.3 517.8 426.2zM 515.3 432.6C 518.2 431.9 519.4 433.1 518.5 435.9C 517.8 438.1 515.7 439.2 513.6 438.4C 512.1 437.8 510 433.7 510 431.3C 510 429.8 510.2 429.9 511.3 431.5C 512.3 432.8 513.4 433.1 515.3 432.6z"/>
<path style="stroke:none; fill:#000000" d="M 142.9 602.3C 134.2 609.3 105.8 630.4 96.6 636.6C 92.6 639.4 88.9 641 85.7 641.4C 78.3 642.5 72.8 644.8 69.3 648.2C 66.6 650.8 66 652.2 66 655.6C 66 659.7 65.7 660.1 58.7 665.7C 54.7 668.9 47.8 674.1 43.3 677.3C 38.9 680.4 34.6 684 33.7 685.3C 30.6 690 28 701 28 709.1C 28 717.5 29.6 722.6 38.3 742.3C 41.8 750.1 41.8 750.1 43.4 747.8L 45.1 745.5L 46.9 747.9L 48.8 750.3L 50 747.9C 50.7 746.6 52.6 744 54.3 742.3L 57.3 739.1L 52.3 733.2C 41.8 721.2 38 712.6 38 701.1C 38 692.1 39.4 688 43.3 685.2C 58.5 674.5 65.3 670 65.6 670.2C 65.7 670.4 66.3 676.7 66.9 684.2C 67.5 691.8 68.6 699.4 69.3 701.2C 71 705.3 81.4 718.4 86.4 722.7C 88.4 724.5 91 726 92.2 726C 94.6 726 106 714.5 109.6 708.5C 114.4 700.2 115.8 692.8 117.5 664.9L 118.1 655.4L 114.1 651.5C 111.9 649.3 108.2 646.6 105.9 645.5L 101.7 643.3L 126 626.9C 153.2 608.6 156 606.3 156 602.6C 156 600.1 152.9 595.9 151.3 596.1C 150.8 596.1 147.1 598.9 142.9 602.3zM 153.4 600.6C 154.7 604 153.6 605.1 141.4 613.5C 129.7 621.5 128.7 622 127.4 620.3C 126.7 619.3 126.1 618.3 126.1 618C 126.1 617.7 129.9 614.8 134.6 611.6C 139.2 608.3 144.7 604.2 146.8 602.4C 150.9 598.7 152.5 598.3 153.4 600.6zM 125.4 621.6C 126.3 624 125.1 625.1 111.8 634C 103.7 639.4 98.8 642 96.9 642C 95.3 642 94 641.8 94 641.5C 94 641.3 98.2 638.2 103.3 634.6C 108.3 631 114.8 626.3 117.5 624.1C 123 619.7 124.5 619.2 125.4 621.6zM 100.2 644.9C 106.9 647.2 113.3 651.3 115.6 654.7C 117.1 657.1 117.1 657.4 115.3 659.8C 114.2 661.3 111.1 663.6 108.4 664.9C 104.2 667.1 102.1 667.4 94 667.4C 83.2 667.4 75.3 665 70 660C 66.3 656.5 66.2 653.9 69.8 649.9C 75.4 643.6 89.6 641.2 100.2 644.9zM 80.4 667C 90.7 670.5 107.7 669.2 113.1 664.4C 115.9 661.9 116.3 662.9 115.6 671.7C 115 679.3 114.6 680.8 112.3 683.2C 108.6 687.1 101.1 689.3 91.5 689.3C 84.6 689.4 82.8 689 78.3 686.6C 69.3 681.7 68.1 679.8 67.3 669.1L 66.7 659.8L 70.6 662.3C 72.7 663.8 77.2 665.9 80.4 667zM 62.2 669C 57.9 672.8 45.3 681.6 42.6 682.6C 39.2 683.9 41.3 681.3 46.7 677.5C 49.8 675.3 55.3 671.1 58.9 668.3C 66.2 662.5 68.9 663.1 62.2 669zM 79 688.5C 86.8 692.6 104.8 691.1 112.2 685.9L 114.9 683.9L 114.3 687.7C 113.6 692.3 109 697.5 104.3 699.1C 99.2 700.8 88 700.5 82.3 698.6C 79.3 697.6 75.3 695.1 72.6 692.6C 68.7 689 68 687.8 68 684.6L 68 680.8L 71.8 683.8C 73.8 685.4 77.1 687.5 79 688.5zM 40 684.8C 40 685.3 39.1 686.5 38 687.5C 34.6 690.6 32.7 699.2 33.4 707.9C 34.3 717.8 36.1 723.1 41.6 732.1L 46.2 739.4L 44.5 742.9C 43.6 744.8 42.5 745.9 42 745.4C 40.2 743.5 30.3 718.3 29.6 713.9C 28.3 705.3 32 690.2 36.4 685.7C 38.3 683.9 40 683.5 40 684.8zM 80 699.2C 83.4 700.9 86.6 701.5 93.3 701.7C 102.2 701.9 105.1 701.2 110.3 697.7C 113.3 695.7 114 696.8 111.3 699.2C 105.5 704.4 91.4 705.6 81.5 701.9C 75.4 699.6 69 694.7 69 692.3C 69 691.4 70.2 692 72.3 693.9C 74 695.6 77.5 698 80 699.2zM 36.2 698.7C 35.7 703.7 38.4 716.1 41.2 721.8C 42.4 724.4 45.8 729.3 48.8 732.8L 54.1 739.1L 51.5 742.6C 49.4 745.4 48.5 745.9 47.4 744.9C 46.2 744 46.2 743.5 47.5 741.8C 48.8 739.9 48.5 739.2 44.7 733.6C 39 725.2 35.9 716.2 35.3 706.3C 34.8 699.2 35.2 695 36.2 695C 36.4 695 36.4 696.7 36.2 698.7zM 77.5 702.5C 80.8 704.2 85.3 705.5 90.6 706.1C 97.8 707 99.4 706.9 104.5 705.1C 107.7 703.9 110.5 703.2 110.7 703.4C 110.9 703.6 109.2 706.5 107 709.8C 102.3 716.8 94.6 724 91.9 724C 89.4 724 83.2 718.3 77.2 710.6C 71.6 703.5 67.9 696 71.3 698.8C 71.9 699.3 74.8 701 77.5 702.5z"/>
<path style="stroke:none; fill:#000000" d="M 82.1 648.3C 75.2 650.7 75.4 654.9 82.6 658.5C 87.9 661.2 101.3 661.3 105.3 658.7C 106.8 657.8 108 656.1 108 655.2C 108 652.7 104 649.2 99.9 648C 95.4 646.7 86.3 646.8 82.1 648.3zM 102 650.2C 103.7 650.7 105.5 652.1 106.1 653.2C 108 656.7 105 658.4 96.3 658.8C 87.8 659.3 82.2 658 79.5 655C 77.9 653.2 77.8 652.8 79.1 651.5C 82.6 648.1 94.2 647.4 102 650.2z"/>
<path style="stroke:none; fill:#000000" d="M 426.9 602.3C 418.2 609.3 389.8 630.4 380.6 636.6C 376.6 639.4 372.9 641 369.7 641.4C 362.3 642.5 356.8 644.8 353.3 648.2C 350.6 650.8 350 652.2 350 655.6C 350 659.7 349.7 660.1 342.7 665.7C 338.7 668.9 331.8 674.1 327.3 677.3C 322.9 680.4 318.6 684 317.7 685.3C 314.6 690 312 701 312 709.1C 312 717.5 313.6 722.6 322.3 742.3C 325.8 750.1 325.8 750.1 327.4 747.8L 329.1 745.5L 330.9 747.9L 332.8 750.3L 334 747.9C 334.7 746.6 336.6 744 338.3 742.3L 341.3 739.1L 336.3 733.2C 325.8 721.2 322 712.6 322 701.1C 322 692.1 323.4 688 327.3 685.2C 342.5 674.5 349.3 670 349.6 670.2C 349.7 670.4 350.3 676.7 350.9 684.2C 351.5 691.8 352.6 699.4 353.3 701.2C 355 705.3 365.4 718.4 370.4 722.7C 372.4 724.5 375 726 376.2 726C 378.6 726 390 714.5 393.6 708.5C 398.4 700.2 399.8 692.8 401.5 664.9L 402.1 655.4L 398.1 651.5C 395.9 649.3 392.2 646.6 389.9 645.5L 385.7 643.3L 410 626.9C 437.2 608.6 440 606.3 440 602.6C 440 600.1 436.9 595.9 435.3 596.1C 434.8 596.1 431.1 598.9 426.9 602.3zM 437.4 600.6C 438.7 604 437.6 605.1 425.4 613.5C 413.7 621.5 412.7 622 411.4 620.3C 410.7 619.3 410.1 618.3 410.1 618C 410.1 617.7 413.9 614.8 418.6 611.6C 423.2 608.3 428.7 604.2 430.8 602.4C 434.9 598.7 436.5 598.3 437.4 600.6zM 409.4 621.6C 410.3 624 409.1 625.1 395.8 634C 387.7 639.4 382.8 642 380.9 642C 379.3 642 378 641.8 378 641.5C 378 641.3 382.2 638.2 387.3 634.6C 392.3 631 398.8 626.3 401.5 624.1C 407 619.7 408.5 619.2 409.4 621.6zM 384.2 644.9C 390.9 647.2 397.3 651.3 399.6 654.7C 401.1 657.1 401.1 657.4 399.3 659.8C 398.2 661.3 395.1 663.6 392.4 664.9C 388.2 667.1 386.1 667.4 378 667.4C 367.2 667.4 359.3 665 354 660C 350.3 656.5 350.2 653.9 353.8 649.9C 359.4 643.6 373.6 641.2 384.2 644.9zM 364.4 667C 374.7 670.5 391.7 669.2 397.1 664.4C 399.9 661.9 400.3 662.9 399.6 671.7C 399 679.3 398.6 680.8 396.3 683.2C 392.6 687.1 385.1 689.3 375.5 689.3C 368.6 689.4 366.8 689 362.3 686.6C 353.3 681.7 352.1 679.8 351.3 669.1L 350.7 659.8L 354.6 662.3C 356.7 663.8 361.2 665.9 364.4 667zM 346.2 669C 341.9 672.8 329.3 681.6 326.6 682.6C 323.2 683.9 325.3 681.3 330.7 677.5C 333.8 675.3 339.3 671.1 342.9 668.3C 350.2 662.5 352.9 663.1 346.2 669zM 363 688.5C 370.8 692.6 388.8 691.1 396.2 685.9L 398.9 683.9L 398.3 687.7C 397.6 692.3 393 697.5 388.3 699.1C 383.2 700.8 372 700.5 366.3 698.6C 363.3 697.6 359.3 695.1 356.6 692.6C 352.7 689 352 687.8 352 684.6L 352 680.8L 355.8 683.8C 357.8 685.4 361.1 687.5 363 688.5zM 324 684.8C 324 685.3 323.1 686.5 322 687.5C 318.6 690.6 316.7 699.2 317.4 707.9C 318.3 717.8 320.1 723.1 325.6 732.1L 330.2 739.4L 328.5 742.9C 327.6 744.8 326.5 745.9 326 745.4C 324.2 743.5 314.3 718.3 313.6 713.9C 312.3 705.3 316 690.2 320.4 685.7C 322.3 683.9 324 683.5 324 684.8zM 364 699.2C 367.4 700.9 370.6 701.5 377.3 701.7C 386.2 701.9 389.1 701.2 394.3 697.7C 397.3 695.7 398 696.8 395.3 699.2C 389.5 704.4 375.4 705.6 365.5 701.9C 359.4 699.6 353 694.7 353 692.3C 353 691.4 354.2 692 356.3 693.9C 358 695.6 361.5 698 364 699.2zM 320.2 698.7C 319.7 703.7 322.4 716.1 325.2 721.8C 326.4 724.4 329.8 729.3 332.8 732.8L 338.1 739.1L 335.5 742.6C 333.4 745.4 332.5 745.9 331.4 744.9C 330.2 744 330.2 743.5 331.5 741.8C 332.8 739.9 332.5 739.2 328.7 733.6C 323 725.2 319.9 716.2 319.3 706.3C 318.8 699.2 319.2 695 320.2 695C 320.4 695 320.4 696.7 320.2 698.7zM 361.5 702.5C 364.8 704.2 369.3 705.5 374.6 706.1C 381.8 707 383.4 706.9 388.5 705.1C 391.7 703.9 394.5 703.2 394.7 703.4C 394.9 703.6 393.2 706.5 391 709.8C 386.3 716.8 378.6 724 375.9 724C 373.4 724 367.2 718.3 361.2 710.6C 355.6 703.5 351.9 696 355.3 698.8C 355.9 699.3 358.8 701 361.5 702.5z"/>
<path style="stroke:none; fill:#000000" d="M 366.1 648.3C 359.2 650.7 359.4 654.9 366.6 658.5C 371.9 661.2 385.3 661.3 389.3 658.7C 390.8 657.8 392 656.1 392 655.2C 392 652.7 388 649.2 383.9 648C 379.4 646.7 370.3 646.8 366.1 648.3zM 386 650.2C 387.7 650.7 389.5 652.1 390.1 653.2C 392 656.7 389 658.4 380.3 658.8C 371.8 659.3 366.2 658 363.5 655C 361.9 653.2 361.8 652.8 363.1 651.5C 366.6 648.1 378.2 647.4 386 650.2z"/>
<path style="stroke:none; fill:#000000" d="M 573.4 600.2C 569.7 603.5 549.1 618.3 528.3 632.6C 518.4 639.4 516.2 640.5 509.8 641.7C 496.6 644.2 489.4 649.6 490.3 656.3C 490.6 658.7 489.9 659.8 485.6 663.4C 479 668.9 463.3 680 462 680C 460.2 680 455 688.2 453.5 693.4C 451.2 700.9 450.6 711.7 452 717C 453 720.8 464.4 746.7 465.6 747.9C 465.8 748.2 466.7 747.5 467.5 746.4C 468.9 744.6 469.1 744.6 470.4 746.3C 471.8 748.2 474 748.6 474 747C 474 746.5 475.6 744.3 477.5 742.1C 479.4 740 481 737.9 481 737.5C 481 737.1 478.2 733.8 474.9 730.2C 467.5 722.3 462.9 713.2 462.1 704.6C 461.4 697.6 462.3 689.5 464.1 687.3C 465.6 685.6 488.8 670 490 670C 490.4 670 491 675.3 491.4 681.7C 492.4 698.1 493.2 700.5 500.6 709.9C 508.2 719.3 514.5 725 517.5 725C 520.4 725 534 710.9 537.2 704.5C 538.6 701.7 540.3 697 540.9 694C 541.8 689.3 543.9 664.5 544 657.3C 544 654.2 539.5 649.6 533.1 646.1L 527.8 643.2L 544.4 632.4C 585.7 605.4 582.5 607.8 582.8 604.1C 583.2 600.7 580.9 597 578.4 597C 577.7 597 575.4 598.5 573.4 600.2zM 580.8 603.1C 581.1 605.4 579.7 606.5 568.5 613.8C 561.5 618.3 555.5 622 555 622C 554 622 552.8 619.1 553.5 618C 553.8 617.5 558.2 614.2 563.3 610.6C 568.3 607 573.6 603.2 575 602C 578.2 599.4 580.4 599.8 580.8 603.1zM 551.8 622.8C 552.1 625 548.1 628.1 532.8 637.3C 525.9 641.5 520 643.3 520 641.2C 520 640.8 524.1 637.9 529 634.6C 533.9 631.4 540.6 626.8 543.7 624.4C 549.9 619.7 551.3 619.5 551.8 622.8zM 529 650.8C 533.8 653.2 534.1 655.7 529.6 657.5C 522.6 660.5 508 658.9 504.3 654.8C 502.9 653.2 502.8 652.8 504.1 651.5C 507.9 647.8 522 647.4 529 650.8zM 504.5 666.4C 515.7 670.3 531.2 669.4 538.4 664.5L 542 662.1L 542 669.1C 542 679.3 540.3 682.5 533.3 685.8C 528.2 688.2 526.3 688.5 517.5 688.5C 508.3 688.5 507.1 688.3 502.2 685.5C 493.4 680.7 492 678.3 492 668.4L 492 660L 495.8 662.3C 497.8 663.6 501.8 665.4 504.5 666.4zM 491 664.3C 491 665.9 467.6 683 465.5 683C 463.4 683 466.5 680 474.8 674.1C 480.1 670.2 485.6 666.2 487 665.1C 489.9 662.7 491 662.5 491 664.3zM 501.8 686.6C 504.7 688.4 508.3 689.5 512.7 690C 523.2 691 528.7 689.9 540.4 684.2C 541.6 683.6 540.1 690.1 538.3 692.8C 535 698.1 521.4 701.2 511.9 699C 505.7 697.5 500 694.9 498.1 692.6C 497.3 691.7 496.2 691 495.6 691C 493.3 691.1 501.7 697.1 506.8 699C 516.6 702.7 531.6 701.4 537.2 696.3C 538.2 695.4 539 695.2 539 695.8C 539 697.7 533.9 701 528.6 702.5C 521.7 704.5 510.5 703.2 502.7 699.5C 496.3 696.4 492.1 692.2 494.2 690.9C 495.2 690.2 495.2 689.8 494.2 688.8C 493.6 688.2 493 686.1 493 684.2C 493 680.8 493 680.8 495.3 682.4C 496.5 683.3 499.4 685.2 501.8 686.6zM 462.5 715C 464.9 721.6 468.3 727 473.4 732C 475.9 734.4 478 736.8 478 737.3C 478 737.7 476.8 739.7 475.4 741.6C 473.3 744.2 472.4 744.8 471.4 743.9C 470.3 743 470.3 742.4 471.5 740.6C 472.8 738.6 472.7 738 469.4 733.5C 461.4 722.6 457.5 709.2 458.9 698C 459.3 694 459.5 694.5 460.1 702C 460.5 706.7 461.6 712.5 462.5 715zM 503 701.8C 512.1 706.2 523.1 707.1 530.9 704.1C 533.9 703 536.5 702.2 536.7 702.3C 536.8 702.5 535.6 704.8 533.9 707.5C 529.5 714.5 520.3 723 517.2 723C 514.3 723 502.7 711.7 497.9 704.3C 495.1 699.7 494.2 697.5 495.8 698.2C 496.2 698.4 499.4 700 503 701.8z"/>
<path style="stroke:none; fill:#000000" d="M 290.5 600.9C 287.6 603.7 254.3 627.3 240.5 636.3C 235.1 639.8 231.9 641.1 226.6 642C 214.8 643.9 208 648.9 208 655.5C 208 659.6 203.4 663.9 187.2 674.8C 177.4 681.4 175.6 683 173.5 687.4C 170.1 694.5 168.7 702.1 169.2 710.4C 169.6 716.2 170.6 719.5 175 729C 177.9 735.3 180.9 742.1 181.7 743.9L 183.2 747.4L 184.9 745.1L 186.7 742.7L 188.4 745.1C 190.1 747.4 190.2 747.4 191.3 745.6C 192 744.5 194 741.9 195.9 739.8L 199.2 736L 192.5 728.8C 181.8 717.5 177.7 706 179.8 693.2C 180.4 689.5 181.3 686.4 181.7 686.2C 182.1 686.1 188.1 682.2 195 677.6C 209.2 668.2 208.7 668.1 208.9 679.5C 209.1 690.2 210.9 699.3 213.6 703.3C 218 709.9 232.3 724 234.7 724C 237.4 724 248.7 713.2 252.9 706.5C 257.3 699.6 258.7 693.7 260 677.5C 260.6 669.8 261.2 661.8 261.4 659.7C 261.8 656.4 261.3 655.3 258.3 651.9C 256.4 649.8 252.6 647 249.9 645.7L 244.9 643.4L 262.7 631.9C 286.8 616.4 296.1 610.3 298.4 608.7C 299.7 607.8 300.3 606.3 300.2 604.1C 300 597.6 295.5 596 290.5 600.9zM 269 621.4C 269 621.6 269.2 622.5 269.6 623.3C 269.9 624.3 266.8 626.9 259.3 631.7C 245.6 640.7 242.5 642.2 239.2 641.8C 236.9 641.5 237.8 640.7 246.5 634.8C 252 631.2 258.7 626.6 261.5 624.6C 265.9 621.4 269 620.1 269 621.4zM 247.7 646.5C 254.1 649.4 260 654.5 260 657C 260 659 256.6 662.2 252.1 664.5C 247.5 666.8 234.6 667.6 227.2 666C 219.7 664.5 213.2 661.2 210.6 657.7C 208.7 655.1 208.7 654.7 210 652.3C 215.2 643.3 234.2 640.3 247.7 646.5zM 216.7 663.9C 228.5 669.8 244.5 670.3 254.5 665L 259.8 662.2L 259.3 670.4C 259 674.8 258.2 679.5 257.4 680.6C 256.7 681.8 253.9 683.8 251.3 685.1C 247.1 687.2 245 687.5 235.5 687.5C 223.3 687.5 220.1 686.5 213.7 680.7C 210.2 677.6 210.1 677.3 209.7 668.2C 209.3 659.7 209.4 659 210.9 660.3C 211.8 661.1 214.4 662.7 216.7 663.9zM 208 663.9C 208 665.1 205.5 667.6 201.3 670.7C 194.5 675.6 184.4 682 183.5 682C 181.5 682 184.2 679.5 191.8 674.2C 196.6 670.9 202.1 666.8 204 665.1C 208.2 661.5 208 661.5 208 663.9zM 180.3 685.2C 176.1 689.8 175 693.5 175 702.8C 175 714 176.7 719.8 183 729.4L 188 737.1L 186.3 740.1C 185.3 741.7 184.3 743 184 743C 183.7 743 180.8 737.3 177.5 730.2C 172.2 718.7 171.6 716.8 171.2 709.3C 170.9 703.6 171.3 699.5 172.5 695.3C 174.4 688.8 178.3 683 180.7 683C 182.1 683 182 683.4 180.3 685.2zM 224.3 698.3C 233.9 702 249.2 700.5 255.4 695.2C 257.4 693.5 257.4 693.5 255.9 696C 255 697.4 251.9 699.5 248.9 700.8C 244.2 702.7 242.4 703 235.5 702.5C 226.6 701.8 218.4 698.7 213.8 694.3C 209.6 690.3 210.5 689.4 215 693C 217.2 694.8 221.4 697.1 224.3 698.3zM 181.9 717.5C 183.7 721.4 187.3 726.5 190.6 730L 196.2 735.9L 193.2 740C 190.8 743.4 190.1 743.8 189.1 742.6C 188.2 741.5 188.2 740.7 189.1 739.2C 190.2 737.5 189.8 736.3 186.1 730.6C 178.2 718.6 174.8 706.4 176.6 696.8C 177.4 692.8 177.5 693.2 178.1 701.7C 178.7 709 179.5 712.4 181.9 717.5z"/>
<path style="stroke:none; fill:#000000" d="M 223.8 648.6C 217.4 651.3 217.7 654.7 224.8 658C 228.7 659.9 230.8 660.1 238.7 659.8C 246.7 659.5 248.3 659.2 250.2 657.3L 252.4 655L 250.4 652.3C 249.3 650.9 246.8 649.1 244.9 648.4C 240.1 646.7 228.3 646.8 223.8 648.6zM 241.1 649C 246.9 650.1 250.6 652.9 249.7 655.4C 247.4 661.3 221 659 221 652.9C 221 651.8 221.1 651 221.3 651C 221.4 651 223.3 650.3 225.5 649.5C 230.3 647.8 234 647.7 241.1 649z"/>
</g>
</g>
</svg>