<?xml version="1.0" encoding="UTF-8" standalone="yes"?>
<!-- Created with sK1/UniConvertor (http://sk1project.org/) -->
<svg xmlns="http://www.w3.org/2000/svg" xmlns:xlink="http://www.w3.org/1999/xlink"
  width="601pt" height="790pt" viewBox="0 0 601 790"
  fill-rule="evenodd">
<g>
<g>
<path style="stroke:none; fill:#000000" d="M 561.9 37.1C 558.3 40.7 556.7 46.1 556.2 56.3L 555.7 66.2L 551.9 58.4C 546.6 47.7 542.9 44 537.3 44C 533.5 44 532.8 44.4 530.6 47.7C 527.5 52.3 525.3 60.7 524.4 70.6L 523.7 78.1L 501.5 99.6C 481.1 119.4 479.2 121.6 477.6 126.5C 475.5 133.4 473.7 147.6 474.5 151.8C 475.2 155.4 474.6 156.1 458.8 170.8C 454.3 174.9 452.7 177.3 451.5 181.2C 449.4 188.3 449.5 196 451.6 196C 452.5 196 458.9 190.6 465.7 184L 478.2 171.9L 480.3 176.2C 482.9 181.3 488.1 185 492.7 185C 496.2 185 496 185.1 529.4 150.2C 533.8 145.7 537.6 142 537.9 142C 538.2 142.1 539.6 144.4 541 147.3C 543.7 152.9 549.5 157.2 553.2 156.2C 560.9 154.2 565.1 131.5 562.7 105L 562 96.5001L 563.8 101.8C 565.8 107.4 568.2 110.6 571.1 111.5C 573.9 112.4 578.9 109.3 579.6 106.2C 579.9 104.7 580.6 102.1 581.1 100.5C 585.6 86.3 580.2 47.3 572.4 38.0001C 569.3 34.4001 565 34 561.9 37.1zM 570.5 40.2C 578.5 47.2 584.1 89.2999 578.7 102.3C 575.1 110.8 567.9 108.6 564.9 98.2L 563.7 93.9L 568.3 89.7C 572 86.2999 572.9 84.7 573.5 80.9C 574.4 75.1 572.6 66.2 569.7 61.9C 566.8 57.6 565.8 57.4 562.2 60.4999C 560.6 61.9 558.9 62.9999 558.6 62.9999C 557.6 62.9999 557.9 52.0999 559.1 47.4999C 560.3 42.7 564 37.9999 566.4 37.9999C 567.2 37.9999 569.1 38.9999 570.5 40.2zM 542 49.2C 546.7 52.4 552.6 63.7999 555.5 75.4C 559.6 91.4999 562.3 113.9 561.7 126C 561.1 138 558 149.4 555 151C 550 153.7 544.6 150.9 541.5 144L 539.7 139.9L 544.3 135.2C 546.8 132.6 549.4 129.2 549.9 127.7C 551.3 124.1 551.3 101.5 550 93.2C 547.5 77.9 542.1 68.9999 535.2 68.9999C 534.2 68.9999 531.7 70.4 529.6 72.2L 525.7 75.4L 526.4 68.8C 527.3 59.9 529.5 52.8 532.4 49.7C 535.5 46.4 537.7 46.2999 542 49.2zM 569.2 65.2C 569.8 66.4999 570.5 70.7999 570.7 74.7999L 571 82.2L 566.1 87.2999C 561.3 92.2999 561.1 92.3999 560.6 89.9999C 560.4 88.5999 559.3 83.5999 558.2 78.7999C 557.2 73.9999 556.6 69.7 556.9 69.2999C 558.3 67.2999 564.6 62.9999 566.2 62.9999C 567.2 62.9999 568.5 63.9999 569.2 65.2zM 540.7 75.2C 545.9 80.9 548.9 91.9 549.4 106.9C 549.8 120.3 548.9 125.3 545.4 129.5C 539.7 136.2 498.6 178.5 496.5 179.7C 491.7 182.6 485.1 180.1 482.1 174.1L 480.1 170.3L 484.1 166.2C 489.9 160.4 490.8 155.6 487.8 147.7C 486.4 144.1 484.7 144.3 480.5 148.7L 477.1 152.5L 477 145.7C 477 142 477.7 135.8 478.6 132.1L 480.1 125.2L 503.3 102.2C 516.1 89.5 528.2 77.7 530.4 76.1C 535 72.4 537.9 72.2 540.7 75.2zM 487.3 154.4C 487.4 156.9 486.7 158.7 485.2 160.2L 483 162.4L 483 160.3C 483 159.1 482.5 156.9 481.8 155.4C 480.7 153.1 480.8 152.6 482.9 150.8C 485.9 148.5 487.2 149.5 487.3 154.4zM 480.4 159.2C 480.9 160.6 481 162.8 480.7 164.1C 480.3 165.4 474.7 171.6 468.1 177.7L 456.2 189L 456.7 182.7L 457.2 176.5L 467.3 166.2C 472.9 160.6 477.9 156.1 478.5 156.3C 479 156.5 479.9 157.8 480.4 159.2zM 454 187.9C 453.4 190.2 452.5 192 451.9 192C 451 192 451.2 189.9 453.3 182.5C 454.3 178.9 454.4 178.7 454.8 181.2C 455 182.6 454.6 185.7 454 187.9z"/>
<path style="stroke:none; fill:#000000" d="M 530 79.2C 507.3 100.5 506.4 101.6 505 107.9C 503.4 115.7 504.2 131.9 506.6 138.9C 508.5 144.5 514.5 152 517.2 152C 519.3 152 545.4 125.4 545.8 122.7C 546.1 121.1 544.2 122.6 538.9 128L 531.6 135.5L 531.3 131.5C 530 114 526.4 100.2 521.9 95.4L 519.6 93L 527.9 85.2C 533.5 80 536.1 76.9 535.9 75.7C 535.6 74.3 534.4 75 530 79.2zM 516 109.3C 518.7 113.8 521 124.6 521 133.3C 521 143.9 520.2 147 517.6 147C 514.1 147 511.5 144.5 508.9 138.8C 506.8 134.1 506.5 132.1 506.5 120.2C 506.5 108.3 506.7 106.7 508.4 105.5C 510.8 103.7 513.4 105 516 109.3z"/>
<path style="stroke:none; fill:#000000" d="M 483.5 124C 482.7 125.3 483.8 127.1 485.3 126.8C 489.8 126 493.7 130.7 496.6 140.5C 498.9 148.1 499.2 169.2 497.2 172.9C 496.3 174.4 496.1 175.5 496.8 176.2C 498.8 178.2 500.4 172.5 500.8 162C 501.2 150.3 498.8 136.9 494.9 130C 491.9 124.7 485.2 121.2 483.5 124z"/>
<path style="stroke:none; fill:#000000" d="M 134 41.8C 130.5 45.3 129 50.8 128.7 60.5C 128.6 64.6 128.3 68 128 68C 127.7 68 125.8 64.7 123.7 60.7C 118.9 51.2 115.4 47.8 110.5 47.8C 108.1 47.8 106 48.6 104.4 50.1C 100.9 53.4 98 62.3 97.3 71.6L 96.7 79.9L 82.1 93.1C 57.5 115.4 52.9 120 51 124.3C 48.7 129.4 47 139.4 47 147.7L 47 153.9L 36.8 163.1C 26 172.8 24.5 175 22.9 183.3C 21.2 192.7 23.7 194.5 29.8 188.1C 31.8 186 37.4 180.8 42.3 176.6C 49.7 170.1 51.1 169.2 51.7 170.7C 53.8 176.4 59.8 181 65.3 181C 69 181 70.2 180 89.8 160.5L 110.5 140.1L 111.8 143.3C 114.2 149.1 120.3 154 124.9 154C 127.6 154 131.5 148.6 133.5 142C 135.7 134.7 136.6 115.4 135.1 106.1C 133.8 97.9 134.3 95.6 135.9 101.8C 137.2 106.5 142 112 144.8 112C 151.8 112 155.6 100.5 154.7 82.2C 153.5 57.8 146.8 39 139.2 39C 137.9 39 135.6 40.3 134 41.8zM 143.7 45.2C 148.5 50.4 153 70.3 153 86.3C 153 98.3 151.6 104.6 148.4 106.7C 143.8 109.6 139.8 106.9 137.1 99C 136 95.6 136 95.4 140.4 91.3C 146.9 85.3 147.8 77 143.1 66.4C 140.8 61.3 138 60.6 133.7 63.9999C 132.3 65.0999 130.9 65.9999 130.4 65.9999C 129.5 65.9999 130.7 52.7999 132.1 49.2999C 134.5 42.7999 139.8 41 143.7 45.2zM 115.1 53.3C 120.9 57.2 126.6 69.9 130.1 87C 136.9 120.2 134.2 150 124.4 150C 120.2 150 116.4 147.3 114.1 142.8L 112 138.5L 116 135.1C 122.9 129.4 123.5 127.4 123.4 111.5C 123.3 95.8 121.6 86.8 117.2 78.7C 115.4 75.3 113.5 73.3 111.3 72.4C 107.6 70.8 105.6 71.3 101.6 74.9L 98.8 77.5L 99.2 70.5C 99.7 63 103.1 53.6 105.9 52C 108.5 50.5 111.5 50.9 115.1 53.3zM 141.8 68.5C 142.5 69.9 143 74.1 143 77.8C 143 84.4 143 84.5 138.3 89.2L 133.5 94L 131.3 83.8C 130.1 78.1 129.1 73 129.1 72.4C 129 70.8 136.1 66.1 138.6 66.1C 139.9 66 141.1 67 141.8 68.5zM 112.1 76C 114.5 77.4 118.4 85 120.1 92C 120.8 95.1 121.4 103.4 121.4 111.2L 121.5 124.9L 95.5 151C 69.6 176.8 69.4 177 65.2 177C 60.2 177 56.5 174.9 54.4 170.8C 52.7 167.5 53 167 59.3 160.9C 61.5 158.7 62 157.3 62 153.7C 62 148.4 60.6 144.2 58.6 143.4C 57.8 143.1 55.7 144.4 53.5 146.7L 49.9 150.5L 50.3 140.5C 51 125.2 49.6 127.2 79 99.9C 107.8 73.2 107.4 73.5 112.1 76zM 59.8 151.9C 60 154 59.5 155.9 58.4 157.1C 56.7 159 56.6 158.9 55.3 155C 54.2 151.7 54.1 150.5 55.1 149.4C 57.1 147 59.5 148.2 59.8 151.9zM 53.2 156.5C 54 158.2 54 159.9 53.4 161.4C 52.6 163.5 30.1 184.4 29.4 183.7C 29.3 183.6 29.5 181 29.8 177.9C 30.5 172.3 30.6 172.2 40.4 163.1C 45.9 158.1 50.8 154 51.2 154C 51.7 154 52.6 155.1 53.2 156.5zM 27.6 180.3C 27.2 182.7 26.2 185.6 25.4 186.6C 24 188.4 24 188.2 24.5 185C 26.2 175.8 28.9 171.6 27.6 180.3z"/>
<path style="stroke:none; fill:#000000" d="M 96.2 86.8C 90.3 92.2 84 97.9 82.2 99.5C 78 103.2 76.7 108.2 76.7 120.5C 76.7 132.3 79.2 140.5 84.2 145.7C 89.4 151.1 90.2 150.9 98.3 143.3C 102.2 139.5 108.6 133.4 112.4 129.8C 116.6 125.9 119 122.8 118.6 122.1C 118.1 121.4 115.5 123.3 111.3 127.5C 107.6 131.1 104.4 134 104.1 134C 103.8 134 103.4 131 103.2 127.2C 102.7 114.1 98.9 100.9 94.2 95.7C 92.3 93.6 91.6 94.5 103.8 84C 108.6 79.9 110.4 77 108 77C 107.4 77 102.1 81.4 96.2 86.8zM 94.3 100.2C 98.4 105.8 100.2 112.6 100.7 125L 101.2 136.5L 98.2 139.3L 95.2 142.2L 95.8 137.5C 97 126.1 90.9 104.6 86 103.3C 83.3 102.6 83.5 101.6 86.6 99.1C 90.2 96.3 91.5 96.5001 94.3 100.2zM 86.4 107.1C 90.4 110.3 93.4 121.3 93.5 133.2C 93.5 144.4 92.3 147 87.9 145C 81.7 142.2 77.4 129.5 78.3 116.7C 79.2 105.1 81.1 102.9 86.4 107.1z"/>
<path style="stroke:none; fill:#000000" d="M 56 124.5C 56 125.4 56.9 126 58.4 126C 64.5 126 69 134.3 71 149.2C 72.1 157.1 71.7 161.8 69.4 171.2C 68.1 176.6 70.9 174 72.6 168.3C 76.2 156 71.2 130.5 64.2 125C 61.2 122.6 56 122.3 56 124.5z"/>
<path style="stroke:none; fill:#000000" d="M 418 41.8C 414.5 45.3 413 50.8 412.7 60.5C 412.6 64.6 412.3 68 412 68C 411.7 68 409.8 64.7 407.7 60.7C 402.9 51.2 399.4 47.8 394.5 47.8C 392.1 47.8 390 48.6 388.4 50.1C 384.9 53.4 382 62.3 381.3 71.6L 380.7 79.9L 366.1 93.1C 341.5 115.4 336.9 120 335 124.3C 332.7 129.4 331 139.4 331 147.7L 331 153.9L 320.8 163.1C 310 172.8 308.5 175 306.9 183.3C 305.2 192.7 307.7 194.5 313.8 188.1C 315.8 186 321.4 180.8 326.3 176.6C 333.7 170.1 335.1 169.2 335.7 170.7C 337.8 176.4 343.8 181 349.3 181C 353 181 354.2 180 373.8 160.5L 394.5 140.1L 395.8 143.3C 398.2 149.1 404.3 154 408.9 154C 411.6 154 415.5 148.6 417.5 142C 419.7 134.7 420.6 115.4 419.1 106.1C 417.8 97.9 418.3 95.6 419.9 101.8C 421.2 106.5 426 112 428.8 112C 435.8 112 439.6 100.5 438.7 82.2C 437.5 57.8 430.8 39 423.2 39C 421.9 39 419.6 40.3 418 41.8zM 427.7 45.2C 432.5 50.4 437 70.3 437 86.3C 437 98.3 435.6 104.6 432.4 106.7C 427.8 109.6 423.8 106.9 421.1 99C 420 95.6 420 95.4 424.4 91.3C 430.9 85.3 431.8 77 427.1 66.4C 424.8 61.3 422 60.6 417.7 63.9999C 416.3 65.0999 414.9 65.9999 414.4 65.9999C 413.5 65.9999 414.7 52.7999 416.1 49.2999C 418.5 42.7999 423.8 41 427.7 45.2zM 399.1 53.3C 404.9 57.2 410.6 69.9 414.1 87C 420.9 120.2 418.2 150 408.4 150C 404.2 150 400.4 147.3 398.1 142.8L 396 138.5L 400 135.1C 406.9 129.4 407.5 127.4 407.4 111.5C 407.3 95.8 405.6 86.8 401.2 78.7C 399.4 75.3 397.5 73.3 395.3 72.4C 391.6 70.8 389.6 71.3 385.6 74.9L 382.8 77.5L 383.2 70.5C 383.7 63 387.1 53.6 389.9 52C 392.5 50.5 395.5 50.9 399.1 53.3zM 425.8 68.5C 426.5 69.9 427 74.1 427 77.8C 427 84.4 427 84.5 422.3 89.2L 417.5 94L 415.3 83.8C 414.1 78.1 413.1 73 413.1 72.4C 413 70.8 420.1 66.1 422.6 66.1C 423.9 66 425.1 67 425.8 68.5zM 396.1 76C 398.5 77.4 402.4 85 404.1 92C 404.8 95.1 405.4 103.4 405.4 111.2L 405.5 124.9L 379.5 151C 353.6 176.8 353.4 177 349.2 177C 344.2 177 340.5 174.9 338.4 170.8C 336.7 167.5 337 167 343.3 160.9C 345.5 158.7 346 157.3 346 153.7C 346 148.4 344.6 144.2 342.6 143.4C 341.8 143.1 339.7 144.4 337.5 146.7L 333.9 150.5L 334.3 140.5C 335 125.2 333.6 127.2 363 99.9C 391.8 73.2 391.4 73.5 396.1 76zM 343.8 151.9C 344 154 343.5 155.9 342.4 157.1C 340.7 159 340.6 158.9 339.3 155C 338.2 151.7 338.1 150.5 339.1 149.4C 341.1 147 343.5 148.2 343.8 151.9zM 337.2 156.5C 338 158.2 338 159.9 337.4 161.4C 336.6 163.5 314.1 184.4 313.4 183.7C 313.3 183.6 313.5 181 313.8 177.9C 314.5 172.3 314.6 172.2 324.4 163.1C 329.9 158.1 334.8 154 335.2 154C 335.7 154 336.6 155.1 337.2 156.5zM 311.6 180.3C 311.2 182.7 310.2 185.6 309.4 186.6C 308 188.4 308 188.2 308.5 185C 310.2 175.8 312.9 171.6 311.6 180.3z"/>
<path style="stroke:none; fill:#000000" d="M 380.2 86.8C 374.3 92.2 368 97.9 366.2 99.5C 362 103.2 360.7 108.2 360.7 120.5C 360.7 132.3 363.2 140.5 368.2 145.7C 373.4 151.1 374.2 150.9 382.3 143.3C 386.2 139.5 392.6 133.4 396.4 129.8C 400.6 125.9 403 122.8 402.6 122.1C 402.1 121.4 399.5 123.3 395.3 127.5C 391.6 131.1 388.4 134 388.1 134C 387.8 134 387.4 131 387.2 127.2C 386.7 114.1 382.9 100.9 378.2 95.7C 376.3 93.6 375.6 94.5 387.8 84C 392.6 79.9 394.4 77 392 77C 391.4 77 386.1 81.4 380.2 86.8zM 378.3 100.2C 382.4 105.8 384.2 112.6 384.7 125L 385.2 136.5L 382.2 139.3L 379.2 142.2L 379.8 137.5C 381 126.1 374.9 104.6 370 103.3C 367.3 102.6 367.5 101.6 370.6 99.1C 374.2 96.3 375.5 96.5001 378.3 100.2zM 370.4 107.1C 374.4 110.3 377.4 121.3 377.5 133.2C 377.5 144.4 376.3 147 371.9 145C 365.7 142.2 361.4 129.5 362.3 116.7C 363.2 105.1 365.1 102.9 370.4 107.1z"/>
<path style="stroke:none; fill:#000000" d="M 340 124.5C 340 125.4 340.9 126 342.4 126C 348.5 126 353 134.3 355 149.2C 356.1 157.1 355.7 161.8 353.4 171.2C 352.1 176.6 354.9 174 356.6 168.3C 360.2 156 355.2 130.5 348.2 125C 345.2 122.6 340 122.3 340 124.5z"/>
<path style="stroke:none; fill:#000000" d="M 273.8 48.7C 270.6 52.4 269.7 55.7 269.2 64.7C 268.9 69.8 268.3 74 267.9 74C 267.4 74 267 73.5 267 72.9C 267 70.5 261.5 60.9 258.4 57.9C 249.8 49.5 241.6 57.9 240.3 76.5L 239.7 85L 226.6 97.1C 199.1 122.7 198.4 123.4 196.5 130.1C 195.6 133.5 194.6 140.5 194.3 145.6L 193.7 155L 188.1 160.3C 185 163.2 180.8 166.9 178.8 168.6C 174.4 172.1 172 178 172 185.1C 172 191.5 174 191.6 179.9 185.4C 182.4 182.9 187.4 178.2 191 175L 197.6 169.1L 199.5 172.6C 202.1 177.5 206 180 210.8 180C 214.7 180 215.3 179.5 233.1 161C 243.2 150.5 251.7 142 252.1 142C 252.5 142 253.3 143.5 254 145.4C 255.8 150.8 262.3 155.7 266.4 154.6C 269.8 153.8 272.8 147.3 274.6 136.9C 276.2 127.9 276.1 118.5 274.5 105.7L 273.9 101.5L 275.9 106.4C 279.4 114.9 283.2 117.1 287.9 113.2C 296.2 106.5 293.3 61.6 283.9 49.6C 281.4 46.5 276.1 46.1 273.8 48.7zM 282.4 52.2C 285 54.7 288.3 63.8 290 74C 291.5 82.2 291.5 99.4 290.1 104.7C 287.6 113.9 279.9 113.4 277.1 103.9C 275.8 99.7 275.8 99.7 279.9 95.6C 285 90.4 286 85.1 283.5 76.4C 282.6 73.2 281.3 69.9 280.8 69.2C 279.3 67.4 276.6 67.7 273.7 70C 270.4 72.6 269.7 71.4 270.6 64.2C 272.1 51.4 276.6 47 282.4 52.2zM 257.1 60.3C 266.4 68.9 273.3 95.1 273.4 122.5C 273.5 142.9 270.9 151 264.1 151C 260.9 151 256.8 147.5 255 143C 253.9 140.3 254 139.9 257.6 136.8C 263.2 131.8 264.2 128.5 264.1 114.4C 264 91.2 258.4 76.9999 249.2 76.9999C 248.2 76.9999 246.3 78.0999 245 79.4999C 241.5 83.2999 240.8 82.5999 241.6 76.2C 242.4 68.9999 245.6 60.2999 247.8 58.9999C 250.7 57.4 254.6 57.9 257.1 60.3zM 256.5 84.9C 259.7 89.7 261.8 98.4 262.6 109.5C 263.9 127.1 265.3 124.7 237.5 152.7L 213.2 177.3L 209.5 176.7C 205.3 176 203.4 174.7 200.9 170.6L 199.1 167.6L 203.5 162.8C 208.3 157.7 209.1 154.4 206.9 148.2C 205.4 143.7 203.4 143.5 200.3 147.6C 198.1 150.6 197.5 150.9 196.7 149.5C 195.6 147.4 197.6 131.7 199.5 128C 200.2 126.6 208.8 117.7 218.6 108.4C 228.3 99.1001 237 90.8001 237.9 89.9001C 238.8 88.9001 241.7 86.4001 244.3 84.2001C 250.2 79.4001 253 79.6 256.5 84.9zM 205.8 152.6C 206 154.5 205.4 156.5 204.1 158.1L 202.1 160.5L 202 158.2C 202 156.9 201.5 155 200.9 153.9C 200.1 152.4 200.2 151.5 201.1 150.4C 203 148 205.5 149.2 205.8 152.6zM 199.8 159.1C 200.1 162.6 199.6 163.3 189.5 172.6C 183.7 178.1 178.6 182.6 178.1 182.8C 177.6 183 177.6 181.3 178.1 178.9C 178.6 176.6 178.8 174.5 178.5 174.2C 177.6 173.2 196.4 154.9 198 155.2C 198.9 155.4 199.6 156.9 199.8 159.1zM 176.4 179.8C 176 182.1 175.1 184.8 174.3 185.7C 173 187.3 172.9 187.1 173.5 183.6C 174.3 179 175.9 174.5 176.6 175.2C 176.8 175.5 176.8 177.6 176.4 179.8z"/>
<path style="stroke:none; fill:#000000" d="M 245 86.2C 223.2 106.4 223.3 106.3 222.1 111.8C 219.7 123.4 221.9 138.7 227 145.9C 232 152.8 232.5 152.6 247 138.9C 258.2 128.4 261.8 124 259.4 124C 259.1 124 256 126.8 252.7 130.1L 246.5 136.2L 246.2 132.9C 245.1 117.8 242 105.8 237.8 100.5C 236.7 99.0999 236.1 97.4999 236.6 97.0999C 247 88.2999 251 84.4999 251 83.3998C 251 81.1998 249.8 81.7 245 86.2zM 230.7 111.2C 234.5 115.4 236.5 123.6 236.5 134.7C 236.5 146.5 235.6 148.4 231.2 146C 226.4 143.3 223.6 135.9 223.2 124.5C 223 118.9 223.3 113.3 223.9 111.7C 225.2 108.4 227.9 108.2 230.7 111.2z"/>
<path style="stroke:none; fill:#000000" d="M 202.5 126C 201.5 127.6 202.8 128.9 204.8 128.3C 209.6 127.1 215.2 138.8 216.5 153C 217 159 216.2 166.9 214.5 171.2C 214.1 172.3 214.2 173 214.9 173C 217.9 173 219.4 160.9 217.9 149C 216.9 140.5 213.4 131.3 209.9 127.8C 207.1 125 203.6 124.1 202.5 126z"/>
<path style="stroke:none; fill:#000000" d="M 198.2 219C 196.4 220.1 194.5 220.8 194.1 220.5C 193.6 220.3 192.7 220.7 192 221.5C 191.3 222.3 190 223 189 223C 186.8 223 186 224.9 186 230.4C 186 239.1 190.3 244.8 191.6 238.1C 192 236.4 193.1 234.3 194.1 233.4C 195.2 232.5 196 231.2 196 230.5C 196 229.9 197.6 228.6 199.5 227.7C 202.8 226.1 203.1 226.1 204.9 227.9C 209 232 212 265.9 211.1 299C 210.5 319.7 210.3 321.8 208.2 325.7C 205.6 330.7 202.6 331.9 198.1 329.6C 194.9 327.9 189.9 320.3 187.9 314C 187.3 312.1 186.1 310 185.3 309.3C 184.5 308.7 181.3 300.8 178.2 291.8C 170.6 269.6 170.7 262.9 178.4 251.5C 179.9 249.3 182 247.2 183.1 246.8C 186.8 245.4 185.2 231 181.4 231C 180.6 231 179.8 232.2 179.5 233.7C 178.9 236.3 177.1 240.6 175.1 244C 174.7 244.8 173.1 248 171.7 251C 164.5 266.4 165.4 275.4 177.6 306.4C 180 312.3 180.9 316.1 180.5 317.9C 180.1 319.8 181 322.7 183.5 327.8C 189 338.7 194.6 343.7 202.6 344.8C 206.9 345.4 207.5 345.9 209.7 350C 211 352.5 213.9 358.9 216.1 364.3C 221.6 377.9 224.8 382.8 230.2 385.6C 233.7 387.4 236.7 386.1 239.8 381.5C 243 376.9 244.4 372 247.4 353.9C 251.3 331.1 252.8 325.4 257.1 316.4C 263.7 302.8 269.6 299.4 276 305.5C 282 311.2 283.5 316.1 283.5 329.7C 283.5 340.5 283.7 342.2 285.6 344.7C 286.8 346.3 288.9 347.6 290.4 347.8C 292.6 348.1 293.3 347.6 294.6 344.3C 296.5 339.9 296.8 326.9 295.2 322.8C 294.6 321.3 292.8 319.4 291.2 318.6C 289.2 317.6 288 315.8 287.1 312.8C 284.2 303.3 277.7 294 272.8 292.4C 268.8 291.2 264.3 292.9 260.2 297.4C 252.1 306.1 248.6 316.2 244 343.6C 239.3 371.5 236.3 378.3 230.1 375C 225.1 372.4 216.9 353.7 217 345.6C 217 343.9 216.8 339.3 216.4 335.5C 216 330.6 216.3 326 217.4 320.6C 219.2 311.7 219.7 278 218 278C 216.6 278 216.3 275.9 214 253C 211.6 229 209.6 219.4 207 218C 204.2 216.5 201.9 216.8 198.2 219zM 208.5 226.2C 209.3 229 210 232.3 209.9 233.4C 209.9 234.6 209.3 233.4 208.6 230.8C 207.9 228.2 206.8 225.4 206 224.6C 204.4 222.6 201.1 222.6 198.2 224.6C 197 225.4 196 225.7 196 225.1C 196 223.3 200.4 221 203.7 221C 206.7 221 207 221.3 208.5 226.2zM 210.7 241.2C 210.5 242.5 210.3 241.7 210.3 239.5C 210.2 237.3 210.4 236.3 210.7 237.2C 210.9 238.2 210.9 240 210.7 241.2zM 214.4 272.5C 214.9 276.9 214.8 279.1 214.2 278.5C 213.3 277.6 210.8 251.2 211.1 245.9C 211.3 243.6 212.9 256.9 214.4 272.5zM 173.9 254.3C 171.8 258 171.5 259.7 171.6 268.5C 171.6 278 171.9 279.3 177.3 295C 180.5 304 182.9 311.9 182.7 312.4C 182.3 313.7 171.1 284.6 169.9 278.8C 168.2 270.9 169.2 261.4 172.4 254.7C 173.9 251.5 175.5 249.1 175.8 249.4C 176.1 249.8 175.3 251.9 173.9 254.3zM 275.8 297.7C 280.3 300.5 288 315.8 286.7 319.3C 286.4 320.1 286.1 320.1 285.7 319C 282.9 310.6 281.3 307.5 277.9 303.6C 274.4 299.7 273.3 299 270.1 299C 265.3 299 262.5 301.5 257.7 310.1C 252.6 319.3 250.4 326.6 247 346.2C 245.3 355.7 243.2 366 242.4 369C 236.6 389.4 226.8 386.5 217.1 361.5C 215.4 357.1 214 352.4 214.1 351C 214.1 349.6 215.6 352.5 217.5 357.8C 221.4 368.6 225 375 228.6 377.9C 232 380.6 233.6 380.5 236.5 377.6C 239.6 374.4 242.3 364.8 245.4 345.5C 248.3 327.1 250.9 317 254.7 309.7C 261.1 296.9 268.2 292.9 275.8 297.7zM 292.5 324C 294.8 326.6 295.4 333.3 293.8 339.5C 292.8 343.4 292 344.6 290.3 344.8C 285.1 345.6 282.5 332.6 286.3 325.2C 288.3 321.5 289.9 321.2 292.5 324z"/>
<path style="stroke:none; fill:#000000" d="M 288 329.9C 286.6 332.6 286.7 335.3 288.5 337.6C 289.8 339.2 290.1 339.3 291 338C 292.7 335.3 292 328 289.9 328C 289.5 328 288.6 328.9 288 329.9z"/>
<path style="stroke:none; fill:#000000" d="M 51.4 219.1C 50.4 219.5 47.3 220.8 44.5 222.1C 41.8 223.3 39.1 224.2 38.6 224.1C 37 223.7 36 226.4 36 231.5C 36 240 40.4 245.1 42.1 238.6C 42.5 237.1 43.6 235 44.4 234.1C 45.2 233.2 46.8 231.5 48 230.2C 51 226.9 55.7 227.2 57.1 230.7C 60.4 239.4 62.8 272.3 62.1 299.5C 61.6 317.8 61.2 321 59.5 324.5C 56.8 329.9 53.4 331.8 49.5 329.9C 45.7 328.1 40.7 321.4 38.4 315.3C 37.5 312.7 35.9 309.8 34.9 309C 34 308.2 30.7 300.1 27.6 291C 21.9 274.2 21 268.8 23 262.2C 24.3 257.6 30.8 248 32.6 248C 34.5 248 36.2 243.5 35.4 240.2C 34.3 235.2 32.8 232 31.4 232C 30.6 232 29.8 233.2 29.5 234.7C 29.2 236.3 28.2 238.8 27.3 240.5C 19.7 254.8 18 258.7 18.1 262C 18.2 264 18.4 264.6 18.7 263.5C 19.1 261.9 23.7 251.6 24.7 250.1C 24.9 249.9 25.2 249.9 25.5 250.1C 25.7 250.4 24.9 252.7 23.5 255.3C 20.5 261.3 19.5 269.3 20.9 275.8C 21.5 278.6 24.2 286.9 26.9 294.3C 32.1 308.4 34.1 315 32 311.7C 29.9 308.4 20 282.9 19 278.2L 18.1 273.5L 18.4 279.5C 18.7 283.9 20.4 289.4 24.9 300.5C 29.4 311.4 30.9 316.2 30.4 318.2C 29.6 321.9 35.7 333.3 41.5 339C 45.3 342.7 46.6 343.3 51.2 343.8C 56.5 344.2 60 346.2 60 348.6C 60 349.3 60.6 350.5 61.3 351.2C 61.9 351.9 63.6 355.2 64.9 358.5C 71.9 375.8 76.3 382.6 82 385C 90.7 388.6 95.5 378.7 101 345.9C 102.1 339.1 103.8 331 104.6 328C 106.7 320.8 112.3 310.1 116.2 306.1C 122.1 300.1 129.4 303 134.4 313.3C 137.2 319 137.3 320 136.5 331C 135.9 337.6 136.1 339 138.2 343C 139.9 346.4 141.2 347.6 143.2 347.8C 147.4 348.3 149.3 344.4 149.8 334.6C 150.3 325.2 149.2 321.6 145.1 319.2C 142.9 318 141.5 315.7 139.3 310.1C 136.1 301.6 130.5 294.6 125.6 293C 121.2 291.6 116.8 293.3 111.9 298.6C 103.7 307.5 99.7 319.1 95 348.3C 92.9 360.9 90.1 371 87.9 373.6C 84.6 377.6 78.5 373.8 74.1 365.1C 71.5 360.1 68 348.1 68 344.5C 68.1 342.8 67.8 338.8 67.4 335.4C 67 331.3 67.3 326.8 68.6 320.9C 70.9 309.9 71 280.8 68.7 278.2C 67.7 277 66.7 270.7 65.5 258.5C 63.7 239.4 60.8 222.7 59 220.5C 57.6 218.9 53.9 218.1 51.4 219.1zM 59.2 227.7C 60.2 230.6 61.2 235.6 61.5 238.7L 61.9 244.5L 60.7 237.9C 58.2 225.1 55.5 222.2 49.1 225.4C 47.4 226.3 46 226.6 46 226.1C 46 224.4 51.3 222 54.5 222.3C 57.2 222.5 57.7 223.1 59.2 227.7zM 44.4 227.5C 45.1 229.4 44.2 231.7 42.6 232.3C 41.9 232.6 41 234.3 40.6 236.1C 39.8 240.1 39 239.4 38 233.9C 37.1 229 37.6 226.9 39.5 227.6C 40.2 227.9 41.1 227.7 41.5 227.1C 42.4 225.6 43.7 225.7 44.4 227.5zM 33.6 240.4C 34 243 33.9 244.1 33.2 243.6C 32.6 243.3 31.2 244.4 29.9 246.1C 28.3 248.3 27.5 248.8 26.9 247.9C 26.5 247.1 26.9 245.5 28.1 243.9C 29.1 242.4 30 240.5 30 239.7C 30 237.2 31.2 234.8 32.1 235.7C 32.5 236.1 33.2 238.3 33.6 240.4zM 65.4 273C 65.7 277.6 65.6 279.9 65.1 279C 64.2 277.5 61.9 254.4 62.1 248.7C 62.2 245.2 64.4 261.3 65.4 273zM 68.4 287.6C 69.5 295.8 69 307.5 67.3 316.6C 66.3 321.5 65.5 329.5 65.5 334.5C 65.5 339.7 65 344.3 64.3 345.5C 63.1 347.4 63 347.4 60.5 344.2C 58.4 341.6 57.1 341 54.2 341C 51.6 341 48.9 339.9 45.2 337.4C 40 334 38.3 331.9 33.9 323.4C 31.8 319.5 31.8 319.3 33.5 316.7L 35.3 313.9L 38.8 321C 42.9 329.2 45.8 332.7 49.6 333.6C 59.4 336.1 64 325.3 64 299.4C 64 291.1 64.3 284 64.7 283.7C 66.4 281.9 67.8 283.4 68.4 287.6zM 129.6 298.5C 133.3 301.3 140 313.9 140 317.9C 140 319.8 139.4 319.1 137.6 314.7C 135 308.5 134.2 307.2 129.6 302.2C 126.2 298.5 121.6 297.9 117.4 300.7C 113.7 303.1 106.3 316.3 103.6 325.5C 102.2 329.9 99.9 340.2 98.5 348.5C 95.1 366.9 93 374 89.5 378.6C 87.1 381.7 86.4 382.1 83.7 381.6C 82 381.2 79.3 379.8 77.8 378.3C 73.4 374.1 62.9 350.8 64.9 349.6C 65.4 349.3 66.5 351.4 67.5 354.3C 70.4 363.2 75.8 373.7 79.1 376.4C 87.9 383.8 92.2 376.5 97.5 345C 101.3 322 103.7 314.4 109.7 305.2C 115.9 295.9 123.1 293.5 129.6 298.5zM 146.4 324.2C 149.7 328.8 147.5 345 143.6 345C 140.4 345 138 340 138 333.5C 138 324.1 142.7 318.9 146.4 324.2z"/>
<path style="stroke:none; fill:#000000" d="M 141.5 329.1C 140.4 330.8 140.5 336.9 141.7 338.1C 143.3 339.7 144.7 338.5 145.5 335C 146.5 330.6 143.4 326 141.5 329.1z"/>
<path style="stroke:none; fill:#000000" d="M 477.7 220C 475.6 221.1 473.5 221.8 473.1 221.6C 472.6 221.3 471.5 221.9 470.5 223C 469.5 224.1 468.3 224.7 467.8 224.3C 466.1 223.3 465 226.2 465 231.5C 465 239.5 469.3 245.5 470.6 239.2C 471.5 235 478.1 228 481.3 228C 482.9 228 484.4 228.8 484.9 229.9C 486.4 232.5 488.7 248.4 489.6 261.5C 490.6 276 490.1 316.5 488.9 321.3C 488.3 323.4 486.7 326.5 485.1 328.2C 482.5 331.1 482.2 331.2 478.7 330.1C 476.7 329.4 474.2 327.7 473.1 326.2C 470.4 322.3 466 313.3 466 311.7C 466 310.9 465.1 309.6 464.1 308.9C 462.9 308 460.3 301.7 457.2 292C 450.9 272.8 450.8 271.9 452 264.6C 453 258.1 458.8 248.6 462.1 247.7C 465.8 246.7 464.2 232 460.4 232C 459.6 232 458.8 233.2 458.5 234.7C 457.9 237.4 456 241.8 454.1 245C 453.6 245.8 451.8 249.5 450.1 253.1C 443.9 265.8 444.8 275.9 454.1 300C 458.4 311.1 459.9 316.2 459.5 318.2C 458.6 322.1 464.9 333.7 471.1 339.5C 475.3 343.4 476.5 344 480.4 344C 484 344 485.2 344.5 486.9 346.6C 488.1 348.1 489 349.9 489 350.6C 489 351.4 489.4 352 489.9 352C 490.4 352 491.1 353.1 491.4 354.6C 492.8 360 501.1 377.7 503.6 380.3C 509.8 387 514.1 387.4 518.4 381.7C 521.5 377.6 523.3 371.2 526.5 353C 531.4 325.5 534.7 315.7 542.1 306.7C 546.3 301.6 550.9 301.5 555.5 306.4C 561.4 312.7 562.4 316.1 562.5 329.7C 562.5 340.4 562.7 342.2 564.6 344.7C 567.2 348.1 570.7 348.8 572.5 346.3C 574.8 343.2 576.1 332.9 575 327C 574.5 324.1 574 321.6 574 321.3C 574 321.1 572.6 320.1 570.9 319.1C 568.6 317.7 567 315.2 564.5 309C 560.9 300.1 557.3 295.5 552.2 293.3C 540 288.1 527.4 309.5 523 343C 521.4 355.1 518.3 368 516 371.8C 513.3 376.1 510.1 376 506.1 371.5C 504.4 369.6 502.4 366.7 501.6 365.2C 499.5 361.1 495.9 348.5 496 345.3C 496.1 343.8 495.8 339.3 495.4 335.5C 495 330.7 495.3 326.1 496.4 320.8C 498.5 310.7 498.7 280.4 496.6 278.1C 495.8 277.1 494.7 270.1 493.6 259C 490.8 230.4 488.5 219 485.4 219C 484.7 219 483.6 218.8 482.8 218.5C 482.1 218.2 479.8 218.9 477.7 220zM 486.7 225C 487.4 226.4 488.2 229.6 488.5 232L 489 236.5L 487.7 231.8C 485.4 223.9 483.5 222.7 478 225.5C 474.5 227.3 474 225.8 477.3 223.5C 480.5 221.2 485.2 221.9 486.7 225zM 473 228.4C 473 229.7 472.3 231.3 471.5 232C 470.7 232.7 469.6 234.7 469.1 236.4L 468.3 239.5L 467.1 235.2C 465.6 229.9 465.9 227.8 468.3 227.4C 469.4 227.3 470.4 226.9 470.8 226.6C 472 225.3 473 226.1 473 228.4zM 462.6 240.4C 463.1 243.2 463 244.1 462.1 243.6C 461.4 243.2 460.3 244.1 459.2 245.9C 458.3 247.6 457.2 249 456.8 249C 455.5 249 455.9 245.6 457.4 243.5C 458.1 242.4 459.1 240 459.5 238.2C 460.3 234.2 461.6 235 462.6 240.4zM 489.7 242.2C 489.5 243.5 489.3 242.7 489.3 240.5C 489.2 238.3 489.4 237.3 489.7 238.2C 489.9 239.2 489.9 241 489.7 242.2zM 493.4 273C 493.7 277.5 493.6 279.9 493.1 279C 492.2 277.6 489.9 252 490.1 246.9C 490.3 244.2 492.4 261.5 493.4 273zM 452.9 255.3C 451.2 258.4 450.5 261.5 450.2 267.6C 449.8 275.5 450 276.3 456 293.9C 459.4 303.9 462 312.3 461.7 312.6C 461 313.3 451.4 288.6 449.4 280.9C 447.1 271.8 447.9 262.2 451.6 254.8C 453.2 251.7 454.7 249.6 454.9 250.2C 455.1 250.7 454.2 253.1 452.9 255.3zM 496.4 289.1C 497.4 299.4 497.1 306.2 494.9 318.6C 493.5 326.6 493 332.6 493.4 337C 493.8 341.9 493.5 344 492.4 345.5C 490.8 347.6 490.7 347.5 487.9 342.7C 487.3 341.6 485.7 341 483.2 341C 478.9 341 471.7 336.9 468.3 332.7C 467.2 331.3 465 327.7 463.5 324.8C 460.8 319.5 460.7 319.3 462.5 316.7L 464.2 314L 468.1 321.7C 470.2 326 473.1 330.5 474.5 331.7C 479 335.7 484.7 334.4 487.6 328.7C 491 322.3 492 315.7 492 299.9C 492 291.3 492.3 284 492.7 283.7C 494.6 281.7 495.8 283.5 496.4 289.1zM 555.6 298.5C 557.4 299.9 560.2 303.8 561.9 307.3C 565.3 314.2 567.1 320.8 565.2 319.6C 564.5 319.2 564 318.1 564 317.1C 564 314.4 559.3 306 555.7 302.2C 549.1 295.3 542 299.3 534.7 314.1C 530.9 321.8 529.3 328.1 524 355.4C 520.7 372.6 517.5 380.6 513.4 381.6C 509.8 382.5 505.3 379.4 502 373.7C 497.9 366.6 492.8 353.3 493.2 350.6C 493.4 349.3 494.4 351.1 495.8 355.5C 500.5 369.5 506.9 379 511.7 379C 517.1 379 520.4 370.2 524.5 344.9C 528.5 320.3 532.1 309.5 539.2 301.4C 544.5 295.4 550.2 294.4 555.6 298.5zM 571.2 323.7C 572.1 324.7 573.1 326.6 573.5 327.9C 574.5 331.3 573.1 340.6 571.2 343C 565.9 349.5 560.8 333.9 565.4 325.2C 567.3 321.6 569 321.2 571.2 323.7z"/>
<path style="stroke:none; fill:#000000" d="M 567 329.9C 565.6 332.6 565.7 335.3 567.5 337.6C 568.8 339.2 569.1 339.3 570 338C 571.7 335.3 571 328 568.9 328C 568.5 328 567.6 328.9 567 329.9z"/>
<path style="stroke:none; fill:#000000" d="M 339.8 231C 337.7 232.1 336 232.8 336 232.5C 336 232.3 334.2 232.9 332.1 234.1C 327.5 236.5 326.8 238.5 328.1 245.3C 329.4 252.6 332.2 253.9 333.5 247.9C 333.9 246.2 334.8 244.6 335.6 244.3C 336.3 244.1 337.2 243 337.5 242C 337.8 241 339.5 239.6 341.2 238.9C 344 237.8 344.5 237.8 346 239.8C 349.7 244.3 352.2 269.8 352 300.5C 352 312 351.4 323.3 350.9 325.5C 348.7 333.7 344.3 336.8 339 334C 336.5 332.7 331.8 325.7 329.6 320.1C 328.6 317.6 327.3 315.1 326.5 314.6C 325.3 313.6 320 299.5 316.3 287.5C 315.4 284.4 314.9 280 315.2 275.5C 315.5 269.1 315.9 267.7 319.4 262.7C 321.6 259.6 323.9 257 324.6 257C 326.5 257 327.3 253.4 326.5 248.5C 325.8 243.5 323.4 240.7 321.9 243.1C 321.4 243.9 321 245.4 321 246.5C 321 247.6 320.3 249.6 319.4 250.9C 316.2 255.4 310.9 267.3 310.1 271.8C 308.6 279.5 310.5 289 317 305.7C 320.8 315.6 322.8 322.1 322.4 323.5C 321.7 326.2 326.6 336.4 331.1 341.5C 335 345.9 338.9 348 343.2 348C 345 348 347 348.4 347.6 348.8C 349 349.8 352.3 356.1 355.6 364C 360.3 375.6 363.9 381.8 367.3 384.4C 373.1 388.9 377.3 387.3 381.4 379.3C 382.3 377.5 384.4 369 386.1 360.3C 391.3 333 392.1 330.1 396.1 322.1C 400.9 312.5 404.2 309 408.4 309C 412.4 309 417 313.5 420 320.2C 421.7 324.2 421.9 326 421.4 333.2C 420.6 342.9 421.9 348.2 425.4 350.6C 430 353.5 432.9 349.6 433.7 339.5C 434.4 331.4 433.1 327 429.3 324.5C 427.2 323.1 425.8 321 424.6 317.5C 422.5 310.6 417.7 303.4 413.8 301C 407.2 296.8 400.3 300.3 394.1 310.8C 389.1 319.2 386.7 327.6 383.5 347.1C 379.7 369.8 377.1 377 372.6 377C 368.4 377 363.4 369.9 360 359.2C 358.3 354.1 357.2 349.5 357.5 348.9C 357.8 348.4 357.6 345.4 357 342.2C 356 337.2 356.1 335 357.6 327.9C 359.8 317.9 360.3 287.4 358.3 286.2C 357.6 285.8 356.1 276.2 354.6 263C 352 239.6 349.9 230 347.5 230C 346.8 230 345.6 229.8 344.8 229.5C 344.1 229.2 341.8 229.9 339.8 231zM 334.2 242.3C 333 243.6 332 245.4 332 246.3C 332 247.2 331.6 248 331.1 248C 329.8 248 329 245.4 329 241.4C 329 238.7 329.4 238 330.9 238C 332 238 333.2 237.5 333.6 236.8C 334.1 236 334.7 236.3 335.3 237.8C 336.1 239.6 335.9 240.5 334.2 242.3zM 325.4 250.2C 325.9 252.3 325.7 253 324.5 253C 323.7 253 322.3 254.5 321.3 256.2C 319.6 259.3 319.5 259.4 319.2 257.2C 319 255.9 319.6 254 320.4 253.1C 321.3 252.1 322 250.6 322 249.8C 322 248.9 322.3 247.4 322.6 246.5C 323.4 244.5 324.3 245.7 325.4 250.2zM 357.8 303.6C 358 313.1 357.6 319.1 356.2 326C 354.9 332.4 354.5 337.4 355 341.2C 355.5 345.7 355.2 347.4 353.9 349.1L 352.3 351.3L 350.4 348.1C 348.9 345.5 347.9 345 345 345C 339.1 345 331.2 338.9 327.1 331.1C 324.3 325.8 323.9 324.4 324.9 322.4C 325.5 321.1 326.3 320 326.7 320.1C 327.2 320.1 329.1 323.4 331.1 327.3C 335 335.2 339.8 339.5 343.4 338.4C 344.6 338.1 346.7 336.5 348.2 334.8C 352.2 330.2 354 320.8 354 304.7C 354 297.4 354.3 291 354.7 290.6C 356.8 288.5 357.5 291.6 357.8 303.6zM 430.4 329.2C 432.3 331.9 432.5 341.7 430.8 345.5C 428.9 349.7 425.5 348.8 423.5 343.5C 421.6 338.7 422 333.2 424.6 329.2C 426.4 326.4 428.5 326.4 430.4 329.2z"/>
<path style="stroke:none; fill:#000000" d="M 425.6 334.6C 423.9 339 426 344 428.7 341.9C 431 339.9 430.1 333 427.5 333C 426.8 333 425.9 333.7 425.6 334.6z"/>
<path style="stroke:none; fill:#000000" d="M 102 413.1C 100.1 413.6 92.9 415.7 86 417.6C 72.3 421.6 69.5 423.6 67.1 430.8C 65.7 435.1 65.5 435.1 41.6 443.5C 34.5 445.9 28.5 448.1 28.3 448.4C 28 448.6 28.8 468.3 30.1 492.2L 32.3 535.5L 38 548.5C 46.7 568 51 577 51.8 577C 52.8 577 73.1 568.7 99.5 557.6C 111.6 552.4 124 547.3 127 546.2C 130 545.1 135.1 543 138.3 541.5C 143.2 539.2 144 538.5 144 536.1C 144 534.5 144.9 527.5 145.9 520.4C 147 513.3 148.2 503.9 148.5 499.5C 148.8 495.1 150.3 483.2 151.7 473C 153 462.8 154.2 453.1 154.3 451.5C 154.4 449.1 151.9 445.4 141.6 432.5C 134.5 423.7 128.3 416.7 127.6 416.9C 120.4 419.3 119.1 419.3 116 416.6C 114.2 415.2 111.8 414 110.5 414C 109.2 414 107.8 413.5 107.5 413C 106.8 411.9 106.7 411.9 102 413.1zM 106.4 416.6C 107.3 417 108 418.4 108 420C 108 422.6 107.5 423 100.8 425C 93.9 427.1 80.7 430.2 80.5 429.7C 80.4 429.6 79.8 428.2 79.2 426.6C 78.5 425 78.3 423.4 78.7 422.9C 79.6 422.1 100.6 416.2 103.2 416.1C 104.1 416 105.5 416.3 106.4 416.6zM 115.9 420.5C 118.5 423.5 119 424.9 119 429.1C 119 436.6 114.4 444.3 112.2 440.4C 111.5 439.1 111.8 437.8 113.1 435.6C 115.7 431.4 115.5 427.3 112.5 422.5C 111.2 420.3 110 418.2 110 417.7C 110 415.8 113.1 417.3 115.9 420.5zM 131.9 424.9C 135 428.8 135 428.9 132.9 429.5C 131.3 430 130.3 429.7 129.4 428.5C 128.2 426.9 127.9 426.9 125.1 428.9C 123.4 430.1 122.3 431.7 122.6 432.4C 122.9 433.2 122.6 434.1 121.9 434.5C 121 435.1 120.9 434.4 121.4 431.8C 121.7 429.8 121.6 427.1 121.1 425.7C 120.3 423.6 120.4 422.9 121.8 422.1C 125.4 419.9 128.7 420.9 131.9 424.9zM 76.6 426.4C 76.9 427.1 75.7 429.8 73.9 432.4C 68.5 440 70.2 447.6 77.4 448.4C 78.9 448.5 80.6 449.2 81.2 449.8C 82.9 451.5 78.2 453 75 451.8C 68.8 449.5 66.3 444 68 436.4C 69.9 428 75 422.1 76.6 426.4zM 112.6 427.4C 112.9 428.7 112.5 431 111.7 432.5C 110.2 435.4 102.4 438.5 85.5 442.9C 81.2 444.1 77.5 445.2 77.2 445.5C 76.9 445.7 75.9 445.5 74.9 444.9C 73 443.9 72.3 439.5 73.8 437.5C 75.2 435.5 82.7 432.2 88 431.1C 91 430.5 97.3 428.9 102 427.6C 106.7 426.3 110.8 425.2 111.2 425.1C 111.6 425 112.2 426.1 112.6 427.4zM 129.3 433.6C 130.4 435 130.9 436.4 130.5 436.8C 129.8 437.5 126 433.4 126 431.9C 126 430.3 127.5 431 129.3 433.6zM 144.7 440.6L 151 448.8L 135.3 453.8C 126.6 456.6 115.5 460 110.5 461.5C 105.6 462.9 99.1 465 96.1 466.1C 93.2 467.1 84.6 469.8 77 472C 69.5 474.2 61.4 476.8 59 477.9C 56 479.2 54.1 479.6 52.9 478.9C 51.1 478 42 465.7 42 464.2C 42 463.3 48.6 461 51.3 461C 52.2 461 53.4 461.9 54 463C 54.9 464.7 55.4 464.8 57.8 463.8C 62.7 461.7 63.2 461 61.6 458.5C 60.1 456.3 60.2 456.2 66 454.7C 69.2 453.9 72.2 453.6 72.7 454.1C 73.1 454.5 75.1 455.1 77 455.3C 79 455.5 81 455.9 81.6 456.3C 82.2 456.6 87.6 455.5 93.6 453.9C 110.5 449.2 112.3 448.5 113.4 446.6C 115.3 443.4 120.2 438.9 122.9 437.9C 124.9 437.1 125.7 437.2 126.6 438.4C 128 440.4 131 440.5 133.4 438.7C 134.9 437.6 135 437 134.1 435.2C 132.5 432.2 132.7 431.8 135.6 432.2C 137.6 432.4 140 434.6 144.7 440.6zM 67 448.9C 67.9 450.7 67.6 451.1 63.3 452.3C 59.3 453.5 58.3 453.5 57 452.4C 54.2 450 47.5 452.8 48.5 456C 48.9 457.3 48.1 458.2 45 459.4C 42.8 460.3 40.6 461 40.1 461C 39.7 461 37.6 458.5 35.6 455.5L 32 450L 34.7 448.9C 37.2 447.9 60.8 440.3 63.5 439.6C 64.1 439.4 64.8 441 65.2 443.1C 65.6 445.2 66.4 447.8 67 448.9zM 110.3 442C 111.3 445.8 110 446.4 91.2 451.6C 87.8 452.5 84.8 453.1 84.6 452.9C 84.4 452.7 84 451.2 83.8 449.6C 83.5 446.8 83.7 446.7 93.5 443.5C 105.6 439.5 109.6 439.2 110.3 442zM 152 453.3C 152 454 151.1 461.1 150 469C 148.8 477 147.3 490 146.5 498C 145.8 506 144.3 517.8 143.4 524.3L 141.6 536.2L 137.6 538.2C 135.3 539.4 127.2 542.9 119.5 546C 111.8 549.2 97 555.5 86.5 560C 76.1 564.5 65.3 569 62.5 570C 59.8 571 56.7 572.1 55.7 572.5C 54.1 573.2 54 570.7 54 528.2L 54 483.1L 58.8 481C 61.4 479.8 68.9 477.3 75.5 475.4C 82.1 473.5 90.9 470.8 95 469.4C 103.8 466.5 150.2 452.1 151.3 452.1C 151.7 452 152 452.6 152 453.3zM 37.6 465.9C 37.8 467.3 38.4 482.9 39 500.5C 39.5 518.1 40.2 536.1 40.5 540.5L 41 548.5L 38.6 543.5C 37.2 540.7 35.7 536.2 35.1 533.5C 34.1 528.4 30.9 472 31 459.5L 31 452.5L 34.2 457.9C 35.9 460.9 37.5 464.5 37.6 465.9zM 56.6 457.5C 57.5 458.9 58 460.3 57.6 460.7C 56.8 461.6 53 458 53 456.3C 53 454.2 54.8 454.8 56.6 457.5zM 46.9 476.4L 52 483.8L 52 527.2C 51.9 574.9 52.1 573.7 46.3 561C 43.4 554.7 42.4 545 41.5 514.5C 41.2 504 40.7 489.3 40.4 481.7C 40.1 473.5 40.3 468.1 40.8 468.4C 41.3 468.7 44 472.3 46.9 476.4z"/>
<path style="stroke:none; fill:#000000" d="M 102 483.4L 96.5 485.8L 96.2 492.6C 96 496.4 95.4 500 94.8 500.7C 94.3 501.4 91.4 502.7 88.5 503.6L 83.3 505.3L 82.7 514.4C 82.4 519.4 82.4 523.8 82.9 524.3C 83.3 524.7 86.2 523.9 89.4 522.5C 92.5 521.1 95.3 520 95.7 520C 96 520 96 523.6 95.7 528C 95.4 532.4 95.5 536.2 96 536.5C 96.4 536.7 98.6 536 100.9 534.9C 103.2 533.8 106.1 532.5 107.5 532C 109.9 531.1 110 530.7 110 522.5C 110 513.1 110.7 512 117.8 510.5L 121 509.8L 121 500.8C 121 490.8 121.4 491.1 113.8 494.4L 110 496L 110 488.5C 110 479.9 110.1 480 102 483.4z"/>
<path style="stroke:none; fill:#000000" d="M 386 413.1C 384.1 413.6 376.9 415.7 370 417.6C 356.3 421.6 353.5 423.6 351.1 430.8C 349.7 435.1 349.5 435.1 325.6 443.5C 318.5 445.9 312.5 448.1 312.3 448.4C 312 448.6 312.8 468.3 314.1 492.2L 316.3 535.5L 322 548.5C 330.7 568 335 577 335.8 577C 336.8 577 357.1 568.7 383.5 557.6C 395.6 552.4 408 547.3 411 546.2C 414 545.1 419.1 543 422.3 541.5C 427.2 539.2 428 538.5 428 536.1C 428 534.5 428.9 527.5 429.9 520.4C 431 513.3 432.2 503.9 432.5 499.5C 432.8 495.1 434.3 483.2 435.7 473C 437 462.8 438.2 453.1 438.3 451.5C 438.4 449.1 435.9 445.4 425.6 432.5C 418.5 423.7 412.3 416.7 411.6 416.9C 404.4 419.3 403.1 419.3 400 416.6C 398.2 415.2 395.8 414 394.5 414C 393.2 414 391.8 413.5 391.5 413C 390.8 411.9 390.7 411.9 386 413.1zM 390.4 416.6C 391.3 417 392 418.4 392 420C 392 422.6 391.5 423 384.8 425C 377.9 427.1 364.7 430.2 364.5 429.7C 364.4 429.6 363.8 428.2 363.2 426.6C 362.5 425 362.3 423.4 362.7 422.9C 363.6 422.1 384.6 416.2 387.2 416.1C 388.1 416 389.5 416.3 390.4 416.6zM 399.9 420.5C 402.5 423.5 403 424.9 403 429.1C 403 436.6 398.4 444.3 396.2 440.4C 395.5 439.1 395.8 437.8 397.1 435.6C 399.7 431.4 399.5 427.3 396.5 422.5C 395.2 420.3 394 418.2 394 417.7C 394 415.8 397.1 417.3 399.9 420.5zM 415.9 424.9C 419 428.8 419 428.9 416.9 429.5C 415.3 430 414.3 429.7 413.4 428.5C 412.2 426.9 411.9 426.9 409.1 428.9C 407.4 430.1 406.3 431.7 406.6 432.4C 406.9 433.2 406.6 434.1 405.9 434.5C 405 435.1 404.9 434.4 405.4 431.8C 405.7 429.8 405.6 427.1 405.1 425.7C 404.3 423.6 404.4 422.9 405.8 422.1C 409.4 419.9 412.7 420.9 415.9 424.9zM 360.6 426.4C 360.9 427.1 359.7 429.8 357.9 432.4C 352.5 440 354.2 447.6 361.4 448.4C 362.9 448.5 364.6 449.2 365.2 449.8C 366.9 451.5 362.2 453 359 451.8C 352.8 449.5 350.3 444 352 436.4C 353.9 428 359 422.1 360.6 426.4zM 396.6 427.4C 396.9 428.7 396.5 431 395.7 432.5C 394.2 435.4 386.4 438.5 369.5 442.9C 365.2 444.1 361.5 445.2 361.2 445.5C 360.9 445.7 359.9 445.5 358.9 444.9C 357 443.9 356.3 439.5 357.8 437.5C 359.2 435.5 366.7 432.2 372 431.1C 375 430.5 381.3 428.9 386 427.6C 390.7 426.3 394.8 425.2 395.2 425.1C 395.6 425 396.2 426.1 396.6 427.4zM 413.3 433.6C 414.4 435 414.9 436.4 414.5 436.8C 413.8 437.5 410 433.4 410 431.9C 410 430.3 411.5 431 413.3 433.6zM 428.7 440.6L 435 448.8L 419.3 453.8C 410.6 456.6 399.5 460 394.5 461.5C 389.6 462.9 383.1 465 380.1 466.1C 377.2 467.1 368.6 469.8 361 472C 353.5 474.2 345.4 476.8 343 477.9C 340 479.2 338.1 479.6 336.9 478.9C 335.1 478 326 465.7 326 464.2C 326 463.3 332.6 461 335.3 461C 336.2 461 337.4 461.9 338 463C 338.9 464.7 339.4 464.8 341.8 463.8C 346.7 461.7 347.2 461 345.6 458.5C 344.1 456.3 344.2 456.2 350 454.7C 353.2 453.9 356.2 453.6 356.7 454.1C 357.1 454.5 359.1 455.1 361 455.3C 363 455.5 365 455.9 365.6 456.3C 366.2 456.6 371.6 455.5 377.6 453.9C 394.5 449.2 396.3 448.5 397.4 446.6C 399.3 443.4 404.2 438.9 406.9 437.9C 408.9 437.1 409.7 437.2 410.6 438.4C 412 440.4 415 440.5 417.4 438.7C 418.9 437.6 419 437 418.1 435.2C 416.5 432.2 416.7 431.8 419.6 432.2C 421.6 432.4 424 434.6 428.7 440.6zM 351 448.9C 351.9 450.7 351.6 451.1 347.3 452.3C 343.3 453.5 342.3 453.5 341 452.4C 338.2 450 331.5 452.8 332.5 456C 332.9 457.3 332.1 458.2 329 459.4C 326.8 460.3 324.6 461 324.1 461C 323.7 461 321.6 458.5 319.6 455.5L 316 450L 318.7 448.9C 321.2 447.9 344.8 440.3 347.5 439.6C 348.1 439.4 348.8 441 349.2 443.1C 349.6 445.2 350.4 447.8 351 448.9zM 394.3 442C 395.3 445.8 394 446.4 375.2 451.6C 371.8 452.5 368.8 453.1 368.6 452.9C 368.4 452.7 368 451.2 367.8 449.6C 367.5 446.8 367.7 446.7 377.5 443.5C 389.6 439.5 393.6 439.2 394.3 442zM 436 453.3C 436 454 435.1 461.1 434 469C 432.8 477 431.3 490 430.5 498C 429.8 506 428.3 517.8 427.4 524.3L 425.6 536.2L 421.6 538.2C 419.3 539.4 411.2 542.9 403.5 546C 395.8 549.2 381 555.5 370.5 560C 360.1 564.5 349.3 569 346.5 570C 343.8 571 340.7 572.1 339.8 572.5C 338.1 573.2 338 570.7 338 528.2L 338 483.1L 342.8 481C 345.4 479.8 352.9 477.3 359.5 475.4C 366.1 473.5 374.9 470.8 379 469.4C 387.8 466.5 434.2 452.1 435.3 452.1C 435.7 452 436 452.6 436 453.3zM 321.6 465.9C 321.8 467.3 322.4 482.9 323 500.5C 323.5 518.1 324.2 536.1 324.5 540.5L 325 548.5L 322.6 543.5C 321.2 540.7 319.7 536.2 319.1 533.5C 318.1 528.4 314.9 472 315 459.5L 315 452.5L 318.2 457.9C 319.9 460.9 321.5 464.5 321.6 465.9zM 340.6 457.5C 341.5 458.9 342 460.3 341.6 460.7C 340.8 461.6 337 458 337 456.3C 337 454.2 338.8 454.8 340.6 457.5zM 330.9 476.4L 336 483.8L 336 527.2C 335.9 574.9 336.1 573.7 330.3 561C 327.4 554.7 326.4 545 325.5 514.5C 325.2 504 324.7 489.3 324.4 481.7C 324.1 473.5 324.3 468.1 324.8 468.4C 325.3 468.7 328 472.3 330.9 476.4z"/>
<path style="stroke:none; fill:#000000" d="M 386 483.4L 380.5 485.8L 380.2 492.6C 380 496.4 379.4 500 378.8 500.7C 378.3 501.4 375.4 502.7 372.5 503.6L 367.3 505.3L 366.7 514.4C 366.4 519.4 366.4 523.8 366.9 524.3C 367.3 524.7 370.2 523.9 373.4 522.5C 376.5 521.1 379.3 520 379.7 520C 380 520 380 523.6 379.7 528C 379.4 532.4 379.5 536.2 380 536.5C 380.4 536.7 382.6 536 384.9 534.9C 387.2 533.8 390.1 532.5 391.5 532C 393.9 531.1 394 530.7 394 522.5C 394 513.1 394.7 512 401.8 510.5L 405 509.8L 405 500.8C 405 490.8 405.4 491.1 397.8 494.4L 394 496L 394 488.5C 394 479.9 394.1 480 386 483.4z"/>
<path style="stroke:none; fill:#000000" d="M 240.5 415.5C 240 415.7 233.4 417.5 226 419.5C 218.6 421.6 211.6 424 210.6 424.9C 209.6 425.8 207.7 428.7 206.4 431.4C 203.8 437.1 204 437 182.5 444.2C 174.3 446.9 167.2 449.5 166.9 449.8C 166.5 450.2 167.3 468.9 168.5 491.5C 169.8 514 170.7 532.8 170.4 533.2C 170.1 533.6 170.4 534.7 170.9 535.7C 171.9 537.4 177.5 549.4 185.7 567.2C 188.1 572.5 189.8 575 191 575C 192.4 575 205.7 569.8 255 549.7C 259.7 547.8 266.7 545.1 270.5 543.6C 278.9 540.5 284.3 537.3 283.5 536C 283.2 535.5 283.6 530.7 284.5 525.3C 285.4 519.9 287 507.2 288.1 497C 289.2 486.8 291 472.6 292 465.3C 293.1 458 293.7 451.3 293.3 450.3C 293 449.3 291.3 446.9 289.6 444.9C 287.9 442.9 282.5 436.3 277.5 430.2C 272.6 424.1 267.8 419.1 267 419.1C 266.2 419.1 263.9 419.7 262 420.5C 258.7 421.7 258.3 421.6 255.9 419.3C 252.5 416.2 244.4 414.2 240.5 415.5zM 254.6 422.4C 257.9 425.7 258.5 427.8 258 434C 257.7 437.4 255.3 442 253.3 442.7C 250.7 443.7 250.1 440.9 252.1 437.6C 254.8 433.2 254.5 428.1 251.5 424C 247.1 418 249.2 417 254.6 422.4zM 270.9 426.7C 273.9 430.4 274 430.5 271.9 431.2C 270.4 431.8 269.4 431.5 268.5 430.4C 267.4 428.9 267.1 428.9 264.7 430.5C 263.2 431.4 262 433.1 262 434.1C 262 435.1 261.7 436.1 261.3 436.3C 260.8 436.6 260.5 433.9 260.4 430.4C 260.3 425.4 260.7 424 261.9 423.7C 266.1 422.5 268 423.1 270.9 426.7zM 215.6 428.4C 215.9 429.2 214.8 431.6 213.1 433.8C 211.3 435.9 209.7 439.3 209.3 441.3C 208.9 444.2 209.2 445.3 211.3 447.4C 213 449.1 215 450 217 450C 219.5 450 220.1 450.4 219.8 451.7C 219 455.9 210.2 453.3 207.5 448C 205.7 444.5 205.6 440.7 207.4 435.8C 210.1 428.2 214.1 424.6 215.6 428.4zM 251.8 429.4C 252 430.4 251.7 432.4 251 434C 250 436.4 248.5 437.2 240.2 439.9C 228.5 443.6 216 447 214.3 447C 213.6 447 212.6 446.1 212 445.1C 210.4 442 212.3 438.7 217.1 436.3C 221.4 434.2 248.5 427 250.5 427.4C 251.1 427.6 251.7 428.5 251.8 429.4zM 268.5 435.6C 269.4 437 269.9 438.4 269.6 438.7C 269 439.3 265.1 435 265 433.7C 265 432.1 266.9 433.1 268.5 435.6zM 283.9 442.1C 287.4 446.5 290.1 450.2 289.9 450.3C 289.4 450.7 262.1 458.9 249.5 462.6C 244.6 464 238.5 465.9 236.1 466.7C 233.7 467.6 224.5 470.4 215.6 473C 206.8 475.6 198.1 478.3 196.4 479C 194.7 479.7 192.6 480 191.7 479.7C 189.8 479 179.9 465.9 180.5 464.9C 180.8 464.6 183.1 463.7 185.6 463C 190 461.7 190.4 461.8 192.1 463.8C 193.7 465.9 194 465.9 197.4 464.5C 200.9 463 202.1 460.8 200 459.5C 199.5 459.2 199 458.5 199 458.1C 199 456.9 210.6 454.6 212.1 455.6C 215.9 457.9 222.6 457.8 231.5 455.4C 250.3 450.2 252.2 449.6 252.8 448.1C 253.7 445.6 261.1 439 263 439C 264 439 265.3 439.7 266 440.5C 266.8 441.5 268.1 441.8 269.9 441.4C 273.7 440.4 274.7 439.3 273.2 437C 271.5 434.2 271.6 434 274.8 434C 277 434.1 278.7 435.6 283.9 442.1zM 204 443.7C 204 445.3 204.7 447.7 205.4 449.2C 207.1 452.3 207 452.4 201.2 454C 197.5 454.9 196.5 454.9 195.2 453.6C 192.7 451.5 186.5 454.1 187.3 456.9C 187.7 458.5 186.9 459.2 183.9 460.4C 181.7 461.3 179.4 462 178.7 462C 177.7 462 171 453 171 451.6C 171 450.9 200 441.2 202.8 441.1C 203.5 441 204 442.2 204 443.7zM 289.9 465.2C 289 471.4 287.3 485.5 286.1 496.5C 283 525.3 281.4 534.2 279.1 536.1C 277.1 537.7 274.7 538.8 253.5 547.3C 247.5 549.7 231.5 556.2 218 561.8C 204.5 567.3 193.4 571.7 193.4 571.6C 193.3 571.6 193 551.8 192.7 527.8L 192.1 484L 196.3 482.2C 201.1 480.1 206.9 478.2 218.5 475.1C 222.9 473.9 229.7 471.8 233.5 470.5C 237.4 469.2 244.8 466.9 250 465.4C 255.2 463.9 266.5 460.6 275 458C 283.5 455.4 290.8 453.4 291.1 453.6C 291.4 453.7 290.9 459 289.9 465.2zM 173.1 459.4C 176.3 464.6 176.6 468.2 178 512C 178.6 529.3 179.3 544.3 179.6 545.4C 181 549.8 178 545.5 175.7 539.8C 173.7 534.7 173.1 530.9 172.6 520.5C 172.2 513.3 171.7 505.2 171.5 502.5C 171.3 499.7 170.9 492.1 170.5 485.5C 170.2 478.9 169.7 469.3 169.4 464.2C 169.1 459.2 169.2 455 169.7 455C 170.1 455 171.7 457 173.1 459.4zM 197 461.2C 197 461.6 196.4 462 195.6 462C 194 462 190.8 457.5 191.7 456.6C 192.4 455.9 197 459.9 197 461.2zM 186.4 478.5L 189.9 483.5L 190.5 526.3C 190.8 549.8 190.7 569 190.3 569C 189.8 569 187.8 565.7 185.8 561.6C 182.1 554.1 182.1 554.1 181.1 535.3C 180.5 525 179.8 505.7 179.5 492.5L 178.9 468.5L 180.9 471C 182 472.4 184.5 475.8 186.4 478.5z"/>
<path style="stroke:none; fill:#000000" d="M 241.3 483.9L 235 486.4L 235 493.1C 235 500.7 234.6 501.2 227.1 503.8L 222 505.5L 221.5 514.8C 221 525.2 221 525.2 228.5 522C 231.1 520.9 233.6 520 234.2 520C 234.9 520 235.1 522.5 234.7 527.5C 234.4 531.6 234.6 535.2 235 535.5C 235.5 535.8 238.9 534.7 242.5 533.1L 249 530.1L 249 522.1C 249 513.2 249.8 512 256.8 510.5C 258.5 510.1 260 509.3 260.1 508.7C 260.3 505.2 259.8 493.5 259.4 492.8C 259.1 492.4 257.7 492.6 256.2 493.4C 249.2 497 249 496.9 249 489.1C 249 485.3 248.7 482 248.3 481.7C 247.8 481.5 244.7 482.5 241.3 483.9z"/>
<path style="stroke:none; fill:#000000" d="M 511.5 420.1C 494.2 424.5 493 425.1 489 432.8L 486.5 437.5L 468.3 443.6C 458.2 446.9 449.8 449.9 449.5 450.2C 449.1 450.5 449.9 469.2 451.1 491.6L 453.3 532.5L 462.6 551.7C 469.6 566.3 472.3 571 473.7 571C 475.9 571 486.1 567.2 518.5 554.3C 532.3 548.8 546 543.5 549 542.5C 552 541.5 557.2 539.5 560.6 538C 566.2 535.4 566.7 535 566.8 531.8C 566.9 530 567.6 524.2 568.4 519C 569.2 513.8 570.6 503 571.5 495C 572.7 483.8 575.8 460.8 577.1 453.3C 577.5 451.1 576.3 449.3 566.6 438.1C 560.8 431.4 555 424.6 553.7 422.8L 551.2 419.7L 546.4 421.4C 541.8 422.9 541.5 422.9 539.6 421.1C 537.5 419.1 534.5 417.8 530 416.7C 528.6 416.4 520.7 417.8 511.5 420.1zM 537.8 423.3C 542.7 428.5 542.6 437.2 537.5 442C 535.4 443.9 535 444.1 534.5 442.7C 534.1 441.9 534.6 439.8 535.4 438.1C 537.6 434 537.4 428.4 535.2 426.2C 534.2 425.2 533.1 423.6 532.7 422.7C 531.7 420.1 535.2 420.6 537.8 423.3zM 554 427.5C 556.9 430.5 557.2 431.2 556 432C 553.9 433.4 552.9 433.2 551.5 431.4C 550.4 429.9 550.1 429.9 547.7 431.5C 546.2 432.4 545 434.1 545 435.1C 545 436.2 544.7 437 544.3 437C 543.8 437 543.4 434.3 543.4 431C 543.2 425.7 543.4 425.1 545.4 424.7C 549.8 423.8 550.7 424.1 554 427.5zM 498.7 429.6C 499 430.5 498.2 432.2 496.8 433.8C 489.7 441.4 490.5 448.6 498.6 449.9C 504 450.8 504 453.6 498.6 453.4C 490.5 453.1 486.7 444.4 490.5 435.3C 493.3 428.8 497.3 425.9 498.7 429.6zM 534.8 431.1C 535.1 433.5 531.3 439.7 530.3 438.6C 530 438.4 527.5 439 524.7 440C 517.9 442.4 505.5 445.7 500.5 446.5C 497.4 447 496.1 446.8 495.1 445.6C 493.6 443.8 494.4 439 496.1 439C 496.7 439 498.4 438.2 499.8 437.1C 501.3 436.1 505.4 434.7 509 434.1C 512.6 433.4 519.3 431.9 524 430.6C 528.7 429.3 533 428.3 533.5 428.4C 534.1 428.6 534.6 429.8 534.8 431.1zM 551.5 436C 553.3 438 553 439.8 551.1 438.5C 549.6 437.6 547.8 434 548.8 434C 549.3 434 550.5 434.9 551.5 436zM 567 442.6C 570.4 446.7 573 450.3 572.8 450.6C 572.5 450.8 565.4 453 556.9 455.5C 548.4 458 534.5 462.1 526 464.6C 517.5 467.1 505.1 470.7 498.5 472.5C 491.8 474.2 483.8 476.7 480.6 477.9L 474.8 480L 471.4 476.3C 467.2 471.8 462.6 465.1 463.1 464.5C 463.4 464.3 465.7 463.5 468.4 462.8C 472.7 461.7 473.3 461.7 474.5 463.3C 475.9 465.3 477.9 465.5 481.5 463.8C 484.1 462.7 484.8 460.6 483 459.5C 482.5 459.2 482 458.5 482 458.1C 482 456.9 492.8 454.7 494.2 455.6C 494.9 456.1 497.8 456.7 500.6 457.1C 504.9 457.7 508.3 457.2 519.7 454.1C 533.4 450.5 533.7 450.4 538.6 445.2C 542.2 441.5 544.4 440 546.3 440C 547.8 440 549 440.4 549 441C 549 442.4 554.3 442.2 556.4 440.7C 558 439.5 558 439.3 556.6 438.1C 554.2 436.1 554.7 435 557.9 435C 560.2 435 561.9 436.4 567 442.6zM 486.9 446.1C 487.6 448.4 488.4 450.8 488.6 451.5C 489 452.3 487.4 453.2 483.9 454C 479.9 455 478.5 455 478.2 454.1C 478 453.5 476.8 453 475.6 453C 472.5 453 469.5 455.4 470.3 457.3C 470.7 458.5 469.7 459.3 465.9 460.5C 463.1 461.5 460.5 461.8 460.1 461.4C 457.4 458.1 454 453 454 452.1C 454 451.5 460 449.2 467.3 447C 474.5 444.7 481 442.7 481.5 442.5C 484.6 441.4 485.8 442.2 486.9 446.1zM 574.5 457.2C 572.6 468.8 570.8 481.9 569 498.1C 567.9 508.3 566.3 520.1 565.5 524.4C 564.7 528.7 564 532.4 564 532.6C 564 533.4 555.3 537.3 545.2 541C 539.3 543.1 527.1 547.8 518 551.5C 508.9 555.2 496.3 560.1 490 562.5C 483.7 564.9 477.7 567.1 476.8 567.5C 475.3 568.1 475.2 565 475.3 525.5L 475.5 482.8L 480.4 480.8C 483.1 479.8 492.3 476.9 500.9 474.5C 529.5 466.4 568.1 455.3 570.5 454.5C 574 453.3 575.1 454 574.5 457.2zM 455.8 459.7L 458.9 464.5L 459.9 493C 460.5 508.7 461.2 526.7 461.5 533L 462 544.5L 459.1 538.5C 455.9 531.9 455.5 529.1 454 502.5C 452.4 473.6 451.7 455 452.2 455C 452.5 455 454.2 457.1 455.8 459.7zM 479 460.7C 479 461.4 478.6 462 478.1 462C 476.7 462 474 457.8 474.6 456.8C 475.4 455.6 479 458.9 479 460.7zM 467.4 475.5L 473 483L 472.8 524.2L 472.5 565.5L 470.5 562C 464.5 551.7 464.3 550.6 463.1 518C 462.5 501.2 461.7 483.1 461.5 477.7C 461.2 472.4 461.1 468 461.3 468C 461.6 468 464.3 471.4 467.4 475.5z"/>
<path style="stroke:none; fill:#000000" d="M 523.8 483.3L 518 485.4L 518 492.2C 518 498.7 517.9 499 515 500.5C 513.4 501.3 510.4 502.4 508.4 502.8L 504.7 503.6L 504.3 512.8C 504 523.3 503.9 523.2 511.5 520C 514.1 518.9 516.6 518 517.2 518C 517.9 518 518.1 520.4 517.6 525.3C 517.2 529.3 517.2 532.9 517.5 533.2C 517.8 533.5 521.1 532.5 524.8 530.9L 531.5 528.1L 532 519.9L 532.5 511.6L 538 509.4L 543.5 507.2L 543.1 499.4C 543 495 542.6 491.3 542.4 491.1C 542.2 490.9 540 491.7 537.5 492.9C 535.1 494 532.8 495 532.5 495C 532.2 495 532 491.8 532 488C 532 480 532.2 480.1 523.8 483.3zM 529.6 490.5C 529.2 494.1 529.2 497.5 529.5 498C 529.8 498.5 531.5 498.3 533.3 497.6C 541.3 494.3 541.1 494.2 540.8 500.2L 540.5 505.5L 535 507.7C 529.7 509.8 529.5 510 529.5 513.7C 529.3 525.6 529.3 525.8 525 528C 522.9 529.1 520.8 530 520.5 530C 520.2 530 520 526.4 520 522C 520 517.6 519.6 514 519.1 514C 518.6 514 515.8 515.1 512.8 516.5L 507.5 519L 507.2 512.8C 506.9 506 507.1 505.6 513.5 504C 515.7 503.4 518.1 502.7 518.8 502.5C 519.6 502.2 520 499.8 520 495.1C 520 488.9 520.3 487.9 522.2 486.9C 524 485.9 527.8 484.6 529.9 484.1C 530.1 484 530 486.9 529.6 490.5z"/>
<path style="stroke:none; fill:#000000" d="M 559.4 610.9C 557.7 611.9 553.5 616 550 619.9C 546.1 624.2 543.3 626.5 542.9 625.9C 542.5 625.1 539 624.9 532.4 625.2C 523.6 625.6 521.6 626 514.8 629.2C 505 633.8 499.2 637.8 492.3 644.8C 486.8 650.4 479 661 479 662.8C 479 664.3 476.3 665 470.2 665C 460.3 665 456 669.4 452.3 683.3C 449.7 692.8 450 711.5 452.7 720.5C 455.6 729.7 458.7 732.9 468 735.9C 474.8 738 475.9 738.9 484.4 747.5C 495.5 758.8 498.3 760.4 507 760.3C 516 760.3 522.3 756.9 532.6 746.6C 542.4 736.7 547.7 726.6 554 705.5C 556.6 696.9 560 688.2 562.8 683C 574 662.4 576.5 654 576.5 636C 576.4 625.1 576.1 622.8 574.1 618.2C 570.2 609.5 565.5 607.2 559.4 610.9zM 569.2 613.4C 570.2 614.1 572 616.9 573.2 619.6C 575.1 623.7 575.5 626.2 575.5 635.5C 575.4 652 572.8 660.7 561.8 681C 559.2 685.7 556.1 693 554.9 697.3C 552.4 706.1 551 705.9 551 696.5C 551 688.2 548.2 659.1 546 643.5C 543.8 628.4 543.3 629.9 553.8 619C 559.6 612.9 561 612 564 612C 565.9 612 568.3 612.7 569.2 613.4zM 540.5 631.2C 542.2 641.7 543.9 654.5 544.5 661L 545.1 668.5L 540.3 671.6C 531.1 677.5 516.4 685.8 504.5 691.8C 497.9 695.1 490.9 698.9 488.9 700.3L 485.2 702.8L 484.7 699.1C 484.4 697.1 483.6 687.8 482.9 678.4L 481.6 661.3L 485.4 656.2C 497.3 639.9 517.4 628.1 533.2 628L 539.9 628L 540.5 631.2zM 544.8 644.7C 548.7 673.4 551.5 710.8 549.9 712.5C 549.4 713 549 711 549 707C 549 693.2 545.6 655.3 542.7 637.2C 541.9 632.7 541.6 629 542 629C 542.4 629 543.6 636.1 544.8 644.7zM 480.7 673.7C 480.5 675.8 480.3 674.3 480.3 670.5C 480.3 666.6 480.5 665 480.7 666.7C 480.9 668.5 480.9 671.7 480.7 673.7zM 479.9 686C 481 703 482.9 723.6 484.6 738.4L 485.3 744.3L 479.8 739.8C 476 736.7 472.1 734.6 467.3 733.2C 459.5 730.8 458.1 729.6 454.8 722.5C 452.7 717.9 452.5 716.1 452.5 701.5C 452.6 687.3 452.8 684.9 454.8 679.8C 456.1 676.7 457.9 673.1 458.8 672C 461.1 669.2 467.1 667.3 473.5 667.4L 478.7 667.4L 479.9 686zM 547.9 710.3C 548 718.8 547.8 719.6 543.8 727.8C 536.6 742.9 521 756.3 509.2 757.7C 499.9 758.8 490.1 753.7 489.4 747.4C 489.2 745.8 488.4 736.8 487.5 727.5C 486.7 718.1 485.7 709.5 485.5 708.3C 484.8 705.5 489.2 702.5 506.5 693.8C 513.7 690.2 525.4 683.8 532.5 679.7L 545.5 672.2L 546.7 686.9C 547.3 694.9 547.9 705.5 547.9 710.3zM 484.5 711.8C 486.9 735.6 487.7 748.7 485.9 736.5C 484.4 726.1 481 687.8 481.2 683.1L 481.3 678.5L 481.7 683C 481.9 685.5 483.2 698.4 484.5 711.8zM 487.7 746.7C 487.4 747.7 487.2 747.1 487.2 745.5C 487.2 743.8 487.4 743.1 487.7 743.7C 487.9 744.4 487.9 745.8 487.7 746.7z"/>
<path style="stroke:none; fill:#000000" d="M 413.4 616.9C 411.8 617.9 408.2 621.5 405.4 624.8C 401.2 630 400.2 630.7 398 630.2C 393 628.8 381.6 629.7 375.6 631.8C 362.6 636.5 348.7 647.7 340.5 660.1L 335.8 667L 330.2 667C 326.8 667 323.1 667.7 321 668.8C 314 672.3 309.5 687.3 310.3 704.5C 311.2 722 315.5 730.5 324.7 733C 331.7 734.9 336 737.4 340.5 742.1C 352.7 754.7 354.2 755.8 361.9 756.7C 368.6 757.5 375.4 755 383.4 748.9C 395.2 740 402.2 727.9 409.9 703.5C 412.3 696 415.7 687.6 418.1 683.5C 427.2 668 431 655.4 431 640.4C 431 620.5 423.7 610.6 413.4 616.9zM 424.4 619.2C 430.1 624.4 431.7 640.4 428.1 655.5C 425.8 665.1 423.4 670.8 417.8 680.2C 415.5 684 412.2 691.6 410.4 696.9L 407.2 706.5L 406.6 696.5C 405.4 680.2 403 656.2 401.5 645.8C 400.7 640.4 400 635.6 400 635.1C 400 633.4 410.2 622 413.9 619.4C 418.3 616.4 421.2 616.4 424.4 619.2zM 395.8 633.7C 396.3 634.7 397 638 397.3 641.1C 397.7 644.1 398.3 648.1 398.6 650C 399.3 653 399.1 653.3 397.2 652.8C 396 652.5 391.6 652.8 387.4 653.5C 381 654.7 378 655.9 369.3 661.2C 358.1 667.9 348.9 675.5 344.9 681.4C 343.6 683.4 342.2 685 341.9 685C 341.6 685 341 680.2 340.7 674.3L 340.1 663.6L 343.5 659C 352.2 647.1 368.1 636.1 380.9 633.1C 387.6 631.5 394.8 631.8 395.8 633.7zM 400.4 663.8C 400.8 668.3 400.8 671.9 400.3 671.8C 399.5 671.6 397.3 672.7 382.5 681.3C 378.7 683.6 370.1 688.1 363.5 691.3C 356.9 694.6 349.6 698.5 347.3 700L 343.2 702.8L 342.5 695.9C 341.8 689.4 342 688.7 344.5 685C 348.5 679.2 355.4 673.1 365 666.9C 377.7 658.6 381.8 657 391.2 656.1C 395.8 655.7 399.6 655.4 399.6 655.5C 399.7 655.5 400.1 659.2 400.4 663.8zM 338.3 683.4C 339 698.7 342.6 736.9 343.6 739.4C 344.5 741.9 343.2 741.3 338.3 737.3C 335.8 735.2 330.8 732.6 327.1 731.4C 318.9 728.6 315.8 725.6 313.4 718.2C 310.7 709.6 310.9 692.7 313.8 683.3C 317.3 671.9 320.4 669.6 332.6 669.3L 337.7 669.2L 338.3 683.4zM 402.1 683.8L 402.3 691.1L 396.6 699.5C 388.5 711.4 374.8 721.2 362.3 724.1C 358.3 725.1 356.4 725 352 723.7C 349 722.8 346.3 722.3 346 722.6C 345 723.7 349.3 725.9 354.4 727C 358.9 728 360.3 727.9 366.6 725.7C 379.2 721.4 391 712.3 398.1 701.3L 402.5 694.6L 403.2 699.5C 403.5 702.3 403.9 707.4 403.9 710.8C 404 716.5 403.5 718.1 399.5 725.8C 393.2 738.1 384.1 747.3 373.9 752C 363.4 756.7 348 752.5 347.5 744.7C 347.4 743.5 346.5 734.3 345.5 724.3C 344.1 710 343.9 705.8 344.9 704.6C 345.5 703.8 352.9 699.7 361.3 695.5C 374.8 688.7 388.6 681.2 397.5 675.9C 401.3 673.6 401.8 674.4 402.1 683.8z"/>
<path style="stroke:none; fill:#000000" d="M 130.4 617.4C 128.8 618.1 124.5 621.7 121.1 625.3C 114.8 631.7 114.7 631.8 111.1 630.8C 102.5 628.4 88 631.8 75.5 639.2C 67.9 643.6 54.7 656.4 51.6 662.2C 49.7 665.7 49.6 665.8 42.3 666.2C 33.2 666.8 30.5 668.5 26.8 676C 21.5 686.6 20.7 704.6 25 716.7C 27.6 724.2 30.2 726.7 37.7 729C 46.8 731.8 49.1 733.2 57 741C 66.4 750.2 68.7 751.4 78 751.4C 86.3 751.5 90 750 99.6 742.9C 110.3 735 117.6 722.9 124.9 701.2C 127.1 694.5 130.6 686.5 132.5 683.5C 142.3 668.1 147.1 653.6 146.8 640L 146.7 632.5L 145.9 641.5C 144.8 655.7 141.6 665.5 134.7 676.3C 129.6 684.2 127.5 688.6 124.9 696.6L 122.6 703.5L 121.8 695C 121.4 690.3 120.6 681.3 120 675C 119.4 668.7 118 657.1 116.9 649.3L 114.8 635.1L 119.6 629.6C 131.4 615.9 140 615.3 144.4 628C 145.2 630.5 145.9 631.7 146 630.7C 146 627.5 141.9 619.2 139.4 617.5C 136.6 615.7 134.5 615.6 130.4 617.4zM 110.4 633.8C 110.7 634.3 111.4 637.8 112 641.6C 112.6 645.4 113.3 649.5 113.6 650.7C 114.1 652.5 113.8 652.8 112.2 652.3C 108.3 651.3 95.6 654.2 88.5 657.7C 77.3 663.3 65.4 671.7 60.3 677.6C 57.7 680.6 55.3 682.7 54.9 682.3C 54.5 681.8 54 677.3 53.7 672.1L 53.2 662.8L 57.4 657.6C 65.6 647.6 80.4 637.7 92.1 634.6C 98 633 109.6 632.5 110.4 633.8zM 115.4 647C 117.8 663.6 119.8 683.7 120.4 697.5C 121 712.1 120.1 705.2 117.5 675.5C 116.1 658.9 114.6 647.5 112.4 636.5C 112 634.6 112.1 633.9 112.7 634.5C 113.2 635 114.4 640.7 115.4 647zM 114.4 657.2C 115.9 664.2 116 670.7 114.8 670.7C 114.1 670.8 107.9 673.8 101 677.5C 94.1 681.3 82.8 686.9 75.7 690.1C 68.7 693.3 61.7 696.8 60.1 697.9C 58.5 699.1 57 700 56.7 700C 56.5 700 56 697.2 55.6 693.9C 55.1 688.7 55.3 687.2 57 684.4C 60.2 679.4 68.9 671.9 78.2 666.3C 92.4 657.8 99.1 655.4 109.7 655.1C 113.4 655 114 655.3 114.4 657.2zM 50.7 673.5C 51.5 689.6 55.2 729.2 56.6 734.9C 57.1 737.3 57.1 737.3 54.8 735.6C 47.6 730.3 43.6 728.2 38.7 727C 29.2 724.8 25.4 719.3 24.1 706C 22.7 692.1 25.9 677.3 31.5 672C 34.3 669.4 38.7 668.3 45.5 668.4L 50.5 668.5L 50.7 673.5zM 52.7 680.7C 52.5 682.8 52.3 681.1 52.3 677C 52.3 672.9 52.5 671.2 52.7 673.2C 52.9 675.3 52.9 678.7 52.7 680.7zM 116.4 676.1C 118 684.2 117.2 688.9 113.1 694.8C 107.6 702.7 104.5 705.9 97.2 710.9C 89.7 716 84.5 718.4 76.6 720.4C 71.2 721.8 70.4 721.8 65.1 720C 62.1 719 59.3 718.3 59.1 718.5C 58 719.7 61.8 722 66.7 723.1C 71.5 724.2 73.2 724.1 78.9 722.7C 90.9 719.5 104.4 710.3 112 700.1C 114.9 696.2 117.4 693.1 117.6 693.2C 117.7 693.4 118.1 697.9 118.5 703.2L 119.2 712.9L 115 720.8C 110.1 730.3 105.6 735.7 98.3 741.2C 90.3 747 84.9 749.1 77.6 749.2C 71.3 749.2 64.9 746.9 62.2 743.8C 61.6 743 60.1 733.7 58.9 723.1C 56.8 704.1 56.8 703.8 58.7 701.9C 59.7 700.8 68.2 696.4 77.5 692.1C 86.9 687.7 99 681.7 104.5 678.7C 110 675.7 114.8 673.2 115.1 673.1C 115.5 673.1 116 674.4 116.4 676.1zM 58.7 737C 58.1 740.3 52.9 695.8 53.1 688.5C 53.2 686.3 54.5 696 56.1 710C 57.7 724 58.9 736.2 58.7 737z"/>
<path style="stroke:none; fill:#000000" d="M 272.4 617.4C 270.8 618.1 266.5 621.7 263.1 625.3C 256.8 631.7 256.7 631.8 253.1 630.8C 244.5 628.4 230 631.8 217.5 639.2C 209.9 643.6 196.7 656.4 193.6 662.2C 191.7 665.7 191.6 665.8 184.3 666.2C 175.2 666.8 172.5 668.5 168.8 676C 163.5 686.6 162.7 704.6 167 716.7C 169.6 724.2 172.2 726.7 179.7 729C 188.8 731.8 191.1 733.2 199 741C 208.4 750.2 210.7 751.4 220 751.4C 228.3 751.5 232 750 241.6 742.9C 252.3 735 259.6 722.9 266.9 701.2C 269.1 694.5 272.6 686.5 274.5 683.5C 284.3 668.1 289.1 653.6 288.8 640L 288.7 632.5L 287.9 641.5C 286.8 655.7 283.6 665.5 276.7 676.3C 271.6 684.2 269.5 688.6 266.9 696.6L 264.6 703.5L 263.8 695C 263.4 690.3 262.6 681.3 262 675C 261.4 668.7 260 657.1 258.9 649.3L 256.8 635.1L 261.6 629.6C 273.4 615.9 282 615.3 286.4 628C 287.2 630.5 287.9 631.7 288 630.7C 288 627.5 283.9 619.2 281.4 617.5C 278.6 615.7 276.5 615.6 272.4 617.4zM 252.4 633.8C 252.7 634.3 253.4 637.8 254 641.6C 254.6 645.4 255.3 649.5 255.6 650.7C 256.1 652.5 255.8 652.8 254.2 652.3C 250.3 651.3 237.6 654.2 230.5 657.7C 219.3 663.3 207.4 671.7 202.3 677.6C 199.7 680.6 197.3 682.7 196.9 682.3C 196.5 681.8 196 677.3 195.7 672.1L 195.2 662.8L 199.4 657.6C 207.6 647.6 222.4 637.7 234.1 634.6C 240 633 251.6 632.5 252.4 633.8zM 257.4 647C 259.8 663.6 261.8 683.7 262.4 697.5C 263 712.1 262.1 705.2 259.5 675.5C 258.1 658.9 256.6 647.5 254.4 636.5C 254 634.6 254.1 633.9 254.7 634.5C 255.2 635 256.4 640.7 257.4 647zM 256.4 657.2C 257.9 664.2 258 670.7 256.8 670.7C 256.1 670.8 249.9 673.8 243 677.5C 236.1 681.3 224.8 686.9 217.7 690.1C 210.7 693.3 203.7 696.8 202.1 697.9C 200.5 699.1 199 700 198.7 700C 198.5 700 198 697.2 197.6 693.9C 197.1 688.7 197.3 687.2 199 684.4C 202.2 679.4 210.9 671.9 220.2 666.3C 234.4 657.8 241.1 655.4 251.7 655.1C 255.4 655 256 655.3 256.4 657.2zM 192.7 673.5C 193.5 689.6 197.2 729.2 198.6 734.9C 199.1 737.3 199.1 737.3 196.8 735.6C 189.6 730.3 185.6 728.2 180.7 727C 171.2 724.8 167.4 719.3 166.1 706C 164.7 692.1 167.9 677.3 173.5 672C 176.3 669.4 180.7 668.3 187.5 668.4L 192.5 668.5L 192.7 673.5zM 194.7 680.7C 194.5 682.8 194.3 681.1 194.3 677C 194.3 672.9 194.5 671.2 194.7 673.2C 194.9 675.3 194.9 678.7 194.7 680.7zM 258.4 676.1C 260 684.2 259.2 688.9 255.1 694.8C 249.6 702.7 246.5 705.9 239.2 710.9C 231.7 716 226.5 718.4 218.6 720.4C 213.2 721.8 212.4 721.8 207.1 720C 204.1 719 201.3 718.3 201.1 718.5C 200 719.7 203.8 722 208.7 723.1C 213.5 724.2 215.2 724.1 220.9 722.7C 232.9 719.5 246.4 710.3 254 700.1C 256.9 696.2 259.4 693.1 259.6 693.2C 259.7 693.4 260.1 697.9 260.5 703.2L 261.2 712.9L 257 720.8C 252.1 730.3 247.6 735.7 240.3 741.2C 232.3 747 226.9 749.1 219.6 749.2C 213.3 749.2 206.9 746.9 204.2 743.8C 203.6 743 202.1 733.7 200.9 723.1C 198.8 704.1 198.8 703.8 200.7 701.9C 201.7 700.8 210.2 696.4 219.5 692.1C 228.9 687.7 241 681.7 246.5 678.7C 252 675.7 256.8 673.2 257.1 673.1C 257.5 673.1 258 674.4 258.4 676.1zM 200.7 737C 200.1 740.3 194.9 695.8 195.1 688.5C 195.2 686.3 196.5 696 198.1 710C 199.7 724 200.9 736.2 200.7 737z"/>
</g>
</g>
</svg>