<?xml version="1.0" encoding="UTF-8" standalone="yes"?>
<!-- Created with sK1/UniConvertor (http://sk1project.org/) -->
<svg xmlns="http://www.w3.org/2000/svg" xmlns:xlink="http://www.w3.org/1999/xlink"
  width="551pt" height="756pt" viewBox="0 0 551 756"
  fill-rule="evenodd">
<g>
<g>
<path style="stroke:none; fill:#000000" d="M 254.5 4.09998C 252.9 4.5 248.6 5.69995 245 6.5C 232.4 9.59998 230.5 10.2 226.4 12C 222 14 216 21.7 216 25.5C 216 30.3 214.4 30.9 200 31.5C 181.5 32.4 162.2 35.7 137.6 42.1C 128.4 44.5 102.3 54.8 88.1 61.6C 70 70.3 57 78.1 53.2 82.5C 51.6 84.2 48.5 86.4 46.2 87.3C 39.4 90 24.5 99.7 20.9 103.7C 14.1 111.2 11.9 114.9 10 121.9C 6.2 135.6 8.1 145.8 16 154C 18.5 156.6 21.9 159 23.5 159.4C 30.1 161.1 32.3 166.3 26.8 167.4C 22.6 168.2 14.6 173.4 12.3 176.8C 8.4 182.7 7.7 184.8 7.4 192C 7.2 196.1 6.5 200.7 5.9 202.2C 4.4 205.9 5.4 215 7.9 219.9C 10.4 224.8 16.4 230.6 21.7 233.1C 24 234.2 26.5 236.1 27.3 237.4C 28.2 238.6 31.9 241.1 35.6 242.9L 42.5 246.2L 35.9 252.3C 27.3 260.4 24.4 265.1 23.3 272.6C 21.9 281.8 23.7 285.2 32.5 289.9C 36.9 292.2 38.6 292.5 47 292.4C 52.2 292.4 58.3 291.8 60.5 291.1C 65.9 289.3 73.6 284.5 78.6 279.7L 82.8 275.8L 81.9 280.2C 81.5 282.5 81.1 285.1 81 285.7C 81 286.4 79.9 287 78.5 287C 75.7 287 61.4 299.9 54.1 309C 51.7 312 48.2 316.1 46.5 318C 41.1 323.8 29.4 342.1 27.1 348.4C 24 356.8 21.9 367.3 21.8 375.5C 21.7 383.4 23.6 388.1 31.8 400.3C 43.5 417.8 65.9 434.1 92.5 444.4C 96.4 445.9 101.6 448.2 104.2 449.6L 108.9 452L 115.6 449.9C 126.8 446.4 127.1 448.5 118.7 470C 116.5 475.8 114 481.6 113.3 483C 112.2 485.1 112.3 485.7 114.2 487.7C 115.4 489 116.7 490 117.2 490C 117.7 490 119.6 490.6 121.4 491.4L 124.8 492.8L 121.4 501.4C 119.5 506.1 118 510.9 118 512C 118 513 116.9 517.3 115.6 521.3C 110.7 536.3 111.2 544.7 117.6 557L 121 563.4L 118.5 566C 113.4 571.4 112.8 578.7 116.6 590.7C 121.1 605 127.7 610.2 146.1 614.4C 148.4 614.9 149.1 616.1 151.6 623.7C 155.5 635.4 155.5 644.3 151.7 651.5C 149.1 656.5 138.3 667.2 130.4 672.5C 126.7 675 119.9 682.4 118 686C 117 687.8 116.5 692.7 116.8 697.8C 117 700.2 118.2 702.2 121.4 705.4L 125.8 709.8L 121.6 711.9C 119.4 713 113.6 715.5 108.9 717.4C 95.5 722.7 79.3 731 76.3 734.2C 74.3 736.3 73.5 738.1 73.5 741C 73.5 752.8 87.9 755.9 107.6 748.5C 111.4 747 115.9 745.5 117.5 745C 122.5 743.5 132.3 740 135.7 738.4C 137.4 737.7 139.5 737 140.4 737C 141.2 737 144.3 735.9 147.2 734.6C 150.1 733.3 162 729.1 173.5 725.2C 185.1 721.4 199.5 716.3 205.5 714C 211.6 711.7 221.2 708.1 227 706C 247 698.6 263.5 692.2 270.4 689C 274.2 687.3 280.8 684.6 284.9 683C 289.1 681.5 296.9 678.1 302.4 675.6C 307.8 673.1 312.9 671 313.7 671C 316.3 671 320.7 668.1 321.3 666C 322 663.1 318.6 661.1 311.2 660C 308 659.6 302.3 658 298.6 656.5C 291.1 653.5 289.4 653.6 280.5 657.3C 277.2 658.7 273.3 660.2 271.8 660.5L 269 661.2L 269 654.8C 269 646.1 265.3 635.7 259.1 627.2C 255.5 622.3 253.1 617.3 250.1 608.6C 245.5 595.1 245 590.5 247.5 584C 249.5 578.8 249 569.4 246.4 560.3C 244.3 553 235.5 543.3 230.2 542.4C 228.2 542.1 225.5 541.2 224.3 540.4C 220.2 537.8 220.5 535.6 226.2 526.3C 229.2 521.4 232.2 516 232.9 514.3C 234.2 511.2 234.5 511 239.5 511C 242.3 511 248 510.7 252.1 510.4L 259.5 509.8L 265 522.1C 268 528.9 272.2 536.5 274.2 539.1C 276.2 541.6 279.2 546.4 280.8 549.6C 284.2 556.2 292.2 564.4 299 568.2C 312.1 575.5 328.2 578.9 351 579.1C 359.5 579.2 367.9 579.5 369.5 579.7L 372.5 580.2L 372.6 591.4C 372.6 598 373.1 604.1 373.9 606.1C 375.9 611.5 379.1 617.3 381.4 619.8C 385.8 624.8 400.1 630 409.2 630C 411.7 630 413.9 630.3 414.2 630.6C 414.6 630.9 414.2 633.5 413.5 636.3C 409 654 407.9 665.6 409.9 672.7C 410.4 674.5 412.1 677.1 413.7 678.5C 416.1 680.7 417.2 681 421.3 680.5C 424 680.2 427.4 679.3 429 678.5C 432.1 676.9 437 671.5 437 669.7C 437.1 665.5 441.1 643.1 442.8 637.4C 446.2 625.4 447.9 617.3 447.3 615.2C 447 614 448.1 609.9 449.8 605.8C 453 598.2 457 583.7 457 580.1C 457 578.9 458.1 574.5 459.4 570.2C 465.1 552.4 467.2 526.2 463.7 517.8C 462.5 514.9 462.4 513.1 463.5 506.4C 465.1 496.1 468.8 478.2 469.4 477.1C 469.7 476.6 470.7 472.9 471.5 468.9C 473 462 473 461.4 471.3 460.3C 467.8 457.7 468.3 457.4 452.9 473.5L 445.3 481.5L 443.5 491.3L 441.6 501.1L 436.1 500.5C 433 500.2 426.5 499.8 421.5 499.5C 407.4 498.9 393.7 497 391.5 495.4C 390.4 494.6 387.6 492.6 385.2 491C 381.1 488.3 381 488.1 382.9 487C 384.1 486.4 385 485 385 483.9C 385 482.7 385.8 480.6 386.9 479.2C 389.3 475.6 390.5 471.7 392.9 458.5C 395.7 443 396.2 438.2 396.1 423.5C 396 402.2 392.8 385.7 384.6 363.6C 376.2 341.3 363.7 322.9 348.5 310.8L 340.6 304.5L 345 304.3C 347.5 304.1 354.2 303.6 360 303C 381.1 300.9 381.2 300.9 385.5 303.4C 387.7 304.7 394.5 308.3 400.5 311.5C 406.6 314.7 414.7 319.4 418.5 321.9C 422.4 324.5 429.3 328.3 434 330.4C 438.7 332.6 445.1 335.6 448.4 337.2C 456.7 341.2 463.8 340.6 467.9 335.6C 470.2 332.8 471.6 333.9 474.4 340.6C 480.1 354.5 486.2 360 495.9 360C 499.8 360 501.5 359.4 504 357.3L 507.2 354.7L 514.3 362.2C 526.6 375.1 537.6 378.6 544.5 371.7C 548.1 368.1 550 362.8 550 356.3C 550 353.3 548.8 349.9 545.9 344.4C 539.4 332 536.5 329.1 517.5 316.7C 512.6 313.4 506 309.1 502.8 307C 498.6 304.3 497.4 303 498.1 301.9C 499.7 299.3 499 295.6 496.3 292.8C 494.8 291.3 493.1 290 492.6 290C 492 290 486.1 287 479.5 283.4C 472.9 279.8 464.6 275.2 461 273.2C 457.4 271.2 448.7 266 441.5 261.5C 424.4 250.8 418.2 247.4 413.4 246.1C 411.3 245.5 399.8 244.5 388 244C 376.2 243.4 365 242.6 363.1 242.2L 359.7 241.5L 362.3 239.7C 364.8 238.1 369 230.3 369 227.2C 369 224.1 364.3 216.6 360.3 213.3C 355.4 209.3 341.5 203.4 333.3 201.9C 330.1 201.3 327.4 200.7 327.2 200.5C 327 200.4 328.1 197.7 329.5 194.5C 332.9 186.6 333 176.7 329.6 169.4C 328.3 166.6 326.7 163.9 326.1 163.6C 325.5 163.2 325 161.9 325 160.6C 325 156.6 319.3 146.7 314.8 142.9C 308.6 137.7 300.6 133.5 292.3 131L 285 128.8L 285 124.7C 285 113.6 276.8 86.4999 268.2 68.9999C 266.2 64.9 264.4 61.2 264.2 60.7C 264 60.2999 265.2 59.9999 267 59.9999C 270.6 59.9999 274.9 57.9999 280.2 53.7999C 282.9 51.7 284.1 49.8999 284.5 47.2C 285.2 42.7999 287.2 38.4999 290.1 34.9C 291.9 32.6 292 31.8 291.1 28.4C 290.5 26.3 290 23.1 290 21.4C 290 19.6 288.8 16.7 286.9 14.2C 280.7 5.69995 265.4 0.899963 254.5 4.09998zM 273 11.9C 277.9 13.7 282.6 19.3 281.4 21.9C 281 22.8 280.6 25.4 280.5 27.7C 280.4 30.6 279.7 32.7 278.1 34.4C 276 36.7 275.9 37.2 276.9 39.9C 277.8 41.9999 277.9 43.4 277.1 44.8C 275.9 47.1 270 51.7 266.5 53C 263.1 54.3 256.5 52.8 253.5 50C 251.4 48 250.7 47.9 243.8 48.7C 235 49.7 228.6 48.3 225.3 44.5C 222.5 41.3 222.4 38.6 225.1 34.9C 226.7 32.6 227 31.2 226.5 27.7C 225.9 24 226.2 22.9 228.4 20.3C 229.8 18.6 232 17 233.2 16.7C 243.2 14.2 248.3 13.3 250.4 13.7C 251.9 14 254 13.4 255.7 12.2C 260.5 8.79999 264.2 8.69995 273 11.9zM 215.2 42.4999C 218.8 49.0999 221.5 51.4 229.5 53.9999C 234.6 55.7 237.8 56.0999 242.8 55.7999L 249.3 55.3999L 255 60.8999C 259.7 65.5999 261.3 68.2999 265.3 77.6999C 270.7 90.3999 273.5 100.5 275 112.6C 275.6 117.2 276.3 121.7 276.7 122.6C 277 123.5 273.5 121.3 268.9 117.8C 250.2 103.7 230.8 92.4999 211.8 84.9999C 204.8 82.2999 198.5 79.9999 197.8 79.9999C 197.1 79.9999 193.7 79.0999 190.2 77.9999C 178.5 74.2999 159.6 72.5999 131.5 72.4999C 105.3 72.4999 92 73.7 76 77.5999C 73 78.2999 70.4 78.7999 70.2 78.5999C 68.7 76.9999 108.3 58.6999 124.5 53.4999C 128.4 52.2 134.7 50.0999 138.5 48.7C 144.5 46.4999 160 42.9999 174.5 40.4C 179.7 39.4999 206.8 37.2 210 37.4C 211.9 37.4999 213.1 38.7 215.2 42.4999zM 161.2 78.9999C 181.4 80.9 198.9 85.0999 214.9 91.9999C 227.5 97.4 245.1 107.2 254 113.8C 262.3 120 270.2 127.9 269.7 129.5C 269.5 130 265.8 130.8 261.4 131.1C 253.2 131.6 248.5 133.2 243.7 137L 240.8 139.3L 236.7 137C 234.4 135.7 231.8 134.2 231 133.6C 224.8 129 201 119.8 183.1 115C 168.4 111.1 160.8 109.8 142.5 108.1C 114 105.5 63.3 112.2 48.9 120.4C 42.1 124.2 35.1 136 32 148.5C 30 156.6 28.7 157.4 23.4 153.8C 17.7 150 15.5 144.1 15.6 133.5C 15.7 125.9 16.2 123.6 18.5 118.6C 21.6 112 27.4 105.8 35.9 100.1C 43.6 94.8998 46.1 93.6998 60.2 88.3998C 73 83.6998 91.3 79.8998 110.9 78.0999C 121.5 77.0999 144.6 77.4999 161.2 78.9999zM 164 115.4C 189.6 120.3 223.5 133.4 232.3 141.8C 236.4 145.8 236.8 147.4 234.2 150.7L 232.5 153L 224.6 149.8C 217.2 146.8 216.7 146.4 214.8 142.1C 213.7 139.6 211.7 136 210.3 134.2C 208.3 131.5 207.2 130.9 204.7 131.2C 201.6 131.5 201.5 131.7 201.2 136.9L 200.9 142.2L 197.7 141.6C 184.3 139.1 169.4 137.9 152.5 138C 142.1 138 132.4 138.2 131 138.4C 129.6 138.6 124.6 139.1 119.8 139.5L 111 140.1L 111 136.8C 111 135 111.5 130.6 112 127.1C 113.1 120.6 112.4 118 109.4 118C 107.6 118 97.5 130.3 94.9 135.7C 93 139.6 92.5 140 87.2 141C 65.4 145.4 58.6 147.4 49.8 151.8C 44.7 154.3 40.1 156.6 39.6 156.8C 39.1 157.1 39 154.6 39.4 150.9C 40.1 145.1 44.1 135 47.3 131.2C 47.9 130.4 48.9 128.8 49.5 127.6C 50.1 126.5 52.2 124.7 54.2 123.8C 61.7 120.3 81 116 97 114.4C 100.6 114.1 103.7 113.6 104 113.3C 105.1 112.2 156.7 113.9 164 115.4zM 104.7 139.5C 103.9 147.5 105.4 148.9 112.2 146.6C 123.9 142.6 163.5 141.7 186 144.8C 194 146 201.5 147.2 202.7 147.5C 204.3 148 205.2 147.6 206.6 145.5C 208.5 142.6 210 143.6 210 147.6C 210 150.5 212.2 152.1 216.6 152.7C 222.1 153.4 229.3 156.8 228.6 158.3C 222.3 173.4 225.1 188.8 235.4 195.9C 237.8 197.6 241.2 201.2 242.9 203.9C 244.7 206.6 247.9 210.5 250.1 212.5L 254.2 216.1L 249.6 222.8C 241.2 235.2 225.6 247.9 207.6 256.9C 169.4 276 126.4 279.2 94.5 265.2C 66.7 253.1 50.8 236.8 46.9 216.7C 46.4 214 45.8 211.5 45.5 211C 45.2 210.5 44.5 205.9 43.9 200.8C 42.2 184.7 41.3 178.7 39.6 172.5L 38 166.5L 41.2 163.8C 49.6 156.8 72 148.3 87.2 146.4C 94.6 145.5 97.1 143.9 100.5 138.1C 102.2 135.3 103.9 133 104.4 133C 104.9 133 105 135.9 104.7 139.5zM 291.3 136.1C 307.4 141.5 318.9 152.6 319 163.1C 319 165.6 319.7 167.3 321.4 168.8C 326.1 172.8 326.1 185.1 321.5 194.5C 317.2 203.4 306 213.2 300.4 213.2C 298.9 213.2 295.2 214.4 292.1 215.7C 287.2 217.9 285.5 218.2 278.5 217.7C 263.8 216.7 252.9 210.4 247.4 199.7C 246.1 197.1 244.5 194.9 244 194.9C 239.7 194.3 237.2 192.2 234.3 186.3C 229.2 175.7 231 162.8 238.9 153.8C 240.6 151.8 242 149.4 242 148.3C 242 145.8 248.5 139.5 253.5 137.4C 257 135.8 265.1 134.9 281.3 134.2C 283.4 134.1 287.9 134.9 291.3 136.1zM 32.9 178.8C 33.5 182 34.3 187.1 34.6 190.1C 35.4 198.9 35.7 200.5 39 216.5C 40.2 222.2 42.7 228.7 45.6 233.9C 47 236.5 47.7 238.7 47.2 239.2C 46.2 240.2 40.2 239.4 37.9 237.9C 36.7 237.1 36.7 236.9 37.9 236.1C 40.4 234.5 37.5 232.2 30.6 230.3C 25.7 229 23.5 227.6 19.4 223.5C 15.1 219.2 14 217.4 12.9 212.7C 11.8 207.4 11.8 206.8 13.7 204.7C 15.3 202.9 15.5 201.8 14.9 198.5C 13.3 190 18 179.4 25.4 174.9C 30.5 171.8 31.6 172.3 32.9 178.8zM 343.1 210.5C 361.1 216.7 366.6 225.1 358.2 233.7C 350.5 241.7 339.3 245.1 320.9 245.1C 307.2 245.1 292.3 242.2 284 238C 278.8 235.4 271.3 228.6 269.3 224.7L 267.8 221.8L 273.2 222.5C 276.1 222.9 280 223.2 281.8 223.2C 284.1 223.1 286.6 224.1 289.9 226.5C 298.7 232.9 307.1 235 323.3 235.1C 330.9 235.1 333.8 234.7 337.8 233C 344.6 230.1 346.5 227.9 345 225C 344 223.1 343.3 222.9 339.8 223.4C 336.2 224 335.5 223.7 331 219.8C 328.3 217.4 323.8 214.7 320.9 213.7L 315.8 211.8L 317.9 209.6C 319.8 207.6 320.8 207.4 327.9 207.7C 332.9 207.9 338.5 209 343.1 210.5zM 321.5 220.9C 326.4 224.2 327.3 227.6 323.5 228.6C 319 229.7 304.7 228.4 300.9 226.5C 295.5 223.7 291.9 220.9 292.5 219.9C 292.9 219.4 295.5 219 298.3 218.9C 301.2 218.9 304.4 218.5 305.5 218C 308.9 216.4 317.2 217.9 321.5 220.9zM 262.6 223.9L 263.7 227.8L 260.8 226.8C 257.7 225.7 257.4 224.9 259.2 222C 261 219.2 261.4 219.5 262.6 223.9zM 265.4 237.4C 269.5 242.5 270 250.1 266.5 257.3C 254.2 283.3 226 305.6 193 315.4C 169.8 322.3 157.1 324.5 140.5 324.5C 126.9 324.4 124.7 324.2 117.4 321.7C 103 316.9 88.1 304.4 87.9 297C 87.6 286.5 89.2 277.5 92.1 274L 94.2 271.5L 101.8 274.2C 121.8 281.3 145.3 281.5 172.7 274.9C 179.4 273.3 185.4 272 186 272C 186.7 272 188.6 271.4 190.3 270.6C 192.1 269.8 198.8 266.9 205.4 264.1C 219.9 257.9 234.5 248.3 246 237.3L 254.5 229.1L 258.5 231.5C 260.7 232.8 263.8 235.4 265.4 237.4zM 278.6 241.8C 279.8 243 289.5 246.6 294.5 247.9C 310.2 251.9 329 252.2 344.5 248.6C 347.3 248 353.3 247.5 358 247.6C 372.8 247.8 407.4 249.9 410.5 250.8C 415.1 252.2 422.5 256.1 438.2 265.6C 463.2 280.7 466.3 282.6 475.6 287.3C 480.6 289.9 485.9 293.3 487.5 295C 490 297.6 490.2 298.2 489.1 300.8C 488.4 302.5 487.1 304.6 486.2 305.7C 485.3 306.7 482.7 309.8 480.5 312.5C 473 322 466.5 328.2 461.6 330.7L 456.8 333.1L 448.6 330.5C 440.5 327.8 425.1 320.1 417.5 315C 415.3 313.5 409 310 403.5 307.2C 397.9 304.5 391.4 300.5 389 298.5L 384.5 294.8L 376 295.4C 371.3 295.8 365.5 296.5 363 297C 360.5 297.6 351.5 298.3 342.9 298.6L 327.3 299.3L 322.4 293.9C 319.8 290.9 309.6 280.4 299.9 270.5C 290.2 260.6 281.4 251.1 280.2 249.4C 276.4 243.8 275.3 239 278.6 241.8zM 56.8 252C 52.7 254.7 45.9 261.3 44.4 264.1C 41.4 270 45.7 276.4 53.5 277.7C 58.7 278.5 68.7 273.2 73.1 267.4C 76.2 263.2 78 261.9 78 263.9C 78 266 73 275.7 70.6 278.3C 69.2 279.8 65 282.5 61.2 284.3C 55.5 287 53.4 287.5 46.5 287.5C 40.3 287.5 37.7 287.1 35.1 285.5C 23.7 278.8 31.9 259.7 51 248.4L 54.5 246.3L 56.8 248.4L 59.1 250.5L 56.8 252zM 69 257.7C 69 257.9 68.1 259.8 67 262C 64.6 266.6 60.3 269.9 55.5 270.7C 52.3 271.2 52 271.1 52 268.7C 52 266.9 53.8 264.3 58.1 260.1C 64 254.2 64.2 254.1 66.6 255.6C 67.9 256.5 69 257.4 69 257.7zM 294.5 274.3C 337.4 317.9 343.6 327.5 350.6 359.9C 354.1 376.4 353.9 378.9 348.9 383.5C 346.6 385.5 343.2 387.9 341.2 388.7C 331.3 392.8 309.6 397.6 305.4 396.6C 303.2 396 303 395.5 302.9 389.2C 302.7 381.9 302.6 380.7 301.6 373.6L 300.9 368.8L 306.8 362.7C 311.1 358.1 312.9 355.5 313.4 352.6C 313.8 350.5 314.8 347.8 315.5 346.6C 318.3 342.3 318.3 337.5 315.5 325.3C 312.5 311.8 307.2 299.9 300.6 291.8C 287.2 275.3 275.5 258 277.8 258C 278.2 258 285.8 265.3 294.5 274.3zM 273.3 266.2C 273.6 266.9 279.4 275 286.3 284.3C 303.4 307.1 305.3 311.4 308.9 335.5C 310.1 343 310 343.9 308 349C 305.5 355.6 300.8 360.6 292 366.5C 283.8 371.9 273.9 377.2 273.2 376.5C 272.9 376.2 272.7 374 272.9 371.5C 273.2 364 270.4 350.6 260.4 313.5C 258.2 305.5 256.4 296.4 256.2 292.2L 255.8 284.9L 261.6 278.2C 264.7 274.5 268.2 270 269.3 268.2C 271.3 264.8 272.5 264.2 273.3 266.2zM 83.6 306.5C 85.7 309.7 98.5 318.7 107 323C 121.7 330.4 137.8 332.6 156.1 329.6C 161.8 328.7 167.7 327.5 169.2 327C 171.8 326.2 171.8 326.3 172.5 331.3C 175.6 356.6 182.9 377.4 192.5 388.4C 197.6 394.1 197.8 395 194.9 396.8C 191.6 398.9 192.9 402.2 198.2 405C 202 407 202.8 407.9 202.4 409.6C 201.9 411.7 203.5 413.4 212.1 420.1C 216.5 423.5 218.6 429.7 220.1 443.1C 221.4 454.5 220.7 472.7 218.9 479.3C 218.2 481.6 216.4 485.2 214.8 487.2C 213.3 489.2 212 491.4 212 492C 212 493.2 208.1 492.9 192 490.4C 182 488.8 138.8 485 130.9 485C 128.4 485 125.6 484.4 124.6 483.7C 122.9 482.5 123 481.8 126.5 471.5C 128.6 465.4 130.5 459.9 130.9 459.2C 131.4 458.3 132.8 459 136.1 461.7C 146.2 470.5 155.3 474.6 168.3 476.3C 185 478.6 197.9 475.2 209.1 465.8C 222.2 454.8 220.7 446.1 202.4 427.5C 192.2 417.1 185 413.1 165.8 406.7L 150.1 401.5L 150 398C 150 396.1 149.6 393.9 149.2 393.3C 148.2 391.7 135.1 384.2 124 378.9C 114.8 374.5 115.6 375.3 108.2 360.5C 105.4 354.9 104.6 351.9 104.1 345.2C 103.4 336.5 102.4 334.7 98.5 335.2C 96.8 335.5 96.5 336.4 96.2 340.9C 96 343.8 96.4 348.5 96.9 351.2C 97.9 355.6 97.8 356.4 95.5 359.9C 94.2 362.1 92.2 364.1 91 364.5C 89.9 364.8 84.4 364.2 78.8 363.1C 73.1 362 65.1 361 61 360.8C 54.6 360.5 53.5 360.7 53.2 362.2C 52.7 364.6 56.7 366 63.9 366C 69.6 366 81.9 368.4 91.6 371.4C 104.2 375.3 138 391.6 138 393.8C 138 394.1 135.3 396.7 132.1 399.7C 121 409.7 111.9 422.9 107 436.2C 105.8 439.6 104.3 442 103.4 442C 100.5 442 82.2 433.7 72 427.8C 53.4 417 42.6 406 32.4 387.6L 28.7 380.8L 29.9 371.1C 32.2 353.8 34.7 347 44.2 332.4C 51.2 321.7 60.6 310.4 70.9 300L 79.4 291.6L 80.7 297.8C 81.4 301.2 82.7 305.1 83.6 306.5zM 251.5 307.1C 264.6 357 267.1 372 263.6 379C 261.8 382.8 262.8 385 266.4 385C 268.4 385 268.5 385.3 268.4 398.9C 268.3 406.5 268 413.3 267.6 413.9C 267.2 414.4 267.8 415.8 268.9 416.9C 270.8 418.8 272 418.9 289.7 418.5C 300 418.2 316.8 417.3 327 416.4C 337.2 415.5 348.4 414.6 352 414.4C 363.3 413.6 363.1 413.7 362.5 408.2C 362.2 405.6 361.8 400.2 361.5 396.1C 361.3 392 360.6 388.2 360.1 387.7C 359.4 387 359.4 386.2 360.2 385.3C 361.2 384.1 361.3 379.3 360.6 370.5C 360.3 366.5 358.5 359.1 354.4 344.3C 351.7 334.7 349.8 330.1 345.4 322.8C 342.3 317.7 339 312.6 338.1 311.5C 335.8 308.7 343.5 314.4 348.8 319.4C 354.5 324.8 364.8 338.1 368.7 345C 371.5 350.2 378.6 368 381.7 378C 385.1 389.2 387.2 403.1 387.7 418.3C 388.4 438.3 387.1 448.9 382 466.5C 381.5 468.1 380.8 471.4 380.4 473.7L 379.7 478L 359.1 477.4C 343.7 476.9 334.1 477.2 321 478.4C 295.2 480.8 282.6 482.6 255 488C 244.3 490.1 232.5 492.1 228.8 492.5L 222.1 493.1L 223.9 488.3C 228.5 475.6 229.3 469.9 228.6 451.7C 228.2 442.3 227.3 431.4 226.5 427.5C 225.7 423.7 225 420.2 225 419.8C 225 419.4 223.1 418.1 220.8 416.9C 218.4 415.7 215.7 414.1 214.7 413.2C 213.1 411.7 213.1 411.6 215.1 409.4L 217.1 407.2L 214.9 405.6C 213.6 404.7 212 404 211.2 404C 210.5 404 208.5 403.3 206.8 402.4L 203.6 400.8L 206.3 398.8C 207.8 397.7 209 396.4 209 395.8C 209 395.3 205.9 391.8 202.1 388.2C 192.6 379 186.7 366.6 182.5 347.5C 180.6 339 178.7 325.9 179.3 325.3C 179.6 325.1 184.2 323.8 189.5 322.5C 209.5 317.5 227.5 309.1 240 298.8C 244 295.6 247.4 293.1 247.6 293.3C 247.8 293.5 249.6 299.7 251.5 307.1zM 504.6 315.2C 527.3 329.4 532 333.7 537.5 344.4C 542 353.4 543 359.3 540.6 363.7C 538.1 368.6 536.6 369.4 532.3 367.9C 528 366.5 513 351.8 509 345.1C 502.5 334.1 499 333.1 499 342.2C 499 348.6 497.2 352.4 494.1 352.8C 490.6 353.3 487.4 349.6 481.8 338.4L 476.7 328.3L 485 318.7C 489.6 313.4 493.6 309 494 309C 494.4 309 499.1 311.8 504.6 315.2zM 101.5 368C 101.8 368.5 101.6 369 101.1 369C 100.5 369 100 368.5 100 368C 100 367.4 100.2 367 100.4 367C 100.7 367 101.2 367.4 101.5 368zM 294.6 377.5C 294.9 380 295 382.6 294.7 383.4C 294 385.1 286.9 385.8 277.5 385L 270.5 384.5L 281.5 378.9C 287.6 375.8 292.8 373.2 293.2 373.1C 293.6 373.1 294.2 375 294.6 377.5zM 295 392.7C 294.7 399.5 294.8 399.9 298.8 400.9C 306.8 403.1 337.5 397.8 347.9 392.5C 351.6 390.6 353 391.4 353 395.6C 353 396.8 353.3 399.8 353.6 402.3C 354.1 406.1 353.9 407 352.4 407.8C 348.5 409.9 306.7 413.9 288.9 414C 277.6 414 277.2 413.9 276.6 411.7C 275.8 408.5 275.9 392.7 276.8 391.3C 277.2 390.6 280.6 389.9 284.5 389.7C 288.4 389.6 292.3 389.3 293.3 389.2C 294.8 389 295.1 389.7 295 392.7zM 148 407C 167 410.1 184.6 418.6 196.3 430.5C 203.5 437.8 210 447.7 210 451.3C 210 453.3 196.7 466.8 193.4 468.1C 188.7 470 178.8 471.9 173.9 472C 168.4 472 155.6 468.1 149.5 464.6C 147.1 463.1 142.5 459.4 139.3 456.2C 132.1 449.2 119 432.4 119 430.4C 119 428.1 127.8 414 131.8 409.7C 135.8 405.6 137.2 405.3 148 407zM 461.5 479.2C 460.8 482.1 459.5 488.1 458.5 492.5C 456 504.6 455.7 505.1 452 503.9C 448.5 502.6 448.4 501.9 450.6 493.7C 452.7 485.7 456.3 478.7 459.7 476.1C 461.2 475 462.5 474 462.6 474C 462.6 474 462.1 476.4 461.5 479.2zM 352.3 487.5C 351.8 496.8 351.3 501.7 350.6 505.2C 349.8 508.7 350 509 352.6 509.6C 356.3 510.5 358.3 509 359.4 504.7C 359.9 502.6 361 501 361.7 501C 362.4 501 364.4 503.1 366 505.7C 370.7 513.1 369.9 522.9 363.7 532C 355.6 544 350.4 546.8 329.2 550.1C 319.9 551.5 306.2 550.4 298 547.5C 288.1 544 279.9 536.7 276.4 528.4C 275.5 526.3 272.8 520.5 270.3 515.6C 266.3 507.5 265.8 505.8 265.7 499.1L 265.5 491.6L 274.5 489.9C 282 488.4 310.5 485 325.5 483.7C 327.7 483.5 334.7 483.4 341 483.4L 352.5 483.5L 352.3 487.5zM 366.8 484.7C 365.8 484.9 364 484.9 362.8 484.7C 361.5 484.5 362.3 484.3 364.5 484.3C 366.7 484.2 367.7 484.4 366.8 484.7zM 158.7 492C 165.4 492.5 175.5 493.6 181.2 494.5C 186.9 495.3 193.5 496.3 196 496.5C 198.5 496.8 202.1 497.2 204 497.5C 205.9 497.7 212.8 497.9 219.3 497.9C 227.5 498 231 498.3 231 499.2C 231 503.8 216.2 529 208.5 537.4C 206.6 539.5 205 541.8 205 542.5C 205 545 211.6 546 213.9 543.7C 214.9 542.7 215.4 542.9 216.6 544.4C 219.2 548.1 218.3 551.5 213.8 555.5C 201.5 566 171.8 574.1 150.8 572.6C 141.7 572 135 570 135 567.9C 135 567.3 133.2 564.7 130.9 562.3C 125.2 556.1 121.7 548 121.2 539.9C 120.8 533.1 122.9 522.9 128.6 504.5C 133 490.3 133.6 490 158.7 492zM 377.5 495C 379.7 496 382.2 497.5 383.1 498.2C 386.6 501.1 389.9 508 391.5 516.1C 393.8 527.1 392.4 537.6 387.3 548.2C 379.5 564.6 365.3 572 341.9 572C 322.4 572 310.4 568.4 297.8 559C 292.3 554.9 289.9 551 293.8 552.5C 300.9 555.2 309.5 556.4 322 556.3C 334.4 556.3 336.3 556 344.9 553.1C 360.8 547.8 370 540.9 374.6 531C 380.2 519 378.2 506.5 369.1 496.6L 364.5 491.7L 369 492.4C 371.4 492.8 375.2 493.9 377.5 495zM 257 498C 257 500.2 257.1 502.3 257.3 502.7C 257.5 503.6 246.3 505.7 240.6 505.9C 236.9 506 236.8 505.9 237.5 503.2C 237.9 501.7 238.2 499.7 238.2 498.8C 238.2 497.7 239 496.8 240.3 496.6C 241.5 496.3 244.5 495.7 247 495.2C 249.5 494.7 252.7 494.2 254.3 494.1C 256.8 494 257 494.3 257 498zM 408.5 504C 411.8 504.6 419.7 505.5 426 506C 443.6 507.5 447.4 508.5 450.9 512.5C 455 517.3 456.4 522.8 456.2 534.2C 456.1 544.6 454.3 555.5 451 566C 449.9 569.6 448.7 575 448.4 578C 447.6 585.1 443.6 599.6 440.6 606.3C 436.8 614.8 432.5 618.8 424.9 620.9C 415.1 623.7 408.3 624.2 401.7 622.6C 392.9 620.5 388.7 617.2 385 609.5C 381.9 603.1 381.8 602.4 382.2 592C 382.3 586 383 580.7 383.5 580.1C 384.1 579.6 388.3 578.5 392.9 577.8C 402.1 576.3 404.5 574.6 402 571.5C 400.8 570 399.4 569.9 392.5 570.5C 384.2 571.3 375 571.7 375 571.3C 375 571.2 376.4 570.3 378.2 569.4C 383.3 566.8 391.8 558.2 395.2 552.2C 399.2 545.2 400.7 538.8 400.9 527.5C 401.1 519.1 399.9 512.7 396.5 504.7C 395.9 503.3 396.3 503 399.1 503C 401 503 405.2 503.5 408.5 504zM 234.8 556C 240.3 564.2 241.6 577 237.5 584.9C 234.4 591.2 230.3 594.5 223.2 596.7C 220.1 597.6 215.7 599.4 213.4 600.7C 201.9 606.9 188.6 609.8 170.2 609.9C 147.2 610.2 133.8 606.4 129.3 598.4C 123.9 589 121.6 577.3 124.3 573.6C 125.5 572 126 572.1 132.4 574.5C 137.9 576.6 141.9 577.2 150.9 577.7C 179.6 579.1 212.6 569.2 226.8 555.1C 230.5 551.3 231.7 551.4 234.8 556zM 240.3 606.8C 241.8 611.6 245.1 619.6 247.7 624.5C 258.5 645.5 258.4 645.3 258.3 650.5C 258.2 665.3 257 667.5 246.7 672.4C 225.6 682.4 172 701.5 157.9 704.1C 144.9 706.4 137.5 706.4 132.6 704.1C 128 701.8 127.3 700.9 126 695.1C 125.3 692.4 125.6 690.7 127.2 687.7C 129.5 683.1 137 675.5 143.5 671C 148.7 667.4 157.5 657.8 160 652.9C 163.6 646 164.4 640.5 163 632.7C 162.3 628.7 161.1 624.4 160.5 623C 157.1 616 156.5 616.4 171.7 615.7C 196.3 614.6 218.2 609.4 229.5 602C 232.8 599.9 236 598.1 236.5 598.1C 237.1 598 238.8 602 240.3 606.8zM 436.4 629.2C 435.6 632.7 434.5 636.7 433.9 638.1C 433.4 639.5 432.3 644.9 431.5 650.1C 428.4 670 427.9 671.5 423.9 673.5C 421.2 675 421 674.9 419.3 672.3C 417.1 669 416.4 657.7 417.9 650C 421.8 630.1 421.5 630.6 430.1 626C 437.9 621.8 438.1 621.9 436.4 629.2zM 299 663.5C 302 664.4 304.9 665.6 305.3 666C 306.1 666.7 291.5 673.9 281 678C 278 679.2 269.4 682.8 262 686C 254.6 689.1 243.8 693.3 238 695.3C 232.2 697.2 222.8 700.7 217 703C 189.9 713.6 164.5 722.7 147 728C 141.8 729.6 131 733.2 123 736C 93.9 746.3 88.3 747.5 85 744.5C 80.2 740.1 84.4 736 103.4 726.6C 122.9 716.9 135.5 712.1 142.4 711.6C 151.7 710.8 157.1 709.9 168.5 706.8C 184.8 702.5 207 694.8 229 686C 251.8 676.9 256.3 674.9 261 672.4C 271.2 666.8 278.8 663.7 284.9 662.5C 288.6 661.8 292 661.3 292.5 661.4C 293.1 661.6 296 662.5 299 663.5z"/>
<path style="stroke:none; fill:#000000" d="M 151.2 145C 145.3 145.9 136.7 150.6 136.2 153.3C 135.6 156.3 138.9 156.4 144.5 153.5C 151.7 149.9 164.2 148.9 171 151.5C 179 154.4 179.2 154.5 178.9 152.4C 178.3 149.6 168.6 145.1 162 144.6C 159 144.3 154.1 144.5 151.2 145z"/>
<path style="stroke:none; fill:#000000" d="M 54.4 158.5C 52.2 159.4 49.1 161.4 47.5 163C 45.2 165.4 44.9 166.2 46 167.5C 47.8 169.6 49.8 169.4 53.2 166.5C 57 163.3 63.3 161.7 69.2 162.4C 74.6 163.2 76.2 161.8 72.6 159.5C 69.1 157.2 59.5 156.7 54.4 158.5z"/>
<path style="stroke:none; fill:#000000" d="M 152.6 161C 147.9 162.2 143 165 143 166.6C 143 167.8 145.6 167.4 154.5 165.1C 160.1 163.6 167.8 163.8 172.5 165.5C 180.7 168.5 182.4 166.4 174.5 162.9C 169.5 160.7 158 159.7 152.6 161z"/>
<path style="stroke:none; fill:#000000" d="M 60 172.6C 55.9 174.4 51.8 177.9 52.6 179.1C 53.5 180.6 55.9 180.1 59.9 177.5C 64 174.7 72.5 173.7 78.8 175.3C 83.2 176.5 83.1 174.3 78.5 172.4C 74.1 170.6 64.5 170.7 60 172.6z"/>
<path style="stroke:none; fill:#000000" d="M 161.5 174.5C 155 176.8 152 182.7 153.4 190.8C 154.2 195.8 156.8 199.1 162 201.7C 171.1 206.4 181.2 203.9 185.3 196C 188.8 189.2 185.8 179 179.2 175.6C 174.9 173.4 166 172.9 161.5 174.5zM 175.8 179.4C 176.7 183.8 170.3 185.7 167.6 181.8C 165.9 179.4 166.3 178.2 169.4 177.1C 172.1 176 175.4 177.2 175.8 179.4zM 179 190.9C 179 193.2 176.3 196.3 174.7 195.7C 172.9 195.1 171.6 192.4 172.3 190.6C 173.3 188.2 179 188.4 179 190.9z"/>
<path style="stroke:none; fill:#000000" d="M 67 182.6C 60.9 187.8 59.5 194.1 62.9 201.6C 68.1 212.9 88.2 214.2 93.3 203.5C 99 191.6 89.6 180 74.3 180C 71.3 180 69.3 180.7 67 182.6zM 83.8 185.8C 85.8 188.4 85.2 190.7 82.4 191.4C 78 192.6 74.1 187.3 77.1 184.3C 78.5 182.9 82.1 183.8 83.8 185.8zM 85.4 196.3C 86.7 197.2 87 198.3 86.6 199.7C 85.6 202.9 82.8 203.5 80.7 200.9C 79.1 198.9 79.1 198.6 80.6 196.9C 82.6 194.6 83.1 194.6 85.4 196.3z"/>
<path style="stroke:none; fill:#000000" d="M 178.5 206.1C 173.5 208.4 163.3 208.6 157.1 206.4C 152.4 204.8 150.7 205.2 153.1 207.4C 155.6 209.8 161.1 211 169.1 211C 177.2 211 181.2 210 184.3 207.3C 185.6 206 185.8 205.5 184.8 204.8C 183.2 203.8 183.3 203.8 178.5 206.1z"/>
<path style="stroke:none; fill:#000000" d="M 99.9 212.3C 95.7 215.1 94.8 219.8 97.8 222.8C 100.8 225.8 109.8 227.6 114.4 226C 118.4 224.7 118.8 222.3 114.9 222.8C 105 223.8 101 222.8 101 219C 101 218 102.2 216.2 103.8 215C 106 213.2 107.3 212.9 111.5 213.4L 116.5 214L 114.1 212C 110.8 209.2 104.3 209.3 99.9 212.3z"/>
<path style="stroke:none; fill:#000000" d="M 83 213.7C 79.6 215.2 77 215.1 67.5 213.4C 64 212.8 63.6 212.8 64.8 214.2C 66.2 216 73.3 218 78.2 218C 82.4 218 90.2 215 89.7 213.6C 89.1 211.9 86.9 212 83 213.7z"/>
<path style="stroke:none; fill:#000000" d="M 180.4 228.7C 180.9 230.2 179.3 231.2 171.7 234.2C 156 240.4 143.4 242.5 122.5 242.5C 111.2 242.5 102.3 242 98.6 241.1C 94.7 240.2 92.5 240.1 91.8 240.8C 89.4 243.2 107.4 246 125.2 246.1C 141.9 246.1 160.7 242.7 175.6 236.9C 183.1 234 186.5 233.1 188.8 233.6C 193.4 234.5 192.8 232.6 187.7 229.5C 182.5 226.5 179.6 226.2 180.4 228.7z"/>
</g>
</g>
</svg>