<?xml version="1.0" encoding="UTF-8" standalone="yes"?>
<!-- Created with sK1/UniConvertor (http://sk1project.org/) -->
<svg xmlns="http://www.w3.org/2000/svg" xmlns:xlink="http://www.w3.org/1999/xlink"
  width="565pt" height="759pt" viewBox="0 0 565 759"
  fill-rule="evenodd">
<g>
<g>
<path style="stroke:none; fill:#000000" d="M 113.8 4C 111.2 4.5 107.8 5.79999 106.4 6.90002C 104.9 8.10004 102.9 9 101.9 9C 97.6 9 89 14.8 89 17.6C 89 18.3 87.4 19.7 85.4 20.6C 80.7 22.8 78.5 26.4 78.4 32C 78.4 34.5 77.5 38.2 76.6 40.4C 74.7 44.5 75.1 49 77.6 51.1C 78.4 51.7 79 53.3 79 54.5001C 79 57.4001 83.5 62.9001 87.2 64.4001L 89.9 65.6001L 86.6 70.3001C 77.9 82.6001 70.6 100.9 69 114.6C 68.4 119.1 66.9 125.2 65.6 128.2C 62.4 135.5 60 147.2 60 155.8L 60 162.7L 54.6 168.1C 48.3 174.4 45.7 181.4 45.7 192C 45.7 203.7 52.8 214.3 64.4 220C 72.7 224.1 78.9 225.1 84.6 223.4C 90.8 221.5 96.9 218 97.6 215.8C 98.4 213.1 99.3 213.6 101.1 217.8C 102.6 221.5 102.6 221.9 100.5 225.6C 99.4 227.7 97.1 232.8 95.4 236.8C 93.1 242.6 91.8 244.5 89 246.2C 69.1 258 57.6 266.5 46 278C 28.2 295.7 19 310.6 11.5 334C 5.39999 353.2 4.79999 356.4 4.49999 374.5C 3.99999 398.3 6.39999 411.4 13.6 424.5C 17.7 431.9 32 446.1 39.3 450C 43.7 452.3 44 452.8 44 456.5C 44 463 46.8 473.9 49.5 478.7C 51 481.1 54 484.4 56.3 486.1C 59.9 488.7 73.5 495.7 78 497.2C 79.3 497.7 79.9 501.3 80.9 515.6C 83.4 547.7 83.6 555.2 82.7 577.5C 82.2 589.6 82.1 605.3 82.3 612.5C 82.8 625.1 82.8 625.6 80.4 628.7C 78.1 631.7 77.9 632.8 77.4 649.3L 76.9 666.6L 80.9 670.6C 83.1 672.9 87.4 675.8 90.5 677.1C 94.9 679 96 679.9 96 681.8C 96 684 92.5 693.1 89.3 699.5C 82.2 713.6 78.1 729 79.9 735.1C 81.7 741.1 87.4 747.6 93.2 750.3C 104.9 755.8 112.3 756.8 134.8 755.7C 146.2 755.2 147.4 754.9 152.6 751.9C 163.4 745.8 168.5 738.5 170.2 727.1C 171 721.2 170.4 704.3 168.5 683.9C 168.1 679.3 168.1 679.3 172.3 677.5C 184.4 672.6 184.1 673.1 186.6 654.5C 187.4 647.9 188.4 641.1 188.7 639.4C 189 637.5 188.5 634.8 187.5 632.7C 186 629.5 186 627.7 188 605.4C 190.8 573.7 191.9 559.1 192 555.7C 192 554.1 192.4 553.1 192.8 553.4C 193.2 553.6 193.7 561.2 193.8 570.2C 194 579.2 194.5 590.5 195.1 595.5C 196.4 606.6 195.4 631.9 193.4 638C 191.6 643.8 189.9 672 191.3 673.8C 191.9 674.5 194.5 676 197.2 677.2C 202.8 679.6 202.8 678.5 197.5 691.5C 191.8 705.5 191.2 707.2 190.5 711.2C 189.8 715.7 191.6 720.3 195.6 724.6C 200.9 730.2 216.1 733.4 236.4 733.2C 248.9 733 253.1 733.6 272.5 738.6C 273.6 738.9 280.3 739.5 287.4 740C 302.5 741.1 311.7 739.7 321.7 734.7C 329.2 731 331.6 727.2 330.6 720.3C 329.3 710.8 324.1 705.1 309.7 697.6C 307.5 696.4 299.4 692.2 291.6 688.2C 279 681.7 268 674.2 268 672.1C 268 671.7 269.1 670.7 270.5 670C 271.9 669.3 274.5 666.4 276.4 663.6C 279.8 658.7 279.9 658.1 280.6 646.5C 281.2 633.6 280.5 629.7 276.8 627.2C 274.8 625.8 274.8 625.1 275.4 611.1C 276.5 585 279.6 551.5 281.5 545C 282.6 541.1 284.3 514.7 284.4 498.8L 284.5 481.1L 288.2 476.8C 290.3 474.4 293.6 469.1 295.7 465C 299.4 457.6 299.5 457.3 299.8 443.7C 300.1 436.2 300.4 430 300.6 430C 300.8 430 303.3 431 306.2 432.1C 313.7 435.1 327.1 435.7 337.9 433.5C 342.5 432.6 346.6 432.2 347.1 432.7C 348.9 434.5 351.1 446.2 352.5 461C 354.6 482.6 355.9 489.7 358.7 495.5C 362.6 503 366.9 508 369.8 508C 372 508 372.1 507.7 371.6 504.2C 371.2 502.2 371.3 499.2 371.8 497.6L 372.6 494.8L 375.7 499.8C 378.5 504.4 385.2 510.4 389 511.8C 389.8 512.1 391.2 512.9 392 513.6C 392.8 514.3 397.3 515.6 402 516.6C 414.2 519 426.9 518.1 443 513.4C 449.9 511.5 458 509.3 461 508.6C 465.4 507.7 466.5 507 466.5 505.5C 466.5 504.1 465.7 503.4 464 503.2C 456.2 502.4 456.4 501.9 465.1 499.1C 480.8 494 491.2 486.2 502.8 470.7C 511.6 458.9 516.2 454.5 523.2 450.9C 529.6 447.7 530.7 446.5 529.1 444.6C 528.1 443.4 527.2 443.4 523.3 444.6C 520.8 445.4 517.4 446 515.9 446L 513.1 446L 517.8 439.7C 524 431.6 526.1 426.4 530.6 409C 535 391.5 536.5 388 542.1 381.1C 544.5 378.2 548.1 373.5 550.1 370.7C 555.7 362.9 553.4 360.7 544.6 365.6C 542 367.1 539.7 368.1 539.5 367.8C 539.3 367.6 539.7 358.2 540.5 347C 542 324.9 543.7 317.6 550.2 304.2C 555 294.3 552.5 292 545 299.5C 542.5 301.9 540.2 303.9 539.8 304C 539.4 304 538.9 301.4 538.5 298.2C 537 283.9 535.8 277.6 532.6 267.4C 529.7 258.1 529 253.9 528 239.5C 526.3 216.6 524.7 214.7 519.6 229.5C 517.9 234.4 516.1 238.5 515.5 238.7C 514.4 239 512 233.5 509.3 224.5C 506.8 215.8 507 199.3 509.8 186.4C 513.9 167.9 514.4 149.3 511 142.9C 509.7 140.5 507.1 140.4 506.4 142.7C 505 146.9 500.6 155 499.7 155C 499.1 155 499 151.8 499.4 146.7C 500.2 136.9 498.9 125.3 496 117.9C 494.9 114.9 491.1 108.4 487.5 103.5C 483.9 98.5002 479.2 90.8002 476.9 86.2003C 473.1 78.3002 470.9 76.3002 469.6 79.5002C 469.3 80.3002 468.8 85.1002 468.4 90.1002C 467.6 100.5 467.5 100.5 461.8 89.8002C 460.2 86.7003 455.8 80.9002 452 76.8002C 444.8 68.9002 438.9 65.4002 418.9 56.9002C 411.6 53.9002 408.2 51.8002 405.1 48.5002C 402.5 45.8002 400.4 44.3002 399.5 44.6002C 398.5 45.0002 398.3 45.7001 398.9 46.8002C 399.4 47.8002 400.1 50.7002 400.5 53.5002C 400.9 56.2002 401.6 59.3002 402.1 60.2002C 402.6 61.2002 402.9 62.0002 402.8 62.0002C 402.6 62.0002 399.1 61.3002 395 60.4002C 383.2 57.9002 375.7 58.4002 368.5 61.9002C 362.5 64.9002 359 68.2002 348.3 80.7002C 345.9 83.6002 341.6 87.0002 338.1 88.9002C 334.7 90.7002 332 92.5002 332 93.0002C 332 94.8002 336 96.0002 341.9 96.0002C 345.3 96.0002 348 96.4002 348 96.9002C 348 97.4002 345.1 100.5 341.6 103.7C 333.4 111.2 330.7 115.3 327.4 125.3C 324.1 135.5 321.8 140 317.9 144.5C 312.7 150.4 315.5 152.3 325.3 149.4C 326.9 148.9 327 149.6 326.5 158.7C 325.5 175.6 324.9 178.9 322 184.5C 319.7 188.9 319.4 190.1 320.5 191C 321.5 191.8 322.4 191.8 323.9 191.1C 325 190.5 326.1 190 326.4 190C 327.4 190 327 212 326 219.5C 325 226.4 320.7 237 318.9 237C 318.4 237 318 237.4 318 238C 318 241 326.4 237.6 332.4 232.1L 335.3 229.5L 334.6 238.5C 333.7 249.8 332.7 254.5 329 264.2C 325.2 274.4 324.2 281.1 326.4 282.9C 327.8 284.1 328.7 283.7 332.8 279.9L 337.5 275.5L 337.8 280.5C 338 283.2 337.4 288.6 336.5 292.5C 332.8 309.1 332.6 311.2 334.1 319C 335.9 328.3 337.7 329.2 341.1 322.5C 343.3 318.1 343.5 318 344.1 320.2C 344.4 321.6 344.5 324.9 344.2 327.6C 343.8 331.7 343.1 333 339.8 335.9C 336.2 339 336 339.1 336 337C 336 333.5 328.6 318.7 322.7 310.2C 317.5 303 304.1 287.6 299.5 283.8C 289.7 275.6 283.3 271.2 276.5 267.9C 269.1 264.2 268.4 263.7 266.7 259.2C 265.7 256.6 263.8 253.1 262.4 251.3C 261.1 249.6 260 247.6 260 246.9C 260 246.2 263.4 242.2 267.5 238C 275.1 230.1 278.8 223.8 282.6 212C 284.1 207.2 284.4 202.1 284.4 172.9C 284.5 150 284.9 138.9 285.6 137.9C 289.8 132.5 290.2 118.4 286.4 107.2C 281.9 94.0002 278.3 88.3002 267.5 77.5002C 259.6 69.6002 255.2 66.1002 246.7 61.1002C 235.7 54.7001 222.9 49.8002 213.5 48.5002C 210.8 48.1002 207.8 47.1002 206.9 46.4002C 203.2 43.1002 176.5 36.6002 162 35.5002L 153.4 34.9002L 153.8 31.3002C 154.3 27.1002 152.4 23.3002 148.7 21.0002C 147.1 20.0002 145.1 17.7003 144.1 15.9003C 142.1 12.0002 136.9 9.00024 132.3 9.00024C 130.5 9.00024 129 8.60022 129 8.00024C 129 6.90027 121.7 2.90027 119.8 3.10022C 119.1 3.2002 116.4 3.59998 113.8 4zM 125.8 9.20001C 126.4 9.79999 127 10.8 127 11.5C 127 12.2 127.7 13.3 128.5 14C 129.7 15 130.3 15 131.5 14C 133.1 12.7 138.3 13.5 139.8 15.3C 140.4 16 141 18.1 141.2 20C 141.5 23.1 141.9 23.6 144.9 24C 146.8 24.3 148.9 25.4 149.6 26.5C 150.8 28.3 150.7 29 148.4 32.2C 146.2 35.3 145 36 141.1 36.5C 130.1 37.9 124.2 39.4 118.6 42.2C 110.9 46.1 103.1 51.9 97.3 58C 93 62.6 92.6 62.8 89.6 61.8C 85 60.2 82.8 57.9 83.3 55.2C 83.6 53.6 82.9 52 81.4 50.3C 78.5 47.2 79 43.6 82.7 40.2C 85 38.1 85.1 37.8 83.6 36.1C 82.7 35.1 82 33.7 82 32.9C 82 30 86 25.1 89.3 23.9C 91.8 23 93 21.9 93.4 20C 94 16.8 97.8 14.1 102.8 13.3C 104.8 13 107.8 11.8 109.4 10.6C 114.2 7.29999 122.4 6.60004 125.8 9.20001zM 183.4 43.4C 197 47 197.4 47.5 186.5 48.3C 168.7 49.5001 145.4 55.6 128.3 63.5001C 111.3 71.3 94.8 85.8 78.5 106.8C 76.4 109.6 74.4 111.7 74.2 111.5C 73.9 111.3 75.2 106.7 77 101.3C 83.9 80.4 95.3 64.1 111.5 52.0001C 118.6 46.7001 123.7 44.3 130.6 43.1C 133.8 42.5001 138.5 41.5001 141 41.0001C 143.5 40.5001 151.8 40.3 159.5 40.4001C 170.6 40.7001 175.6 41.3 183.4 43.4zM 221.5 53.6C 229.8 55.8 242.2 61.7 251.1 67.7C 258.7 72.9 271 85 275.4 91.7C 278.3 96 282.5 106.8 284.1 113.8C 285.2 118.8 284.4 130 282.9 130C 282.5 130 282.3 129.4 282.5 128.7C 283.3 126.7 277.4 117.5 270.9 110.5C 264.4 103.6 253.4 96.1 245 92.9C 238.2 90.3 223.2 87.3 213.8 86.6C 203.7 85.9 180.8 87.6 169 90.0001C 130.1 97.9001 94.5 125.3 86 153.6L 84.8 157.8L 76.6 158.3C 72.2 158.6 67.4 159.2 66.1 159.6L 63.7 160.3L 64.4 151.9C 66.2 131 77.8 111.1 101.7 87.9C 117 73 128 66.6 151.2 58.9C 161.4 55.6 173 53.2 187.5 51.6C 195.1 50.8 215.5 52.0001 221.5 53.6zM 406.4 53.9C 406.8 54.4 412.1 56.9 418.3 59.5C 431.9 65.2 440.3 69.8 445.1 74.2C 450.2 78.9 457 88.4 460.9 96.5C 462.7 100.4 464.5 104.2 465 105C 466.1 107.2 469.6 107.4 470.5 105.3C 470.8 104.3 471.4 100.2 471.7 96.2C 472 92.3 472.6 89 472.9 89C 473.2 89 474.2 90.1 475 91.4C 475.8 92.8 479.1 97.6 482.3 102.1C 493 117.3 494.1 120.7 494.5 140.5C 494.7 156.4 495.9 162.3 499.1 164C 500.7 164.9 501.4 164.2 504.5 158C 506.4 154.2 508.3 151 508.6 151C 509.8 151 507.8 172.4 506 180.5C 502.2 196.7 501.5 206.6 503.3 217.3C 505.1 227.7 508.7 237.5 512.6 242.7C 515.5 246.6 519 247.1 519.1 243.7C 519.1 242.5 519.9 239.7 520.9 237.5L 522.7 233.6L 523.8 245.5C 524.6 254.2 525.9 260.5 528.5 268.3C 531 275.8 532.5 282.9 533.5 292.3C 535.7 311.8 535.9 312.2 541.3 308C 542.7 306.9 544 306 544.3 306C 544.6 306 543.6 309.3 542 313.2C 538.3 323 538.2 323.6 536.5 345.9C 535.4 361.3 534.7 366 533.1 369.3C 531.3 372.9 531.2 373.6 532.5 374.9C 533.7 376.2 534.6 376 539.1 373.6L 544.2 370.8L 538.8 377.9C 533 385.5 531.2 390.2 525.1 413.4C 521.6 426.8 517.4 434.6 509.8 442.3C 504.5 447.6 504.4 449.5 509.6 450.4C 511.5 450.8 513 451.2 513 451.3C 513 451.5 510.7 454 507.9 457C 505.2 460 501.4 464.7 499.5 467.5C 492.2 478.4 478 489.9 467 493.9C 459.7 496.5 447.6 499 441.9 499C 437.4 499 436 499.3 436 500.5C 436 502.5 438.6 503.6 445.3 504.4C 451 505.1 452 506.3 447.8 507.3C 446.5 507.6 440.8 509 435 510.5C 422.9 513.6 409 514.3 400 512.1C 388.1 509.1 377.1 500.1 374.9 491.6C 374 487.9 373.3 487 371.6 487C 369.7 487 369.2 487.9 368.1 493.3C 367.4 496.7 366.7 499.9 366.6 500.5C 366.1 502.4 360.3 489.5 359.6 485.1C 359.2 482.7 358.1 472.4 357 462.1C 355.9 451.9 354.2 440.6 353.1 437.1C 352 433.5 351.2 430.6 351.3 430.5C 351.4 430.5 353.6 429.5 356.2 428.3C 358.8 427.1 361.1 426.4 361.3 426.8C 361.9 427.8 364.5 437.2 366.4 445.4C 368.2 453.2 371.3 457.8 377.6 462.3C 382.7 465.8 391.1 469 395.7 469C 399.5 469 400.1 467.5 396.7 466.6C 394.6 466.1 386 455.9 386 453.9C 386 453.4 387.2 453.2 388.8 453.5C 396.8 454.7 399.3 454.8 402.1 453.8C 405.8 452.5 405.4 450.8 401 449.9C 393.6 448.4 389.6 443.2 385.1 429.3C 383.4 424 381 418.6 379.9 417.4L 377.8 415.2L 382.6 411.6C 385.2 409.6 387.8 408.1 388.4 408.3C 389 408.5 389.7 410 390.1 411.6C 391.1 416.7 394 421.7 398.7 426.3C 405.2 432.8 412.4 433.4 421.9 428.6C 423.7 427.6 425.4 427.1 425.6 427.3C 425.9 427.5 424.9 429.9 423.6 432.5C 420.8 437.7 421 439 424.3 439C 431.5 438.8 443.1 427.3 450.2 413.1C 453.4 406.6 453.5 406.2 453.7 392.1C 453.8 384.2 454.1 377.6 454.3 377.4C 454.5 377.1 456 379.4 457.5 382.4C 460.1 387.6 462.4 389.8 463.4 388.2C 463.6 387.8 464.1 385.9 464.5 384C 464.8 382.1 466 377.8 467 374.5C 469.6 366.5 471 353.4 471 337.2C 471 330 471.3 324 471.6 324C 472.6 324 475.9 328.4 476 329.7C 476 330.4 476.9 331.4 477.9 331.9C 485.2 335.9 484.2 309.4 476.5 296.7C 474.8 293.8 469 285.9 463.6 279.1C 454.2 267.1 447.9 257 449.9 257C 450.5 257 451.2 257.4 451.5 258C 452.3 259.3 461.8 264 463.7 264C 464.9 264 465.2 263.1 464.8 259.7C 464.2 254.6 457.2 242.7 448.8 232.5C 445.7 228.6 441.5 222 439.5 217.7C 436 210.1 432.6 196.8 433.2 193C 433.5 191.1 434 191.3 438.9 195C 446.3 200.6 448.3 200.4 445.9 194.3C 445.3 192.8 444.7 187.7 444.5 183C 444 168 439.5 159 427.3 148.9L 419.7 142.5L 431 142C 438.8 141.7 442.5 141.1 442.8 140.2C 443 139.5 442.2 139 440.6 139C 438.8 139 436.2 137.2 431.9 133.1C 428.6 129.8 422.7 125.5 418.8 123.5C 412.8 120.3 410.5 119.7 403.4 119.2C 398.8 119 395 118.4 395 117.9C 395 117.5 396.2 116.2 397.7 115.1C 400.8 112.6 400.5 112.1 395.3 111C 388.3 109.3 379.4 113.4 375.8 119.8C 371.6 127.4 370.3 141 373 149.2C 374.1 152.5 373.5 152.6 369.5 150C 367.9 148.9 366.1 148 365.6 148C 365.2 148 364.9 150.8 365.2 154.2C 365.5 159.2 366.6 162.8 370.8 171.6C 376.2 183.1 378.4 189 377.1 189C 376.7 189 374.9 187.9 373 186.5C 371.1 185.1 369.2 184 368.7 184C 367.6 184 368.8 193.2 370.6 198.4C 371.4 200.5 374.3 206 377.1 210.6C 382.6 219.6 384.9 225 385 229.3L 385 232.1L 381.9 230.3C 380.2 229.3 378.2 227.7 377.6 226.7C 377 225.8 375.7 225 374.8 225C 373.3 225 373 225.9 373 230C 373 236.8 376.1 244.3 383.2 255.2C 386.6 260.3 389.9 266 390.7 267.8L 392.1 271.1L 388.3 270.3C 379.3 268.5 373.9 271 369.8 278.7C 366.5 284.9 364.6 297.8 365.4 307.1C 366.2 314.9 365.2 318.1 360.8 321.8C 358 324.2 350.4 329 349.4 329C 349.2 329 349 326.2 348.9 322.7C 348.8 311.8 347.8 307.5 345.3 307.2C 343.5 306.9 342.9 307.6 342.1 310.7C 341.5 312.8 340.4 315.4 339.6 316.5C 338.1 318.4 338.1 318.3 337.9 315C 337.8 313.1 337.6 310.8 337.6 310C 337.5 309.2 338.2 305.4 339.2 301.5C 341.4 292.6 343.3 277.8 342.8 272C 342.6 268.3 342.1 267.4 340.3 267.2C 338.9 267 338 267.5 337.6 268.8C 336.8 271.2 331.2 276.6 330.4 275.7C 330 275.4 331.5 270.2 333.8 264.3C 337.7 253.9 338.7 248.2 339.4 233C 339.6 230 339.3 226.5 338.7 225.2C 337.5 222.5 334.4 222.3 333.6 224.8C 333.2 225.9 331.8 227.8 330.3 229.1C 328.3 230.9 327.8 231.1 328.3 229.7C 329.8 225.6 330.9 214.4 331.3 200.1C 331.7 185.6 331.6 184.7 329.8 184.2C 328.3 183.9 328 183.2 328.5 181.6C 328.8 180.5 329.5 173 330.1 165C 330.6 157 331.3 149 331.6 147.3C 332.4 143.2 330.4 142.2 326.1 144.5C 322.5 146.3 322.3 145.8 324.9 142.2C 325.9 140.7 328.2 135 330 129.5C 333.8 117.8 335.2 115.6 343.6 107.3C 352.6 98.3003 355.3 94.5003 354.5 92.0003C 353.9 90.2003 353.3 90.0003 351.2 90.5003C 341 93.2003 339.7 93.0003 345.4 89.3003C 347.3 88.1003 351.6 83.5003 354.9 79.1003C 361.6 70.3003 364.3 68.1003 372.5 64.5003C 379.3 61.4003 383.4 61.4003 396.7 64.2003C 404.5 65.8003 407.3 66.1003 408.2 65.2003C 409.1 64.3003 408.9 63.6003 407.6 62.1003C 405.7 60.0004 403.7 53.0004 405 53.0004C 405.5 53.0004 406.1 53.4 406.4 53.9zM 226.6 93.5C 244.3 96.6 253 100.4 262.8 109.2C 267 113 273 120.6 273 122.1C 273 123.8 267 120.7 265.4 118.2C 262.9 114.3 250.9 103 249.4 103C 247.6 103 247.7 103.4 249.6 107.1C 250.4 108.8 251 110.4 250.7 110.6C 250.5 110.8 248.1 110.6 245.4 110C 242.7 109.5 233.7 108.7 225.3 108.4L 210.1 107.7L 207.1 103.4C 205.4 101.1 202.7 97.9 201 96.4C 198.9 94.4 198.4 93.3 199.3 92.8C 201.3 91.5001 217.3 91.9 226.6 93.5zM 189.3 94.7C 189.6 95.2 190.1 98.3 190.5 101.7L 191.2 108L 187.3 108C 173.9 108 147.1 114.9 126.8 123.6C 107 132 98.7 142.9 97.8 161.2C 97.6 164.4 97.3 167 97 167C 96.7 167 95 165.6 93.2 163.9C 89.3 160.4 89.4 159.9 95.2 149C 102.8 135.2 113.2 124.3 129.5 113.3C 142 104.9 158.3 98.2 172.5 95.4999C 180.5 93.9999 188.7 93.7 189.3 94.7zM 201.7 106.4C 203.1 109.2 204.3 111.6 204.4 111.7C 204.5 111.9 210.5 112.2 217.6 112.5C 239.9 113.3 246.5 114.3 254.8 118.2C 257.1 119.3 259.3 120 259.6 119.7C 260 119.4 261.2 120.2 262.4 121.4C 263.5 122.7 266.6 124.5 269.2 125.4C 272.1 126.5 275.1 128.6 276.9 130.7L 279.8 134.2L 280.1 161.4C 280.7 204.9 280.4 207 273.4 222.1C 269.8 229.7 260.8 240.2 255 243.5C 246.3 248.5 234.8 253.3 224 256.5C 213.3 259.6 209.5 260.2 198 260.7C 174.4 261.7 162.5 259.2 141.4 248.8C 124.1 240.4 109 226.7 102 213.2C 100.2 209.8 98.3 207 97.8 207C 97.3 207 95 208.8 92.6 211C 84.8 218.2 77.6 219.7 67.7 216C 59.8 213 54.6 206.6 52.9 197.6C 51.5 189.7 55 174.6 59.2 171.3C 62 169.1 69.8 165.2 72.9 164.5C 74.6 164.1 78.4 164.1 81.2 164.5C 85.9 165.2 86.8 165.8 93.6 172.9C 102.8 182.5 103.5 182.2 103.5 167.2C 103.6 153.3 105.7 146.5 111.6 140.5C 114 138.2 117.6 135.4 119.7 134.3C 121.8 133.3 125.5 131.3 128 129.8C 136.3 125 164.9 115.9 176 114.5C 182.5 113.7 199 110.9 199 110.5C 199 110.4 198.6 109 198.1 107.4C 197.6 105.8 196.9 103.2 196.5 101.6C 195.9 98.9001 196 98.8001 197.5 100C 198.4 100.8 200.3 103.7 201.7 106.4zM 392.3 115.2C 390.4 117.3 387 123.2 387 124.5C 387 125.6 392.2 124.9 395.2 123.4C 399.6 121.1 409.3 122.1 415.9 125.4C 418.6 126.8 423.5 130.4 426.7 133.4L 432.5 138.9L 426.4 139C 423 139 418.8 138.5 417.1 137.9C 412.6 136.3 411.3 137.9 414.1 141.4C 415.3 142.9 419.4 146.8 423.4 150.2C 432.2 157.8 436.5 163.8 438.5 171.5C 440 177.6 440.6 191 439.3 191C 438.8 191 436.8 189.4 434.7 187.5C 429.1 182.4 428 183.5 428.5 193.3C 429.3 208.8 433.9 220.1 445.4 234.5C 455.2 247 462 259 459.1 259C 457.7 259 449.1 252 448 250C 447.4 248.9 446 248 444.8 248C 443 248 442.8 248.4 443.2 251.8C 444.3 259.4 448 265.6 465.8 288.4C 474.2 299.2 477 306 477.8 317C 478.2 323.8 478.1 324.4 476.7 323.2C 475.8 322.4 474.1 319.9 473 317.4C 467.9 306.9 466.7 310 466.3 335.7C 466.1 347.7 465.5 360 465 363.2C 463.6 370.6 461 379.3 460.3 378.7C 460 378.4 459 374.6 458.1 370.3C 456.8 363.8 456.2 362.5 454.5 362.5C 451.2 362.5 448.9 373.9 449.2 389.5C 449.4 404.8 448.6 407.3 440.5 419.5C 432.3 431.6 427 435.9 430.5 427.7C 431.8 424.5 432.7 415 431.6 415C 431.4 415 430.5 414.7 429.7 414.4C 428.7 414.1 427.4 415.4 425.6 418.4C 420.8 426.7 408.6 430.6 402.6 425.9C 399.1 423.2 395.5 416.8 393.5 409.6L 391.8 403.8L 396.2 399.1C 398.6 396.6 401.8 392.9 403.3 390.9C 406.2 386.8 414 371.2 414 369.3C 414 368.6 415.4 365.9 417 363.3C 418.7 360.7 420.8 356 421.6 353C 424.2 343.7 424.8 342.8 435.4 333.5C 446.3 324 448.9 320.8 450.9 314.8C 455.5 301 447.1 277.4 435 269.8C 426.8 264.8 425.9 264.5 415.5 264.5C 407.4 264.6 404.6 265 400.6 266.8C 394.9 269.4 395 269.4 395 267.6C 395 266.8 391.5 260.9 387.2 254.3C 380 243.6 377 237.1 377 232.6C 377 231.1 377.2 231.1 380.3 232.6C 382 233.5 384.4 235.1 385.5 236.1C 391.2 241.3 391.1 229.6 385.4 218.2C 383.5 214.5 380.4 209 378.5 206C 374.9 200.4 372.6 194.1 373.2 191.4C 373.4 190.2 374.4 190.6 376.9 192.9C 381.2 196.7 382 196.8 382 193.2C 382 188.9 379.8 182.7 374.5 171.5C 371.9 166 369.5 159.6 369.2 157.2L 368.7 152.8L 372.6 154.9C 374.7 156.1 377.3 157.6 378.2 158.2C 381.1 160.3 381 158.7 378 152.6C 375.5 147.7 375 145.5 375 139.6C 375 131.5 377.1 122.7 379.7 119.1C 382.1 115.9 387.7 113 391.4 113L 394.3 113L 392.3 115.2zM 124.3 250.8C 136.4 260.5 148.9 267.3 167.4 274.6C 173.6 277.1 177.8 279.3 178.8 280.8C 179.6 282 180 283.3 179.7 283.6C 179.4 284 176.3 283.7 172.8 283C 169.3 282.4 164.7 281.5 162.5 281C 158 280.2 152.7 278.1 145.9 274.4C 143.3 273.1 141 272 140.6 272C 139.5 272 140 276.7 141.3 277.8C 146.8 282.2 162.7 287.5 174.1 288.7C 178.9 289.2 180 289.6 179.8 290.9C 179.5 292.2 177.4 292.6 167.5 293C 156.3 293.5 155.7 293.6 158.5 294.9C 160.2 295.7 165.8 296.5 171.1 296.8C 179.4 297.2 180.7 297.5 180.4 298.9C 180.2 299.8 179.9 303 179.6 306C 178.9 314.1 176.9 324 176 324C 173.5 324 158.7 320.6 154.3 318.9C 138.5 313.2 125.4 305.3 115.9 295.8C 107.7 287.5 104.8 283.2 100.5 273.4C 95.9 262.9 95.8 255.2 100 242.1C 101.6 237.1 103.2 232.5 103.5 232C 103.9 231.4 107.3 234.3 111.1 238.4C 115 242.6 120.9 248.1 124.3 250.8zM 122.1 241.7C 123.4 243.3 123.3 243.4 121.8 242.1C 120.1 240.8 119.6 240 120.4 240C 120.6 240 121.4 240.8 122.1 241.7zM 144.3 255C 161 263 173 265.8 191.5 266.1C 199.1 266.2 199.1 266.2 184.9 269.5L 177.2 271.3L 166.9 268.1C 155.8 264.6 135.5 253.6 128.3 247.2L 124.5 243.9L 129.3 247C 132 248.8 138.7 252.4 144.3 255zM 260.4 258.5C 263.6 265.1 264.6 273.5 263 280.2C 260.5 290.7 249 309.2 247.6 304.9C 247.3 304.1 246.2 300.1 245.1 296C 244 291.9 242.9 287.8 242.6 287C 242.1 285.9 243.4 284.9 246.7 283.3C 251.9 281 258.9 274.8 257.1 274.2C 256.5 274 252.6 275.4 248.3 277.4C 244 279.3 240.4 280.6 240.2 280.2C 240.1 279.7 243.1 276.2 247 272.4C 251.5 267.8 254 264.6 254 263.1C 254 261.1 253.1 261.6 247.4 266.9C 240.3 273.4 237.4 274.4 236.1 270.7C 235.4 268.8 236.3 267.5 243.1 261.2C 247.5 257.1 251 253.2 251 252.5C 251 251.7 251.8 250.6 252.8 250.1C 254.9 248.9 256.8 251 260.4 258.5zM 90.9 258C 91 267.2 91.5 269 96.9 279.4C 108.7 302.2 138.7 323.1 168 329C 171.6 329.7 174.6 330.4 174.8 330.6C 175 330.7 174 333.8 172.5 337.4L 169.9 344L 172.4 349.6C 173.9 352.8 177.2 357.4 180.5 360.6L 186.1 366L 177.3 366C 169.6 366 158.5 364.6 148.3 362.4C 145.4 361.8 145 362 145 363.8C 145 365 145.5 366.2 146.1 366.6C 149.2 368.5 170.8 371.2 185 371.5C 193.5 371.7 203.8 372.1 207.8 372.5L 215 373.3L 217.3 380.4C 220.6 391.1 220.4 404.2 216.6 413.5C 215 417.3 213.2 420.8 212.6 421.2C 211 422.3 192.4 422.1 185 420.9C 180 420.1 177.8 419.2 175.4 416.9C 170.4 412 161.2 410 143.9 410L 129.4 410L 122.4 405.8C 114 400.7 108.6 396.9 104 392.6C 102.1 390.8 99.2 388.5 97.7 387.5C 95.8 386.3 95.1 385.2 95.6 384.1C 95.9 383.2 97.5 377.8 99.1 372C 107.2 342.5 106.9 322.2 98.3 305.3C 94.6 298 92.8 296.4 89.6 297.6C 87.3 298.5 87.5 299.4 91.4 304.9C 95.9 311.6 98 320.6 98.1 334.3C 98.2 349.8 94.5 368.4 89.1 378.7L 87.5 381.8L 81.6 379.4C 75.1 376.6 60.8 374.3 56.6 375.4C 54.7 375.9 54 376.6 54.2 377.8C 54.5 379.2 56.1 379.6 63 380.2C 77 381.4 90.7 387.8 104.4 399.4L 110.2 404.4L 106.1 406.2C 97.5 409.8 85.2 421.8 81.2 430.3C 78.8 435.4 77 443.7 77 449.4C 77 455.8 75.5 457.2 70 455.9C 59 453.4 51.9 450.7 50.8 448.7C 49.3 445.8 50.4 429.6 52.5 424C 55.1 417 55.5 413 53.6 413C 49.5 413 44.1 427.2 43.7 438.5C 43.6 442.6 43.3 446 43 446C 42.1 446 37.8 442.9 32.4 438.3C 27.2 433.9 17.4 420.1 15.4 414.4C 13.8 409.6 15.2 401.8 18.6 396.9C 20.2 394.5 24.1 390.6 27.3 388.2C 30.4 385.7 33 383.3 33 382.9C 33 382.5 32.1 381.9 31.1 381.5C 27.7 380.5 21.1 384 16.1 389.7L 11.2 395.2L 10.5 389.5C 9.70003 383.6 10.5 362.8 11.6 357.8C 12.3 354.5 18.6 348 25.5 343.3C 32.8 338.4 44.7 334.1 53.2 333.3C 60.3 332.7 60.4 332.6 57.5 331.4C 48.5 327.5 30.3 332.1 18.8 341.2C 16.7 342.8 15 343.9 15 343.6C 15 340.2 25.6 314.6 29.3 309.2C 30.6 307.1 33.8 302.3 36.3 298.3C 38.8 294.4 42.1 290.4 43.5 289.4C 47.3 286.9 59 286.4 66.9 288.4C 70.4 289.3 73.5 289.9 73.7 289.6C 74.5 288.8 68.7 285 65.1 284C 63.1 283.4 58.9 282.6 55.8 282.3L 50 281.7L 56.5 275.8C 60.1 272.5 64 269 65.3 268.1C 67.9 266 90.2 251 90.6 251C 90.7 251 90.8 254.1 90.9 258zM 236.5 260C 235 261.6 232.4 263.2 230.9 263.5C 229.3 263.9 228 264.5 228 264.9C 228 265.4 224.1 265.7 219.4 265.6C 210.2 265.6 210.3 265.3 222 262C 226.1 260.8 231.3 259.2 233.5 258.5C 239.3 256.5 239.7 256.7 236.5 260zM 203 266C 203 266.5 202.5 267 201.9 267C 201.4 267 201.2 266.5 201.5 266C 201.8 265.4 202.3 265 202.6 265C 202.8 265 203 265.4 203 266zM 209.3 265.7C 208.6 265.9 207.4 265.9 206.8 265.7C 206.1 265.4 206.6 265.2 208 265.2C 209.4 265.2 209.9 265.4 209.3 265.7zM 428.8 272.4C 437.2 276.7 441.4 282.5 444.6 294.5C 445.4 297.2 446 301.2 446 303.4C 446 309 439.7 320.3 433.2 326.4C 430.2 329.2 424.9 334.4 421.3 337.9C 415 344.2 414.8 344.2 410.2 343.8C 403.4 343.1 385.5 334.2 379.7 328.6C 377.2 326.2 374.8 322.9 374.5 321.3C 374.2 319.8 373.5 317.1 372.9 315.5C 369.7 305.9 371.2 288.2 375.8 281.1C 381.9 271.7 392.4 273.3 397.5 284.3C 401.9 293.7 400.1 299.8 392.3 301.5C 389.8 302 388.9 301.7 388.1 300.1C 387.5 299 387 297.1 387 295.9C 387 293.1 384.3 290 381.8 290C 379.7 290 379.6 291 381.1 296.4C 382.6 301.8 384.9 304.7 388.6 306C 390.3 306.6 393.8 309.5 396.3 312.4C 401.9 318.9 408.2 321.4 416.9 320.3C 423.5 319.5 425.7 317.7 423.7 314.6C 422.6 313 421.4 312.6 418.9 312.8C 417 313 412.9 313.2 409.7 313.3C 404.4 313.5 403.6 313.2 401.4 310.6L 398.9 307.8L 402.3 304.6C 408.4 299 407.9 290.6 401 279.7L 398.1 275.1L 400.7 273.4C 404.7 270.8 407.8 270.2 416.3 270.1C 422.6 270 424.9 270.4 428.8 272.4zM 229.2 273.2C 235.7 275.6 245.2 312.1 243.5 327.9C 242.6 336.1 240.9 344.1 239.3 347.2C 238.6 348.7 238 350.7 238 351.7C 238 354.1 231.3 364 229.7 364C 229 364 227.7 364.9 226.8 365.9C 220.8 372.9 193.4 366.6 183.1 355.9C 176.7 349.4 176.4 347.5 179.4 336.8C 184.9 317.1 187.4 295.8 185.4 284.9C 183.6 275.3 185 274.3 202.4 272.5C 215.1 271.2 224.6 271.5 229.2 273.2zM 282.3 277.3C 285.3 279.3 292.3 285.2 297.9 290.6C 306.1 298.5 307.9 300.7 307.4 302.4C 305.5 309.1 301.4 318 298.8 321.3C 294.8 326.4 296.2 328.1 301.8 325C 304.8 323.3 306.4 321.4 308.3 317.1C 309.7 314 311.2 310.5 311.5 309.2C 311.9 308 312.4 307 312.8 307C 314.7 307.1 326.1 327.5 329.1 336.3L 330.4 340L 325.3 344.9C 320.3 349.7 312 364.3 312 368.3C 312 371.7 315.1 369.8 318.6 364.2C 320.6 361.1 322.9 357.4 323.7 356.2C 325.9 352.6 326.2 354.1 324.3 359.2C 323.4 361.7 323 364.5 323.3 365.4C 324.6 368.8 326.9 366.7 331 358.2C 334.4 351.3 336.8 348.1 342.7 342.4C 346.7 338.4 351.5 334.7 353.3 334C 355 333.2 357.3 332 358.2 331.2C 360.5 329.2 361.7 330.3 362.4 335.2C 363.3 341.2 368.1 349.1 375 356C 382.1 363.1 389.6 367.6 397 369.1C 404.8 370.7 405.2 370.9 404.4 372.2C 404 372.8 403.6 374.6 403.5 376.1C 403.1 380.5 397.6 388.2 392.5 391.3C 388.3 394 387.2 394.2 378.6 394.1C 371.8 394.1 367.6 393.5 363.4 392C 360.2 390.9 357.2 390 356.8 390C 354.9 390 356.3 391.9 360 394.5C 363.9 397.2 375 399.9 383 400L 386.5 400.1L 381.5 404.6C 375.3 410.2 361.5 419.4 354.6 422.6C 351.8 423.8 345.5 425.8 340.5 426.9C 332.2 428.7 331.3 428.8 329 427.3C 321.6 422.7 318.1 417.3 316.1 407.5C 314.4 399.5 313.2 396.8 311.7 397.2C 307.1 398.8 312.6 420.9 319.2 427L 321.4 429L 318 429C 313.9 429 303.4 425.5 300.3 423.2C 298.6 421.9 297.5 419.2 295.9 411.5C 294.8 406 293.7 401.4 293.5 401.2C 293.3 401 294.3 398.4 295.7 395.4C 301 383.7 299.4 361 292.1 346.4C 288 338.1 287.6 335.8 289.1 330C 291.1 322.2 289.1 308.8 284.6 299.6C 281.5 293.3 276 284.3 270.6 276.7C 269.6 275.2 269 273.3 269.4 272.5C 269.9 271.1 270.4 271.1 273.4 272.4C 275.3 273.2 279.3 275.4 282.3 277.3zM 273.5 290.1C 283 306.5 284.3 313.4 281.8 332.2L 280.6 341.1L 283.2 343.3C 288.6 347.9 293.8 367.9 292.6 379C 292 384.3 289.6 392.9 286.9 399.7C 285.7 402.6 285.8 403.1 287.3 404.2C 289.9 406.2 293.3 423.7 293.4 435.5C 293.4 445.3 290.9 459.3 287.7 466.8C 286.5 469.7 274.1 481.7 266.6 487.1C 254.7 495.8 219.5 504.3 183.5 507.1C 169.8 508.1 164.6 508.1 147.3 506.7C 136.3 505.8 122.8 504.1 117.3 502.9C 105.1 500.3 76.1 491.1 69.4 487.7C 58.3 482 51.4 472.6 50.3 461.6C 49.7 455.7 50.3 455 54.1 457C 55.1 457.6 60.1 459.1 65.2 460.4C 70.3 461.7 75.6 463.2 77 463.8C 78.4 464.3 85.8 465.3 93.5 466C 107.1 467.2 112.5 468.7 117 472.5C 120.2 475.2 140 482.6 147.7 484C 153.5 485 169.6 483.7 174.5 481.8C 185.7 477.5 189.4 475.1 193.1 469.2C 196.3 464.2 196.6 461.7 194.8 455.9C 193.4 451.1 183.8 441 177.9 437.9C 173.7 435.8 173.7 435.8 175.7 434.1C 176.9 433.2 178.5 430.8 179.3 428.8C 180.8 425.2 181 425.1 184.7 425.8C 189.5 426.7 200.4 426.7 205 425.8C 208.5 425.2 208.7 425.3 210.8 429.9C 216.1 441.6 218.2 459.6 215.6 472.9C 213.9 481.7 214.1 483.1 216.7 481.4C 219.6 479.6 222.2 470.9 222.6 461C 223 452.9 222.7 449.8 220.2 440C 218.3 432.1 217.7 428.3 218.4 427.8C 219 427.4 221.6 427 224.2 427C 236 427 263.3 417.7 264.8 413.2C 265.4 411.2 262 411.8 250.9 415.5C 238.9 419.6 228.6 422 222.9 422C 219 422 218.1 421.3 220 419.4C 220.5 418.9 222.1 415.2 223.5 411.2C 225.7 404.9 226 402.9 225.4 396.2C 224.8 388.4 222.6 378 220.9 374.8C 220.1 373.2 220.4 373 223.2 373C 225 373 228.2 372.1 230.3 371C 232.3 369.9 234.8 369 235.7 369C 237.9 369 257.3 362.2 265 358.8C 270.4 356.4 273.8 353.5 272.7 352.4C 272.4 352 265.5 353.9 257.5 356.5C 249.5 359.1 242.6 361 242.3 360.6C 241.7 360.1 244.1 351 246.2 346C 249.1 338.9 250.5 319.4 248.5 313.3C 248.3 312.6 249 311.8 250 311.5C 254.8 310 268 289.7 268 283.8C 268 282.8 268.2 282 268.4 282C 268.6 282 270.9 285.6 273.5 290.1zM 373.5 330.1C 378.6 335.3 384.1 339.1 392.7 343.4C 399.4 346.7 402.3 347.8 410.8 350C 413.1 350.6 415 351.7 415 352.4C 415 355.5 410.7 363.8 408.9 364.3C 406.2 365 394.4 362.3 389.3 359.8C 386.9 358.7 381.9 354.8 378.2 351.1C 370.3 343.6 366.4 335.6 367.6 329.4C 367.9 327.5 368.5 326 368.9 326C 369.3 326 371.4 327.8 373.5 330.1zM 120.7 412.3C 122.1 413.6 121.8 414.2 118.3 417.6C 105.7 430.1 101 440 99.8001 457L 99.5001 460.5L 93.7001 460.8C 88.6001 461.1 87.7001 460.8 85.5001 458.4C 83.4001 456.2 83.0001 454.7 83.0001 449.9C 83.0001 435.6 90.3001 423.5 105 413.5C 109.8 410.3 111.1 409.9 114.9 410.3C 117.2 410.6 119.9 411.5 120.7 412.3zM 155.5 416C 163.7 417.2 167.6 418.6 170.8 421.3C 173.6 423.9 173.6 426.1 170.5 429.4C 167.5 432.6 166.8 432.6 160.2 429.3C 156.5 427.4 154.6 427 153.9 427.7C 151.4 430.2 154.2 432.8 165.3 438.3C 181.4 446.3 190 454.4 190 461.7C 190 464 189 465.3 184.8 468.3C 170.8 478.2 156.8 481.3 143.9 477.4C 135.4 474.8 123.9 470.2 119.5 467.5C 117.3 466.2 113.8 464.2 111.7 463C 106.4 460.1 105.5 457.6 106.9 449.9C 108.6 439.8 112.3 433.5 121.7 424.3C 130 416.2 130.2 416.1 135.8 415.7C 147 415 148.6 415.1 155.5 416zM 377.4 420.8C 378.2 422.3 379.6 426.5 380.5 430C 382.8 439 386.5 445.4 391.3 448.7C 394.9 451.2 395.1 451.5 393.1 451.8C 391.9 452 389 451 386.5 449.6C 382.1 447 379 446.3 379 447.9C 379 450 381.5 455.9 384.1 459.7C 385.7 462.1 386.7 464 386.4 464C 385.3 464 378.3 459.1 376.3 456.9C 373.6 453.9 370.5 446 369.6 439.7C 369.2 437.1 368 432.4 366.9 429.3C 364.8 423 364.4 423.8 371.4 419.7C 375.4 417.5 375.7 417.5 377.4 420.8zM 278.2 501.2C 277.9 516.2 276.6 531.8 273.9 551C 271.3 570 269 597.7 269 611.5C 268.9 624.1 268 629.5 265.3 631.6C 261.6 634.5 249 640 241.4 642C 226.2 646 206.9 644.3 203.8 638.6C 203.1 637.4 202.5 630.9 202.3 622.5C 202.1 609.7 199.3 551.7 198.7 547.9C 198.5 546.2 219.4 522 221.2 522C 222.9 522 221.6 517.5 219.7 517.2C 216.7 516.6 199.4 533.1 195.2 540.6C 194.4 542.1 194.1 542.1 192.1 540.1C 189.4 537.4 188.1 537.4 187.6 540.2C 187.4 541.5 186.2 554 185 568C 183.9 582 182.2 602 181.3 612.3L 179.6 631.1L 174.1 637.2C 170.3 641.4 166.8 644.1 163.1 645.7C 150.6 651.2 125.1 652.8 112.4 648.9C 101.4 645.5 93.4001 640.8 91.2001 636.5C 89.2001 632.5 88.7001 622.8 89.1001 593C 89.7001 543.7 89.5001 538.5 85.6001 502.7C 85.5001 501.2 85.7001 500 86.1001 500C 86.5001 500 90.4001 501.1 94.7001 502.5C 107.9 506.6 123 509.9 135 511.2C 152.5 513.2 192 512.8 205.5 510.6C 236.2 505.7 254.5 500.6 270.5 492.6C 274.4 490.7 277.7 489.1 278 489.1C 278.3 489 278.4 494.5 278.2 501.2zM 273.8 648C 273.3 652.1 272.5 656.7 271.9 658.3C 268.7 666.1 255.5 671.7 233.5 674.5C 216.2 676.8 209.4 676.5 202.9 673.2L 197.5 670.5L 197.2 663.5C 196.8 656 198.6 643 200 643C 200.5 643 201.2 643.5 201.5 644C 201.9 644.6 204 646 206.3 647.3C 210.1 649.3 211.9 649.5 225.5 649.5C 239.1 649.4 241.3 649.2 249 646.7C 258.2 643.7 267 639.7 271 636.7L 273.5 634.8L 274 637.7C 274.3 639.2 274.2 643.9 273.8 648zM 89.2001 641.6C 92.0001 644.6 96.0001 647.4 101.4 649.9C 113.6 655.7 119.2 657 132.2 657C 151.8 657 168.7 652.6 177.5 645.3C 181.1 642.2 181.5 643.1 180 651.7C 179.4 655.5 178.6 660.4 178.3 662.7C 177.8 666.8 177.7 666.9 168.6 671.4C 155.5 677.9 145.5 680.2 130.1 680.2C 115.8 680.3 107.6 678.6 96.5001 673.6C 92.5001 671.7 88.3001 668.9 86.7001 667.1C 84.1001 663.9 84.0001 663.6 84.0001 650.4C 84.0001 643 84.2001 637 84.5001 637C 84.7001 637 86.8001 639.1 89.2001 641.6zM 265.1 677.6C 269.2 682.1 280.9 689.4 297 697.6C 308.8 703.6 313.9 706.8 318.3 711C 323.4 716 324 717 324 720.5C 323.9 727.2 320.4 730 308.6 732.5C 294.3 735.7 272.5 733.7 254.5 727.8C 248 725.6 246.7 725.5 231 726.5C 222.5 727 218.9 726.8 211.7 725.2C 198.1 722.1 195.6 719.4 197.7 710.1C 198.9 704.6 204 690.9 206.7 685.7L 208.6 681.9L 220 681.6C 233.8 681.2 246.5 679.4 254 677C 261.4 674.5 262.3 674.6 265.1 677.6zM 120.8 685.4C 128.1 686.1 135.1 686.6 136.3 686.4C 150.9 684.2 161.3 683 161.8 683.5C 162.1 683.8 162.9 690.7 163.5 698.8C 165.8 727.9 162.1 739.7 148.8 746.2C 138.6 751.1 123.5 752.4 108.7 749.6C 88.2001 745.6 82.2001 736.3 88.8001 718.5C 90.5001 714.1 94.0001 705.1 96.8001 698.5C 99.5001 691.9 102 685.7 102.4 684.6C 102.9 683.2 103.6 682.9 105.3 683.5C 106.5 683.9 113.5 684.7 120.8 685.4z"/>
<path style="stroke:none; fill:#000000" d="M 390.7 80.4C 388 81.2 382.6 84.1 378.5 86.8C 374.4 89.6 370.5 92 369.8 92.3C 368.8 92.6 368.8 93 369.6 94C 370.4 94.7 373 95.1 376.8 94.8C 382.3 94.5 382.7 94.7 381.9 96.2C 381.4 97.2 379.6 99 377.9 100.2C 375.3 102.2 375.1 102.6 376.5 103.6C 378.8 105.3 384.6 103.7 395.4 98.5001C 400.5 96.0001 405.7 94.0001 407 94.0001C 408.4 94.0001 411.5 95.1 413.9 96.5001C 418.4 99.1 422 99.7001 422 98.0001C 422 97.4001 421.4 96.7001 420.6 96.4001C 419.8 96.1001 417.9 93.4001 416.4 90.4001C 412.6 82.9001 408.1 79.7001 401.1 79.3001C 398 79.2001 393.3 79.7 390.7 80.4zM 408.2 85.6C 413.7 90.9 413.5 91.5 406.6 91.5C 401.3 91.5 399.3 92.1 393.2 95.3C 389.2 97.3 386 98.7 386 98.4C 386 97.9999 387.6 95.7 389.6 93.3C 392.5 89.8 392.9 88.9 391.6 88.4C 390.7 88.1 388.1 88.4999 385.9 89.4C 380.7 91.4999 379.9 90.9 384 87.9999C 393.1 81.4999 402.8 80.6 408.2 85.6z"/>
<path style="stroke:none; fill:#000000" d="M 421 79.6C 421 80 422.1 81.3 423.4 82.5C 425.1 84 426 86.3 426.5 90.1C 427.6 98.8 430.2 103.5 435.6 107C 438.2 108.6 441.4 110 442.7 110C 444.7 110 445 109.5 445 105.7C 445 97.6 438.4 87.1 430.1 81.8C 426 79.3 421 78 421 79.6zM 433.7 89.3C 436.3 92.6 441.5 103.9 440.8 104.6C 439.7 105.7 436 103.9 434.4 101.5C 432.6 98.8 429.9 87 431.1 87C 431.5 87 432.7 88 433.7 89.3z"/>
<path style="stroke:none; fill:#000000" d="M 357.4 107.7C 355.8 109.8 351.7 114.5 348.4 118.1C 345 121.7 341.8 125.5 341.2 126.6C 340.3 128.3 339.5 136.2 339.9 139.7C 340.1 142 342.5 141.1 344.3 138C 347.5 132.7 348.3 134.3 347.8 144.2C 347.4 151 346.4 155.9 344.1 162.4C 340.5 172.7 340.3 174.3 342.7 173.8C 346.7 173 357.9 154.6 360.6 144.2C 361.8 139.8 362 135.7 361.5 126C 360.9 115.9 361.1 112.7 362.3 109.8C 363.4 107.2 363.5 105.9 362.7 105.1C 361.1 103.5 360.6 103.7 357.4 107.7zM 356.6 142.5C 355.7 146.3 353.8 151.3 352.4 153.5C 350.7 156.2 350.1 156.7 350.6 155C 351 153.6 351.4 147 351.5 140.3C 351.6 127 350.9 125.3 346.9 129.6C 343.8 132.9 342.9 132.6 344.2 128.9C 344.8 127.2 347.8 123.4 350.9 120.3L 356.5 114.8L 357.4 125.2C 358.1 133.5 357.9 136.8 356.6 142.5z"/>
<path style="stroke:none; fill:#000000" d="M 458.5 119.7C 459.6 122.4 460.3 130.7 459.6 132.6C 459 134.1 458.8 134.1 457.7 132.8C 451.9 125.5 443.7 121.7 445.9 127.2C 446.4 128.5 448 133.3 449.5 138C 450.9 142.7 453.6 149.1 455.6 152.2C 458.2 156.6 459.5 160.3 460.9 168L 462.8 178.2L 459.1 174.6C 457.1 172.6 454.6 171 453.6 171C 452 171 451.8 171.6 452.5 176.7C 454 189.6 461.5 204.3 469 209.5C 471.2 211.1 474.5 214.5 476.2 217.2C 478.1 220.2 480 222 480.9 221.8C 482.7 221.4 482.7 221.2 481.6 210.8C 481 204.8 481.2 201 482.5 194.3C 485 181.5 485.7 176.4 486.4 167.7C 487 160.2 486.9 160 484.7 160C 482.9 160 481.8 161.2 479.7 165.6C 478.2 168.6 476.5 170.8 476 170.5C 475.4 170.2 475.1 163.4 475.3 154.2C 475.5 139.4 475.4 138.3 473.1 134C 469.5 127.2 461.8 118 459.6 118C 458.3 118 458 118.4 458.5 119.7zM 468.1 133.1C 471 138.9 471.9 146 470.8 155.4C 469.6 165.7 472.1 180.5 475.2 181.4C 476.6 181.7 477.4 181.1 478.1 179.2C 478.6 177.7 479.4 175.6 479.9 174.5C 481.6 170.8 481.1 178.1 479 188.5C 477.9 193.8 477 201.2 477 204.7L 477 211.3L 472.8 207.8C 467.3 203.3 463.7 198.1 460.4 189.9C 456.7 180.6 457.3 178.9 462.7 183.4C 464.9 185.4 467.8 187 468.9 187C 471.5 187 471.5 187 469.1 182.3C 468 180.2 466.4 174 465.5 168.5C 464.1 160.4 463.1 157.3 460 152C 456.4 146 451.5 133.1 452.5 132.2C 452.7 131.9 454.2 133.8 455.7 136.3C 460.4 144 462.1 143.7 464 135C 464.7 131.7 465.4 129 465.6 129C 465.8 129 466.9 130.9 468.1 133.1z"/>
<path style="stroke:none; fill:#000000" d="M 354 176.1C 354 176.7 351.5 181.5 348.4 186.6C 343.2 195.3 339.4 205.3 340.6 207.2C 341.4 208.5 344.2 208.1 346.2 206.3C 347.9 204.8 348 204.8 348 206.6C 348 207.6 347.4 210.7 346.7 213.5C 345.3 218.9 345.1 229.7 346.4 231.8C 347.5 233.5 349.6 231.8 350.4 228.4C 350.8 227 353.3 221.9 356 217.2C 361.4 207.5 363.5 201.2 362.6 196.6C 361.6 191 357.6 177.5 356.7 176.2C 355.5 174.7 354 174.6 354 176.1zM 357.4 190.7C 358.9 197.3 359 199.2 358 203C 356.9 207.2 350.1 220.5 349.5 219.8C 349.3 219.6 350.2 215 351.6 209.5C 352.9 204 354 198.9 354 198.2C 354 195.6 350.9 195.8 347.9 198.6C 346.3 200.1 345 201 345 200.5C 345 199.2 354.4 183 355.1 183C 355.4 183 356.5 186.5 357.4 190.7z"/>
<path style="stroke:none; fill:#000000" d="M 357.6 231.2C 351.4 249.4 350.9 252.8 353.6 260.5C 354.4 263 354.8 265.9 354.5 266.9C 354.2 267.9 354.6 269.3 355.5 270C 356.9 271.2 357.5 270.9 359.5 268.4C 360.9 266.8 361.9 265.1 362 264.6C 362 264.1 362.7 262.9 363.6 261.9C 364.7 260.7 365.3 257.6 365.6 252.3C 366 245.5 365.7 243.6 363.3 237.6C 360.6 230.8 358.5 228.5 357.6 231.2zM 361.5 249.3C 361.4 255.4 361 258.2 359.8 259.9L 358.1 262.3L 357 259.6C 355.5 255.6 355.8 250 357.7 244.1C 360 236.9 361.5 239 361.5 249.3z"/>
<path style="stroke:none; fill:#000000" d="M 482 248.3C 482 249.1 483.8 252.5 486.1 256C 491.4 264.2 495 274 495 280.1L 495 285L 490.3 281.6C 484.6 277.6 479 275.6 477.7 276.9C 475.9 278.7 481 286.3 490 295.5C 495.6 301.2 499.7 306.3 501 309.2C 503.8 315.7 507 315.4 507 308.6C 507 307.3 508.5 301.4 510.4 295.4C 515.7 278.6 517 272.8 517 265.6C 517 260.3 516.7 258.9 515.2 258.1C 513.1 257 511 258.4 511 260.7C 511 261.5 509.9 264.3 508.5 267.1L 505.9 272.1L 503.6 267.7C 499.1 259.3 496.2 255.3 491.5 251.2C 486.8 247.1 482 245.6 482 248.3zM 495.6 261.8C 497.6 264.9 500.1 270.1 501.2 273.5C 503 279 504.3 280.9 506.2 281C 506.6 281 507.9 278.7 509.1 276C 510.3 273.2 511.6 271 512.1 271C 512.9 271 508.7 287.7 507.1 290.8C 506.7 291.7 505.7 294.9 505 297.7C 504.4 300.6 503.6 303 503.4 303C 502.5 303 486.1 286.2 484.4 283.6L 482.6 280.7L 484.9 281.9C 486.1 282.6 488.9 284.7 491 286.6C 493 288.5 495.5 290 496.3 290C 498.5 290 500.4 282.7 499.6 277.8C 498.8 272.9 494.3 261.4 491.6 257.6C 490.5 256 490.2 255 490.8 255.4C 491.5 255.8 493.6 258.7 495.6 261.8z"/>
<path style="stroke:none; fill:#000000" d="M 351.4 281.7C 349.8 285.3 348.1 297.7 348.8 299.9C 349.9 303.1 357 298.7 359 293.5C 360.6 289.3 360.2 284 357.9 280.9C 355.2 277 353.2 277.2 351.4 281.7zM 355.4 291C 353.2 296.4 352.1 296 353.1 290.2C 354.4 283.1 355 282.1 356.1 284.8C 356.7 286.3 356.5 288.3 355.4 291z"/>
<path style="stroke:none; fill:#000000" d="M 519.8 299.7C 519.4 305.3 518.5 308 515.2 314C 510.9 322 509 329.1 509 336.9C 509 345 510.8 345.1 518 337.3C 526.4 328.2 529 322.5 528.9 313.5C 528.9 308.3 528.2 304.8 526.2 300C 522.4 291 520.4 290.9 519.8 299.7zM 525 312.6C 525 319.5 522.2 326 516.4 332.5L 512.9 336.5L 513.5 331C 513.8 327.6 515.6 322.4 518 317.5C 520.1 313 522.2 308.1 522.6 306.6C 523.7 302.3 525 305.5 525 312.6z"/>
<path style="stroke:none; fill:#000000" d="M 488.6 325.3C 488.4 325.9 487.7 329.9 487 334C 486.3 338.1 484.9 344.7 483.9 348.7C 481.8 357.3 482 363.4 485 371.5C 486.2 374.8 487.7 379.3 488.3 381.5C 490.4 388.8 492.8 388.3 497.1 379.7C 500.8 372.5 502.9 363.3 502.4 356.7C 501.4 343.4 490.5 318.7 488.6 325.3zM 495 343C 497.6 352.3 498.4 360.2 497.1 366.4C 496.4 369.7 495.1 373.8 494.2 375.5L 492.7 378.5L 490.3 373.4C 486.8 365.7 486.4 358.1 488.9 347.9C 490.1 343.1 491 338.4 491 337.4C 491.1 335.6 491.1 335.6 492.5 337.5C 493.4 338.5 494.5 341 495 343z"/>
<path style="stroke:none; fill:#000000" d="M 519.4 356.2C 518.5 358 515.5 362.6 512.7 366.5C 506.9 374.6 504.5 380.3 503.8 387.8C 503.2 394.3 504.4 395.2 509.4 392C 513.8 389.4 517.8 384.1 521 377.1C 523.1 372.6 523.5 370.1 523.5 362.7C 523.5 352.7 522.2 350.7 519.4 356.2zM 517 375.3C 515.2 379.4 512.5 384.1 510.9 385.6L 508 388.4L 508 385.2C 508 380.8 510.1 376.1 515.2 368.8C 519.1 363.2 519.5 362.9 519.8 365.2C 520 366.6 518.7 371.2 517 375.3z"/>
<path style="stroke:none; fill:#000000" d="M 475.1 386.4C 471.7 390.5 468.1 405.5 468 415.8C 468 422.7 467.6 425 465.4 429.3C 463 434.1 454.5 444 452.8 444C 452.4 444 452.7 441.9 453.4 439.2C 454.2 436.6 455.1 433 455.4 431.2C 457.3 420.7 444 432.9 435.1 449.8C 429.3 460.8 422.4 468.3 414.8 471.8C 412.7 472.7 411 473.9 411 474.3C 410.9 477.2 424 475.5 432.3 471.5C 435.1 470.1 437.5 469.2 437.7 469.4C 438.4 470.1 435 477.3 432.5 480.6C 431.2 482.3 428 485.1 425.5 486.6C 423 488.2 421 489.8 421 490.2C 421 491.6 426.5 491.1 428.6 489.6C 430.6 488.1 445.2 481.6 454.5 477.9C 465 473.8 484.4 457.1 482.4 453.9C 481.6 452.5 478.8 452.8 475.5 454.8C 472.6 456.6 461 461.3 461 460.7C 461 460.5 461.9 458.6 462.9 456.4C 465.5 451.2 474.6 441.8 484.5 434.3C 494.3 426.9 499.4 421.7 501.6 417C 502.5 415.1 504.3 411.3 505.7 408.6C 507.8 404.2 507.9 403.5 506.5 402.1C 505.2 400.7 504.6 400.9 501.3 404.1C 497.6 407.6 483 415.5 483 414.1C 483 412.3 480 390.8 479.4 388.6C 478.7 385.7 476.6 384.6 475.1 386.4zM 477.5 411.5C 477.5 425.9 478.4 427.4 483.5 421.6C 486.7 417.9 493 413.6 496.8 412.5C 499.1 411.8 499.1 411.8 497.5 415C 494.9 420.1 489.1 425.8 478.3 434.2C 467.8 442.3 462 448.2 459.3 453.5C 458.4 455.1 456.2 458.4 454.4 460.7C 451.3 464.4 451.2 465 452.6 465.8C 453.8 466.5 456.5 466 461.4 464.4C 465.3 463 469.2 462.1 470 462.2C 472.4 462.7 457.4 473 450 476.1C 446.2 477.6 442.2 479.4 441.1 480C 438.4 481.4 438.4 480.8 441.9 472.5C 443.5 468.6 445 464.3 445.4 462.7C 446.4 458.3 443.6 458.2 439 462.4C 435.1 465.9 425.2 471.5 424.4 470.7C 424.1 470.5 425.2 469.5 426.6 468.5C 431.3 465.5 433.7 462.2 440.1 450.5C 443.5 444.2 447.1 438.3 448.1 437.4C 450 435.7 450 435.8 448.5 440.1C 447.6 442.5 446.2 445.5 445.4 446.8C 443.7 449.4 444.3 451 446.9 451C 449.5 451 460.1 444.3 463.3 440.7C 464.8 438.9 467.4 434.9 469 431.8C 471.5 427.1 472.1 424.5 472.5 417.2C 472.8 412.4 473.4 406 474 403.1C 474.5 400.1 475 397.5 475 397.2C 475 396.9 475.6 397.2 476.3 397.8C 477.1 398.7 477.5 402.9 477.5 411.5z"/>
<path style="stroke:none; fill:#000000" d="M 176.2 119C 165.6 120.6 156.2 127.1 154.5 134.2C 153.4 138.4 155.5 137.7 162.1 131.5C 168.3 125.8 172.3 124.1 180.5 123.8C 186.1 123.5 188.4 121.5 185.5 119.4C 184.5 118.6 183.1 118.1 182.6 118.1C 182 118.2 179.1 118.6 176.2 119z"/>
<path style="stroke:none; fill:#000000" d="M 243.1 124.2C 239 126.2 234.6 131.5 235.6 133.1C 235.9 133.6 238.1 132.4 240.6 130.5C 243.9 127.9 246.3 127 249.3 126.8C 251.6 126.7 254.4 126.6 255.5 126.5C 256.6 126.4 258.2 126.7 259.1 127.1C 259.9 127.5 261.3 127.4 262.1 126.9C 263.3 126.1 263.1 125.6 261.1 124C 257.8 121.2 249 121.3 243.1 124.2z"/>
<path style="stroke:none; fill:#000000" d="M 178.9 136.1C 173.3 137 167.2 140.8 164 145.2C 161.2 149 160.2 152 161.7 152C 162 152 164.7 149.8 167.5 147.1C 173.6 141.4 181.4 138.5 188.6 139.3C 191 139.5 193 139.4 193 139C 193 136.5 185.6 134.9 178.9 136.1z"/>
<path style="stroke:none; fill:#000000" d="M 256.5 136C 250.7 137 247.9 138.4 244.2 141.8C 241.7 144.1 241 145.6 241 148.4C 241 153 242 153 244.5 148.3C 247 143.7 254.4 140 261.3 140C 264.8 140 266 139.6 266 138.5C 266 137.3 261.6 134.5 260.7 135.1C 260.6 135.2 258.7 135.6 256.5 136z"/>
<path style="stroke:none; fill:#000000" d="M 252.3 149.1C 247.3 152.3 245 158.2 245 167.8C 245 175.9 245 175.9 248.8 180C 252 183.3 253.3 184 256.5 184C 259.8 184 261 183.3 265 179.2C 269.9 174.1 271 171.2 271 163.2C 271 157.3 267.3 150.8 262.6 148.6C 258.2 146.5 256.2 146.6 252.3 149.1zM 258 156.9C 258 160.5 254.4 163.6 252.3 161.8C 250.7 160.5 250.7 159.9 252 156.6C 252.7 154.7 253.7 154 255.5 154C 257.6 154 258 154.5 258 156.9zM 256.5 169.9C 256.5 172.8 253.6 175 251.9 173.3C 251.2 172.6 251 171 251.4 169.5C 252.3 166 256.5 166.3 256.5 169.9z"/>
<path style="stroke:none; fill:#000000" d="M 170.8 153C 166.5 156.3 163.8 163.5 163.7 171.5C 163.6 182.7 168.1 188.9 176.9 189.8C 180.9 190.1 182.6 189.8 185.5 188C 189.7 185.4 193.4 180 194.9 174.2C 197.1 166.4 192.8 156 186 152.5C 181.8 150.3 173.8 150.6 170.8 153zM 177.8 158.5C 178.2 161.1 174.5 165.1 172.5 164.4C 170.5 163.6 170.6 160.1 172.7 157.8C 174.8 155.5 177.4 155.9 177.8 158.5zM 177.8 172.1C 178 173.5 177.2 175.7 176.1 177.1C 174.5 179.1 173.8 179.3 172.3 178.4C 168.2 175.9 170.2 168.7 174.8 169.2C 176.9 169.4 177.6 170.1 177.8 172.1z"/>
<path style="stroke:none; fill:#000000" d="M 69.8 178.1C 64.5 180.8 65.1 182 71.3 181.3C 76.4 180.8 76.7 180.9 79.5 184.1L 82.3 187.5L 78.7 188.1C 71 189.3 67.1 194 68.9 200C 70.9 206.9 79.6 208.2 85.7 202.7C 88.8 199.8 89.4 198.6 89.8 193.8C 90.3 187.2 87.9 182.7 81.6 178.6C 76.9 175.5 74.8 175.4 69.8 178.1zM 83 195.4C 83 197.3 82.2 199.8 81.1 201.1C 79.5 203.2 78.9 203.3 76.6 202.2C 74.7 201.3 74 200.3 74 198.1C 74 194.7 75.4 193.3 79.5 192.7C 81.2 192.5 82.6 192.2 82.8 192.1C 82.9 192.1 83 193.5 83 195.4z"/>
<path style="stroke:none; fill:#000000" d="M 235.7 187.4C 234.2 188.8 233 190.6 233 191.5C 233 193.6 236.4 193.4 238.5 191C 243 186 249.4 190.3 246.4 196.2C 244.5 199.9 241.5 201.3 237.4 200.5C 233.2 199.8 232.8 201.6 236.7 203.1C 240.8 204.6 246.7 204.4 249.3 202.7C 252.7 200.5 254.6 195.5 253.2 192.6C 252.2 190.3 252.3 190.3 256.6 190.8C 261.4 191.3 267 189.5 267 187.4C 267 185.3 265.4 184.9 262 186.4C 259.7 187.3 257.7 187.5 255.1 186.8C 253.1 186.3 248.6 185.7 245 185.4C 239 184.9 238.2 185.1 235.7 187.4z"/>
<path style="stroke:none; fill:#000000" d="M 163 191.3C 163 193.5 168.9 196.1 175.8 196.9C 182.7 197.7 188 196.6 188 194.3C 188 193 187.2 192.8 183.4 193.3C 179.2 193.7 169.2 192.2 164.8 190.5C 163.5 190 163 190.3 163 191.3z"/>
<path style="stroke:none; fill:#000000" d="M 174.8 214.9C 173.4 216 169.8 218 166.6 219.4C 163.1 221 161 222.5 161.2 223.2C 161.9 225.1 166.8 225.4 169.4 223.7C 171.4 222.3 172.5 222.4 180.1 224.7C 188.2 227.1 189.2 227.2 207.5 226.6C 227.1 225.9 230.9 225.5 244.5 222.5C 254.5 220.4 259 218.5 259 216.6C 259 214.1 257.2 213.8 252.7 215.4C 236 221.6 198 224.9 182.9 221.4C 176.3 219.9 176 219.7 177.4 218.1C 180.7 214.5 178.6 212 174.8 214.9z"/>
<path style="stroke:none; fill:#000000" d="M 413 161.1C 413 166.6 415.6 170.6 420.2 172.5C 424.5 174.2 433 174.5 433 173C 433 172.4 432.6 172 432.2 172C 431.7 172 430.7 170.8 429.9 169.4C 429.2 168 426.7 165.5 424.5 164C 422.3 162.5 419.4 160.3 418.1 159.1C 414.4 155.9 413 156.4 413 161.1zM 423.6 167.5C 427 170.5 427.2 170.9 425.3 171C 421.8 171 420 169.9 418.4 166.9C 416.3 162.8 418.6 163 423.6 167.5z"/>
<path style="stroke:none; fill:#000000" d="M 523.2 180.7C 522.6 182.8 521 187.2 519.6 190.5C 516.8 197.1 516.5 199.7 518.1 205.2C 518.8 207.9 519.6 209 521 209C 522.1 209 523 208.6 523 208.1C 523 207.5 524.8 205.1 527 202.6C 532.2 196.5 532.8 193 529.9 184.1C 527.2 175.8 524.9 174.6 523.2 180.7zM 527.2 189.3C 527.9 193 526.2 197.4 522.9 200.5L 519.7 203.5L 520.2 199C 520.7 194.7 524.4 187 526 187C 526.4 187 527 188 527.2 189.3z"/>
<path style="stroke:none; fill:#000000" d="M 547 251.2C 547 252.5 545.9 257 544.5 261.3C 543.1 265.6 542 270.4 542 272C 542 276.4 544.2 284 545.5 284C 546.7 284 551.9 278 553.9 274.2C 555.9 270.4 555.4 263.6 552.5 256.1C 549.9 249.1 547 246.6 547 251.2zM 551 265.2C 551 269.2 547.5 277 545.7 277C 544.3 277 545.7 267.6 547.7 263.5C 549.7 259.2 551 259.9 551 265.2z"/>
<path style="stroke:none; fill:#000000" d="M 439 522.8C 437.6 523 434 524.2 431 525.5C 428 526.8 424.7 528.1 423.8 528.4C 422.8 528.7 422 529.4 422 529.9C 422 531.2 437.6 536 441.7 536C 445.8 536 455.4 532.4 461 528.7C 466.8 524.8 466.5 525.1 465.4 524.1C 464.4 523.2 443.2 522.1 439 522.8zM 454.6 527.3C 455.4 528.1 449.3 530.6 442.9 532C 438.3 533 436.9 532.9 433.5 531.5C 430.3 530.1 429.9 529.6 431.2 528.9C 436.3 526.1 452.3 525 454.6 527.3z"/>
</g>
</g>
</svg>