<?xml version="1.0" encoding="UTF-8" standalone="yes"?>
<!-- Created with sK1/UniConvertor (http://sk1project.org/) -->
<svg xmlns="http://www.w3.org/2000/svg" xmlns:xlink="http://www.w3.org/1999/xlink"
  width="536pt" height="732pt" viewBox="0 0 536 732"
  fill-rule="evenodd">
<g>
<g>
<path style="stroke:none; fill:#000000" d="M 273.7 7C 272.8 7.59998 265.2 10.6 257 13.6C 248.7 16.6 235.1 21.5 226.8 24.6C 218.4 27.7 206.6 31.9 200.5 34C 181.6 40.5 145.2 53.5 128.5 59.8C 119.7 63.1 107.6 67.2 101.5 69C 95.5 70.8 89 72.8 87.2 73.6C 84.1 74.9 84 75.1 85.4 77.2C 86.5 78.9999 91 98.2999 91 101.4C 91 101.7 89.7 103.4 88.1 105.2C 84.3 109.5 83.8 114.8 85.7 128C 86.9 136.3 87 139.8 86.1 144.4C 85.5 147.7 85.3 150.6 85.5 150.8C 86.4 151.8 115.5 147.9 116.7 146.7C 117.6 145.8 117.3 142.9 115.4 133.5C 114.1 126.9 112.5 118.8 111.8 115.5C 110.4 108.3 106.3 103.5 100.7 102.5C 97.2 101.8 97.1 101.6 96 96.1C 95.5 93 94.5 88.3 94 85.6C 93.4 82.9 93.2 80.5 93.5 80.2C 93.8 79.9 97 80.2 100.8 80.9C 104.5 81.6 112.2 83.1 118 84.1C 162.7 92.4 179.2 95.8 180.4 97C 181 97.6 180.6 98.7 179.4 100.1C 177.3 102.4 177.2 103.4 176.7 129.5C 176.5 138.3 175.7 150.4 174.9 156.5C 172 179.3 174.2 188.8 185.2 200.6C 194 210 211.6 220.6 227.3 225.8L 235.9 228.7L 222.7 233C 215.4 235.4 205.2 239 199.9 241.1C 184.8 247 152.3 262.5 143.1 268.2L 134.6 273.3L 131.1 269.3C 129.1 267.1 123 260.3 117.5 254.3C 112 248.3 105.9 241.2 104 238.7C 102.1 236.2 99.9 234.1 99.3 234C 97.8 234 93.1 226.8 91.9 222.7C 91.1 220 91.4 219.3 94.4 216.4C 97.8 213.1 99 209.6 99 203.1C 99 200.9 100 198.1 101.4 196C 104.1 191.9 107 184 107 180.5C 107 175.5 97.6 172.5 90.7 175.5C 88.6 176.3 84.6 179.4 81.8 182.3C 78.4 185.8 76.6 187.1 76.3 186.1C 76 185.4 73.6 182.3 70.9 179.4C 68.2 176.4 66 173.3 66 172.5C 66 169.1 60 158.2 55.8 153.8C 52.1 150 50.3 149 46.5 148.5C 43.5 148 41.5 148.1 40.7 148.9C 40.1 149.5 37.9 150 35.9 150C 33.9 150 31.7 150.7 31 151.4C 30.4 152.2 27.8 153 25.2 153.2C 21.1 153.5 20.3 153.9 18.3 157C 17.1 158.9 15.6 160.9 15 161.5C 9.5 166.5 9 167.4 9 172.2C 9 174.8 10.1 180.2 11.5 184.2C 12.9 188.1 14.7 194.7 15.5 198.8C 19.6 218.6 31.6 233.5 45.3 235.8C 48.8 236.4 49.6 237 50.3 239.7C 51.2 242.8 51 243.1 42 251.6C 36.9 256.5 30.8 263.1 28.3 266.3L 23.7 272.2L 25.5 278.8C 29.5 293.6 37.9 309.4 45.2 315.5C 48 317.9 48.1 318.2 46.6 319.9C 45.7 320.9 45 322.5 45 323.6C 45 325 43.1 326.3 38.4 328.4C 29.8 332.3 30.1 334 39.7 335.9C 47.2 337.3 48.6 339 42.4 339C 38.3 339 32.7 341.6 33.3 343.3C 33.5 344 35.6 345.2 38.1 346C 40.5 346.8 43.1 347.9 43.8 348.3C 45.5 349.4 45.3 351.1 43.6 350.4C 41.1 349.4 36 352.9 35.4 355.9C 34.8 358.6 34.6 358.7 30.4 358.2C 27 357.9 25.5 358.2 24 359.5C 21.4 361.9 21.5 362.8 24.6 366.1C 27.1 368.7 27.1 369 25.6 371.1C 24.7 372.4 24 374 24 374.8C 24 376.3 29.9 379 33.3 379C 34.9 379 36.1 379.9 36.8 381.5C 37.4 382.9 38.3 384 38.7 384C 41.6 384.1 41.9 385.8 40 390.8C 36.1 401 38 402.9 47.4 398.1C 53.4 395.1 58 394.1 58 395.9C 58 396.4 56.6 398.2 55 399.8C 51.5 403.3 51.4 404 53.8 407C 55.8 409.4 65.8 412 70.8 411.2C 72.9 410.9 74.7 411.5 76.9 413.1C 83.1 417.7 95.8 414.8 97.1 408.5C 97.6 406.1 97.8 406.4 97.9 410.5C 98 416.9 99.7 423 101.5 423.6C 102.3 423.9 104.8 422.7 107.1 420.8C 109.7 418.7 111.4 417.9 111.7 418.7C 112.4 420.5 118 427.4 119.6 428.3C 121.3 429.3 124 427.5 124 425.4C 124 423.4 130 419.3 135 418C 137.5 417.3 140.9 415.9 142.7 414.9C 146.4 412.6 147 413.2 146.4 418.5C 144.6 435.6 143.2 454.4 143.7 455.5C 143.9 456.3 143.6 465.3 143 475.7C 141.4 502.5 141.5 535.3 143.4 547.1C 144.2 552.4 144.6 557.7 144.3 558.9C 143.9 560.4 144.3 561.1 145.6 561.6C 146.7 561.9 148.2 562.5 149 562.9C 149.9 563.4 152.1 564.1 154 564.5C 155.9 564.8 162 566.2 167.5 567.6C 173 568.9 183.8 570.8 191.4 571.9C 199.1 573 205.7 574.4 206.1 575.1C 207.8 577.9 209.3 599.9 208.6 613.1L 208 626.8L 210.6 628.9C 212.1 630.1 215 631.5 217.1 632.2C 221.8 633.6 222.2 635 217.8 635C 215.7 635 211.7 636.7 207 639.5C 202.9 642 198.7 644 197.7 644C 196.7 644 193.3 645.3 190.1 647C 182.1 651 175 653.7 166 656C 156.2 658.6 143.7 662.6 140.8 664.1C 132.8 668.3 129 673.7 129 681.2C 129 685.8 129.5 687.4 131.6 690C 133.1 691.7 134.8 692.9 135.4 692.7C 136 692.4 142.3 692.6 149.3 693.1C 161.6 693.9 178.3 693.3 215.5 691C 224.9 690.4 242 689.5 253.5 689C 265.1 688.5 275.9 687.9 277.5 687.5C 279.4 687.1 278.6 687.7 275.5 689C 257.1 696.9 251 701.7 249.1 709.6C 248.2 713.5 248.3 715.3 249.3 718.3C 251.1 723.3 253 724.5 263.4 727.1C 271.3 729.1 272.8 729.2 282.3 728.1C 306 725.5 331.5 720.7 339 717.6C 349.1 713.3 365.9 707.7 377 705C 384.3 703.2 392.6 700.4 397 698.2C 403.7 694.9 404.6 694.1 405.3 691C 407 683.2 404 659 401 657C 400.6 656.7 400 654.8 399.7 652.7C 399.2 649.2 399.3 648.9 402.6 647.5C 407.4 645.5 408.9 643.8 408.6 640.4C 408.4 638.8 407.5 628.9 406.6 618.5C 405.7 608 404.5 595.9 404 591.4C 403.4 587 403 582 403 580.3L 403 577.3L 416.3 576.7C 423.5 576.3 435.8 575.7 443.5 575.4C 451.2 575 458.5 574.3 459.8 573.9C 461.1 573.4 463.7 573 465.7 573L 469.2 573L 468.6 566.2C 467.7 556.7 461.7 522.4 456.9 499.7C 454.7 489.2 452.3 476.8 451.5 472.2C 450.7 467.7 449.8 463.5 449.5 463C 449.1 462.4 448.2 456.2 447.4 449.2C 446.7 442.2 445.6 432.8 445 428.3C 444.4 423.5 444.4 419.2 444.9 417.8C 445.5 416.2 445.1 412 443.6 404.8L 441.4 394.2L 447.7 388C 456.2 379.6 459.4 374.4 463.3 363.1C 466.4 353.9 466.5 352.9 466.4 338.5C 466.3 325.1 466 322.3 463.2 311.9C 459.2 296.6 455.2 286.4 449 275.7C 446.3 270.9 444 266.7 444 266.4C 444 266.1 442.7 264.1 441.1 262.1C 439.5 260.1 438.1 257.6 437.9 256.6C 437.7 255.5 435.5 253.2 433 251.4C 424.7 245.3 415.5 239.3 411.2 237.1C 403.3 233.1 370.9 223 365.9 223C 364.4 223 362.9 222.6 362.6 222.2C 362.3 221.7 368.7 218.1 376.7 214C 391.8 206.4 399.4 201.4 407 193.9L 411.5 189.5L 420.5 189.1C 439.9 188.4 453.4 180.3 460.5 165.5C 462.8 160.6 463.2 158.3 463.3 151.3C 463.3 144 463 142.6 460.6 139C 457.6 134.5 451.4 129.6 445.8 127.3C 442.5 126 442.1 125.5 442.6 123C 443 121.5 442.8 119.4 442.2 118.4C 441.3 116.8 441.8 116.2 445.3 114.1C 450.8 110.9 463.2 105.6 475 101.4C 495.4 93.9999 510.9 88.7 519.8 85.9C 530.7 82.6 531 82.4 531 80.1C 531 77.5 529 76 525.4 76C 520.8 76 506.9 72.2 470 60.8C 452.1 55.3 434.6 49.9 431 48.8C 427.4 47.8 416.4 44.5 406.5 41.5C 396.6 38.6 384 35 378.5 33.5C 373 32.1 363.1 29.3 356.5 27.3C 349.9 25.3 342.5 23.1 340 22.4C 337.5 21.7 331.7 19.9999 327 18.6C 313.3 14.6 282.8 6.79999 279 6.39996C 277.1 6.09998 274.7 6.5 273.7 7zM 288.3 14.1C 302 17.2 330 24.8 342.5 28.7C 348.6 30.6 360.5 33.9 369 36.1C 386.4 40.6 411.8 48.3 478 69C 488.7 72.3 501.3 76.2 506 77.6C 510.7 79 514.9 80.5 515.3 80.9C 516.1 81.7 508.2 84.9 497.5 88.1C 494.2 89 489 90.7 486 91.9C 483 92.9999 475.3 95.7 469 97.9999C 462.7 100.3 453.9 103.5 449.5 105.1C 445.1 106.7 440.8 108 440 108C 439.1 108 436.7 105 434.5 101.2C 429.9 93.2 421.9 82.9 416.3 77.7999C 411.5 73.5999 398.3 67.0999 388.4 64.0999C 371.2 58.9999 335.6 51.5999 318.5 49.5999C 302.1 47.5999 294 47.5999 277 49.5999C 251.3 52.4999 232.1 57.2999 218.3 64.0999C 206.2 70.1999 199.4 74.9999 192.2 82.7999L 186.9 88.4999L 177.7 88.2999C 172.2 88.2 162.1 86.8999 152.5 85.0999C 143.7 83.2999 131.6 80.9999 125.5 79.8999C 108.8 76.8999 102.5 75.3999 103.6 74.7999C 104.1 74.4999 107.7 73.2999 111.5 71.9999C 115.4 70.7999 127.1 66.4 137.5 62.2999C 148 58.2 163.5 52.3999 172 49.4999C 201 39.4999 224.5 31.2999 237.5 26.4999C 248.6 22.4 277.9 12.2 278.8 12.0999C 279 11.9999 283.3 12.9 288.3 14.1zM 319.5 54.1C 334 55.7 365.1 62.4 386.8 68.7C 395.7 71.2 406.8 76.7999 411.9 81.4C 417 85.9999 426 99.9999 428.4 107.2C 430.9 114.7 431.3 116.9 431.1 120.7C 430.9 124.3 426.4 123.6 417.5 118.5C 406.2 112.1 383.1 103.5 368 100.2C 362.8 98.9999 353.6 96.9 347.5 95.4999C 336.4 92.9999 320.7 90.7999 300.5 88.7999C 288.2 87.7 248.8 88.3999 239.5 89.8999C 236.2 90.3999 231.5 91.1999 229 91.4999C 221.1 92.5999 210.2 94.9999 199.8 97.9999C 194.2 99.5999 189.5 100.8 189.4 100.7C 189.2 100.5 190.1 98.3999 191.3 95.9999C 192.5 93.4999 197.3 87.6999 202 82.9999C 219.4 65.4999 240.4 57.4999 281 52.5999C 285.9 51.9999 308.8 52.9 319.5 54.1zM 317 95.1C 334 97.2 352.8 101.1 353.9 102.7C 354.2 103.3 356.9 104.9 359.8 106.3C 367.7 110.3 371.4 113.5 377.2 121.4C 380.1 125.3 383 128.9 383.6 129.5C 386.4 131.9 391 140.6 391 143.6C 391 148.3 391.9 150 394.5 150C 397.1 150 398.4 148.6 399.4 145C 401.5 136.8 419.1 127.3 430.1 128.4C 436.4 129 445.6 132.7 449.7 136.4C 451.7 138.1 454.2 141.4 455.2 143.8C 460 154.7 452.3 172.1 439.2 179.7C 434.5 182.5 424.5 184.9 417.4 185C 410.7 185 403.5 182.2 399.5 177.9C 396.1 174.2 394 173 394 174.9C 394 178.1 396.7 182.4 400.1 184.6C 402.3 185.9 404 187.4 404 187.9C 404 189.2 390.9 199.7 384.5 203.7C 375.8 209.1 347.6 222.5 344.5 222.8C 342.9 222.9 338.6 224.2 335 225.6C 327.8 228.5 327.5 228.5 300.5 229.9C 268.6 231.7 243.2 227.9 222.7 218.3C 199.8 207.6 191.6 201.4 186.3 190.9C 181.6 181.7 180.6 175 181.9 161.1C 182.9 150.7 183.7 139.7 183.9 134.7C 184 133.8 184.6 133 185.3 133C 186 133 188.1 131.4 190 129.5C 194.4 125 198.5 123.7 207.3 124.1C 211.5 124.4 214.7 124.1 215 123.5C 215.9 121.6 210.2 120 202.2 119.8C 194.8 119.6 193.9 119.9 189.3 122.8C 186.6 124.6 184 126 183.7 126C 182 126 183.3 122.6 186.3 119.4C 191.1 114 196.4 111.7 203.8 111.6C 214.5 111.6 210.8 108 198.4 106.4C 194.3 105.9 192.5 106.2 189.2 107.9C 186.9 109.1 185 109.6 185 109.2C 185 107.4 199 102.5 214 99.0999C 244.1 91.9999 280.3 90.6 317 95.1zM 101.5 106.3C 103.7 108.2 104.5 110.4 106.5 121C 107.9 127.9 109.4 135.9 110 138.7C 111.3 144.8 110.9 146 107.2 146C 104.6 146 104.5 145.8 104.2 139.7C 104 133.4 102.6 131 99.2 131C 98 131 97.8 132.1 98.4 137.1C 99.1 144 98 147 94.7 147C 92.7 147 92.5 146.6 92.8 142C 93 139.2 92.7 133.3 92 128.7C 90.2 116.3 90.5 110.6 93.1 107C 95.8 103.4 98 103.2 101.5 106.3zM 393.5 113.8C 402 117 414 122.4 415.3 123.6C 415.7 124 413 125.8 409.2 127.6C 405.5 129.4 401.1 132.2 399.3 133.8L 396.1 136.8L 392.8 131.7C 389.2 125.9 381.5 116.5 375.8 110.8C 373.7 108.8 372 106.9 372 106.6C 372 106.1 380 108.8 393.5 113.8zM 48.8 152.7C 52.4 155.9 56.7 162.8 59 169.2C 60.3 172.7 63 177.3 65 179.6C 70.8 185.9 74.2 192.4 73.4 195.4C 72.9 197.5 73.1 198 74.7 198C 75.9 198 78.1 195.7 80.8 191.6C 87.6 181.3 97 174.6 100.3 177.9C 101.9 179.5 99.4 189.1 96 194.2C 93.6 197.6 93 199.6 93 203.8C 93 210.3 91.2 213.9 86.6 217.1C 83.2 219.4 83.1 219.5 85.1 221.3C 86.1 222.3 87 223.6 87 224.3C 87 225 88.4 227.7 90 230.3C 91.7 232.9 93 235.4 93 235.8C 93 238.1 65.8 253.6 63.9 252.5C 61.9 251.2 57.7 243.6 56.6 239.2L 55.5 234.7L 49.1 233.4C 41.7 231.9 36.1 228.4 31.5 222.2C 27.5 217 22.1 204.5 21.6 199.3C 21.4 197.2 19.8 191.5 18.1 186.6C 13.5 173.3 14.2 163.3 19.5 165.4C 21.3 166.1 27.5 179.1 28.5 184.2C 30 191.8 34.4 197.1 37 194.3C 38 193.4 33.6 180.1 29.5 171.7C 28 168.5 25.6 165 24.2 163.9C 22 162.2 21.8 161.5 22.6 159.2C 23.8 155.9 27.8 155.1 30.2 157.7C 31.5 159.2 40 178.4 42.3 185.2C 43 187.3 46.8 187.6 47.6 185.6C 48.3 183.7 39.5 162 35.8 156.9C 34.6 155.2 35.3 152 36.8 152C 40.2 152 46 162.1 50.3 175.2C 52.3 181.5 52.7 182.1 55 181.8C 58.1 181.4 58.1 179.8 54.7 170.7C 51.4 162.2 49.3 158.3 45.6 154.2C 42.8 151.2 42.8 151 44.7 151C 45.8 151 47.7 151.8 48.8 152.7zM 346.9 228.8C 344.5 230.4 337.3 234.7 331 238.5C 315.7 247.6 307.7 253.2 278 275C 261.7 286.9 260.9 287.4 259.5 285.8C 258.9 285.1 257.3 281.1 256 277C 254.2 271 253.7 266.3 253.3 254C 252.7 235.5 253.4 232.7 258.2 233.2C 260.5 233.4 261.4 233.9 261.2 235C 261 235.8 260.8 245.6 260.7 256.8C 260.7 276.3 260.7 277.2 262.8 279.2C 264.9 281.3 265.1 281.3 268.5 279.7C 270.4 278.8 272 277.5 272 276.7C 272 275.3 285.3 262.1 292 256.9C 309.6 243.3 328.9 232.3 343 227.7C 350.4 225.3 351.8 225.7 346.9 228.8zM 372.5 229C 406.7 238.3 422.2 247.3 433.9 264.4C 442.2 276.4 452.9 299.8 455.6 311.9C 460 331.7 460.5 343.3 457.3 356.4C 454.3 369.3 451.3 375 443.1 383.5C 432.3 394.9 420.3 402.3 393.5 414.3C 385.3 417.9 367.3 423.5 352.2 427.1L 343.7 429.1L 331.4 416.5C 324.7 409.5 318.9 403.2 318.6 402.4C 318.3 401.7 316.6 400.4 314.8 399.7C 313 398.9 309.2 396.2 306.4 393.7C 301.3 389.1 295.2 384.3 285.7 377.3C 283 375.3 281.3 373.3 281.7 372.9C 282.2 372.4 286.4 370.7 291 369.1C 295.7 367.5 306 363.5 314 360.3C 322 357 332.3 352.9 337 351.1C 341.7 349.3 347.5 346.9 349.9 345.8C 363.3 339.8 366.8 339.3 370.9 343.1C 374.7 346.7 377.7 347.2 381.8 345C 383.8 343.9 386 343 386.7 343C 388.4 343 388.4 340.5 386.8 339.3C 386.1 338.8 382.9 337.6 379.8 336.6C 375.8 335.5 374 334.4 374 333.3C 374 330.9 379 310.1 380.5 306C 381.2 304.1 382.3 299.9 383 296.7C 385.4 284.8 400 258.3 407.3 252.4C 410 250.3 410.6 249.3 409.8 248.3C 408.1 246.2 406 246.8 401.4 250.5C 393.5 257 378.9 281.5 376.6 292.2C 376.2 293.8 375.5 295 375 295C 373.7 295 358.3 277.3 355.7 272.7C 352.2 266.8 348.3 266.2 339.5 270.4C 332.4 273.8 321 278.3 304.5 284C 296.2 287 290 289.3 271.5 296.5C 255 303 244.2 306.7 240.5 307.4C 238.3 307.8 235.9 308.7 235.1 309.3C 234.4 309.9 231 310.5 227.6 310.5C 222.6 310.5 221.2 310.1 219.8 308.4C 217.3 305.3 212.6 303.7 207.9 304.3L 203.8 304.8L 207 301.5C 210.1 298.3 210.2 298.2 208.2 297.1C 205.3 295.5 196 295.7 191 297.5C 188.7 298.3 186.4 298.8 186 298.5C 185.6 298.3 185.4 295.9 185.5 293.3C 185.8 287.5 192 274.5 198.5 266.2C 202.4 261.3 202.7 260.4 201.3 259.6C 198.6 258.1 190 268.2 184.8 278.9C 181.4 286.1 180.1 287.9 178.3 287.9C 177.1 288 175.1 288.4 173.8 288.9C 172.1 289.5 170.9 289.4 169.5 288.4C 166.6 286.2 161.5 286.6 159.8 289.1C 158.9 290.6 156.9 291.5 153.6 292L 148.8 292.7L 149.3 288.7C 150.3 281.2 148.2 280.2 140.8 284.9C 136.4 287.7 136.2 287.8 134.4 285.9C 130.7 282.3 126 281.1 120.9 282.4C 117 283.4 115.9 283.4 114.4 282.2C 113.3 281.4 111 280.1 109.1 279.3C 102.1 276.3 92.0001 280.9 92.0001 287.1C 92.0001 288.8 91.6001 289.9 91.2001 289.6C 90.8001 289.4 88.0001 290.1 85.0001 291.3L 79.5001 293.5L 73.1001 291.3C 69.5001 290.1 66.4001 289.2 66.2001 289.4C 66.0001 289.6 65.8001 292.8 65.8001 296.4C 65.8001 300.9 66.3001 303.8 67.4001 305.5C 69.5001 308.8 68.6001 310.4 65.7001 308.6C 64.5001 307.8 61.8001 306.9 59.8001 306.6C 56.7001 306 55.9001 306.3 55.0001 308C 54.4001 309.2 54.0001 311.4 54.2001 313C 54.6001 316.8 53.7001 316.8 49.5001 313.2C 44.0001 308.3 39.4001 300.6 34.5001 288C 29.0001 274.1 29.0001 271.8 34.7001 269.9C 50.1001 265 88.5001 246.1 95.3001 240.1C 97.1001 238.6 97.4001 238.8 100.1 242C 113.5 257.8 131.9 277.9 134.1 279C 135.2 279.6 136.8 279.2 139.1 277.6C 150.2 270.1 202.2 245.6 216 241.4C 218.5 240.7 226.6 238 233.9 235.6C 241.3 233.1 247.6 231.2 247.7 231.4C 247.9 231.6 247.6 234.6 247 238.1C 245 250.7 246.3 269 250 280.5C 250.6 282.1 251.4 285.3 252 287.6C 253.3 293.1 257 297 260.1 296.3C 261.4 296 265 293.4 268 290.5C 276.2 282.8 293.2 269.6 312.7 255.9C 332.1 242.4 358.5 227.1 362.5 227.1C 364.2 227.1 368.7 227.9 372.5 229zM 278.8 235C 281.6 235 284 235.4 284 235.9C 284 236.9 271.7 245.4 268.6 246.6C 267 247.2 266.9 246.7 267.5 241.4C 268.4 234.2 268.7 233.7 271.4 234.4C 272.5 234.7 275.9 235 278.8 235zM 314 235.3C 310.6 238.4 295.7 247.1 295 246.3C 293.9 245 291.8 236.9 292.4 236.3C 292.7 236 296.7 235.5 301.2 235.3C 305.8 235 309.7 234.6 309.9 234.4C 310.1 234.2 311.5 234 312.9 234C 315.1 234 315.2 234.2 314 235.3zM 289.9 245C 290.5 247.8 291 250.2 291 250.4C 291 250.6 288.4 252.7 285.3 255.1C 282.1 257.5 277 261.8 273.9 264.7L 268.3 270L 267.6 266.3C 267.3 264.2 267 260.6 267 258.2C 267 254.4 267.4 253.7 271 251.2C 273.3 249.7 277.7 246.6 280.8 244.3C 283.9 242 287 240.1 287.7 240.1C 288.3 240 289.3 242.3 289.9 245zM 56.5 251.7C 57.8 253.3 59 255 59 255.6C 59 256.6 36 267.3 35.3 266.6C 34.9 266.2 52.7 249 53.5 249C 53.8 249 55.2 250.2 56.5 251.7zM 354.2 281.7C 357.1 285.5 361.6 291.4 364.2 295C 366.8 298.6 369.8 302.6 370.8 304C 372.5 306.2 372.6 306.9 371.5 310C 370.8 311.9 369.3 317.8 368 323.2L 365.7 332.8L 361.1 335.3C 355.8 338.2 300.5 360.3 294.6 361.9C 290 363.1 289.7 362.9 282 354.5C 260.5 331.1 254.8 324.6 249.8 318.2C 244.3 311 243.6 311.9 258.2 306.6C 263.3 304.7 271.6 301.7 276.5 299.7C 286.7 295.8 309.9 287.2 327 281C 337 277.4 343.6 275.5 347.7 275.1C 348.3 275 351.2 278 354.2 281.7zM 110.1 283.1C 111.6 283.9 112 285 111.8 287.3C 111.5 290 111.9 290.6 113.8 290.8C 115.2 291 117.1 290.3 118.3 289.2C 123.4 284.7 129.6 284.5 131.9 288.9C 133.2 291.3 130.5 294 125.8 294.9C 121.6 295.8 121.5 298.1 125.7 299.3C 129.8 300.5 130.4 302.2 127.9 305.4C 125 309.1 119.9 309.7 115.5 307C 111.8 304.7 112.1 304.5 110.5 309.5C 109.9 311.5 104 314 100.3 314C 98.7 314 96.4 313.3 95.1 312.4L 92.9 310.8L 95 308.5C 96.2 307.2 98.5 305.6 100.1 305C 105.8 302.6 103 300.5 94.5 300.8C 88.1 301.1 82.5 299.7 83.5 298C 84.7 296.1 90.3 293.8 94.2 293.6C 98.1 293.4 98.3 293.1 97.3 289.2C 96.1 284.1 104.5 280.1 110.1 283.1zM 144 292.4C 144 294.3 144.7 296.6 145.6 297.4C 147.2 299.1 150 299.6 150 298.2C 150 297.1 154.6 295 157 295C 159.2 295 166.1 299.4 167.3 301.6C 167.7 302.4 170 304 172.2 305.1C 177.3 307.7 181 307.2 189.4 303.1C 192.8 301.4 196.9 299.8 198.7 299.4L 201.9 298.8L 199.9 302.6C 198.7 305.1 198.2 307.5 198.6 309.2C 199.1 311.9 199 312 194.8 312C 189.7 312 184.4 314.5 181.7 318.1C 177.8 323.4 182.2 330 189.6 330C 191.7 330 192.1 330.3 191.4 331.7C 186.8 341.9 200 348.7 212.5 342.6C 218.1 339.8 219.4 339.9 221.8 343.2C 222.7 344.4 224.4 345 226.8 345C 230.9 345.1 242.1 350.6 242.8 352.9C 243.2 354.1 242.1 354.2 237 353.7C 229.5 352.9 218 354.6 218 356.5C 218 357.2 220 359 222.5 360.4C 227.6 363.5 228.9 366.7 224.3 364.9C 221.3 363.8 207.9 361 205.3 361C 204.2 361 203.9 361.7 204.3 363.2C 204.6 364.5 205.4 367.5 206 370C 207.7 376.7 206.6 380.5 202.2 383.1C 196.3 386.7 183 399.2 182.3 401.8C 182 403.1 180.4 404.6 178.6 405.4C 174.8 407 170 413 170 416.2C 170 420.6 168.6 421.2 165.7 418.2C 163.4 415.8 163.1 414.9 163.9 412.8C 164.7 410.7 164.5 409.9 162.9 408.4C 160.9 406.6 160.9 406.6 164.2 405C 168.6 403 168.8 399.1 164.6 397.1C 162.3 396 160.7 396 156.6 396.9C 152.5 397.8 150.7 397.7 147.5 396.5C 141 394.2 136 394.7 136 397.9C 136 399.2 134.9 399.5 130 399.5C 125.2 399.5 123.6 399.9 121.9 401.7C 119.8 403.8 119.8 404 121.4 406.4C 122.3 407.8 123.6 409 124.2 409C 124.8 409 124.5 409.9 123.6 410.9C 122.4 412.2 122 413.8 122.4 415.7C 122.8 417.6 122.4 419.2 121.1 420.7C 120 422 118.9 423 118.6 423C 118.3 423 117.5 421.2 116.9 418.9C 116.2 416.7 114.9 414.5 113.9 413.9C 111.9 412.9 107.5 414.2 104.8 416.7C 103.1 418.2 103 418 103 412.7C 103 407.4 103.2 407 105.8 406.4C 115.1 404.2 113.6 395.4 103.2 391.1C 101.3 390.3 100.3 389.3 100.6 388.5C 100.9 387.8 100.7 386.2 100 385.1C 96.8 379 81.1 377.5 75.8 382.8C 74.2 384.4 73.3 384.6 71.1 383.7C 66.9 382.1 61 383.7 57.5 387.4C 55.2 389.9 47 394 44.3 394C 43.2 394 46.7 388 50.5 383.3C 53 380.3 55 377 55 375.9C 55 374.7 55.7 374 57 374C 62.6 374 67.1 368.9 65 364.9C 63.4 362 58.4 359 55.2 359C 51.8 359 49 355.6 49 351.6C 49 349.2 44.1 344 41.7 344C 38.7 343.9 44.1 342.2 49.3 341.5C 52.4 341.2 55 340.5 55 340C 55 338.7 50.2 335.9 44.6 334L 39.5 332.2L 43.3 330.6C 48.9 328.1 59 327 61.5 328.5C 62.8 329.3 64.5 329.5 66.5 328.9C 69.9 327.9 77 322.4 77 320.7C 77.1 320 78.5 318.6 80.3 317.5C 84.8 314.7 85 311.6 80.8 309C 79 307.9 76.3 307 74.9 307C 71.7 307 71 305.5 71 298.9C 71 293.8 71.4 293.5 75.6 294.6C 76.9 294.9 78.1 296.4 78.7 298.3C 79.5 301.4 81.1 302.3 89.9 304.7C 91 305 90.9 305.4 89.5 307C 87.9 308.8 87.8 309.1 89.4 311.5C 93.8 318.1 107.7 319.2 114.2 313.3C 115.2 312.4 118.1 311.8 122.3 311.7C 127.8 311.5 129.3 311.1 131.5 309C 134.2 306.5 134.5 303.3 132.6 298.8C 132 297.5 132.4 296.9 134.4 296.4C 135.8 296.1 138.1 294.3 139.5 292.4C 142.8 288.1 144 288.1 144 292.4zM 168.7 292.3C 171.5 295.9 172.8 296.2 175 294C 177.3 291.7 181 291.3 181 293.4C 181 294.2 180.6 295.2 180 295.5C 178.3 296.6 178.9 299.2 181 299.7C 184.4 300.6 182.6 302.5 178.2 302.8C 174.8 303.1 173.5 302.6 171.5 300.6C 170.1 299.2 167.6 297.3 166 296.5C 162.8 294.9 162.2 293.2 164.2 291.2C 165.9 289.5 166.6 289.7 168.7 292.3zM 214.5 308.2C 216.7 309.2 217.1 309.9 216.6 312.2C 215.8 316.1 218.8 317.7 222.9 315.5C 224.6 314.7 227.5 314 229.5 314C 232.3 314 233.3 314.5 234.2 316.5C 235.5 319.4 234.4 321.2 230 323C 226.4 324.5 227 326.3 232.1 328.8C 236.3 330.9 236.9 333.4 233.9 336.6C 230.6 340.1 226 340.6 220.8 338L 216.4 335.9L 210.6 338.9C 204.2 342.3 199 342.9 196.6 340.4C 194.3 338.1 194.7 335 197.7 331.8C 199.9 329.5 200.1 328.8 199 327.5C 198.1 326.4 196.6 326.2 192.6 326.6C 188.5 327.1 187 326.9 185.7 325.5C 183.5 323.4 183.6 322.8 186.1 319.7C 189 316 195.1 314.3 199.6 315.9C 203.6 317.4 204.9 316.8 203 314.5C 201.4 312.6 202.6 311.1 207.5 308.6C 211.1 306.7 211.2 306.7 214.5 308.2zM 65 312.5C 67.8 315.5 68.5 315.6 71.7 313C 74.6 310.8 79.4 310.3 78.8 312.2C 78.6 312.9 77 314.2 75.2 315C 73.5 315.8 72 317.2 72 318.1C 72 319.6 69 322.8 66.2 324.4C 65.4 324.9 64.1 324.5 63 323.5C 61.3 322 60.9 322 56.1 323.7C 52.2 325 50.8 325.2 49.9 324.3C 48.9 323.3 49.3 322.8 51.6 321.9C 53.2 321.3 56 320.4 57.9 320.1C 61.1 319.5 61.2 319.4 59.7 317.8C 58 316.1 57.4 311.9 58.7 310.7C 60 309.3 62.7 310.1 65 312.5zM 244.4 322C 246.6 325 253 332.4 258.5 338.5C 271.4 352.5 281 364.9 281 367.4C 281 367.7 279.1 368 276.7 368C 272 368 268 370.2 268 372.8C 267.9 377 266.9 377.3 255 376C 242.6 374.6 243.8 375.4 240.5 365.5C 239.6 362.7 238.7 359.8 238.4 359C 238 357.8 238.9 357.6 243.4 357.8C 246.5 358 249 357.9 249 357.5C 249 357.1 248 355.1 246.9 353C 245.5 350.5 243 348.2 239.6 346.4C 236.8 344.9 234.4 343.6 234.2 343.5C 234.1 343.4 235.6 341.6 237.6 339.6C 240.6 336.6 241.1 335.5 240.5 333.2C 239.7 330 237.2 327 235.3 327C 233.3 327 233.7 326.3 237.1 323.2L 240.3 320.4L 238.5 316.9C 236.8 313.6 236.8 313.6 238.5 315C 239.5 315.8 242.1 319 244.4 322zM 46 355.5C 46.7 356.3 47.6 358.5 47.9 360.3C 48.7 363.9 51 364.9 54.5 363C 56.2 362.1 57.3 362.1 58.9 362.9C 64.2 365.8 58.3 371.7 51.5 370.4C 48.1 369.8 46.7 371 49 372.5C 51.2 373.9 49.9 377.1 46 379.6C 43.8 381.1 41.8 382.1 41.5 381.9C 41.3 381.6 41.8 380 42.7 378.2C 45.1 373.3 43.3 372.1 37.1 374.3C 34.4 375.2 31.7 376 31.1 376C 28.9 376 30.1 372.9 33 371.2C 36.8 369 36.4 367.8 31.2 366.2C 26.4 364.6 25.9 363.4 29.5 361.8C 31.4 360.9 32.4 361.1 34.5 362.4C 37.8 364.6 40.4 363.8 39.5 361C 38.7 358.6 41.3 354 43.4 354C 44.1 354 45.3 354.7 46 355.5zM 235 360.7C 235.7 362.8 236.9 366.6 237.5 369.1L 238.7 373.7L 227.5 374.3C 221.3 374.6 215.3 375.3 214.1 375.9C 212.3 376.9 212 376.7 211.4 374.3C 211.1 372.7 210.4 370.2 209.9 368.6C 209.4 367 209 365.5 209 365.2C 209 364.3 218.7 366.3 224.6 368.5C 228 369.8 231.1 370.6 231.4 370.3C 231.7 369.9 232 368.4 232 366.8C 232 364 228 359 225.8 359C 225.3 359 225.2 358.5 225.5 358C 225.8 357.4 227.8 357 229.9 357C 233.3 357 233.7 357.3 235 360.7zM 255.4 380.5C 260.9 381.3 269.6 382.1 274.6 382.3C 284.9 382.8 285.6 383.1 300.7 396.3L 308.9 403.4L 305.2 406.7C 295.9 415 274.2 421.9 261.2 420.7C 257.6 420.4 253.9 420.8 251.1 421.7C 246.7 423.2 238.5 425.5 232.4 427C 228.8 427.8 225.9 426.7 227.5 425.1C 228.1 424.6 232.1 422.7 236.5 420.9C 246.2 417.1 247.4 416.2 245.9 414.4C 244.2 412.4 242.5 412.6 235.5 416C 227.5 419.8 217 422.6 214.4 421.6C 212.7 420.9 212.8 420.6 216 417.8C 217.9 416.2 222.5 413.3 226.1 411.5C 233.3 407.8 235.8 405.6 234 404.5C 232.3 403.5 226.4 404.8 225 406.5C 224.3 407.3 223.4 408 223 408C 222.5 408 219.5 409.5 216.2 411.4C 208.7 415.6 204.7 416.6 203.1 414.7C 200.5 411.5 204.9 406.2 216.9 398C 222.8 394 223.8 391.9 220.3 390.6C 218.1 389.7 208.6 395.5 198.2 404.3C 194.2 407.6 192.8 407.1 194 402.9C 196.5 394.2 206.4 385.6 219.2 381C 225.9 378.6 241 378.4 255.4 380.5zM 93.3 384.3L 96.2 385.5L 92.9 388.4C 89.9 391.1 89.8 391.4 91.5 392.6C 92.6 393.4 95.5 394 98.1 394C 101.8 394 103.5 394.6 105.7 396.5L 108.5 399L 106.1 401C 103.5 403.2 97.2 403.7 93.9 402C 91.1 400.4 89.9 401.6 91.3 404.7C 92.3 407 92.1 407.5 89.7 409.6C 85 413.6 76.7 412.3 79.1 407.9C 79.8 406.5 79.6 405.8 77.9 405C 76.2 404.1 75.4 404.2 73.8 405.7C 72.3 407.1 70.3 407.5 65.3 407.4C 57.1 407.3 55.4 405.8 59.5 402.4C 61.2 401.1 63.1 399.4 63.9 398.8C 65.1 397.8 64.9 397.4 63.1 395.9C 60.1 393.4 60.4 390.4 64 388.5C 67.9 386.5 70.3 386.6 72.5 389C 75.1 391.9 77.6 391.5 78.8 388C 80.3 383.7 87.6 381.8 93.3 384.3zM 437.7 400.7C 437.7 404.2 438.6 414.1 441.1 440C 443.1 461.4 444.3 469.8 446.7 481.5C 448 488.1 449.5 495.7 450 498.5C 450.5 501.2 451.3 505.5 451.9 508C 454.4 519.3 461 558.6 461 562.7C 461 565.7 460.8 565.9 455.8 566.9C 452.9 567.4 438.1 568.4 423 569C 392.7 570.2 354.7 572 348.5 572.6C 346.3 572.8 329.9 573 312 573C 270.8 573.1 233.7 571.3 208.9 568C 187.6 565.2 173.5 562.8 163.8 560.3C 154.7 557.9 153 557.2 152.9 555.5C 152.8 554.4 152.6 552.6 152.4 551.5C 151 541.6 150 525.5 150 511C 150 488.9 151 430.1 151.5 423.5C 151.7 420.7 151.9 417.9 152 417.2C 152 416.5 153.4 416 155.6 416C 158.5 416 160.2 416.9 164.7 421C 171.9 427.6 173.5 427.5 174.4 420.8C 175.1 415.5 177.6 411.4 181.3 409.3C 184.2 407.7 185 407.7 185 409.5C 185 410.3 186.5 411.7 188.3 412.6C 190 413.5 192.6 415.1 193.9 416.1C 195.2 417.2 198 418.5 200.1 419C 202.2 419.6 205.2 421.3 206.7 422.9C 208.5 424.7 211.1 425.9 214 426.4C 216.5 426.8 219.5 428.1 220.8 429.3C 222.6 431 224.4 431.5 228.8 431.6C 231.9 431.6 235.8 431.3 237.4 430.8C 239.7 430.2 242.1 430.8 248.4 433.6C 267.8 442.1 268 442.2 268 445C 268 448.5 270.9 458.2 272.3 459.7C 273.2 460.6 275.8 460.2 283.5 457.9C 297.1 453.9 302.2 452 301.8 450.8C 301.6 450.3 297.7 447.8 293 445.2C 285.2 440.8 284.3 440 281.9 435C 280.5 432 279 428.4 278.7 427C 278 424.3 278.3 424.2 291 421.1C 292.9 420.6 295.9 419.5 297.5 418.6C 299.2 417.7 301.1 417 301.7 417C 302.4 417 305.3 415.2 308.2 413C 311.1 410.8 314 409 314.5 409C 316.9 409 328.6 423 331.6 429.5C 333.2 432.9 334 433.6 336.9 433.8C 340.1 434.1 362.5 429.1 377.5 424.8C 390 421.1 426.6 404.4 433.7 399.1C 437.5 396.3 437.7 396.4 437.7 400.7zM 147.4 398.6C 148.3 398.9 149 399.8 149 400.5C 149 402.4 151.9 403.1 154.3 401.8C 157.4 400.2 162.9 399.1 163.5 400C 164 400.8 160.4 402.4 155 403.8C 150.1 405 150.5 407.2 155.8 408.3C 160.4 409.2 161.1 410.3 158.1 412C 155 413.6 150.5 413.2 147.6 410.9L 144.9 408.8L 138.7 411.8C 126.3 418 122.6 416.7 132.4 409.7C 135.1 407.7 133.5 406 128.9 406C 124.7 406 123.8 404.7 126.9 403C 129.5 401.7 134.9 401.7 138.9 403.1C 142.4 404.3 144.5 403.4 141.7 401.9C 138.9 400.3 139.6 398 142.9 398C 144.5 398 146.5 398.3 147.4 398.6zM 273.7 430.2C 275.2 433.9 275.1 434 272.3 436.4C 269.2 439.1 270.9 439.5 255 432.5C 250.3 430.4 246.3 428.6 246.1 428.4C 245 427.4 253.9 426.3 262.4 426.4L 272.2 426.6L 273.7 430.2zM 279.5 439C 279.9 439.6 279 440 277.5 440C 276 440 275.1 439.6 275.5 439C 275.8 438.4 276.7 438 277.5 438C 278.3 438 279.2 438.4 279.5 439zM 288 446C 291.3 447.7 294 449.4 294 449.8C 294 450.5 276.8 456 274.8 456C 274.2 456 272 448 272 445.6C 272 444.2 273.7 443.8 280.3 443.2C 281.3 443.1 284.7 444.4 288 446zM 238.9 577.5C 249.5 578.3 262.1 579 267 579C 271.8 579 278.5 579.3 281.8 579.6L 287.9 580.3L 288.5 584.9C 288.8 587.4 289.8 592.6 290.7 596.4C 291.9 601.5 292.1 606.2 291.7 614.7C 291.4 621 291 626.4 290.7 626.6C 287.1 630.2 250.1 631.4 230.4 628.5C 224.4 627.6 219.1 626.8 218.7 626.7C 218.2 626.5 217.7 619 217.5 610C 217.2 595.5 216.6 588.7 214.4 577.8C 213.9 575.2 214 575.1 216.7 575.5C 218.2 575.8 228.2 576.7 238.9 577.5zM 394.8 588.2C 394.9 594.4 395.2 601.1 395.5 603C 396.3 609.2 398 640.2 397.5 641.1C 395.8 643.8 365.8 646.5 346.5 645.6C 338.3 645.2 330.6 644.7 329.5 644.5C 328.4 644.3 325.2 644.1 322.4 644.1L 317.4 644L 317.2 626.2C 317.1 616.5 316.5 604.2 315.9 599C 315.3 593.8 314.6 587.4 314.3 584.7L 313.8 580L 328.7 579.9C 344.9 579.9 361.3 579.2 376 578C 381.2 577.6 387.5 577.2 390 577.1L 394.6 577L 394.8 588.2zM 305.4 584.2C 306.6 594 307.2 609.7 307.2 629.2L 307.1 649.9L 310.8 650.6C 316.7 651.5 317.8 652 318.4 653.6C 318.8 654.6 318.1 655.4 316.1 656.1C 313.8 656.9 313 658.2 311.4 663.1C 310 667.7 308.6 669.9 305.8 672.2C 301.9 675.2 301.3 675.2 303 672.1C 304 670.1 301.5 661.3 296.6 649.1C 293.4 641.1 293.1 634 295.9 634C 298.5 634 299 632.9 300.6 625.6C 302.2 618.3 302.3 607.2 300.9 601C 299.5 594.8 298.4 589.3 297.5 584.2L 296.7 580L 300.8 580C 304.8 580 304.9 580 305.4 584.2zM 254.5 636.6C 265 636.9 276.1 636.8 279.2 636.3L 284.9 635.3L 285.5 638.4C 285.9 640.1 286.3 642.2 286.6 643.1C 287.1 644.8 281.2 647 270.8 648.9C 267.6 649.5 262.6 650.4 259.8 651C 256.9 651.5 248.9 652.2 242 652.5C 235.1 652.9 228.6 653.3 227.5 653.5C 226.4 653.7 224.8 653.5 224 653C 222.9 652.3 223.1 651.9 225.2 651.1C 229.2 649.6 229.3 648.5 226 643.7C 222.5 638.4 222.4 638 224.9 638C 225.9 638 227.3 637.3 228.1 636.4C 229 635.3 230.3 635 232.4 635.4C 234.1 635.7 244.1 636.3 254.5 636.6zM 218.3 643.5C 220.4 646.5 220.1 647.2 214.9 651C 212.7 652.6 211.3 654.1 211.8 654.4C 217.3 657.8 254.7 657.8 272.2 654.5C 276.6 653.6 284.5 652 287.1 651.4C 289.3 650.9 289.9 651.3 290.8 653.7C 293.4 660.4 295 668.1 294.5 671.6C 294 675.5 290.4 680.4 288.5 679.6C 287.8 679.4 283.8 680.1 279.4 681.2C 273.1 682.7 265.8 683.3 243 684C 227.3 684.5 205.3 685.5 194 686.3C 166.1 688.2 166.2 688.2 151.3 687.5L 138.2 686.8L 137.7 683.2C 136.4 672.7 146.9 665.3 171.7 659.1C 181.8 656.5 195.1 651.5 198.2 649C 199.5 648 202.4 646.7 204.5 646.1C 206.7 645.5 210.1 644.1 212 643C 216.4 640.6 216.1 640.6 218.3 643.5zM 394.5 653.6C 395.2 657.8 393.8 659.9 387.3 663.7C 382.6 666.4 371.8 670 368.3 670C 366.4 670 366 669.5 366 666.6C 366 663.9 365.3 662.7 363 661C 358.5 657.8 345.3 655 334.9 655C 330 655 326 654.6 326 654.1C 326 653.7 338 653 352.8 652.6C 367.5 652.2 382.2 651.5 385.5 651.1C 388.8 650.7 392 650.2 392.6 650.1C 393.3 650.1 394.1 651.6 394.5 653.6zM 344 661.5C 347.6 661.8 352.6 662.7 355 663.4L 359.5 664.7L 359.5 670.1L 359.5 675.5L 366.5 675.4C 374.7 675.4 388.4 671.2 392.9 667.4L 395.8 665L 396.2 668.8C 397.1 676.3 396.5 689.7 395.2 691.3C 394 692.7 389.3 694.3 362 702.8C 356.8 704.5 347.4 707.6 341.1 709.9C 328.7 714.3 310.3 718.6 297.5 720.1C 293.1 720.6 287.1 721.5 284.1 722C 277 723.3 268.3 723.3 262 721.9C 256.4 720.7 255.3 718.8 256.3 712.3C 257.6 704.7 265.4 698.7 282.5 691.9C 295.7 686.7 301.2 683.5 308 677.3C 313.5 672.2 314.6 670.6 315.5 666.4L 316.5 661.5L 322 660.9C 327.4 660.3 331 660.4 344 661.5z"/>
<path style="stroke:none; fill:#000000" d="M 286.2 97.1C 280.9 98.1 272.5 103.9 272.5 106.5C 272.5 107.7 273.5 108.8 275.2 109.4C 277.5 110.2 278.4 110 280.2 108.3C 284.6 104.4 287.3 103.6 297.1 103.6C 306 103.5 307 103.7 310.7 106.3C 315.5 109.6 317 109.7 317 106.7C 317 99.5001 300.4 94.2999 286.2 97.1z"/>
<path style="stroke:none; fill:#000000" d="M 285.5 115.5C 280.3 117.5 276.5 120.4 277.4 121.9C 278.5 123.6 282.6 123.2 287 121C 292.1 118.4 300.4 118.4 307 121C 311.3 122.7 312.1 122.8 312.6 121.5C 314 117.9 308.7 115.4 297.5 114.6C 291.7 114.2 288.4 114.5 285.5 115.5z"/>
<path style="stroke:none; fill:#000000" d="M 293.7 125C 285.4 127.6 280.3 135.7 281.2 145C 282.1 154 288.1 157.7 300.2 156.7C 310.9 155.8 315.7 152 318.1 142.6C 320.6 132.6 314.1 125.2 302 124.4C 299 124.2 295.2 124.5 293.7 125zM 307.8 130.9C 308.6 131.3 309 132.8 308.8 134.1C 308.2 138.6 300 137.5 300 133C 300 130.3 304.9 129 307.8 130.9zM 307.6 142.4C 310.1 144.3 308.4 147.4 304.6 147.8C 299.6 148.4 296.9 143.8 301.3 142C 304.4 140.7 305.4 140.8 307.6 142.4z"/>
<path style="stroke:none; fill:#000000" d="M 199.8 129.8C 194.4 133.4 191.3 137.6 190.6 142.3C 189.5 149.5 190.7 153.7 194.8 156.8C 197.9 159.2 199.3 159.5 205.6 159.5C 212.3 159.5 213.1 159.3 216 156.5C 222.6 150.3 223.5 148.1 223.1 139.8C 222.9 135.5 218.6 131.3 212.6 129.6C 205.7 127.6 203.1 127.6 199.8 129.8zM 215 137.1C 217.1 141 212.6 143.5 208.8 140.6C 206.7 139.1 206.4 136.4 208.3 135.7C 211.1 134.5 214 135.1 215 137.1zM 214.7 146.6C 215.7 149.2 213.6 151.5 210.4 151.5C 208.1 151.5 207.4 151 207.2 149.1C 207 147.8 207.4 146.3 208.2 145.9C 210.4 144.5 214 144.9 214.7 146.6z"/>
<path style="stroke:none; fill:#000000" d="M 425.5 142.9C 419.9 145.4 415.6 149.3 412.5 154.5C 410 158.9 410 159.1 411.6 162.5C 414.1 167.9 418.4 171 423.2 171C 427.6 171 436.6 166.7 437.9 164.1C 440.7 158.4 435.3 153 426.9 153C 424.2 153 422 152.6 422 152.2C 422 150.2 428.7 146.6 432.8 146.4C 438.4 146.1 440.3 144.5 437.6 142.4C 434.9 140.5 430.3 140.7 425.5 142.9zM 431 159.7C 432.3 161 432.2 161.4 429.7 163.6C 426.4 166.4 422.8 166.7 420.5 164.4C 418 161.9 419 158.6 422.5 157.9C 426.1 157.1 429 157.7 431 159.7z"/>
<path style="stroke:none; fill:#000000" d="M 308.5 159.1C 303.1 160.7 291.5 161.3 289.2 160.1C 287.7 159.3 286.9 159.3 286.4 160.1C 285.2 162.1 288.1 163.4 294.8 163.8C 302.4 164.2 308.3 162.9 312 160C 314.7 157.9 313.6 157.6 308.5 159.1z"/>
<path style="stroke:none; fill:#000000" d="M 208 163.6C 203.7 165 199.8 165 193.6 163.4C 189.2 162.3 190.8 165 195.6 166.7C 200.6 168.5 208.7 167.7 213.4 164.9C 215.4 163.7 217 162.6 217 162.4C 217 161.6 212.4 162.2 208 163.6z"/>
<path style="stroke:none; fill:#000000" d="M 226.7 166.5C 225.2 167.9 224 169.7 224 170.5C 224 172.9 228.9 177.8 232.1 178.5C 235.4 179.3 245 177.3 245 175.9C 245 175.4 242.1 175 238.6 175C 234.1 175 231.7 174.5 230.6 173.4C 226.7 169.5 230.5 166.5 238.1 167.5C 243.4 168.2 243.8 168 241.4 165.6C 240.4 164.5 238.1 164 234.7 164C 230.5 164 228.9 164.5 226.7 166.5z"/>
<path style="stroke:none; fill:#000000" d="M 313.3 176.2C 312.9 176.9 312.6 178.4 312.5 179.5C 312.5 180.8 311 182.3 308.2 183.9C 303.6 186.4 301.4 187 289 189.5C 284.9 190.3 278.8 191.6 275.5 192.2C 270 193.4 234.2 193.8 223.5 192.9C 218.7 192.4 218.1 194.3 222.2 197.3C 224.5 199.1 226.4 199.3 239.7 199.2C 268.2 199.2 292.1 195.9 311.4 189.3C 319.3 186.6 322.3 186.1 325.7 186.6C 333.6 187.8 337.3 185.4 333.2 181.7C 331.5 180.1 317.8 175 315.3 175C 314.7 175 313.8 175.6 313.3 176.2z"/>
<path style="stroke:none; fill:#000000" d="M 147 304.7C 141.5 305.5 140 306.1 137.1 308.6C 135.4 310 134 312 134 313C 134 314.3 133 315 130.8 315.5C 124.6 316.7 120 319.2 119.4 321.7C 118.4 325.6 120.5 328.7 125.9 331.1C 130.5 333.3 130.8 333.6 129.3 335.2C 122.6 342.6 143.8 350.2 151.4 343.1L 153.8 340.9L 157.6 342.9C 163.9 346.3 172.6 345 178.1 339.9C 181.7 336.5 181.7 334.9 178.1 330.8C 175.3 327.7 175.3 327.6 177.2 326C 179.1 324.5 179.1 324.2 177.7 320.9C 175.4 315.2 170.7 312 164.9 312C 161 312 159.8 311.6 158.8 309.9C 157.7 308.2 150.7 303.7 149.8 304.1C 149.6 304.2 148.4 304.4 147 304.7zM 154.4 309.9C 155.8 311.4 155.9 312.3 155.1 313.8C 153.5 316.8 156.3 319.5 159.2 317.9C 165.7 314.4 171.1 315 173.2 319.5C 174.6 322.6 173.1 324.6 168.7 325.6C 166.9 325.9 165.1 326.4 164.7 326.7C 163.1 327.6 166.3 330 169.2 330C 178.9 330 178 337.4 167.8 340.4C 162.4 342 157.6 340.9 155.4 337.5C 153.3 334.3 151.6 334.3 150.2 337.6C 148.5 341.2 142.9 343.3 137.7 342.3C 134.2 341.6 133.5 341 133.5 339.1C 133.5 337.3 134.5 336.2 137.3 334.7C 143.1 331.7 142.1 329.3 135.2 329.9C 129.1 330.4 121.9 326.3 123.8 323.3C 125.5 320.7 131.3 318.8 135.6 319.5C 140.4 320.2 140.6 320 138.8 317C 137.8 315.4 137.9 314.7 140 312.5C 144.1 308.2 151.6 306.8 154.4 309.9z"/>
<path style="stroke:none; fill:#000000" d="M 79.3 329C 74.6 331.8 72.5 335.5 73.8 338.4C 74.8 340.7 74.6 340.9 70.6 341.9C 64.8 343.3 59.6 348.1 60.5 351.2C 61.6 354.8 66.1 358.9 70.2 360.2C 73.1 361 73.9 361.7 73.5 363C 72.9 364.9 76.1 369.4 79.1 371.1C 80.2 371.7 83.8 372.6 87 373.1C 92 373.9 93.7 373.7 98.4 371.9C 102.2 370.5 104.5 369 105.7 367C 107.3 364.2 107.7 364.1 112.5 364.6C 118.3 365.3 122.8 363.6 125.4 359.8C 127.7 356.6 127.4 353.6 124.5 350.1L 121.9 347.1L 124 345C 126.6 342.4 126.5 340.3 123.5 335.8C 119.8 330.3 113 328.7 105 331.5C 100.8 333 100.7 333 97.3 330C 94.4 327.4 93.1 327 88.2 327C 84.3 327 81.5 327.6 79.3 329zM 94.6 332C 95.3 332.7 96 334.7 96 336.6C 96 341.8 98.7 342.5 103.2 338.5C 109.2 333.1 117.3 332.5 120 337.4C 121.6 340.5 120.2 342.6 115.2 344.7C 111.1 346.4 111.5 348.2 116.3 349.5C 121.1 350.9 122.4 352.3 121.6 355.5C 120.1 361.4 111.7 363.3 106.1 358.9C 102.7 356.2 101.7 356.5 102.4 360.1C 102.9 362.5 102.5 363.6 100.4 365.5C 94.9 370.6 83.9 371.4 79.6 367.1L 77.5 364.9L 80.6 362.1C 82.3 360.5 84.4 359 85.1 358.7C 86.2 358.3 86.2 357.9 84.9 356.5C 83.5 355.1 82.7 355 79.4 355.9C 73.1 357.6 69.6 357.3 67.1 354.6C 65.3 352.7 65 351.8 65.9 350.2C 67.4 347.4 74.7 344.7 78.7 345.5C 83.8 346.4 84.6 345.2 81.1 341.9C 77.6 338.7 77.2 337 79.8 334.7C 84.7 330.3 91 329.1 94.6 332z"/>
<path style="stroke:none; fill:#000000" d="M 156.1 348.7C 151.4 350.1 147 353.5 147 355.7C 147 356.8 146 357 142.3 356.4C 139.6 356.1 137.3 355.6 137.1 355.4C 136.5 354.9 129.7 358 127.8 359.7C 124 363.1 126.5 370.6 132.3 373.7C 134.9 375 135.2 375.4 133.9 376.4C 133 377 131.8 378.5 131.2 379.7C 130.2 381.5 130.5 382.2 133.4 384.8C 136.7 387.6 144 390 149.3 390C 150.5 390 153.5 389.1 155.9 388C 159.7 386.2 160.6 386.1 162.4 387.3C 165.9 389.6 169.8 390.1 174.3 389C 184 386.5 188.4 382.3 186.2 377.5C 185.1 375.2 185.3 374.9 188.5 373.6C 191.5 372.3 192 371.6 192 368.7C 192 364.5 188.4 359 184.5 357C 182.8 356.2 179.7 355.5 177.4 355.5C 174.1 355.4 172.7 354.7 170.4 352.1C 166.8 348.1 162 346.9 156.1 348.7zM 166.9 353.4C 167.5 354.1 167.7 356 167.4 357.7C 166.6 361.6 168.6 362.4 173.9 360.3C 179.7 358 183.9 359.4 186.4 364.3C 188.7 369.1 187.8 370.2 181.2 371C 175.7 371.6 175 373.5 179.4 376C 181 376.9 182.5 378.1 182.7 378.7C 183.4 380.8 175.3 385.3 170.1 385.8C 165.4 386.2 165.1 386.1 163.6 383.1C 161.6 379.3 160.8 379.3 156.3 382.7C 153.2 385.1 151.7 385.5 146.5 385.5C 143.1 385.5 139.1 384.9 137.6 384.1C 135.1 382.7 135.1 382.6 136.7 380.7C 137.7 379.7 140.2 377.9 142.3 376.8C 147.2 374.3 146 372.5 138.9 371.7C 136.1 371.3 133.2 370.5 132.4 369.9C 130.9 368.7 130.6 365.2 131.8 363.4C 134.1 359.9 141.2 359 146.1 361.6C 150.1 363.6 152.2 362.8 151.4 359.6C 150.4 355.6 155.3 352.3 162.6 352.1C 164.3 352 166.3 352.6 166.9 353.4z"/>
</g>
</g>
</svg>