<?xml version="1.0" encoding="UTF-8" standalone="yes"?>
<!-- Created with sK1/UniConvertor (http://sk1project.org/) -->
<svg xmlns="http://www.w3.org/2000/svg" xmlns:xlink="http://www.w3.org/1999/xlink"
  width="590pt" height="745pt" viewBox="0 0 590 745"
  fill-rule="evenodd">
<g>
<g>
<path style="stroke:none; fill:#000000" d="M 308 6.70001C 295.7 8.29999 276.7 14.8 262.4 22.4C 245 31.7 232.9 42.5 217.3 62.9C 213.6 67.6 206.3 83 204.1 90.5C 200 104.7 198.9 122 201.6 128.5C 203 132 203.3 132.2 206.6 131.7C 210 131.1 210.2 131.3 212 135.3C 213 137.6 214.1 140.6 214.5 141.9C 215.2 144.1 215.1 144.2 211.1 143.5C 204.7 142.4 206.3 146.3 212.8 147.6C 216.4 148.3 216.5 148.5 220 166C 224.3 187 228 198.4 233 206.3C 235.3 210 235.8 211.5 235 213.4C 234.5 214.7 229.7 219.6 224.2 224.3C 212.9 234.1 207 240.4 204.4 245.8C 202 250.6 201.9 265 204.3 269.5C 207.8 276.3 216.2 281.6 225.2 282.8L 230.8 283.5L 224.8 293C 218.6 302.9 215.7 308.4 211.8 318.4C 209.9 323.4 208.8 324.7 205.1 326.8C 199.9 329.7 195.5 334 180.5 351C 165 368.5 158.9 379 161.1 384.7C 161.6 386.1 161.9 387.4 161.8 387.5C 161.6 387.6 159 389.3 155.9 391.3C 150.3 394.8 150.2 394.8 147.3 393C 143.6 390.8 137.1 383.2 136.5 380.5C 136.3 379.4 135.2 374.7 134.1 370C 129.6 350.7 118.9 284.1 119.1 276.8C 119.3 272.1 117.9 269 115.7 269C 115.1 269 113.1 267.6 111.3 265.8C 108.3 262.9 107.8 262.8 105.3 263.9C 101.1 265.9 87.5 268.6 70 270.9C 61.5 272.1 51.7 273.4 48.4 274C 45 274.5 40.5 275 38.3 275C 31.7 275 30.8 277.3 32.9 289.5C 33.5 292.8 34.4 299.1 34.9 303.5C 36 312.1 38.4 325.6 40 333C 41.8 341 44.8 358.1 47.5 375.4C 50.5 394.1 50.7 392.5 44 396.3C 41.6 397.6 41 398.5 41.5 399.8C 42.9 403.2 43.3 405.3 42.4 404.7C 41.8 404.4 40.1 404.8 38.5 405.5C 34.9 407.1 18.4 410 12.5 410C 5.79997 410 4.69997 411.4 5.69997 419C 6.19997 422.6 6.39997 428.4 6.29997 432C 5.89997 442.9 5.89997 443.3 8.39997 446C 10.6 448.2 13.4 453.3 26.5 479C 30.2 486.1 30.4 487.3 32 513C 33.7 540.4 34 562.9 32.8 565.6C 31.9 567.6 32.1 568.6 34.3 571.7C 37.4 576.3 43.9 590.3 52.2 610C 55.5 618 58.6 624.9 59 625.5C 60.1 627 67.4 641.6 70.5 648.5C 72 651.8 75.3 658.8 77.7 664C 80.2 669.2 83.5 677.1 85 681.5C 90.1 695.7 94 707.4 95.6 713.3C 97.6 720.7 99.2 721.4 108 718.8C 111.6 717.8 117.7 716.3 121.5 715.5C 125.4 714.7 130.4 713.6 132.7 713.2C 138.7 711.9 140 710.5 140 705.4C 140 703 140.3 701 140.8 701C 141.9 700.9 165.6 698.2 174.3 697.1C 178.5 696.5 182.4 695.8 182.9 695.5C 184.9 694.3 259 684.7 259.8 685.5C 260.1 685.8 259.8 687.2 259.1 688.6C 256.8 693.8 260.9 697.9 266.7 696C 268.2 695.6 274.2 694.9 280 694.5C 286.5 694.1 291 693.4 291.8 692.6C 293.4 691.1 295.5 676 296.9 656.3C 297.5 648.7 298.6 635.5 299.5 627C 304.6 576 305.8 562.5 305.3 561.7C 304.7 560.6 305.8 560.8 309 562.5C 310.7 563.4 312.3 565.2 312.6 566.7C 313.8 571.4 312.1 616.2 310.1 633C 309 642.1 307.9 657.7 307.6 667.7C 307.1 688.4 307.2 688.9 315.2 689.7C 320.9 690.2 325.5 687.4 328 681.7C 329.8 677.8 330 674.8 330 641.5C 330 621.7 330.4 604.9 330.9 604.1C 331.7 602.8 332.5 602.9 336.2 604.4C 338.6 605.4 341.5 606.6 342.8 607.1C 345.7 608.2 345.6 609.4 342 612.2C 339.2 614.4 339.1 614.8 338.6 625C 338.3 630.8 337.7 636.7 337.1 638.2C 335.7 641.9 336.7 644.9 340.7 649.1C 343.8 652.4 344 652.8 342.4 654.1C 339.5 656.5 337.8 661.8 338.6 666.5C 340 676.2 336.3 684 322.9 699.5C 316.1 707.4 312 715.1 312 720C 312 724.6 315.6 731.6 319.4 734.5C 321.1 735.8 326.6 738.3 331.5 740C 338.7 742.4 342.1 743 348.9 743C 368.9 743 387.7 732.1 397 715.1C 400.4 708.9 401.9 707 406.8 703.3C 409.9 700.9 411.2 694.9 411.5 681.5C 411.6 675.4 412.2 669.3 412.8 667.9C 413.9 665.1 413.8 661.4 412.2 653.5C 411.2 649 411.4 648.1 413.4 644.5C 414.7 642.3 416.1 637.8 416.5 634.5C 417.6 626.7 417.7 611.9 416.7 609.9C 416 608.6 417.4 608.2 426.2 607.2C 431.9 606.6 439.8 605.2 443.8 604.2C 450.6 602.5 453.8 603 448.5 605C 444.1 606.7 441.8 613.2 441 626C 440.5 632.3 439.9 639.2 439.5 641.3C 438.7 645.6 440.6 649.4 444.5 651.2C 447.6 652.6 448.6 655.1 446.5 656.3C 445.6 656.8 444.4 658.4 443.9 659.8C 441.9 665.1 439 684.7 439 693.3L 439 702.1L 445.6 705C 456.4 709.9 464.7 711.9 478.8 712.9C 493.1 714 495.8 713.5 498.4 709.9L 500 707.6L 512.2 710.8C 522.3 713.3 538.8 715.6 546 715.4C 552 715.3 563.5 713.5 568.5 711.9C 571.8 710.9 575.3 710 576.3 710C 581.4 710 587 702.7 587 696C 587 690.3 581.5 681.9 575.2 677.9C 572.7 676.3 570.2 675 569.7 675C 569.2 675 567.4 674.4 565.7 673.6C 563.9 672.8 559.1 670.9 555 669.4C 550.9 667.8 545.3 665.3 542.5 663.8C 539.8 662.2 535.2 659.8 532.3 658.4C 529.4 657 525.3 653.7 523.1 651.1C 520.9 648.6 517.9 645.3 516.5 643.9C 514.3 641.6 514.1 640.8 515 638.5C 515.5 637.1 516 633.8 516 631.2C 516 628.6 516.7 623.8 517.5 620.5C 520.2 609.4 519.1 603.1 513.9 600.4L 511.2 599L 513.2 593.8C 514.3 590.9 516.1 587.5 517.2 586.3C 518.3 585.1 519.3 583 519.3 581.6C 519.3 579.7 520.2 578.8 523.3 577.4C 525.5 576.4 529 574.3 531.1 572.8C 533.3 571.2 535.1 570 535.3 570C 536.3 570 536.8 593 536 604.9C 534.7 624.8 533.9 653.6 534.6 655.5C 535.6 658 540.6 660.1 543.7 659.4C 545.8 658.8 551.4 656.1 553.8 654.4C 554 654.3 554.3 641.9 554.5 626.8C 554.8 599.6 555.1 593.4 557 570.5C 557.6 563.9 558.5 553.2 559 546.6C 559.9 535 561.3 530.7 564.6 528.7C 566.7 527.5 569.3 519.4 568.6 516.4C 567.8 513.5 559 504.6 552.3 499.9L 548.1 497L 548.7 485.1C 549.1 476.4 548.9 472.2 548 469.8C 545.5 463.5 534.4 453.3 518.3 442.6C 514.3 440 511 437.6 511 437.4C 511 437.1 513.8 433.6 517.1 429.7C 526.1 419.1 533.2 403.8 536.3 388C 539.6 371.4 540 367.9 540 356.9C 540 339.6 537.2 324.2 532.6 315C 527.7 305.4 514.2 287.5 504.8 278.3C 497.6 271.2 484.3 260.3 478.5 256.6C 476.9 255.5 473.2 252.7 470.2 250.3L 464.9 246L 468.7 246C 474.3 246 482.3 243.6 487.6 240.3C 499.9 232.8 500.8 212.7 489.3 198.3C 481.6 188.6 475.7 183.4 464.3 176.1C 461.4 174.3 459 172.4 459 171.9C 459 171.3 459.9 169.9 461 168.7C 464.2 165.3 468 156.4 469.1 149.9C 471 137.9 466.7 125.2 458.4 118.2L 454.2 114.7L 456.8 112.4C 459.3 110.4 459.5 109.6 459.3 103.7C 458.7 85.8999 450.8 68.3999 435.5 51.3999C 424.8 39.4999 414.7 32.0999 396.6 23.0999C 378.6 14.1999 369.1 11.0999 346 7.09991C 340.4 6.09991 315.2 5.90002 308 6.70001zM 350.5 13.1C 360 14.7 375.7 18.8 380.8 21.1C 403.7 31.3 416.1 38.9 425.5 48.5001C 438.7 61.8 444.5 71.0001 449.5 86.4001C 451.7 93.1001 452.1 95.9001 451.8 103.5C 451.5 113.6 451.4 113.7 445 110.3C 443.6 109.6 441.5 109 440.3 109C 438.1 109 438.1 108.9 439.7 105.6C 442.1 100.5 440.2 96.7 433.9 93.7C 430.4 92.2 429 90.9 429 89.5C 428.9 84.7 426.3 79.5 422.9 77.8C 419.6 76.2 419.2 76.2 413 78.4C 402.6 81.9999 398.7 84.4 396.2 88.9L 393.9 92.9L 396.5 97.9999C 398.9 102.8 400.6 104.3 413.4 113.3C 415.2 114.6 415.2 114.7 412.5 118.9L 409.8 123.2L 405.2 118.8C 397.4 111.4 389 105.4 375 97.1999C 367.9 93.0999 350.1 87.8999 337.8 86.4999C 332.9 85.9999 332.1 85.4999 331.2 83.1999C 330 80.0999 327.3 70.7999 326.5 66.6999C 325.3 60.6999 322.1 64.8999 318.4 77.5999C 317.5 80.7999 316.2 83.7999 315.6 84.1999C 315 84.5999 310.2 84.9999 305 84.9999C 299.8 84.9999 293.9 85.3999 292 85.8999C 290.1 86.3999 286.3 87.0999 283.5 87.4999C 280.8 87.7999 273.6 89.4999 267.7 91.1999C 259.6 93.5999 256.7 94.0999 255.8 93.1999C 253.9 91.2999 253.3 82.8999 254.6 75.3999C 256.3 65.0999 254.8 63.3999 249.4 69.1999C 242.8 76.4999 238.6 85.7999 237.4 95.9999C 236.4 104.4 235.7 105.4 228.3 109.3C 224.6 111.3 218.7 115 215.3 117.5C 209.7 121.6 209 121.9 208.2 120.3C 203.8 111.7 210.6 84.0999 220.8 69.0999C 222.9 66.1998 225 62.7999 225.7 61.5999C 227.7 58.0999 240 44.2999 243.9 41.1998C 257.7 30.2998 270.2 23.0999 285 17.7998C 303.2 11.1998 303.7 11.0998 325 11.5998C 335.7 11.8998 347.2 12.6 350.5 13.1zM 325.9 85.0001L 327.5 91.5001L 332.5 91.8C 346.9 92.6 353.9 93.9 363 97.5001C 384 105.8 400.1 118 406.3 130.4C 407.9 133.5 409.5 136 410 136C 411.3 136 414 131.8 414 129.8C 414 128 417.3 121.8 419.9 118.6C 422.4 115.6 429 113 434.2 113C 440.1 113 448.4 116 453.1 119.9C 457.9 123.9 463 133.7 463.7 140.3C 464.4 146.9 461.3 157.7 456.9 164.4C 453.6 169.3 445.8 176 443.3 176C 442.6 176 440.7 176.8 439.3 177.7C 437.3 179 434.7 179.5 429.4 179.4C 423.3 179.4 421.5 178.9 418.1 176.7C 415.9 175.2 413.1 174 412 174C 409.5 174 408.3 176.7 409.8 179C 411.7 182.2 405.8 191.3 394.6 202.5C 374.1 222.9 351.4 235.3 329.5 237.9C 305.9 240.7 281.7 237.3 264.5 228.7C 249 221 238.3 208 231.5 188.7C 230 184.4 228.9 180.8 229.1 180.6C 229.3 180.4 232 180.6 235 181C 241.1 181.8 245.8 181 249.5 178.6C 253.8 175.8 252.2 171.8 247.8 174.1C 246.5 174.8 241.6 175.4 236.9 175.5L 228.2 175.7L 226.7 168.6C 225.9 164.7 224.5 158.6 223.7 155C 222.9 151.4 222.5 148.3 222.9 148C 223.2 147.7 224.3 145.8 225.2 143.8C 227.3 139.4 232.5 136.4 241.4 134.6C 248.9 133 249.7 130.8 243.1 129.9C 234.5 128.8 223.3 134.2 221.4 140.4C 220.7 142.5 220.7 142.5 219.9 140.5C 218.2 136 219 133 223.1 128.5C 226 125.4 228.7 123.6 231.9 122.6C 235.1 121.7 236.5 120.8 236.5 119.5C 236.5 114.1 226.7 116.4 219.1 123.7C 214.3 128.3 214 128.5 214 127.1C 214 124 230.2 113.1 238 111C 242.5 109.8 243.2 108.3 242.6 100.5C 242.3 95.6002 245.9 81.8002 248.1 79.5002C 248.6 79.0002 249 82.6002 249 89.2002C 249 101.6 249.9 103.2 255.2 100.7C 261.5 97.7002 274 93.9002 284.5 91.9002C 294.9 89.9002 307.7 89.7002 317.1 91.5002C 321.5 92.3002 322.3 91.4002 322.5 85.0002C 323 73.9002 323.2 73.8 325.9 85.0001zM 422.2 85.4001C 424.2 88.3001 420.7 105.5 417.8 107.3C 413.8 109.9 401 99.3001 401 93.5001C 401 91.3001 406.6 86.0001 408.9 86.0001C 409.5 86.0001 411.6 85.1001 413.7 84.0001C 417.4 82.1001 420.3 82.5001 422.2 85.4001zM 432.6 101.5C 433.3 103.3 429.6 108.6 427.2 109.2C 425.5 109.7 425.4 109.3 426 105.7C 426.8 101.8 428.2 100 430.8 100C 431.5 100 432.3 100.7 432.6 101.5zM 454.2 177.7C 454.5 178.5 455.8 179.2 466.4 184.9C 476.3 190.2 489.1 205.3 491.1 213.9C 492.3 219.1 491 227.6 488.6 231.3C 484.9 236.7 479.8 238.9 466.5 240.6C 459.2 241.5 435 231 427.2 223.6C 420.9 217.6 419 212.9 418.1 200.8C 417.3 190.7 417.6 184 418.9 184C 419.2 184 421.2 184.5 423.3 185.1C 426.2 185.9 427 186.6 427 188.4C 427 195.7 436.2 213.7 442.9 219.3C 447.3 223 456.2 226 462.5 226C 467.1 226 468.5 225.5 471.1 223.2C 473.8 220.8 474.1 219.9 474.1 214.9C 474.1 205.4 470.2 197.5 461.2 188.9C 456.9 184.8 452.6 181 451.5 180.3C 449.8 179.3 449.7 179 451 178.1C 452.8 176.8 453.7 176.7 454.2 177.7zM 449.5 186.9C 457.4 191.1 464.5 198.9 466.4 205.3C 470.4 219.1 466.9 222.8 454 218.5C 445.6 215.7 437.3 204.4 434.3 191.7C 433 186 433.3 183.4 435 184.5C 435.4 184.8 436.9 184.6 438.2 184.1C 441 182.9 443 183.4 449.5 186.9zM 411.6 202.1C 411.9 206.2 413 211.9 414 214.8C 415.1 218.1 415.3 220 414.6 219.7C 414 219.5 409 217.8 403.5 215.9L 393.5 212.6L 401.7 204.1C 406.3 199.4 410 195.1 410 194.6C 410 194.1 410.2 193.9 410.5 194.2C 410.9 194.5 411.3 198.1 411.6 202.1zM 392.1 229.8C 392.7 234 393 240.6 392.7 244.5C 392.2 251.1 389.1 263.5 387 267.2C 386.4 268.2 386 269.6 386 270.4C 386 271.2 385.6 272.1 385.1 272.5C 384.5 272.8 384.6 271.6 385.2 269.8C 391.2 251.1 392.6 232.6 388.9 222.6C 387.9 219.9 387.4 217.2 387.7 216.6C 388.8 214.9 390.9 221.4 392.1 229.8zM 244 223.3C 244 225.3 239.3 231.4 231 240C 223.9 247.3 221 251.9 221 255.9C 221 259.4 223.1 262.8 226.4 264.5C 229 265.9 230.2 266 233.7 265.1C 240.5 263.3 248.8 252 250.4 242.5C 250.8 240.3 251.5 236.2 252.1 233.3L 253.1 228.1L 256.6 230.2C 259.7 232 260 232.6 260 236.8C 259.9 242.2 258.5 249.4 256.8 253C 256.1 254.4 251.9 259.2 247.5 263.8C 243.1 268.3 239.2 272.7 238.8 273.4C 238.3 274.3 235.2 275.1 230.5 275.5C 220.5 276.5 215 274.5 211.2 268.7C 208.9 265.2 208.5 263.6 208.5 257.6C 208.6 247 211.7 242.3 227.4 229.3C 232.3 225.3 237.1 220.8 238.2 219.5L 240.2 217L 242.1 219.4C 243.1 220.7 244 222.5 244 223.3zM 419.3 228.5C 426.4 231.9 430.1 234.4 433.1 237.9C 439.5 245.1 449.9 261.3 456.2 274.2C 466.1 294.1 468.2 300.4 475.4 332.3L 477 339.1L 471.3 348.3C 468.2 353.4 464.8 359.1 463.7 361C 462.6 362.9 460.7 366.1 459.4 368C 456.6 372.3 450.9 382.8 447.6 389.7C 445.3 394.5 444.2 395.5 441.6 395.1C 441.2 395 439.3 395.8 437.4 396.9C 426.3 403.5 389.2 409.1 358.5 408.9C 350.3 408.8 341 408.4 338 407.9C 324.5 405.7 314.1 403.9 309.9 403.2C 303.3 402 294.7 396 291.3 390.2C 287.9 384.4 285.5 367.2 287.7 364.1C 291.4 358.7 289.4 344.5 280.7 314.2C 277.2 302.2 262.2 275.9 255.1 269.6C 252.7 267.4 252.4 265.5 254.4 264.3C 255.6 263.6 265.6 254.7 276.8 244.4L 281.3 240.3L 287.9 241.9C 291.8 242.9 295.3 244.4 296.5 245.7C 297.6 246.9 302.6 249.3 307.5 251C 320.6 255.7 327.7 258.8 334.5 262.8C 343.2 267.9 356.1 276.6 359 279.2C 360.4 280.5 363.1 282.6 365 284C 366.9 285.3 370 288.1 371.8 290.2C 376.5 295.5 379.1 295.3 383.4 289.2C 387.4 283.8 387.8 283.1 392 272.7C 395.6 263.6 399 247.1 399 238.5C 399 235.2 398.3 230 397.5 227C 396.7 224 396 221 396 220.3C 396 218.6 407.1 222.5 419.3 228.5zM 383.9 225.7C 386.5 235 383.4 258.1 378.3 267.7C 377.3 269.5 376.3 271 375.9 271C 375.6 271 371.3 268 366.4 264.4C 361.3 260.6 351.6 254.9 343.9 251.1L 330.3 244.5L 338.4 242.6C 349.6 240.1 357.2 236.9 370.3 228.9C 376.5 225.2 381.8 222.1 382.2 222.1C 382.6 222 383.4 223.7 383.9 225.7zM 243 244.8C 241.6 250.6 236.6 257.8 233.5 258.6C 230.1 259.5 228 258.5 228 255.9C 228 253.5 230.3 250.2 238 241.8C 242.9 236.5 243.5 236 243.8 238C 244 239.2 243.7 242.3 243 244.8zM 271.7 237.8L 274.8 239.5L 270.4 243.3L 266 247.1L 266 241.6C 266 235.4 266.6 235 271.7 237.8zM 460 250.4C 476.2 261.7 485.6 268.4 488.5 270.7C 503.7 283.3 520.4 303.5 526.9 317.4C 531.9 327.9 533.3 336.6 533.3 356.5C 533.3 374.7 531.7 384.8 526.5 400.3C 522.2 412.9 518.3 419.5 509.2 428.8L 502 436.4L 499 432.9C 497.4 431 496.1 429.2 496 428.8C 495.9 427.1 469.1 411 456.8 405.3L 450.1 402.1L 453.6 393.8C 458.2 382.8 463 373.8 470.9 360.8C 474.5 354.9 479.2 347.4 481.2 344.1C 485.4 337.2 486.7 336.8 493.9 340.1C 498.6 342.2 501 342 501 339.6C 501 338.3 496.4 335.6 490.5 333.5L 488.5 332.8L 490.5 332C 491.6 331.5 493.6 331.1 495 331.1C 496.4 331 498.1 330.6 498.9 330.1C 500.2 329.3 500.2 328.9 499 327.5C 497.8 326.1 496.5 325.9 491.5 326.5C 488.2 326.8 484.3 327.4 482.8 327.7C 480.5 328.2 480 327.9 480 326.3C 480 322.8 476.1 308.3 471.8 296.2C 466.2 280.2 457.5 262.4 448.7 248.8C 446.7 245.7 445 242.9 445 242.6C 445 241.4 453.1 245.6 460 250.4zM 319.2 245.5C 321 246.3 327.2 248.9 333 251.3C 346.3 256.9 358.4 264.7 368 273.9C 373.8 279.5 376 281 377.7 280.7C 379 280.5 380 280.7 380 281.2C 380 283 377.1 283.1 373.9 281.5C 370.8 279.8 359 271.9 356 269.5C 351.3 265.6 324.3 251.2 315.5 247.9C 312.2 246.7 309.1 245.3 308.6 244.8C 306.9 243.4 315.7 243.9 319.2 245.5zM 101.4 272C 100.9 272.5 96.7 273.6 92 274.4C 87.3 275.3 81 276.4 78 276.9C 60.4 280.1 53.7 281 48.4 280.9C 43.4 280.9 42.9 280.7 45 279.8C 46.4 279.3 51.6 278.4 56.5 278C 65.5 277.1 87.5 273.9 96 272.1C 102.3 270.9 102.5 270.9 101.4 272zM 251.7 274.2C 254.5 277.5 261 288 266.7 299C 275.1 315 281 335.9 281.2 350C 281.3 361.3 280.5 372.4 279.3 374.4C 278.5 375.9 277.9 375.6 274.4 371.3C 261.3 355.3 239.9 338.8 224.2 332.5C 220.2 330.9 216.7 329.3 216.4 328.8C 215.7 327.7 219.1 318.7 224.1 308.8C 229.3 298.4 246.7 272 248.4 272C 249.1 272 250.6 273 251.7 274.2zM 110.8 277.9C 111.6 278.4 112.8 282.1 113.5 286.1C 115.4 296.9 117.8 311.1 119.6 322.5C 120.4 328 122.7 340.8 124.7 351C 129.6 376.6 130.7 383.6 132.3 400.9C 132.5 402.9 131.8 403.5 128 404.6C 120.8 406.8 85.1 413.9 77.8 414.6L 71.1 415.3L 70.5 411.4C 70.1 409.2 69.1 405.5 68.3 403C 66.8 398.2 65.5 392.3 64 382.5C 63.1 376.7 60.8 363.3 59 354C 56.7 342.3 54.8 331.4 53 319.5C 51.9 312.3 50.5 304.1 50 301.1C 48.6 293.5 48.8 288.4 50.4 287.1C 51.1 286.5 55.3 285.5 59.6 284.9C 63.9 284.3 70.6 283.5 74.3 283C 78.1 282.5 81.5 281.8 81.9 281.6C 82.6 281.2 97.4 278.7 105.5 277.7C 107.2 277.5 108.7 277.2 109 277.2C 109.3 277.1 110.1 277.4 110.8 277.9zM 43.9 301.2C 44.6 306.3 45.5 312.7 46 315.5C 46.5 318.2 48.1 327 49.5 335C 51 343 52.5 350.8 53 352.5C 53.9 355.7 57.5 376 59.1 387C 59.6 390.6 60.4 395.5 60.9 398C 63.1 408.8 63.2 410 62.2 410C 61.6 410 60.9 408.5 60.5 406.7C 60.1 405 58.3 397 56.5 389C 54.6 381 52.6 371.1 52 367C 51.3 362.9 50.4 358.1 49.9 356.5C 49.4 354.8 48.6 349.9 48 345.5C 47.5 341.1 46.4 334.3 45.5 330.5C 43.6 321.4 39 292.4 39 289.7L 39.1 287.5L 40.9 289.7C 42.1 291.1 43.1 295 43.9 301.2zM 211.8 335C 215.6 335 224.7 338.2 230.7 341.6C 237 345.3 248.9 354.1 251.9 357.3L 254.2 359.9L 250.7 366.2C 242.1 381.4 222.1 402.2 210.1 408.5C 207.3 409.9 207.1 409.8 200.4 404.5C 196.6 401.5 188 396.1 181.3 392.5C 174.5 388.9 168.6 385 168 384C 166.9 381.9 167.8 378.6 170.9 374.2C 171.9 372.7 174.4 369 176.4 366C 178.3 363 181.2 359.1 182.7 357.4C 184.2 355.7 189.5 349.7 194.3 344.2C 199.1 338.7 203.6 333.9 204.3 333.7C 205 333.5 206.3 333.7 207.2 334.1C 208.1 334.6 210.2 335 211.8 335zM 264.7 368.8C 273.2 378.8 275.1 386.7 270.5 392.2C 269.1 393.8 268 395.8 268 396.6C 268 397.4 267.2 399.3 266.1 400.8C 265.1 402.3 262.6 406.1 260.6 409.2C 252.9 421.1 239.9 430.4 229.1 431.7C 224.7 432.2 224.1 432 222.9 429.9C 222.2 428.6 219.7 424.8 217.3 421.6C 215 418.3 213 415.3 213 415C 213 414.7 214.5 413.6 216.3 412.6C 222.2 409.2 244 386 251.7 374.8C 255.8 368.8 259.5 364 259.9 364C 260.3 364 262.5 366.1 264.7 368.8zM 284.2 392.8C 285.2 394.9 287.7 398.6 289.7 401L 293.4 405.3L 289.7 415.9C 287.2 423 285.6 430 284.7 437.3L 283.5 448L 274 441.1C 268.8 437.2 262.6 432.8 260.3 431.3C 258 429.8 255.8 427.9 255.5 427.1C 255.2 426.4 256.6 424.2 258.5 422.1C 260.5 420.1 264 415.4 266.3 411.6C 268.6 407.8 272.1 403 274.1 400.9C 276.1 398.9 278.6 395.3 279.6 393.1C 280.7 390.9 281.7 389.1 282 389.1C 282.3 389.1 283.3 390.8 284.2 392.8zM 171 393.3C 186.1 401.4 190.3 403.9 195 407.5C 202.3 413.2 211.8 423 212.2 425.4C 212.4 426.8 210.9 427.9 204.5 430.5C 200.1 432.3 193 435.4 188.6 437.4C 180.5 441.1 178.1 441.7 174.3 440.5C 172.5 439.9 171.7 440.5 169.7 443.7C 168.3 445.8 165.4 449.4 163.1 451.8C 157.9 457.3 155.9 463.8 156.7 472.5C 157.2 478.4 157.1 479 154.7 481.4C 151.5 484.6 150 484.7 147.2 481.7C 142.7 476.9 140.8 466.8 143.1 460.1C 144 457.6 143.9 456.5 142.6 454.5C 140.9 452 138.2 451.3 136.5 452.9C 135.9 453.4 132.1 454.5 128 455.5C 116.5 458.2 113 460.5 109.5 467.6C 107.9 470.9 105.9 475.2 105.2 477.1C 102.8 483.1 100.2 487.5 97.8 489.2C 94.8 491.3 89 492.6 89 491.1C 89 490.4 90.9 485.8 93.3 480.7C 95.7 475.7 98.2 469.6 99 467.2C 100.4 462.9 101.6 461.4 105.4 459.5C 108.5 458 108.6 454.6 105.7 453.3C 103.7 452.4 102.7 452.5 100.9 453.8C 96.3 457 94.3 459.5 93.2 463.5C 89.5 477.4 83.1 485.5 74.3 487.4C 68.4 488.7 69.1 485 76.4 475C 79 471.6 81 468.4 81 467.9C 81 465.8 88.3 457.1 91 456C 96.2 453.8 96 448.7 90.7 448.7C 86.8 448.7 82.2 452.9 78.4 460C 74 467.9 68.4 475 66.4 475C 63.5 475 65.5 469.8 71.4 462C 73.8 458.9 76.1 455.4 76.4 454.4C 76.8 453.3 78.6 451.4 80.6 450C 88.5 444.4 88.5 444.4 87.1 442.7C 86.4 441.8 84.9 441 83.7 440.8C 81.2 440.3 87 437.4 102.4 431.5C 111.7 427.8 119.9 424.5 123.6 422.8C 124.8 422.2 128.6 419.1 132.1 415.8C 135.6 412.4 143.6 406.4 150 402.2C 156.3 398.1 162.4 394.2 163.5 393.4C 166.1 391.7 167.9 391.7 171 393.3zM 143 399.1C 143 400.9 141.2 400 140.7 397.9C 140.3 396.3 140.4 396.1 141.6 397.1C 142.4 397.7 143 398.6 143 399.1zM 439.8 406.2C 438.6 408.1 436.9 408.6 431.4 409.3C 427.6 409.7 422.9 410.7 420.9 411.5C 407.6 416.7 357 420.2 333.5 417.4C 318.7 415.7 300 410.4 300 407.8C 300 406.6 302.5 406.8 306.7 408.4C 320.4 413.5 379.5 415.5 404 411.7C 422.6 408.8 432.8 406.8 436.8 405.4C 438.8 404.7 440.7 404.1 440.9 404C 441.1 404 440.6 405 439.8 406.2zM 61.7 420C 64.8 424.4 67.5 431.9 66.4 432.9C 66.1 433.2 63.5 431 60.6 427.9C 55.4 422.4 51.9 416.3 50.5 410.6L 49.9 407.6L 54.2 411.6C 56.6 413.7 60 417.5 61.7 420zM 464.5 415.7C 484.3 426.6 486.9 429.1 481.6 431.9C 479.4 433.1 478.7 432.8 473.2 429.2C 466.3 424.5 453.4 417.9 447.3 416C 442.6 414.6 441.9 412.8 444.7 409.7C 447.2 407 450.5 408 464.5 415.7zM 126.5 411.5C 125.4 412.3 123.4 413.9 122.1 415C 119.4 417.4 118.6 417.7 94.2 427.6C 84.1 431.7 75.5 434.8 75 434.5C 73.6 433.6 70.8 421.8 71.8 420.8C 72.3 420.3 76.7 419.3 81.6 418.5C 98 416 110.4 413.8 118 412C 127.5 409.7 129.1 409.6 126.5 411.5zM 46.3 418.3C 46.3 421.9 46.9 423 52.9 429C 56.5 432.6 60.9 437.9 62.6 440.6L 65.7 445.7L 62.8 448.9C 60.3 451.7 59.9 452.8 60.1 457.8C 60.2 461.4 59.6 464.6 58.6 466.5C 56.1 471.1 56.5 475.5 59.7 478.4C 61.8 480.4 62.4 481.7 62.2 484.3C 61.6 490.6 70.5 495.9 76.7 493.1C 78.1 492.4 79.4 492.1 79.5 492.2C 79.6 492.4 80.2 493.5 80.8 494.6C 82 496.9 87.7 500 90.7 500C 93.3 500 102.3 494.1 105.1 490.5C 108.4 486.4 109.7 483.9 112.2 477.2C 115.5 468.3 119 464.5 125.8 462.5C 128.9 461.6 132.5 460.4 133.8 459.9C 135.1 459.4 136.2 459 136.3 459C 136.4 459 136.4 462.3 136.2 466.4C 135.7 476 137.8 482.5 143.1 487.9C 146.5 491.5 147.5 492 151.6 492C 155.8 492 156.6 491.6 160.1 487.7L 164 483.5L 163.8 473L 163.5 462.5L 168.2 456C 172.2 450.4 173.5 449.3 177.7 448.1C 180.3 447.3 183.2 446.3 184 445.9C 186 444.8 204.5 436.6 209.4 434.6C 211.6 433.7 213.6 433.3 213.9 433.8C 218.1 439.8 233.6 439.3 244.9 432.7L 249.3 430.2L 255.4 434.8C 258.7 437.3 263.1 440.6 265 442C 266.9 443.5 276.6 450.4 286.5 457.5C 296.4 464.6 308.5 473.7 313.4 477.9C 318.2 482.1 323.2 486.3 324.4 487.2C 327.2 489.5 325.7 490.5 318.2 491.4C 315 491.7 307.3 492.6 301 493.4C 294.7 494.2 281.9 495.8 272.5 496.9C 263.2 498 247.9 500.1 238.5 501.5C 207.2 506.2 183.1 509.3 167.5 510.5C 157 511.4 127.7 514.8 108 517.5C 98.4 518.9 87.4 520.2 83.5 520.6C 76.7 521.2 76.4 521.1 73.9 518.4C 72.5 516.8 70.7 514.5 69.9 513.4C 55.3 491.5 56.1 492.8 43.5 469.5C 37.6 458.5 30.1 445.2 27 440C 20.5 429.2 13.7 416 14.3 415.4C 14.8 414.9 28.3 413 37.5 412.1C 45.5 411.4 46.3 411.9 46.3 418.3zM 305.5 417.9C 319.4 422.2 333.2 424 352.7 424C 371.9 424 397.7 422.5 406.9 420.9C 412.3 420 415.1 420.4 411.4 421.5C 405.2 423.5 398.1 426.7 395.1 428.9C 389.1 433.4 380.2 449.6 375.9 463.8C 374.5 468.3 376.2 470.8 383.1 474.3C 386.1 475.9 389.6 477.8 391 478.5C 392.4 479.3 394.5 480 395.6 480C 396.8 480 398.3 480.7 399 481.5C 399.7 482.3 401.7 483.2 403.6 483.6C 405.5 483.9 407 484.6 407 485C 407 485.4 409 486.3 411.5 487C 415.1 488 416.6 488 419.1 487C 423.9 485 432.9 478 439.5 471.2C 444.9 465.5 445.8 465.1 450.9 464.4C 462.8 463 481.1 451.4 483.5 443.9C 484.2 441.6 486.9 441.5 495.2 443.2C 499.7 444.1 501.7 444.1 504.3 443.2C 507.6 442 508 442.2 516.7 448C 529.4 456.4 539.4 465.9 541.6 471.7C 543.2 475.9 543.3 477.7 542.1 493.4C 540.8 512.5 539.9 522.5 537.4 544.5C 535.6 561.1 535.6 561.1 526.8 567.5C 519.1 573.1 507.7 578.1 487.5 584.6C 479.8 587.1 471.9 589.8 470 590.5C 462.3 593.3 444.9 598 434.5 599.9C 415.1 603.5 405 604.3 382 604.4C 363.8 604.4 357.9 604.1 351.2 602.6C 339.1 600 332 597.3 328.7 594.2C 325.9 591.5 325.8 591.4 326.5 583C 327.5 569.4 332 543.7 333.9 540.1C 336 536.3 334.5 533.6 329.3 531.2C 324.2 528.8 318.3 524.4 319.1 523.6C 319.4 523.3 323.2 522.9 327.7 522.8C 332.6 522.6 336.4 521.9 337.4 521.1C 339.2 519.6 339.6 515.5 338 514.5C 336.6 513.6 336.7 499.7 338.2 496.5C 339.8 493 338.1 489.7 332.8 486.4C 330.4 484.9 326.2 481.7 323.4 479.1C 318.5 474.6 305 463.7 296.5 457.3C 292.8 454.5 292.1 453.5 291.5 449.2C 290.1 438.7 294.5 414.2 297.6 415.4C 298.3 415.7 301.8 416.8 305.5 417.9zM 447 421.7C 453.2 423.7 457.7 425.9 463 429.3C 468.4 432.9 476 440 476 441.5C 476 442.1 474.6 444.2 472.9 446.3C 468.4 451.8 458.5 456.9 448.5 458.9L 439.9 460.6L 431.1 469.5C 426.2 474.3 421.2 478.9 419.9 479.6C 416.2 481.7 414 481.3 414 478.7C 414 476.4 421.6 463.3 425.2 459.3C 427.6 456.8 427 454 424.1 454C 422.3 454 419 457.9 411.8 468.5C 410.4 470.7 408.3 473.6 407.2 474.9L 405.2 477.3L 404.1 475.2C 403.2 473.5 403.5 471.8 405.7 466.3C 407.2 462.6 409.9 457.1 411.9 454.2C 415 449.4 415.2 448.8 413.7 447.3C 412.9 446.4 411.6 446 410.8 446.2C 409.6 446.7 396.9 468 396.2 470.8C 395.6 473.2 393.5 471.4 393.2 468.2C 392.9 465 397.9 453.2 402.8 445.7C 405.1 442.2 405.2 441.8 403.8 440.3C 402.9 439.5 401.7 439.1 401.1 439.5C 399.7 440.3 395.7 446.5 391.4 454.5C 386.3 464.2 384.5 467 383.8 467C 382.3 467 383 463.3 385.9 455.4C 392.9 436.2 399.8 430.1 423.3 421.9C 432.3 418.9 438.2 418.8 447 421.7zM 24.1 447.6C 26.8 452.1 29 456.2 29 456.7C 29 457.3 30.3 459.5 31.8 461.6C 33.3 463.7 36.6 469.3 39.1 474C 43.5 482.2 55.8 503.2 62.3 513.5C 65.4 518.3 65.5 519 65.8 530.5L 66.1 542.5L 63.5 538C 62 535.5 59 529.7 56.8 525C 48 506.5 26.2 463.9 22.9 458.5C 19.1 452.5 15.2 441.9 14.5 435.9L 13.8 430.5L 16.5 435C 18 437.5 21.4 443.2 24.1 447.6zM 495.5 436C 495.9 436.6 495 437 493.6 437C 492.2 437 491 436.5 491 436C 491 435.4 491.9 435 492.9 435C 494 435 495.2 435.4 495.5 436zM 70.7 452C 69.3 453.6 68 455.5 67.7 456.2C 67.5 456.9 66.9 457.2 66.5 456.8C 65.7 456 70.8 449 72.2 449C 72.7 449 72.1 450.3 70.7 452zM 331.2 501C 330.8 508.1 328.9 514 326.6 515.5C 322.6 518 271.5 525.3 222 530.5C 191.6 533.6 178.2 535.1 155.5 538C 118.6 542.7 110.5 543.7 99.5 544.5C 95.1 544.9 90.4 545.3 89 545.6C 84.7 546.2 73 547.1 73 546.8C 72.3 542.6 72 528 72.7 527.9C 73.1 527.9 75.5 527.7 78 527.5C 82.3 527.2 99.3 525 113 522.9C 116.6 522.3 123.1 521.5 127.5 521C 131.9 520.5 140.7 519.4 147 518.6C 153.3 517.8 163.2 516.6 169 516C 195.8 513.3 210.2 511.5 229.5 508.5C 247.5 505.8 259.3 504.2 270 503C 275.8 502.4 285 501.3 290.5 500.5C 296 499.7 305.2 498.6 311 498C 316.8 497.4 322.4 496.7 323.5 496.5C 324.6 496.4 326.9 496.3 328.5 496.4C 331.4 496.5 331.5 496.6 331.2 501zM 45.5 514.8C 47.4 518.9 49 522.4 49 522.6C 49 522.9 52.2 529.5 56 537.4C 61.9 549.4 63.6 552 66.5 553.5C 69.3 555.1 70.3 555.2 72.6 554.2C 74.1 553.5 78.5 552.7 82.4 552.4C 86.3 552.1 90.3 551.7 91.3 551.4C 92.9 550.9 93 552.4 93 572.7C 93.1 584.7 93.3 597.9 93.5 602C 93.8 606.1 94.4 618.3 95 629C 95.5 639.7 96.7 658 97.6 669.7C 98.5 681.4 98.9 691.7 98.6 692.7C 98.1 694 97.2 693.1 95 688.6C 93.3 685.4 92 681.8 92 680.7C 92 679.7 91.1 677.1 90.1 675.1C 89 673.1 85.8 666.3 83 660C 80.1 653.7 74.2 641.4 69.8 632.6C 65.5 623.9 60.6 613.5 59.1 609.6C 57.5 605.7 53.3 596.4 49.6 589C 41.4 572.1 40.5 567.4 39.1 537C 38.5 524.1 37.7 510.3 37.5 506.5L 36.9 499.5L 39.5 503.5C 40.9 505.7 43.6 510.8 45.5 514.8zM 554.5 509.5C 560.3 515.2 562 518.2 561.2 521.2C 560.7 523.3 552.9 530 548.1 532.5L 544.7 534.2L 545.4 525.8C 546.8 507.6 547.3 504 548.1 504C 548.6 504 551.5 506.5 554.5 509.5zM 321.1 533.1L 326.6 537.8L 325.9 543.1C 325.5 546.1 324.6 551.3 323.9 554.7C 322.6 560.8 322.4 561 319.5 561C 315.9 561 308.3 556.4 307.4 553.7C 306.8 551.7 309.7 530.8 311.1 527.2C 311.9 525.1 312 525 313.8 526.7C 314.8 527.7 318.1 530.6 321.1 533.1zM 305 527.8C 305 528.8 304.1 534.6 303 540.6C 302 546.6 300.6 556.4 300 562.5C 299.5 568.5 298.4 579.8 297.5 587.5C 296.7 595.2 295.2 611.8 294 624.5C 292.9 637.1 291 654 290 662C 288.9 670 287.8 678.5 287.5 681C 287 685.3 286.7 685.6 282.7 686.9C 280.4 687.6 275.9 688.4 272.8 688.7C 266.5 689.3 265.6 688.4 268.1 683.9C 270.3 679.7 263.7 674.7 260.3 678.1C 259.2 679.2 255 679.8 213 685.4C 191.8 688.3 184.9 689.3 173 691.3C 155.5 694.4 144.7 695.3 140.1 694C 134.4 692.5 132.5 694.1 132.5 700.7C 132.5 705.4 132.4 705.4 128 707.2C 120.3 710.1 107.9 712.5 107.1 711.2C 106.7 710.5 105.8 701.4 105.2 691C 104.5 680.5 103.6 668.7 103 664.7C 100.9 648.7 97.5 561.9 98.6 554.2C 99.2 550.4 99.5 550 102.2 550C 103.8 550 109.9 549.3 115.8 548.5C 124.4 547.3 153.1 543.8 180.5 540.5C 182.7 540.3 197.1 538.7 212.5 537C 256.4 532.3 293.2 527.9 297 527C 303 525.6 305 525.8 305 527.8zM 553.3 543.7C 553.1 546.9 552.3 557.8 551.5 568C 550.7 578.2 549.6 599.8 548.9 616C 548.3 632.2 547.5 646.8 547.1 648.5C 546.2 652.2 543.3 653.1 542.5 649.8C 541 643.6 541.5 561.8 543.1 550.8C 544.1 543.7 544.4 543 547.8 540.6C 553.1 536.8 553.7 537.2 553.3 543.7zM 320.4 576.2C 319.5 588.1 318.1 589.3 318 578.4C 318 573.4 318.3 569 318.7 568.7C 320.5 566.8 321 568.8 320.4 576.2zM 510 585.6C 509.4 587 507.9 590.4 506.6 593.3C 505.3 596.2 503.7 600.4 503 602.6C 501.2 608.8 500.9 609 493.4 611.1C 482.7 614 459.4 613.7 458.5 610.6C 458.3 610 457.9 607.5 457.5 605L 456.9 600.4L 463.2 598.8C 466.7 598 472 596.3 475 595.1C 478 594 481.4 593 482.5 593C 483.7 593 485.1 592.5 485.7 591.9C 486.3 591.3 490.4 589.8 494.8 588.5C 499.2 587.2 504.1 585.5 505.6 584.6C 510 582.3 511.1 582.5 510 585.6zM 324.6 600.8C 325 602.6 325 605.8 324.7 607.8C 324.3 609.8 324 622.7 323.9 636.5C 323.8 659.1 322.5 675.1 320.5 680.2C 319.8 682 316.3 683.6 315.2 682.6C 313.7 681 313.9 651.9 315.5 637.5C 316.4 629.2 317.4 616.1 317.7 608.3L 318.3 594L 321.1 595.7C 323 596.9 324.2 598.5 324.6 600.8zM 512 610.8C 512 614.3 508.5 631.7 507.2 635.2C 504.3 642.4 487.1 648.7 467.9 649.5C 459.2 649.8 456.3 649.6 452.4 648.1C 449.8 647.1 447.4 645.5 447 644.6C 446.2 642.1 447.8 617.2 449.1 614.9C 450.2 612.8 450.2 612.8 452.3 614.8C 457.6 619.6 473.9 620.5 492.1 617C 504.5 614.6 507.6 613.2 509 609.4C 510.2 606.3 512 607.2 512 610.8zM 384.8 610.3C 395.9 610.3 405 610.6 405 611C 405 612.9 397.3 618 392.1 619.7C 388 621 383.2 621.5 374 621.5C 363.2 621.5 360.9 621.2 356.7 619.3C 352.8 617.5 352 616.7 352.5 615.1C 352.8 614 352.6 612.9 352 612.5C 351.5 612.2 351 611.2 351 610.3C 351 609 351.9 608.9 357.8 609.6C 361.5 610.1 373.6 610.4 384.8 610.3zM 410 627.8C 409.4 632.6 408.2 638 407.3 639.8C 403.9 647 393.1 652.9 381.1 654C 367.6 655.4 347.7 650 346.6 644.8C 346.3 643.5 345.8 641.1 345.5 639.5C 344.8 636.5 344.8 619.8 345.5 619.2C 345.7 618.9 347.1 619.7 348.5 620.8C 354.2 625.3 369.2 628.5 380.5 627.6C 394.4 626.5 401.6 624.5 406.3 620.6C 408.6 618.7 410.7 617.5 410.8 618.1C 411 618.6 410.7 623 410 627.8zM 498 648.7C 498 651.4 491.4 660.3 487.3 663.2C 477.8 670.1 477 670.3 469.5 667.6C 461.1 664.5 457.9 661.7 458.4 657.7L 458.7 654.6L 468.1 654.4C 477.4 654.2 486.5 652.4 493.1 649.5C 497 647.9 498 647.7 498 648.7zM 516.5 653.5C 523.6 660.1 539.3 669.1 554.9 675.4C 570.3 681.7 573.2 683.3 576.8 687.5C 581.3 692.5 581.3 698 576.8 702C 571.1 707.3 549.6 710.8 534.5 709.1C 519.6 707.3 514.3 706.2 507.9 703.5C 497.8 699.3 497.4 699.3 493.7 703.4C 490.9 706.5 489.8 707.1 485.4 707.3C 482.7 707.5 475.5 707.1 469.4 706.5C 457.1 705.1 449.3 702.2 447.3 698C 445 693.4 445.8 682.3 449.5 665.2C 450.2 662.1 451.4 662.4 454.1 666.5C 455.4 668.4 457.6 670.5 459 671.2C 460.4 671.9 462.8 673.4 464.3 674.5C 468.7 677.6 480.3 677.4 485 674.1C 492.7 668.8 500.3 660.7 501.9 656.2C 505.4 646.2 508.1 645.7 516.5 653.5zM 405.4 653.6C 407.6 659.3 403.7 665 395 668.9C 390.8 670.8 390.3 670.8 388 669.3C 383.9 666.6 374.7 661.8 372 660.9C 370.3 660.4 371.6 660.1 376.3 660.1C 383.3 660 396.1 656.5 400.4 653.5C 403.1 651.6 404.6 651.6 405.4 653.6zM 356.2 657.1L 359.9 658.3L 353.2 660.6C 348.5 662.1 346.3 662.5 345.8 661.7C 344.5 659.5 349 654.5 351.5 655.5C 352.1 655.7 354.2 656.4 356.2 657.1zM 373.6 668.1C 376.1 669.4 379.2 671.5 380.4 672.8C 385.9 678.8 390.5 679 399.8 673.9L 405.1 670.9L 404.5 680.7C 404.1 686.1 403.4 691.9 402.9 693.6C 402 696.6 401.8 696.7 399 695.7C 397.4 695.1 395.8 694.9 395.4 695.2C 395.1 695.6 394.5 698.5 394.1 701.7C 393.1 709.3 389.9 715.9 383.7 722.6C 375.7 731.4 371.1 734.1 362.7 734.8C 340.6 736.7 328.6 734.8 323 728.3C 316.6 721.1 317.9 715.8 329.5 701.8C 338.9 690.5 343.6 682.5 344.6 676.2C 345 673.4 345.9 671.9 347.1 671.5C 348.2 671.1 349 670.4 349 669.9C 349 669.3 350.9 668 353.3 666.9C 358.7 664.4 367 664.9 373.6 668.1z"/>
<path style="stroke:none; fill:#000000" d="M 307.8 96.4C 301.5 98.1 295 102.5 295 105C 295 107.6 296 107.5 302.1 104.3C 306.5 102.1 308.4 101.7 315.4 101.8C 319.8 101.8 325.1 102 327 102.2C 330.1 102.5 330.5 102.2 330.5 100.1C 330.5 98 329.8 97.4 325.5 96.3C 319.3 94.7 313.9 94.8 307.8 96.4z"/>
<path style="stroke:none; fill:#000000" d="M 315 114.5C 312.5 115.1 309 116.5 307.1 117.4C 303.9 119.1 301.4 119.1 296.3 117.5C 294.7 117 294 117.2 294 118C 294 119.6 297 121.9 299.1 122C 300 122 301 123 301.3 124.1L 301.9 126.2L 305.2 124.2C 312 120 317.7 118.8 328.9 119.1C 337.8 119.4 339.5 119.3 339.5 118C 339.5 114.5 323.7 112.2 315 114.5z"/>
<path style="stroke:none; fill:#000000" d="M 322.4 124.1C 314.1 128.2 314.7 148.1 323.3 154.4C 327.6 157.6 336.1 157.3 339.5 154C 344.5 148.9 344.8 134.8 340 128C 337 123.8 327.4 121.7 322.4 124.1zM 335.5 131.2C 337.7 136.6 333.6 139.4 330.5 134.6C 328.8 132 329.3 129.3 331.8 128.7C 332.8 128.4 333.6 128.2 333.8 128.1C 334 128.1 334.7 129.5 335.5 131.2zM 337.1 142C 338.6 142 338.1 146.7 336.4 148.1C 333.3 150.7 329.4 145.6 332.1 142.4C 332.8 141.6 334 141.2 334.7 141.5C 335.5 141.8 336.6 142 337.1 142z"/>
<path style="stroke:none; fill:#000000" d="M 432.4 125.3C 429 127.7 425.6 132.2 422.6 138.5C 419.9 144.3 420 154.6 422.9 159.3C 427 165.9 435.5 166.4 441.5 160.4C 449.7 152.3 445.9 140.5 434.5 138.4L 429.9 137.5L 433 133.2C 434.8 130.9 436.8 129 437.5 129C 438.2 129 439.4 128.3 440.1 127.4C 441.2 126 441.1 125.6 439.5 124.4C 437.1 122.6 436.2 122.7 432.4 125.3zM 438.4 146.6C 440.2 151.4 436.6 158 432.1 158C 427.8 158 425.3 149.8 428.6 146.6C 430.7 144.5 437.6 144.5 438.4 146.6z"/>
<path style="stroke:none; fill:#000000" d="M 237 140.2C 233.7 141.9 232.2 143.4 231.3 146C 228.6 153.9 230.9 164.7 236.1 168.4C 237.5 169.4 240.5 170 243.6 170C 250.8 170 254.5 166.9 256 159.5C 259.4 143.3 249.8 133.6 237 140.2zM 249.8 145.2C 251.2 146.6 251.4 149.6 250.1 150.4C 248.4 151.5 244 149.1 244 147.2C 244 146.2 244.3 145 244.7 144.7C 245.7 143.6 248.5 143.9 249.8 145.2zM 250.4 156.7C 250.8 157.7 250.2 159.2 248.8 160.7L 246.5 163.1L 244.8 161C 243.5 159.3 243.3 158.3 244 156.9C 245.3 154.6 249.6 154.4 250.4 156.7z"/>
<path style="stroke:none; fill:#000000" d="M 336.5 161.7C 333.1 163.1 327.5 164.5 323.6 164.9C 316.4 165.5 314 167.3 318.2 168.9C 319.5 169.3 323.9 169.3 328 168.9C 333.7 168.3 336.4 167.4 339.5 165.2C 343.1 162.7 345.4 158.9 343.3 159C 342.9 159.1 339.8 160.2 336.5 161.7z"/>
<path style="stroke:none; fill:#000000" d="M 266.4 172.9C 262.5 175.3 260 178.7 260 181.6C 260 184.2 265.2 189.7 268.7 191.1C 274.7 193.3 283.2 191.1 284.5 186.9C 285.6 183.4 283.7 182.6 278.4 184.4C 273.2 186.1 269.8 185.3 267.6 181.7C 266 179.1 270.2 175.8 274.4 176.2C 276.9 176.4 277.6 176.1 277.8 174.4C 278.3 170.7 271.4 169.8 266.4 172.9z"/>
<path style="stroke:none; fill:#000000" d="M 346.3 182.6C 346 183.5 346.7 185.2 348.1 186.6C 350.5 189.1 350.5 189.2 348.5 190.7C 345.6 192.9 336.7 196.8 328.1 199.6C 310.2 205.4 287 207.6 276.6 204.6C 270.3 202.7 268.3 203.3 269.4 206.7C 270.9 211.3 286.8 213.1 304 210.6C 320.4 208.1 338.1 202.7 351.1 196C 357.3 192.8 359.3 192.2 362.3 192.7C 366.6 193.4 371 191 371 188C 371 186.9 370.9 186 370.8 185.9C 370.6 185.9 368.5 185.7 366 185.4C 360.3 184.9 353.1 183 352.4 181.9C 351.5 180.4 347 180.9 346.3 182.6z"/>
<path style="stroke:none; fill:#000000" d="M 82 292.8C 77.8 294.5 77.5 294.8 77.7 298C 77.9 301.8 78.9 308.2 81.5 322.5C 82.4 327.4 83.5 333.7 84 336.5C 84.5 339.2 85.5 345.1 86.3 349.5C 87.1 353.9 88.8 363 90 369.6L 92.1 381.7L 89.6 385.5C 86.2 390.5 86.3 393.2 90 396.4C 96.1 401.5 105.5 400.4 109.7 394.1C 112.7 389.6 112.6 386.1 109.1 378.7C 107.5 375.3 105.9 371 105.5 369.2C 104.9 366.1 104.9 366 108.2 366C 110 366 112.6 365.3 113.8 364.4C 115.7 363.1 115.9 362.6 114.8 361.3C 113.9 360.2 112.4 360 108.8 360.4L 104.1 361.1L 103.5 357.3C 103.2 355.2 102.7 352.6 102.5 351.4C 102.1 349.8 103 348.9 106.6 347.2C 109.8 345.6 111 344.4 110.8 343.2C 110.4 341 107.4 340.5 104.4 342.1C 101.3 343.7 100.8 343.1 100.6 336.8C 100.5 331.7 100.6 331.5 103.8 330.5C 108 329.1 109.2 327.8 108.4 325.6C 107.7 323.8 103.7 323.7 99.8 325.4C 97.8 326.3 96.5 324.1 95.7 318.3L 95.2 314.2L 100.2 312.1C 105.4 309.9 106.2 307.8 102.8 305.6C 101.5 304.8 100.4 305 98.1 306.3C 94.2 308.6 92.9 306.9 93.2 299.8C 93.6 291 91 289.4 82 292.8zM 87.5 309C 88.2 315.5 91.3 330.1 92.4 331.8C 93.5 333.7 97.9 359.9 98.4 368C 99.1 380.4 96.8 371.7 91.5 342.5C 90.6 337.5 89.5 331.7 89 329.5C 88.5 327.3 87.8 322.8 87.5 319.5C 87.1 316.2 86.4 311.9 85.9 310C 85.4 308.1 85 304.9 85 303C 85.1 297.5 86.7 301.4 87.5 309zM 104 385.5C 104 387.9 101.3 392.1 99.5 392.6C 94.9 393.7 93.2 390 97.3 387.9C 98.5 387.2 99.8 386.1 100.3 385.4C 100.9 384.4 104 384.4 104 385.5z"/>
</g>
</g>
</svg>