<?xml version="1.0" encoding="UTF-8" standalone="yes"?>
<!-- Created with sK1/UniConvertor (http://sk1project.org/) -->
<svg xmlns="http://www.w3.org/2000/svg" xmlns:xlink="http://www.w3.org/1999/xlink"
  width="586pt" height="747pt" viewBox="0 0 586 747"
  fill-rule="evenodd">
<g>
<g>
<path style="stroke:none; fill:#000000" d="M 381.5 2.20001C 358.7 3.90002 341.7 8.29999 323.5 17.2C 310.1 23.8 301 30.2 294 38C 285 48 282.4 53.6 277.5 72.3C 275.3 80.7 275.8 90.4 278.4 92.3C 279.5 93.1 280.9 96.8 282.1 102.6C 284.6 113.9 285.9 122.3 285.4 123.2C 285.1 123.6 283.3 123.3 281.2 122.6C 277.6 121.3 277.5 121.2 276.8 114.9C 274.7 94.6 258.6 74.3 235.4 62.7C 226 57.9999 206.1 50.7999 198.8 49.6C 194.3 48.8 183.7 48.4 171 48.6C 151.9 48.8 149.7 49 138.5 51.8C 126.7 54.8 108.3 61.9 101.2 66.2C 92.8 71.2 80.9 81.3 76.5 87.2C 67.5 99.2 64 109 63.9 122.3L 63.9 130.2L 61.7 128.6C 56.6 124.9 52 122 51.1 122C 50.6 122 48.7 123.9 46.9 126.2C 45.1 128.6 42.4 131.9 40.8 133.6C 39.1 135.4 38.2 137.3 38.5 138.2C 39.1 139.7 43.4 141.3 50.5 142.6L 54.5 143.3L 50.5 145C 45.1 147.3 40.2 152.5 38.9 157.3C 36.1 167.7 42.9 178.2 56.4 184.6C 61.3 186.9 61.3 186.9 58.4 187.5C 52.1 188.9 41.1 193.7 34.3 198.1C 22.7 205.4 13.9 216.8 13.3 225.5C 12.8 232.2 14.4 235 20.9 238.2C 30.1 242.9 44.4 241.8 60.6 235.1C 73.6 229.8 91.9 214.4 96 205.5C 98.4 200.3 100.2 198.8 101.5 201C 101.8 201.5 105.3 203.8 109.3 206.1C 113.3 208.4 117.5 210.9 118.8 211.7C 120.9 213 120.3 213.4 106.3 220.6C 98.1 224.8 90.8 228.8 90 229.4C 89.2 230.1 83.4 233.9 77.1 237.9C 64.8 245.8 49.9 258.2 38.4 270.1C 26.5 282.5 15.8 300 9.79999 317C 4.79999 331.2 4.79999 331 5.99999 339.5C 7.29999 348.8 8.99999 352.8 15.2 362.5C 20.3 370.4 27.8 377.8 36.3 383.5C 39.4 385.6 42 387.6 42 387.9C 42 388.2 41.6 392.5 41.1 397.5C 40.6 402.4 39.9 418.4 39.5 433C 39.2 447.6 38.2 469.8 37.4 482.5C 36 502.3 35.9 511.2 36.9 546.5C 37.5 569 38.3 590.4 38.6 594C 38.9 597.6 39.5 607.9 39.8 617C 40.4 630.7 40.8 633.5 42 633.5C 42.8 633.6 46 634.3 49 635.2C 59.8 638.2 77 640.9 99.2 642.8C 103.4 643.2 107.1 643.8 107.5 644.2C 108.1 644.8 107.1 648.6 102.5 663.2C 101.1 667.6 100 673.4 100 676.5C 100 681.4 100.4 682.4 103.7 686.1C 111.4 694.6 125.1 698.8 145.5 699.1C 155.4 699.2 159.7 698.8 163.5 697.5C 177.6 692.7 184 685.1 184 673.1C 184 670.6 182.6 663.8 181 658C 179.4 652.2 178 647.4 178 647.3C 178 647.1 186.6 647 197 647C 207.5 647 216 647.2 216 647.4C 216 647.6 214.6 651.1 212.8 655.1C 207.2 668 208.6 679.7 216.7 687.1C 225.6 695.4 247.2 700.4 260 697.1C 261.9 696.6 264.9 695.9 266.5 695.5L 269.5 694.8L 266.8 697.7C 259.6 705.2 266 710.7 286 714.2C 295.8 715.9 329.6 715.9 342 714.2C 347.2 713.5 358.7 712.5 367.5 712C 376.3 711.5 385.7 710.7 388.3 710.1C 397.8 707.9 407 700.1 407 694.2C 407 693.1 405.4 688.8 403.5 684.5C 401.6 680.3 399.5 674.8 398.9 672.2C 397.8 667.2 398.5 666 402.8 666C 405.5 666 405.6 664.1 403 660.7C 401.9 659.3 401 657.6 401 657C 401 656.3 399.9 653.6 398.5 650.9L 396.1 646L 399.7 644.5C 401.6 643.7 403.6 643 404 643C 404.4 643 406.3 641.9 408.3 640.6L 411.9 638.1L 417.2 643C 420.1 645.8 425.7 649.6 429.5 651.6C 433.4 653.6 436.7 655.5 436.9 655.7C 437.7 656.3 433.8 662.4 431.4 664.2C 428.7 666.4 429.3 669.7 432.6 671.2C 435.7 672.6 435.6 673.4 431.8 680C 427.8 687.1 413.8 700.9 403 708.5C 398.3 711.8 392.3 716.6 389.6 719.2L 384.7 724L 385.2 729.7C 385.6 734.7 386.1 735.8 389.3 738.5C 394.3 742.9 401.5 744.4 413.2 743.7C 424.8 743 429.1 741.7 476 724.3C 490.6 718.9 492 718.2 499.1 712.9C 510.4 704.3 511.7 699.1 506.2 683.7C 502.6 673.7 502.4 672 504.5 672C 508.1 672 507.4 667.9 501.9 656.5C 499.5 651.5 499.5 651.3 502.4 650.6C 506.2 649.7 520.2 638.7 523.2 634.4C 527.3 628.5 531 617.4 531.7 609.3L 532.3 602L 536.4 601C 540.7 599.9 557.4 593.7 562.4 591.4C 564 590.6 565.9 590 566.5 590C 567.2 590 568.8 589.1 570.2 588.1C 572.7 586.1 572.7 586.1 573.1 564.8C 573.9 520.7 572.8 454.8 570.9 439C 570 431.9 567.1 419.1 565.3 414.4C 565.1 413.8 566.8 412.1 569.2 410.7C 574.3 407.7 575.4 405.9 577.5 396.5C 578.4 392.6 579.5 387.9 580 386C 581.7 379.2 583.1 359.3 582.6 347.4C 581.6 323.4 576.7 301.7 566.4 276.9C 559.3 259.6 551.1 246.3 540.4 235C 530.6 224.6 503.5 201 495.4 195.8C 491.6 193.3 485.5 189.3 481.8 187C 478 184.6 475 182.1 475 181.4C 475 180.7 472.9 178.1 470.4 175.6C 467.3 172.5 466 170.4 466.4 169.3C 466.8 168.4 466.3 166.6 465.5 165.3C 464 163 464.1 162.7 468.4 157.7C 470.9 154.9 473.7 151.1 474.5 149.3C 475.7 146.8 476.8 146 479.8 145.5C 487.8 144.2 492.5 141.7 498.2 135.8C 504.4 129.4 508 123 508 118.4C 508 116.8 509.2 113.5 510.6 111C 514.9 103.5 516 99.1 516 89.0001C 516 73.3 511.8 61.8 500 45.5001C 490.9 32.9001 483.5 26.8 468.3 19.2001C 452.9 11.4001 439 6.20007 429.5 4.6001C 414.3 2.00012 396.5 1.10004 381.5 2.20001zM 423 7C 424.9 7.5 429.4 8.40002 433 9C 440.4 10.3 450 14 464.5 21.2C 480.1 29 486.4 34.4 495.2 47.3C 506.2 63.6 509.1 71.5 509.2 84.9C 509.3 93.6 508.3 102 507.3 102C 506.9 102 505.1 100.2 503.2 97.9999C 497.7 91.4999 491.1 88.5999 481.5 88.5999C 474.7 88.4999 472.6 88.9999 467.8 91.2999C 464.7 92.7999 460.6 95.7999 458.6 97.9999L 455.1 101.9L 452.2 96.7C 448.8 90.7 442.5 84.4999 435.7 80.4999C 431.1 77.9 412.4 70.9999 409.6 70.9999C 408.8 70.9999 407.3 67.7999 405.9 62.7999C 403.7 55.4999 403.1 54.4999 400.2 53.2999C 397.1 51.9999 397 52.0999 395 55.9999C 393.9 58.0999 393 60.9999 393 62.4C 393 68.1 393.2 67.9999 374.1 67.9999C 364.4 67.9999 350.2 68.4999 342.5 69.0999L 328.5 70.0999L 326.2 67.2999C 325 65.7999 323.7 63.3999 323.4 61.9999C 320.5 48.2999 313.7 50.9 312.1 66.4L 311.5 72.3L 304.5 74.5C 300.6 75.7 294.2 78.3 290.2 80.4C 286.2 82.4 282.8 84 282.6 84C 282.4 84 282.5 81.9 282.7 79.2C 283.3 73.2 287.2 60.4 290.7 53.1C 293.7 47.1 306.2 33.2 312 29.5001C 320.5 24.2001 331.9 18.7001 344.2 14.1C 357.3 9.20001 366.4 7.50006 389 5.80005C 395.9 5.20007 419.6 6.09998 423 7zM 194 53.9C 209.3 55.4 234.3 65.4 247.5 75.3C 261.6 85.9 271 103.3 271 118.9C 271 120.9 270.3 125.9 269.4 130C 268.5 134.1 267.6 138.5 267.4 139.7C 266.7 143.3 265.6 142.5 262.4 136.4C 260.8 133.3 257.6 128.6 255.3 126C 250.2 120.3 238.2 111.9 229.7 108.1C 221.4 104.3 206.6 100.9 195.5 100.3L 186.4 99.7L 184.5 93.8C 181.8 85.4 179.4 81.8 176.8 82.2C 175 82.4 174.6 83.2 174.4 86.6C 174.3 88.9 173.4 92.2 172.5 94.1L 170.7 97.4L 168.9 91.3C 167 85.3 163.5 81.4 161.3 82.8C 160.7 83.2001 159.3 85.3 158.2 87.5001C 155.7 92.6 148 99.7001 144.3 100.6C 114 107.4 100.3 113.5 90 124.6C 84.6 130.5 82 136.5 80.5 146.5L 79.3 154.5L 76.7 149.4C 69.4 135.1 67.8 121.1 71.9 107.9C 77 91.8001 92.9 76.1001 115.2 65.2001C 125.7 60.1001 144.2 54.4001 155 53.0001C 161.4 52.2001 180.4 52.6 194 53.9zM 406 72.8C 407.4 73.0001 409.4 73.5001 410.5 74.1C 411.6 74.6 416.2 76.3 420.8 78.0001C 437.5 83.8 444.2 90.3 449.4 105.5C 452.2 113.5 454.3 113.8 459 106.8C 463.4 100.2 465.4 98.4 471 95.5001C 480.9 90.5001 489 91.1 495.6 97.2001C 500.8 102 502.4 106.4 501.7 114.1C 501.1 121.4 496.7 129.3 490 135.3C 481.5 142.9 472.6 143.7 465.2 137.5C 462.4 135.1 458 134.1 458 135.8C 458 137.7 461.2 140.8 464.9 142.5C 467.2 143.5 469 144.8 469 145.4C 469 150.3 451.9 167.4 440.2 174.3C 423.5 184.1 405.7 188.3 380 188.3C 366.1 188.3 361.3 187.9 349.7 185.7C 342.2 184.2 333.8 182.2 331.1 181.1C 324.6 178.7 307.3 166.3 301.7 160.1C 295.8 153.4 294.2 148.6 292.4 130.5C 291.5 122.2 290 112.1 289 108C 286.4 97.8002 285.7 92.7003 286.8 93.4003C 287.3 93.7003 289.3 92.9003 291.2 91.6003C 298.1 87.0003 303.1 86.3003 313.6 88.5003C 318.3 89.5003 318.9 87.3003 314.6 85.5003C 305.5 81.7003 295.3 83.1003 288.4 89.2003C 286.3 91.1003 285 91.7003 285 90.8003C 285 88.9003 294.5 82.8003 301.7 80.1003C 304.9 78.8003 309.5 77.0003 312 76.1003C 316.5 74.4003 316.5 74.3003 316.8 69.2003C 317 66.3002 317.4 64.0002 317.9 64.0002C 318.3 64.0002 319.7 65.9003 321 68.2003C 322.3 70.6003 323.4 72.6003 323.5 72.8002C 324.4 74.0002 335.7 74.6002 342.4 73.8002C 346.9 73.3002 361.6 72.8002 375.2 72.6002C 388.8 72.5002 400.3 72.1002 400.6 71.7002C 401 71.3002 400.5 70.1002 399.6 69.1002C 398.2 67.6002 398 66.3002 398.5 63.8002L 399.3 60.5002L 401.4 66.5002C 403.1 71.5002 403.9 72.6 406 72.8zM 164.3 93.6C 164.7 95.9 164.3 98.6 163.4 100.9C 162 104.2 162.1 104.6 163.7 105.7C 166.9 108.1 174.7 103.6 177 98.1C 178.7 94.0001 180 94.2 180 98.5001C 180 102.8 182.3 104 190.5 104C 203.3 104 220.7 107.8 230.5 112.8C 243.8 119.4 251.2 126.3 257 137.2C 260.9 144.5 265 149 267.7 149C 268.7 149 270.9 147.7 272.5 146C 275.8 142.6 280.8 140 284.3 140C 286.3 140 286.9 140.6 287.2 143.1C 287.6 145.3 287.2 146.3 286.1 146.7C 277.1 149.4 270.4 155.7 271.6 160.4C 272.8 165.3 278.1 167.3 283.4 164.9C 286.7 163.4 287.5 159.7 285.3 155.9C 283.7 153.3 283.7 152.8 285 152C 287.6 150.3 288.4 150.9 291.3 156C 294.4 161.5 294.2 162.6 289.3 167.1C 285.9 170.4 281.3 172.7 278 173C 272.4 173.5 269 173 269 171.6C 269 170.9 268.3 169.7 267.5 169C 265.5 167.3 262.3 170.1 262.3 173.5C 262.2 183.3 245.4 199.4 225.4 208.6C 197.6 221.5 151.7 222.3 126.5 210.4C 116.6 205.8 102.3 196.6 97.2 191.7C 92.5 187.2 87 178.6 87 175.7C 87 174.2 82.4 171 81.7 172.1C 81.6 172.3 80.8 173.8 80 175.5C 78 179.2 71.6 183 67 183C 63.3 183 53.8 179 50.6 176.2C 47.8 173.7 45 167.5 45 163.9C 45 156.4 50.5 150.6 59.4 148.8C 65.4 147.5 64.4 147.1 74.9 155.2C 78.3 157.9 82 160 83.1 160C 85.1 160 85.2 159.6 84.8 155.5C 84.2 150.5 86 139.3 88.3 133.8C 90.6 128.3 100.3 119.4 108.5 115.2C 115.8 111.6 131 107 139 106.1C 143.7 105.6 148.7 104.3 151.6 102.9C 156.2 100.6 162 94.1001 162 91.3001C 162 88.5001 163.8 90.2001 164.3 93.6zM 283.4 128C 285.4 128.7 286 129.6 286 132C 286 134.7 285.7 135 283.1 135C 281.5 135 278.9 135.5 277.5 136C 274.9 137 274.9 136.9 275.5 133.8C 277 127 278.3 126 283.4 128zM 59.9 132.1C 64.4 135.7 68.8 141.5 67.8 142.5C 67.6 142.7 65 142 62 141C 59 139.9 55.6 139 54.5 139C 53.4 139 50.8 138.5 48.7 137.9L 45 136.9L 48.7 132.5C 50.7 130 52.9 128 53.6 128C 54.2 128 57.1 129.8 59.9 132.1zM 281 157.9C 281 158.4 280.2 159.6 279.3 160.6C 277.3 162.6 276.1 160.7 278 158.5C 279.4 156.8 281 156.5 281 157.9zM 307.3 172.1C 311.8 175.5 317.4 179.3 319.8 180.7L 324.1 183.3L 321.2 186.4C 317.1 190.7 316 193.2 316 198.3C 316 201.4 315.4 203.2 314.1 204.4C 312.2 206.1 312.1 206.1 310.7 203.3C 309.1 200.3 303.9 195.2 297.5 190.3C 293.9 187.5 288.4 184.5 278 179.7L 274.5 178.1L 278 178.1C 282.8 178 293.1 172.9 296.1 169.2C 297.4 167.5 298.6 166.1 298.8 166.1C 299 166 302.8 168.7 307.3 172.1zM 458.7 174.3C 457.3 176.6 455 179.8 453.5 181.4C 451.1 184 451 184.4 452.4 185.8C 454.7 188.1 458.1 186.1 461.6 180.6C 463.2 178.1 464.8 176 465.2 176C 466.9 176 470.4 182.7 470.7 186.9C 471.2 191.4 471.1 191.6 464.8 197.7C 454.6 207.8 447.2 211.7 427 217.6C 415.8 220.9 389.1 226.3 388.1 225.4C 387.2 224.6 388.2 209.3 389.3 206C 392.2 197.4 400.4 191 410.3 189.7C 422.1 188.1 443.7 178.8 454.5 170.5C 459.9 166.4 460.5 166.1 460.8 168C 461 169.1 460 172 458.7 174.3zM 269.6 179.8C 270.1 180.3 273.7 181.9 277.5 183.5C 296.5 191.3 312 206.9 305.4 211.7C 304.3 212.5 300.5 216 296.8 219.6L 290.1 226.2L 285.3 224.6C 278.8 222.4 274 218.8 267.7 211.6C 262.3 205.5 259.6 199.8 260.2 196C 260.4 194.4 261.8 195.3 268 201.5C 278.9 212.2 283.4 215.3 289.7 215.8C 294.5 216.2 295 216 296.1 213.7C 298.7 208 294.9 202.8 281.5 193.5C 271.8 186.7 264.5 179 267.8 179C 268.2 179 269 179.4 269.6 179.8zM 86 186.5C 86 187.5 63.5 199 61.5 199C 59.7 199 46 206.6 42.2 209.7C 30.7 219.1 28.6 223.8 33.7 228.6C 36.7 231.4 39.4 230.4 37.4 227.2C 36.4 225.6 36.9 225.4 43.9 225.5C 50.9 225.5 52.2 225.1 59.5 221.3C 63.9 219.1 69.6 215.4 72.2 213.1C 78.6 207.5 85.9 197.5 85.4 195.3C 85.1 194.2 85.8 193 87.1 192.2C 88.9 191.1 89.5 191.1 91.1 192.6C 93.8 195 93.5 197.5 89.5 204C 81.1 217.9 60.1 232 41.9 236C 34.1 237.7 23.7 237 21 234.5C 17.7 231.5 18.6 223.9 23 216.9C 31.6 203.4 46.4 194.1 67.9 188.9C 72.6 187.8 78 186 79.9 185C 83.6 183.2 86 183.7 86 186.5zM 276.5 194.6C 286.5 201.4 288 202.6 289.6 205.6C 292.7 211.3 289.4 213.9 283.8 210.2C 280.8 208.2 270.3 198.3 265.6 193C 263.2 190.3 262.9 189.4 263.8 187.4L 264.9 185.1L 268.2 188.2C 270 189.9 273.7 192.8 276.5 194.6zM 344.1 191.8C 337.9 194.7 333.8 199 329.6 207L 326.1 213.5L 324.1 209C 321.9 204.3 321.2 194 323 194C 323.6 194 324 194.6 324 195.3C 324 196.1 324.9 197.5 326 198.5C 329.1 201.3 330.5 199.3 328.9 194.1C 328 191.1 328 189.4 328.7 187.7L 329.8 185.3L 339.4 187.4L 349 189.5L 344.1 191.8zM 377.6 192.3L 390.9 192.3L 388.1 195.9C 383.1 202.2 382 207.7 381.9 226C 381.9 235.1 382.2 245.2 382.5 248.6L 383.2 254.7L 378.9 255.4C 373.9 256.2 333.3 256.1 327.8 255.3L 324 254.7L 324 247.1C 324.1 239 325.8 229 327.9 225.2C 328.6 223.9 330.4 219.9 331.9 216.2C 335.5 207.4 339.1 201.8 343.4 198.5C 347.7 195.2 359.8 190.8 362.4 191.7C 363.5 192 370.3 192.3 377.6 192.3zM 487.9 197.4C 499.9 205.3 531.3 233 538.9 242.2C 555.7 262.7 568.4 292.6 574.1 325C 576 335.6 576.9 358.2 575.9 369.5C 574.8 381.1 570.6 401.6 568.8 403.7C 568.2 404.4 561.8 407.9 554.6 411.4C 537.3 419.9 517.8 425.7 494.6 429.5C 479.7 431.9 480.8 432.3 478.7 422.7C 475.1 405.8 473.9 400.4 473.5 397.5C 472.8 393.2 472.7 339.3 473.4 338.2C 473.7 337.7 474 329.3 474 319.4C 474.2 302.3 474.6 295.4 477.1 274C 477.7 268.8 478.4 262.5 478.7 260C 479.4 253.6 486.6 232.6 490.7 225.2C 492.7 221.7 494 218.7 493.8 218.5C 493.6 218.2 492.3 217.9 491.1 217.8C 485.7 217.1 474.7 243.3 471.5 264C 467.9 287.9 466.5 318.7 466.5 373C 466.5 395.2 466.8 401.9 468.2 408C 469.2 412.1 470.9 419.9 472.1 425.2C 474.5 436.1 473.9 435.6 483.8 435.3L 487 435.2L 487 442.9C 487 449.9 487.3 451.1 490.5 456.6C 496.7 467 507.4 475 515.3 475C 518.3 475 520.5 474.4 521.6 473.2C 522.6 472.3 524.7 471 526.4 470.5C 528.1 469.9 529.9 468.5 530.5 467.2C 531 466 532 465 532.7 465C 536.9 465 539.6 451.6 537.4 442C 536.3 437.2 536.4 436.3 537.9 434C 538.8 432.6 540.2 429.7 540.9 427.5C 542.1 423.8 542.8 423.2 549.8 420.2C 554.1 418.4 558 416.7 558.7 416.4C 560.1 415.7 563.7 430.8 564.4 440.5C 566.3 466.2 567.3 576.4 565.8 582.1C 565.1 584.4 563.2 585.4 550.3 590.2C 533.5 596.5 512.3 602.4 500.5 604C 491.2 605.3 488.4 605.8 485 606.5C 475.2 608.6 449.3 610.2 420 610.7C 386.6 611.2 385.7 611.1 345.9 607.3L 341.3 606.8L 339.2 592.7C 338 584.9 336.8 574.4 336.6 569.5C 335.9 557.4 334.2 545.7 332.4 541.5C 331.7 539.6 331 537.1 331 536C 331 534.9 330.5 534 329.9 534C 329 534 328.9 537 329.4 544.7C 329.8 550.7 330.5 563.4 331 573C 331.6 582.6 332.3 592.5 332.6 594.8L 333.3 599.2L 326.4 598.5C 322.6 598.1 315.5 597.1 310.5 596.3C 305.6 595.4 299.7 594.4 297.5 594.1C 293.5 593.5 293.5 593.5 293.4 589C 293.4 586.5 292.4 579.5 291.2 573.5C 286.3 548.3 285 532.3 284.8 499C 284.8 481.7 285 462.8 285.4 457C 286.2 444 287.7 408.9 288.5 387.5C 288.8 378.7 289.3 369 289.6 366C 289.8 363 290.5 354.4 291 347C 292 334.1 293.6 321 296 307C 296.6 303.4 297.9 291.7 299 281C 300.1 270.3 301.3 259.5 301.6 257.2C 302.2 253.1 302.1 252.8 299.9 253.2C 298.1 253.4 297.3 254.7 295.7 259.7C 294.6 263.2 293.3 266 292.9 266C 292.4 266 292 265.5 292 265C 292 263.7 284.1 253 283.1 253C 282.8 253 281.7 251.8 280.7 250.5L 278.9 248L 287.8 237.7C 296 228.4 300.1 224.1 313 212C 317 208.1 317.5 207.9 318.5 209.5C 319 210.5 320.7 212.7 322.2 214.5L 324.9 217.6L 322.9 224.1C 320.3 232.2 319.5 246.4 320.8 260.4C 321.8 270.9 322.8 273.5 325.5 272.7C 326.1 272.5 326.6 269.3 326.8 265.7C 327 260.8 327.5 259 328.5 259C 329.5 259 330 260.6 330.2 264.2C 330.5 268.8 330.8 269.5 332.8 269.8C 334.7 270.1 335 269.7 335.1 266.3C 335.1 264.2 335.5 261.6 336 260.5C 336.6 258.8 336.9 259.2 337.4 262.5C 338.6 269.6 339.4 271.5 341.5 271.5C 343.3 271.5 343.5 270.9 343.3 265.7C 343.2 260.4 343.3 260 345.5 260C 347.4 260 347.8 260.6 348.3 264.7C 348.6 267.3 349.5 269.9 350.4 270.5C 352.3 272 351 272.6 336.5 277.7C 331 279.6 325.9 281.7 325.1 282.3C 324.2 283.1 324 284.7 324.3 287.4C 324.7 290.2 324.2 292.8 322.4 296.9C 313.4 317.3 309.8 388.7 315.5 434C 316.4 440.9 317.4 448.9 317.7 451.7C 318 454.6 318.9 457.5 319.7 458.1C 321 459.3 329.9 458.9 334.6 457.5C 336.5 456.9 336.9 457.3 337.5 461.2C 337.9 463.5 338.3 470.1 338.4 475.8C 338.6 484.9 338.9 486.3 340.8 488.2C 342.8 490.3 343.3 490.3 348.2 489.1C 351.1 488.4 355.3 487.3 357.5 486.5C 359.7 485.8 364.7 484.2 368.6 483C 379.8 479.7 379.3 480.8 377 465C 375.9 457.6 374.2 447 373.1 441.5C 372 436 370 424.3 368.6 415.5C 365.7 397.4 364.3 390.4 359.5 370.5C 357.6 362.8 355.6 352.9 355 348.5C 354.4 344.1 352.8 334.2 351.6 326.5C 349.6 314.2 349.3 310.6 349.9 304.7C 350.1 302.5 361.8 295 365.1 295C 366.8 295 373.6 296.4 380.3 298.1C 393.4 301.5 409.8 302.6 412 300.4C 414.1 298.3 415.1 284.4 414.1 273.3C 413.6 267.5 412.9 262.6 412.6 262.3C 411.3 261 403 260.2 396.8 260.7L 390.1 261.3L 389.6 257.9C 388.4 250.2 387 237.4 387 233.9L 387 230.2L 398.8 228.5C 416.8 225.8 442.8 218.7 452.5 213.8C 462.8 208.5 475 198.1 476.4 193.2C 476.8 192 477.4 191 477.7 191C 478 191 482.6 193.9 487.9 197.4zM 77.3 198.4C 76.9 199.2 74 202.7 70.8 206.3C 66.4 211.2 63.3 213.6 56.7 216.9C 48.6 221.1 39 223.4 39 221.3C 39 219.9 47.8 211.8 52.6 208.8C 54.8 207.4 60.6 204.6 65.5 202.5C 70.5 200.4 74.9 198.3 75.5 197.8C 77 196.5 78.2 196.9 77.3 198.4zM 255 199.5C 255 207.1 271.9 223.9 284.2 228.5L 286.8 229.5L 280.5 236.7C 275.2 242.7 274 243.6 272.9 242.5C 270.4 240 241.9 223.4 229.8 217.2C 226.6 215.7 226.1 214 228.8 214C 230.4 214 243.9 205.6 250.4 200.5C 254 197.6 255 197.4 255 199.5zM 137.4 225.5C 142 229.3 149.3 235.5 153.5 239.2C 157.8 242.9 164.1 247.9 167.5 250.2C 174.8 255.2 175.7 258 170.1 258C 167.5 258 165.6 257 162 253.7C 154.8 247.2 143.3 237.9 137 233.5C 133.9 231.3 128.9 227.2 125.9 224.3C 120.8 219.4 120.6 219 121.9 216.6L 123.3 214.1L 126.1 216.3C 127.7 217.5 132.8 221.6 137.4 225.5zM 224.3 219.1C 225.7 221 224.8 222.2 206.8 240.5C 190.7 256.9 187.5 259.8 185.9 259C 184.9 258.4 183.2 258 182.1 258C 180.9 258 180 257.5 180 256.9C 180 256.4 183.5 252.2 187.7 247.7C 216.2 217.3 220.7 213.8 224.3 219.1zM 151.5 225.8C 155.4 228.3 161.9 232.8 166 235.9C 176.7 243.8 177.3 244.1 180.2 242.1C 181.5 241.2 186.7 236.4 191.8 231.5C 197 226.5 202.1 222.2 203.2 221.7C 205.3 220.9 190.9 237.1 182.1 245.3C 177.1 250 177 250 174.3 248.6C 170.8 246.7 161.4 239.3 152.3 231.5C 148.5 228.2 143.9 224.3 142 222.7L 138.5 220L 141.5 220.6C 143.2 221 147.7 223.3 151.5 225.8zM 121.5 226.9C 124.8 230.1 129.8 234.5 132.6 236.6C 141.4 243.3 156.4 255.6 158.5 257.9C 160.4 260.2 160.4 260.2 158.1 261.9C 156.6 263.1 155.9 264.3 156.3 265.3C 156.7 266.4 155.7 268.2 153.5 270.5C 149.8 274.5 137.5 293.8 133.8 301.4L 131.5 306.2L 123 305.6C 113 304.8 94.7 302.4 87.1 300.9L 81.7 299.8L 82.6 280.7C 83.9 251.8 83.8 248.6 81.9 248.2C 79.5 247.8 78.1 252.6 77 265.4C 76.1 276.4 74.4 311.3 74.7 313.8C 74.8 314.7 74.1 315 72.7 314.6C 71.5 314.3 67.4 313.8 63.5 313.4C 56.8 312.8 56.6 312.8 58.2 314.5C 59.2 315.6 61.9 316.5 64.9 316.8C 67.7 317 70 317.6 70 318C 70 318.4 67.5 319.8 64.5 321C 59 323.2 57.9 325.1 61.5 325.9C 62.5 326 66.4 325 70.1 323.5L 76.9 320.7L 80.6 323.6C 85.7 327.6 102.6 339.4 107.8 342.8C 110.2 344.3 112.8 346 113.7 346.5C 114.9 347.4 114.3 349.1 109.7 357C 106.8 362.2 102.2 370.3 99.6 375C 97 379.7 93.7 385.5 92.1 388L 89.3 392.5L 81.4 392.4C 62 392.1 42.7 383.2 27.8 367.6C 19.8 359.3 15.5 350.2 14 338.4C 12.8 329.3 13.4 326.2 19.3 311.5C 24.1 299.3 33.8 283.7 42.1 274.6C 52.1 263.7 76 243.5 81.3 241.7C 82.2 241.3 85.4 239.3 88.3 237.1C 92.8 233.7 113.7 221.1 115 221C 115.2 221 118.2 223.7 121.5 226.9zM 174.9 224.1C 180.9 224.1 187.5 223.8 189.4 223.4C 191.4 223.1 193 223.2 193 223.6C 193 224.1 189.4 227.8 185 231.8L 177.1 239.1L 169.8 233.7C 165.8 230.8 160.8 227.4 158.8 226.1C 156.7 224.9 155 223.6 155 223.3C 155 223 157 223.1 159.5 223.4C 162 223.8 168.9 224.1 174.9 224.1zM 238.3 226.6C 246.1 230.5 268 244.1 268 245C 268 245.4 271.3 249.1 275.3 253.2C 279.2 257.3 284.1 262.8 286 265.4C 287.9 268 290.3 271.2 291.4 272.5C 293.2 274.7 293.2 275.6 292.1 286.2C 291.4 292.4 290 302.9 289 309.5C 287 322.1 285.5 333.7 284.4 345.5L 283.8 352.5L 279.5 338.5C 277.1 330.8 274 321.2 272.5 317.2C 270.1 310.4 269.8 308.4 269.4 289.7C 269.1 278.7 268.4 268.8 267.9 267.8C 267.3 266.8 265.8 266 264.4 266L 261.8 266L 262.5 285.9L 263.2 305.9L 259.4 306.9C 246.4 310.4 220.6 313 200 313C 188.5 313 161 311.3 160.3 310.6C 160 310.4 160.7 308 161.8 305.3C 162.9 302.7 165.1 297.1 166.6 293L 169.5 285.5L 174.1 285.4C 176.7 285.3 180.2 284.6 181.9 283.7C 184.9 282.2 185.9 282.3 196.8 284.5C 210.8 287.4 224.1 288.9 226.9 287.8C 228.1 287.4 229.5 285.8 230.2 284.3C 231.4 281.1 233.9 266 234 261.2C 234 254.3 227.2 252.1 211.1 254C 205.9 254.6 201.6 254.9 201.5 254.8C 201 254.3 228.4 226.4 230.5 225.2C 233.1 223.7 232.3 223.6 238.3 226.6zM 225.9 257.9C 227.7 259.1 226.9 276.3 224.9 280.6C 223.4 283.5 223.4 283.5 215.5 283.2C 208.5 282.9 190.4 279.9 189.6 278.9C 189.4 278.7 189.5 275.5 189.8 271.8L 190.2 265.2L 195.9 262.7C 201.6 260.1 209.9 258.3 218 257.7C 220.5 257.5 223 257.3 223.5 257.2C 224.1 257.1 225.1 257.4 225.9 257.9zM 356.8 265C 356.4 271.3 354 271.5 354 265.2C 354 262.5 354.3 260 354.7 259.6C 356.1 258.2 357.1 260.9 356.8 265zM 365 263.5C 365 265.4 364.6 267 364 267C 363.5 267 363 265.4 363 263.5C 363 261.6 363.5 260 364 260C 364.6 260 365 261.6 365 263.5zM 372 262.5C 372 263.9 371.8 265 371.6 265C 371.4 265 371 263.9 370.8 262.5C 370.5 261.1 370.7 260 371.1 260C 371.6 260 372 261.1 372 262.5zM 182.8 262.2C 184.4 263.8 184.3 272.8 182.7 276C 181.4 278.6 175 281.6 172.6 280.7C 170.8 280 163.5 270.2 162.6 267.4C 162.1 265.7 162.5 265 164.7 264.1C 167 263.2 173.7 261.9 180.6 261.1C 181.1 261.1 182.1 261.5 182.8 262.2zM 408.1 274.5C 408.7 284.1 407.9 295.4 406.6 296.7C 404.9 298.4 391.1 297 379.7 294.1C 373.2 292.4 366.6 291 365 291C 362.7 291 361.7 290.2 359.9 287.1C 358.7 284.9 356.4 282.2 354.9 281.1C 353.3 279.9 352 278.5 352 277.9C 352 276.5 362.1 272 366.2 271.6C 368 271.4 370.3 270.9 371.3 270.5C 372.5 270 373.5 270.3 374.4 271.5C 375.9 273.6 378 272.7 378 269.9C 378 267.3 379.4 267.5 381 270.5C 381.7 271.9 383.2 273 384.2 273C 385.8 273 386.1 272.5 385.5 270.1C 384.8 266.6 386.5 265.1 388 268C 389.5 270.9 392 270.6 392 267.5C 392 264.9 392 264.9 399.8 265.2L 407.5 265.5L 408.1 274.5zM 163.1 277.6L 165.2 281.1L 162.7 286.3C 159 293.9 154.1 306.9 152.5 313.1C 149.5 325.2 147.1 336.1 144.9 347.5C 143.6 354.1 142.6 359.6 142.5 359.7C 142.4 359.9 139.1 358.3 135.1 356.3C 130 353.8 127.5 352 126.8 350.1C 123.9 342.6 137.2 304.8 149.1 286.3C 151 283.5 153.7 279 155.3 276.5C 158.4 271.2 159.2 271.4 163.1 277.6zM 349.9 281.9C 351.4 283 353.5 285.4 354.5 287.4C 356.1 290.4 356.2 291.1 354.9 292.6C 352.6 295.5 345.8 300 343.9 300C 341.7 300 332 291.8 330.2 288.4C 328.9 286 329.1 285.9 333.7 283.9C 336.3 282.8 339.4 281.5 340.5 281C 343.8 279.6 347 279.9 349.9 281.9zM 336.4 304.5C 333.9 320.4 334.6 351.4 337.9 369.5C 341.3 388.5 344.8 410.2 349.4 439.5C 350.3 445.4 350.4 448.7 349.8 449.1C 349.2 449.5 346.5 450 343.6 450.4C 340.8 450.7 335.6 451.9 332.1 453C 328.5 454 325.4 454.8 325.2 454.6C 324.2 453.5 321 424 320 406.1C 318 369 322.2 313 328.2 299.2L 330 294.8L 333.5 297.7C 336.7 300.3 336.9 300.8 336.4 304.5zM 346.9 336.5C 348.1 343.6 349.3 351.3 349.6 353.5C 349.9 355.7 352.4 367.2 355.1 379C 357.8 390.9 360 401.6 360 402.8C 360 404 360.7 408.5 361.4 412.7C 362.2 417 363.6 424.8 364.6 430C 365.5 435.2 366.9 442.9 367.6 447C 370.5 462.8 372.1 475.3 371.3 476.1C 370 477.4 349.9 484 347.3 484C 345.1 484 345 483.6 345 476.9C 345 473.1 344.5 466.7 343.9 462.9C 343.3 459 343.1 455.6 343.3 455.3C 343.6 455.1 346.6 454.6 349.9 454.3C 353.3 454 356.4 453.2 357 452.5C 357.7 451.6 357.1 445.3 355 431.9C 353.3 421.2 351.5 409.1 350.9 405C 350.3 400.9 348.6 391 347 383C 342 357.3 341.6 353.3 341.6 331C 341.6 306.5 342.9 297 344.1 313.5C 344.4 319 345.7 329.3 346.9 336.5zM 98.0001 307.9C 104.9 309 113.4 310.1 117 310.5C 120.6 310.8 124.7 311.3 126.2 311.6C 128.9 312.1 128.9 312.2 127.6 315.8C 124.7 323.5 122 332.7 122 334.6C 122 338.3 119.9 344 118.6 344C 117.8 344 114.4 341.9 110.9 339.3C 107.4 336.7 100.7 332.1 96.0001 328.9C 81.3001 319 80.8001 318.4 80.5001 311.1L 80.2001 304.8L 82.9001 305.4C 84.3001 305.7 91.1001 306.8 98.0001 307.9zM 267.1 320.5C 268.6 324.9 272.6 337.3 276.1 348L 282.3 367.5L 282.1 382.5C 282 390.7 281.2 411.7 280.4 429C 278.6 465.5 277.9 526.6 279.1 536C 279.5 539.6 280.4 546.5 281 551.5C 281.7 556.4 283.3 566.4 284.6 573.6C 285.9 580.8 287 588.8 287 591.3C 287 596.5 287.7 597.2 293.4 597.6C 295.7 597.8 300.6 598.5 304.3 599.2L 311.2 600.4L 310.5 604.7C 310.1 607.2 310.5 612.5 311.5 617.6C 312.4 622.3 313 626.4 312.8 626.6C 312.6 626.7 306.8 628.3 300 629.9C 292 631.9 276.2 634.4 256.5 636.8L 225.5 640.5L 181 640.4C 136.7 640.3 116.2 639.3 81.5001 635.5C 69.8001 634.2 48.2001 630.5 47.4001 629.7C 47.2001 629.5 46.8001 623.1 46.6001 615.4C 46.3001 607.8 45.7001 591.1 45.1001 578.5C 43.1001 532.1 42.9001 505.4 44.4001 482.5C 45.2001 470.4 46.1001 447.7 46.5001 432C 47.0001 405.3 47.7001 393.5 48.7001 391.8C 48.9001 391.3 50.3001 391.6 51.8001 392.4C 53.3001 393.1 58.8001 394.9 64.1001 396.4C 72.1001 398.6 75.3001 399 83.6001 398.8L 93.5001 398.5L 95.5001 394.8C 96.6001 392.7 97.8001 391 98.1001 391C 98.4001 391 100.3 392.5 102.4 394.2L 106.1 397.5L 104.6 408C 103.8 413.8 102.8 424.6 102.4 432.1L 101.7 445.6L 106.7 447.8C 112.2 450.1 120.1 451.5 133 452.4C 143.2 453.2 144.5 452.5 143.6 447.7C 143.2 445.7 142.7 436.4 142.5 427L 142 410L 144.6 409C 146 408.4 148.1 408 149.4 408C 150.7 408 152.2 407.1 152.9 405.7C 153.6 404.4 155.5 402.5 157.2 401.6C 159.8 400 160.1 399.3 159.7 396.6C 157.3 383.1 156.6 381.4 150.8 375.4L 146.9 371.3L 150.5 353.4C 152.5 343.6 155.1 331.3 156.2 326.1L 158.4 316.7L 170.4 317.4C 185.4 318.2 222.9 318.3 229 317.5C 240 316.1 253.8 313.9 257 313.1C 263.5 311.4 264.1 311.8 267.1 320.5zM 127 358.4C 135 361.8 142 366.3 142 368C 142 368.4 140.2 367.9 138 366.7C 134.5 364.8 133.8 364.7 133 366C 131.3 368.6 131.9 369.4 136.7 372C 142.8 375.2 151.4 383.2 153 387C 155.5 393.1 152.8 392 139.6 381.8C 134.7 378.1 130.4 375 129.9 375C 129.4 375 129 375.8 129 376.8C 129 379 145.6 392.4 151.2 394.9C 156 396.9 156.1 398.4 151.5 397.7C 148 397.1 140.6 392.6 130.2 384.7C 124.9 380.7 123.3 380.4 124.4 383.7C 125.2 385.9 137.2 395.3 144.8 399.7C 148.8 402 149.8 403 148.3 403C 143.9 403 135 398.6 128.6 393.3C 122.7 388.4 120 387.4 120 390C 120 391.4 131.8 402 133.4 402C 133.9 402 134.1 402.2 133.8 402.5C 133 403.3 122.9 400 116.5 396.8C 113.2 395.1 108.6 392.2 106.2 390.3C 101.4 386.4 101.2 384.2 105 378.8C 106.1 377.3 107 375.8 107 375.4C 107 374.7 118.1 355 118.5 355C 118.7 355 122.5 356.5 127 358.4zM 117.7 403.5C 120.3 404.8 125.4 406.7 129 407.6L 135.7 409.4L 135.5 424.4C 135.4 432.7 135.6 441.5 136.1 444C 136.5 446.5 136.6 448.7 136.4 448.9C 135.4 449.9 115.1 447.1 112 445.5L 108.8 443.8L 109.4 437.2C 109.7 433.5 110.3 426.2 110.5 421C 111.1 409.4 112 401 112.6 401C 112.9 401 115.2 402.1 117.7 403.5zM 535 427C 535 428.9 532.1 433.8 530.8 434.2C 529.7 434.6 529.7 435.6 530.8 439.3C 532.6 446.3 532.1 460 530.1 460C 528.8 460 526.2 453.4 525 447.2C 523.7 441 521.3 438.7 519 441.5C 517.5 443.4 519.5 452.5 523 459.4C 525.6 464.5 525.9 465.6 524.6 466.8C 523.4 468 522.9 467.8 521 465.8C 519.8 464.6 517.8 461.5 516.6 459C 514.7 455.1 513.8 452.8 511.4 444.2C 511.2 443.5 510 443 508.8 443.2C 506.8 443.5 506.5 444 506.7 447.8C 506.9 453.2 512.5 465.5 515.9 468.1C 518 469.8 518.2 470.3 517 471C 514.6 472.5 513.7 472.2 510.5 468.5C 508.6 466.4 506.4 462.1 505 457.5C 502.5 449.5 501.2 447.6 498.8 448.5C 497.6 449 497.5 450 498 452.8C 498.4 454.8 499.1 457.3 499.5 458.2C 501 462 499 459.7 495.9 454.2C 493.2 449.4 492.7 447.5 492.7 442.1C 492.7 438.3 493.2 435.5 494 435C 494.6 434.6 497.7 434 500.8 433.6C 504 433.3 512.4 431.5 519.5 429.6C 534.5 425.7 535 425.6 535 427zM 333.8 604.7C 334.4 605.6 335 606.9 335 607.6C 335 608.2 336.2 609.2 337.8 609.8C 341.9 611.4 368.3 614.3 389.5 615.5C 400.5 616.2 401 616.3 401 618.9C 401 619.9 402.4 623.5 404.2 626.9L 407.4 633.2L 405 635.1C 401.7 637.6 391.4 641.5 381.1 644.1C 373.9 645.9 370.5 646.2 358.6 645.8C 347.5 645.5 343.9 645 341.9 643.7C 340.5 642.8 339.1 642.3 338.8 642.6C 337.7 643.6 330.6 639.3 326.8 635.3C 324.8 633.2 322.4 629.7 321.5 627.5C 319.1 621.6 317 609.6 317.7 605.4L 318.3 601.8L 325.4 602.4C 330.2 602.9 332.9 603.7 333.8 604.7zM 525.5 609.2C 525.1 612.1 523.6 617.6 522.2 621.5C 520.1 627.3 518.5 629.7 512.9 635.2C 500 648 484.3 653.2 458.5 653.4L 443.5 653.5L 436.6 650.1C 424.8 644.3 409.7 628 407.6 618.7L 407 616L 422.2 616C 439.1 615.9 446 615.6 463 614C 486.3 611.8 500.7 609.7 518.5 605.6C 521.8 604.8 524.9 604.1 525.3 604.1C 525.8 604 525.9 606.4 525.5 609.2zM 330.5 644C 336.4 645.9 337.2 646.7 335.4 649.5C 334.6 650.7 334.2 652.4 334.6 653.3C 335 654.4 334.4 655.3 332.6 656.1C 329.7 657.5 329.2 660.1 331.5 662.4C 332.8 663.7 332.3 664.4 327.2 669C 324.1 671.8 319.3 675.3 316.7 676.6C 312.3 678.9 293 685.8 286.9 687.3L 284.2 688L 286 684.5C 287 682.6 288.1 678.7 288.4 675.7C 289.1 670.1 288.2 666.3 282.1 650.5C 278.4 640.9 278.3 640 281.3 640C 286.6 640 312.5 633.7 314.4 632C 314.8 631.5 317.8 633.8 320.9 636.9C 324.4 640.5 328 643.2 330.5 644zM 274.7 648.3C 275.9 651.7 278 657.9 279.5 662C 281.9 668.8 282.1 670 281.1 675.5C 280.2 680.5 279.5 682 276.3 684.9C 274.2 686.7 270.7 689.1 268.5 690C 264.9 691.6 262.4 692.1 251.1 693.5C 241.6 694.6 226.4 690.4 221.8 685.3C 219.4 682.7 216.1 675 216 672C 215.9 668.3 223.3 646 224.6 646C 225.3 646 225.1 648.4 223.9 653.2C 221.4 663 221.5 663.7 225.5 667.7C 228.9 671.1 229.3 671.2 234.8 670.8C 238.8 670.5 242 669.4 245.5 667.3C 250.4 664.4 250.7 664.4 257.7 665.4C 266 666.5 268.9 665.7 271.7 661.3C 273.7 658.3 274 650.9 272.3 648.8C 271.7 648.1 270.9 646 270.5 644.3C 269.3 638.5 272.4 641.5 274.7 648.3zM 265.3 647.3C 267.3 652.2 267.4 654 265.9 657.3C 264.2 661.1 261.4 661.9 254.2 660.7C 247.9 659.6 247.8 659.6 240.3 663.4C 234.5 666.4 232.3 667.1 231.1 666.3C 228.9 664.9 229.2 658.8 232.1 648.9L 233.2 645.4L 247.3 643.9C 255.1 643.1 262 642.6 262.5 642.7C 263.1 642.9 264.3 644.9 265.3 647.3zM 114.1 651C 113.3 654.2 112.4 656.7 112.1 656.5C 111.5 655.8 114.2 645 115 645C 115.4 645 115 647.7 114.1 651zM 150.2 646.1C 161.5 646 162.1 646.4 162.3 655.5C 162.5 665.4 156.2 668.7 147.2 663.4C 141.5 660 135 660.4 128.9 664.4C 124 667.7 120.4 667.3 119.4 663.5C 119.1 662.1 119.4 657.3 120.1 652.9L 121.4 644.8L 130.9 645.5C 136.2 645.9 144.9 646.2 150.2 646.1zM 174.4 657.9C 175.8 663.9 177 670.4 177 672.2C 176.8 680.4 171.6 688.5 164.3 692C 160.4 693.8 157.3 694.3 147 694.7C 128.2 695.4 118.5 693.1 111 686.4C 107.3 683 107 682.4 107 677.3C 107 674.3 107.4 671.1 108 670.1C 108.5 669.1 109.2 666.9 109.5 665.2C 109.8 663.6 110.4 661.1 110.9 659.8L 111.9 657.5L 111.9 660.1C 112 663.3 115.2 667.5 119 669.5C 123.6 671.9 128.6 671.3 135.2 667.8L 141.1 664.5L 146.6 667.5C 150.6 669.6 153.4 670.5 156.6 670.4C 166 670.2 169.7 665.3 168.7 653.9C 168.2 647.7 168.3 647 169.9 647C 171.4 647 172.2 649.1 174.4 657.9zM 393.7 651.6C 392.2 653.2 341 654.8 341 653.2C 341 652.8 341.7 651.7 342.4 650.7C 343.5 649.2 344.4 649.1 349 650C 357.4 651.6 376.5 651.1 384 649.1C 390.2 647.5 390.6 647.5 392.4 649.2C 393.5 650.1 394.1 651.2 393.7 651.6zM 491.8 658.7C 488.4 659.4 475.7 660.2 463.7 660.6C 443.5 661.3 442 661.2 442.6 659.6C 443.2 658.1 444.6 658 454.4 658.3C 467.3 658.8 477.6 657.8 487.5 655.2C 494.4 653.4 494.5 653.4 496.3 655.4C 498.2 657.4 498.1 657.5 491.8 658.7zM 397 658.9C 397.8 660.6 397.6 660.9 394.9 661.5C 393.1 661.9 381.8 662.2 369.6 662.2C 352.8 662.1 346.4 661.8 343 660.6C 340.5 659.8 338.7 659.1 339 659.1C 339.3 659 350.9 658.8 364.8 658.6C 378.7 658.4 390.3 658 390.5 657.8C 391.8 656.5 396.1 657.3 397 658.9zM 500.1 664.6C 500.7 665.4 501 666.3 500.6 666.7C 499.6 667.7 449.1 669.4 442.7 668.6C 432.2 667.3 437.8 666.1 454.8 666C 470.5 666 493.6 664.7 494.5 663.8C 495.5 662.8 499 663.3 500.1 664.6zM 358.5 666.9C 364.5 667.4 374.7 667.5 381.1 667.2L 392.9 666.7L 393.5 670.6C 393.8 672.8 395.5 677.6 397.2 681.5C 401.3 690.8 401.7 693.9 399.2 697.1C 394.2 703.4 382.3 706.9 365.8 707C 361.6 707 350.3 707.9 340.8 709.1C 331.3 710.2 318.3 711.1 312 711.1C 293.3 711 272.4 708.3 270.9 705.8C 269.8 704.1 274.8 698.1 279 696C 281.1 694.9 286 693.2 290.1 692.1C 298.4 689.9 312.2 685.1 319 682.2C 323.5 680.3 336.1 670.6 339 666.9C 340.2 665.3 341.2 665 344 665.5C 345.9 665.9 352.4 666.5 358.5 666.9zM 464.4 674.1C 475.4 674 487 673.7 490.1 673.4L 495.8 672.8L 497.4 678.6C 498.4 681.9 499.7 686.2 500.5 688.3C 501.3 690.3 502 694.2 502 696.9C 502 701.3 501.6 702.1 497.7 705.7C 491.2 711.7 486.2 714.2 466.5 721.5C 456.6 725.1 443.9 729.9 438.4 732C 425 737.2 417.2 739 407.4 739C 394.8 739 391 737 391 730.1C 391 726.3 395 721.6 402.7 716.4C 415.2 708 425.7 698.7 433.1 689.4C 435.8 686 438 683 438 682.7C 438 680.7 442.3 673.1 443.2 673.6C 443.7 674 453.3 674.2 464.4 674.1z"/>
<path style="stroke:none; fill:#000000" d="M 377.7 77.4C 372.7 78.8 368.1 81.9999 371 81.9999C 371.8 81.9999 374.7 81.2999 377.4 80.4999C 384.1 78.4999 389.6 78.5999 396.5 80.9999C 399.7 82.0999 402.9 82.9999 403.7 82.9999C 406.3 82.9999 404.9 80.9999 400.8 78.9C 395.5 76.2 384.5 75.4 377.7 77.4z"/>
<path style="stroke:none; fill:#000000" d="M 377.6 89.5C 374.9 90.3 372 91.6 371.1 92.5C 369.3 94.4 369.6 94.4 381.4 92C 388 90.7 391.9 91.2 398.1 94C 402.3 95.8 405.6 95.7 404.4 93.8C 404 93.2 401.4 91.7 398.6 90.4C 392.8 87.7 385.5 87.4 377.6 89.5z"/>
<path style="stroke:none; fill:#000000" d="M 301 94.9C 296.3 96.4 292 98.9999 292 100.5C 292 102.5 293.3 102.4 298.3 99.9C 303.3 97.3 308.7 97.1 313.5 99.4C 317 101.1 320 101 320 99.2C 320 98.7999 318 97.4 315.5 96.2C 310.9 93.9999 305.6 93.4999 301 94.9z"/>
<path style="stroke:none; fill:#000000" d="M 385.2 97.1C 382.2 98.2 380.6 99.8 378.6 103.7C 373.9 112.8 380.1 122.2 390.8 122.3C 396.7 122.4 401.5 119.9 403.6 115.8C 405.1 113 405.1 111.9 404 107.5C 403.3 104.8 402.3 101.7 401.8 100.7C 399.8 96.9 390.6 94.9 385.2 97.1zM 397.5 103.5C 397.5 105 396.7 105.6 394.3 105.8C 390.8 106.1 389.9 104.5 392.2 102.2C 394.1 100.3 397.5 101.2 397.5 103.5zM 397.2 112.4C 398.7 114.6 397.9 115.6 394.4 115.7C 390.6 115.8 389 113.9 390.9 111.6C 392.2 110.1 396 110.6 397.2 112.4z"/>
<path style="stroke:none; fill:#000000" d="M 305.2 103.9C 293.4 112.5 300.8 129.5 314.3 125C 323.8 121.9 326 109.1 318.2 103C 314.6 100.1 310 100.5 305.2 103.9zM 315.6 106.1C 316.2 107.1 314.5 109 313 109C 312.7 109 311.9 108.6 311.1 108.1C 309.4 107 310.6 105 313 105C 314 105 315.2 105.5 315.6 106.1zM 316.8 113.6C 316.3 116.2 313.3 117.7 311.8 116.2C 310.7 115.1 310.9 114.6 312.4 113.4C 315 111.5 317.2 111.6 316.8 113.6z"/>
<path style="stroke:none; fill:#000000" d="M 479.5 102.9C 475.6 104 471 108.4 468.5 113.4C 465.7 118.9 465.5 121.2 467 125.7C 468.3 129.4 471.6 131 477.6 131C 481.4 131 482.7 130.5 485.1 127.9C 486.7 126.2 488 124.4 488 124C 488 121.5 482.5 116.9 478.9 116.4C 476.8 116 475 115.3 475 114.8C 475 112.5 482.8 106 485.5 106C 487.2 106 488 105.5 487.8 104.8C 487.3 103.3 482.2 102.2 479.5 102.9zM 480.7 121.5C 481.5 123.6 478.2 127 475.4 127C 472.3 127 471.2 123.4 473.7 121.5C 476.1 119.6 479.9 119.6 480.7 121.5z"/>
<path style="stroke:none; fill:#000000" d="M 376.6 123.9C 375.4 125.8 380.9 128.3 386.8 128.4C 395.1 128.5 400.2 127.3 399.8 125.2C 399.5 123.9 398.7 123.6 396.5 124C 391.8 124.7 381.7 124.6 379.3 123.7C 378.1 123.3 376.9 123.3 376.6 123.9z"/>
<path style="stroke:none; fill:#000000" d="M 314 127.2C 312.6 127.7 308.7 128 305.3 127.7C 300.4 127.3 299 127.5 299 128.6C 299 132.1 314.2 132.8 317.1 129.4C 318.8 127.3 317 126 314 127.2z"/>
<path style="stroke:none; fill:#000000" d="M 327.4 128.1C 322.4 129.5 320.8 132.7 322.3 138.2C 323.8 143.9 334.9 147.6 341.4 144.5C 345.6 142.5 345.6 140.4 341.4 140.7C 332.9 141.2 331.2 141.1 329.1 139.9C 326.4 138.2 325.4 134.5 327 132.5C 328.6 130.6 334.9 130.6 337.4 132.5C 339.9 134.4 341 134.4 341 132.5C 341 129.1 332.8 126.5 327.4 128.1z"/>
<path style="stroke:none; fill:#000000" d="M 401.5 146C 401.1 146.6 401.3 147.7 402 148.5C 402.9 149.6 402.5 150.2 400.2 151.4C 396.5 153.3 384.9 156.4 375 158.1C 366.2 159.6 343.3 159.9 334.1 158.6C 328.8 157.9 327.8 158 328.2 159.1C 329.7 163.6 361.5 164.8 381.4 161.1C 388 159.9 396.7 157.6 400.8 156C 406.5 153.7 409 153.1 412.1 153.6C 418.3 154.6 417 151.9 409.8 148.5C 406.3 146.9 403.2 145.5 402.8 145.3C 402.4 145.1 401.8 145.4 401.5 146z"/>
<path style="stroke:none; fill:#000000" d="M 126 112C 116 113.9 104.6 120 106.8 122.2C 107.5 122.9 110.5 121.9 115.6 119.4C 122.6 115.9 124.3 115.5 132.7 115.2C 141 114.8 143.6 114.1 141.2 112.6C 139.5 111.6 130.3 111.2 126 112z"/>
<path style="stroke:none; fill:#000000" d="M 202.5 112.6C 199 113.4 193 116.3 193 117C 193 118.7 195.9 118.6 203 116.8C 211.4 114.6 221.1 115 226.1 117.5C 229.2 119.1 234 119.5 234 118.1C 234 117.6 231.6 116.2 228.8 114.9C 224.7 113.2 221.3 112.6 214 112.4C 208.8 112.2 203.6 112.3 202.5 112.6z"/>
<path style="stroke:none; fill:#000000" d="M 125.2 125.6C 119.2 127.2 114.9 129.2 113.1 131.3C 110.9 134 113.8 134.2 119.2 131.6C 126.8 128 133.5 126.7 140.8 127.5C 145 128 147 127.8 147 127.1C 147 123.9 134.5 123.1 125.2 125.6z"/>
<path style="stroke:none; fill:#000000" d="M 201.2 126.9C 192.2 130 191.1 133.3 199.8 131.1C 211.9 128 215.5 127.8 227 129.5C 231.9 130.2 232.4 130.2 231.2 128.8C 228 124.8 210.4 123.7 201.2 126.9z"/>
<path style="stroke:none; fill:#000000" d="M 129.5 133.3C 122.7 136 120 139.5 120 145.6C 120 148.5 120.8 150 123.9 153.1C 127.4 156.7 128.2 157 133.1 157C 139.9 157 144.4 154.4 146.5 149.3C 148.4 144.8 147.4 139.6 143.7 135.6C 141.1 132.6 134 131.5 129.5 133.3zM 136.3 138.4C 137 140.2 136.2 141 133.8 141C 131.7 141 131.5 139.9 133.2 138.2C 134.8 136.6 135.7 136.7 136.3 138.4zM 137 149C 137 151.4 133.8 151.7 132 149.5C 131 148.3 131 147.7 132 146.5C 133.6 144.6 137 146.3 137 149z"/>
<path style="stroke:none; fill:#000000" d="M 210.5 133.4C 206.8 135 204.6 137.6 203.4 141.5C 201.9 146.1 202.8 148.6 207 152.4C 214.2 158.9 223.9 158.3 228.3 151C 231.5 145.5 230.9 141 226 135.9C 222.8 132.5 221.8 132 217.9 132C 215.5 132.1 212.2 132.7 210.5 133.4zM 218.3 138.4C 219.2 140.7 216.4 142.5 214.5 141C 213.3 140 213.2 139.4 214.1 138.4C 215.6 136.6 217.6 136.6 218.3 138.4zM 220.4 147.6C 222.9 150 222.3 150.6 218 150.2C 213.8 149.8 213.2 149.2 215.2 147.2C 216.8 145.6 218.5 145.7 220.4 147.6z"/>
<path style="stroke:none; fill:#000000" d="M 56.2 158.6C 52.8 161 54.5 162.3 60.1 161.6C 62.8 161.2 65 161.2 65 161.5C 65 161.8 64 163.4 62.8 165.1C 60.7 167.9 60.7 168.3 62 170.8C 62.9 172.2 65.2 174.1 67.2 174.8C 70.5 176.1 71.2 176.1 73.5 174.6C 78.6 171.3 75.9 162.6 68.7 159.1C 63.5 156.6 59.3 156.4 56.2 158.6zM 70 168.4C 70 169.9 68.2 171.5 67.4 170.7C 66.7 170 68.1 167 69.1 167C 69.6 167 70 167.6 70 168.4z"/>
<path style="stroke:none; fill:#000000" d="M 202.4 158.1C 200.7 160.8 207.5 163 217 162.9C 225.4 162.7 229 161.9 230.4 159.8C 232 157.2 230.4 156.6 225.8 157.9C 220.9 159.4 213.1 159.5 207.1 158.1C 204.7 157.6 202.8 157.6 202.4 158.1z"/>
<path style="stroke:none; fill:#000000" d="M 123 160.3C 123 162.7 125.3 163.9 131.2 164.6C 138.2 165.4 145.5 164.4 147.6 162.3C 149.8 160 147.7 159 143.3 160.2C 139.4 161.3 127.5 160.9 124.8 159.6C 123.5 159 123 159.2 123 160.3z"/>
<path style="stroke:none; fill:#000000" d="M 171.3 162.5C 164.9 165.2 166.6 173.3 173.9 175.4C 178.2 176.6 185.3 174.6 184.8 172.2C 184.5 170.8 183.5 170.6 178.9 170.8C 175 171.1 173 170.7 172.2 169.7C 170.4 167.6 173.9 164.9 178 165.2C 182.3 165.6 182.9 163.5 178.9 162.1C 175 160.8 175.3 160.8 171.3 162.5z"/>
<path style="stroke:none; fill:#000000" d="M 127.9 180.3C 127.1 181 125.7 181.9 124.8 182.2C 122.1 183.3 120.8 186.6 122.5 188C 123.6 188.9 124.4 188.8 126.4 187.4C 128.2 186.3 129.4 186.1 130.3 186.8C 133.9 189.6 146 192 160.5 192.6C 179.2 193.4 212.5 191.5 219.5 189.2C 222.3 188.3 225.5 187.7 226.7 187.9C 232.6 188.6 231.7 184.9 225.4 182.5C 220.4 180.6 218.5 180.9 218.5 183.5C 218.5 184.7 217.4 185.6 215.5 186.2C 210.6 187.5 189 188.5 167 188.4C 148.4 188.4 145.8 188.2 139.2 186C 133 184 132 183.4 132.2 181.6C 132.6 179.1 129.9 178.3 127.9 180.3z"/>
</g>
</g>
</svg>